<svg width="53" height="53" viewBox="0 0 53 53" fill="none" xmlns="http://www.w3.org/2000/svg">
<circle cx="26.5" cy="26.5" r="26.5" transform="matrix(1 0 0 -1 0 53)" fill="#01C0ED"/>
<path d="M31 24.5C30.1716 24.5 29.5 25.1716 29.5 26C29.5 26.8284 30.1716 27.5 31 27.5L31 24.5ZM33.0607 27.0607C33.6464 26.4749 33.6464 25.5251 33.0607 24.9393L23.5147 15.3934C22.9289 14.8076 21.9792 14.8076 21.3934 15.3934C20.8076 15.9792 20.8076 16.9289 21.3934 17.5147L29.8787 26L21.3934 34.4853C20.8076 35.0711 20.8076 36.0208 21.3934 36.6066C21.9792 37.1924 22.9289 37.1924 23.5147 36.6066L33.0607 27.0607ZM31 27.5L32 27.5L32 24.5L31 24.5L31 27.5Z" fill="white"/>
</svg>
