<svg width="53" height="53" viewBox="0 0 53 53" fill="none" xmlns="http://www.w3.org/2000/svg">
<circle cx="26.5" cy="26.5" r="26.5" transform="rotate(180 26.5 26.5)" fill="#01C0ED"/>
<path d="M22 24.5C22.8284 24.5 23.5 25.1716 23.5 26C23.5 26.8284 22.8284 27.5 22 27.5L22 24.5ZM19.9393 27.0607C19.3536 26.4749 19.3536 25.5251 19.9393 24.9393L29.4853 15.3934C30.0711 14.8076 31.0208 14.8076 31.6066 15.3934C32.1924 15.9792 32.1924 16.9289 31.6066 17.5147L23.1213 26L31.6066 34.4853C32.1924 35.0711 32.1924 36.0208 31.6066 36.6066C31.0208 37.1924 30.0711 37.1924 29.4853 36.6066L19.9393 27.0607ZM22 27.5L21 27.5L21 24.5L22 24.5L22 27.5Z" fill="white"/>
</svg>
