<svg width="159" height="42" viewBox="0 0 159 42" fill="none" xmlns="http://www.w3.org/2000/svg">
<path d="M60.7505 26.1992C60.5474 26.2127 60.3436 26.2127 60.1405 26.1992C58.6871 26.1192 56.8371 26.0792 54.5905 26.0792H47.9805C48.2178 26.0495 48.4453 25.9666 48.6462 25.8368C48.847 25.7069 49.016 25.5334 49.1405 25.3292C49.4453 24.784 49.5876 24.1628 49.5505 23.5392V10.5392C49.5887 9.91555 49.4464 9.29409 49.1405 8.74925C49.0149 8.54507 48.8458 8.37109 48.6453 8.23973C48.4448 8.10836 48.2178 8.02283 47.9805 7.98924H53.2205C54.6305 7.98924 55.9405 7.98924 57.1405 7.98924H57.3405C58.1805 7.98924 58.9605 7.92924 59.6905 7.86924C60.4205 7.80924 60.6005 7.86924 60.6005 7.98924V8.43922V10.9292C60.5643 10.6922 60.4679 10.4684 60.3205 10.2792C60.1128 10.0541 59.8562 9.87956 59.5705 9.76924C59.1279 9.60518 58.6684 9.49114 58.2005 9.42924C57.4675 9.33062 56.7298 9.27055 55.9905 9.24925C55.1905 9.24925 54.0905 9.24925 52.6705 9.24925C52.4601 9.22209 52.2471 9.27179 52.0705 9.38923C52.0439 9.53133 52.0439 9.67712 52.0705 9.81922V15.6592C52.0705 15.8892 52.2005 15.9992 52.4705 15.9992H57.8805C58.1785 16.0252 58.4786 15.9916 58.7636 15.9006C59.0485 15.8097 59.3126 15.663 59.5405 15.4692C59.8773 15.1216 60.0975 14.6777 60.1705 14.1992C60.1705 14.9392 60.1705 16.4792 60.1705 18.7992C60.1407 18.5633 60.0578 18.3371 59.9278 18.1379C59.7979 17.9387 59.6244 17.7716 59.4205 17.6492C58.8948 17.3026 58.2802 17.1151 57.6505 17.1092C56.4505 17.0292 54.6505 17.0092 52.3205 17.0192C52.1505 17.0192 52.0705 17.0892 52.0705 17.2292V23.3192C52.0705 24.1792 52.5705 24.7092 53.5805 24.9192C53.8338 24.9592 54.7038 24.9792 56.1905 24.9792C56.8062 24.9853 57.4205 24.9182 58.0205 24.7792C58.9173 24.5652 59.7722 24.2036 60.5505 23.7092C61.0361 23.3922 61.4048 22.9252 61.6005 22.3792V22.3792L61.0205 26.0692V26.2392L60.7505 26.1992Z" fill="#094875"/>
<path d="M65.5303 26.1095C65.7662 26.0798 65.9924 25.9968 66.1916 25.8669C66.3908 25.737 66.5579 25.5635 66.6803 25.3595C66.9886 24.8153 67.1343 24.194 67.1003 23.5695L67.1603 10.4595C67.1943 9.83495 67.0486 9.21371 66.7403 8.66949C66.6158 8.46438 66.447 8.2897 66.2463 8.1582C66.0456 8.02671 65.818 7.94172 65.5803 7.90948V7.90948C68.8069 7.81615 71.5069 7.7695 73.6803 7.7695C76.4566 7.62845 79.1969 8.44771 81.4403 10.0895C82.4219 10.8737 83.205 11.878 83.7262 13.0212C84.2474 14.1643 84.492 15.4142 84.4403 16.6695C84.4403 19.9228 83.3736 22.3862 81.2403 24.0595C79.0102 25.669 76.2826 26.4377 73.5403 26.2295H65.5403L65.5303 26.1095ZM69.7003 22.7095C69.6536 23.0516 69.6964 23.3999 69.8243 23.7206C69.9522 24.0413 70.161 24.3234 70.4303 24.5395C71.3482 24.9279 72.3473 25.0858 73.3403 24.9995C78.8003 24.9995 81.5269 22.3328 81.5203 16.9995C81.5136 11.6662 78.7403 8.96948 73.2003 8.90948H71.2003C70.2003 8.99948 69.6503 9.28949 69.6503 9.75949L69.7003 22.7095Z" fill="#094875"/>
<path d="M103.72 8.55957C103.596 8.35398 103.427 8.17892 103.226 8.04736C103.025 7.9158 102.798 7.8311 102.56 7.79956H107.31C107.072 7.8311 106.844 7.9158 106.643 8.04736C106.442 8.17892 106.274 8.35398 106.15 8.55957C105.85 9.10309 105.708 9.71962 105.74 10.3396V18.4695C105.88 19.5277 105.793 20.6034 105.486 21.6257C105.18 22.648 104.659 23.5934 103.96 24.3996C103.164 25.1548 102.219 25.7352 101.186 26.1038C100.153 26.4723 99.0537 26.6207 97.9596 26.5396C92.4596 26.5396 89.713 23.9562 89.7197 18.7896V10.3396C89.7549 9.71491 89.609 9.09336 89.2996 8.54956C89.1741 8.34538 89.005 8.1714 88.8045 8.04004C88.604 7.90867 88.377 7.82314 88.1396 7.78955V7.78955H93.8396C93.5938 7.82831 93.3606 7.92461 93.159 8.07059C92.9574 8.21656 92.7932 8.40807 92.6796 8.62955C92.3416 9.37959 92.1808 10.1974 92.2096 11.0196V18.3195C92.2096 20.7095 92.6996 22.4496 93.6796 23.5596C94.6596 24.6696 96.2496 25.2195 98.4396 25.2195C102.2 25.2195 104.08 23.0529 104.08 18.7195V10.3596C104.136 9.7374 104.011 9.11232 103.72 8.55957V8.55957Z" fill="#094875"/>
<path d="M117.65 26.1695H115.16H114.53H112.04C112.92 26.0595 113.43 25.3895 113.59 24.1695V24.0595C113.603 23.9165 113.603 23.7725 113.59 23.6295V10.5495C113.625 9.92483 113.479 9.30327 113.17 8.75947C113.044 8.55529 112.875 8.38132 112.675 8.24995C112.474 8.11859 112.247 8.03309 112.01 7.99949V7.99949L119.17 7.93947C120.476 7.93712 121.76 8.28224 122.89 8.93947C123.437 9.2649 123.889 9.72981 124.198 10.2867C124.507 10.8436 124.663 11.4726 124.65 12.1095C124.65 13.9995 123.46 15.6195 121.1 16.9795C121.009 17.0586 120.908 17.1258 120.8 17.1795L120.41 17.3395L120.04 17.4595L119.78 17.5495C119.614 17.6025 119.443 17.6393 119.27 17.6595C119.043 17.6995 118.623 17.7395 118.01 17.7795C117.341 17.7457 116.671 17.7826 116.01 17.8895L116.1 23.6495C116.061 24.27 116.204 24.8884 116.51 25.4295C116.634 25.6351 116.802 25.8101 117.003 25.9417C117.204 26.0733 117.432 26.1579 117.67 26.1895V26.1895L117.65 26.1695ZM121.74 12.1695C121.751 11.6387 121.667 11.1101 121.49 10.6095C121.376 10.2418 121.144 9.92197 120.83 9.69947V9.64949C119.982 9.01992 118.932 8.72445 117.88 8.81947C116.79 8.81947 116.21 8.97948 116.13 9.29948C116.124 9.39605 116.124 9.49292 116.13 9.58949L116.04 16.5895H117.18C117.759 16.5992 118.338 16.532 118.9 16.3895V16.3895H118.95C119.6 16.2324 120.189 15.8841 120.64 15.3895C121.381 14.5452 121.778 13.4527 121.75 12.3295L121.74 12.1695Z" fill="#094875"/>
<path d="M133.88 7.62925C133.411 7.64217 132.958 7.8071 132.59 8.09925C132.229 8.37853 131.918 8.7166 131.67 9.09925V23.4993C131.653 23.9825 131.805 24.4565 132.1 24.8393C132.297 25.135 132.55 25.3889 132.845 25.5863C133.14 25.7836 133.472 25.9206 133.82 25.9893C133.82 25.9893 133.87 26.0593 133.82 26.0693C133.589 26.148 133.341 26.1686 133.1 26.1292C130.64 26.0392 128.74 26.0392 127.41 26.1292C127.21 26.1679 127.002 26.1285 126.83 26.0193C127.443 25.9767 128.024 25.7303 128.48 25.3193C128.905 24.9512 129.168 24.43 129.21 23.8693V10.0293C129.217 9.68209 129.138 9.3386 128.98 9.02927C128.838 8.65985 128.628 8.32056 128.36 8.02927C128.258 7.90396 128.13 7.80236 127.985 7.73154C127.84 7.66073 127.681 7.62241 127.52 7.61927C127.67 7.61927 128.75 7.54925 130.75 7.53925C131.794 7.49045 132.84 7.52053 133.88 7.62925V7.62925Z" fill="#094875"/>
<path d="M139.649 26.1095H136.189C136.391 26.0759 136.583 26.0019 136.755 25.8919C136.927 25.7819 137.075 25.6382 137.189 25.4695C137.439 25.1195 137.699 24.7595 137.989 24.3995C138.756 23.1704 139.424 21.8831 139.989 20.5495C140.989 18.3295 141.789 16.5495 142.319 15.3495C143.719 11.9361 144.923 8.88279 145.929 6.18945C148.489 12.2828 151.016 18.0861 153.509 23.5995C153.737 24.2628 154.11 24.8674 154.599 25.3695C154.985 25.7624 155.486 26.0217 156.029 26.1095H151.599C150.779 23.9628 150.129 22.2961 149.649 21.1095H141.489L139.649 26.1095ZM149.039 19.7895L145.519 11.2295L141.879 20.0195H149.149L149.039 19.7895Z" fill="#094875"/>
<path fill-rule="evenodd" clip-rule="evenodd" d="M154.5 5.52982C154.074 5.52982 153.659 5.65591 153.305 5.89215C152.952 6.1284 152.676 6.46416 152.513 6.85703C152.351 7.24989 152.308 7.68218 152.391 8.09924C152.474 8.5163 152.679 8.89939 152.979 9.20007C153.28 9.50076 153.663 9.70552 154.08 9.78848C154.497 9.87144 154.93 9.82887 155.322 9.66614C155.715 9.50341 156.051 9.22783 156.287 8.87427C156.524 8.5207 156.65 8.10504 156.65 7.67981C156.65 7.10959 156.423 6.56272 156.02 6.15952C155.617 5.75631 155.07 5.52982 154.5 5.52982V5.52982ZM154.02 7.58981V6.74982H154.47C154.602 6.73964 154.734 6.7788 154.84 6.8598C154.88 6.90224 154.91 6.95275 154.929 7.00793C154.948 7.06312 154.955 7.12171 154.95 7.17981C154.954 7.23415 154.945 7.28867 154.924 7.33902C154.903 7.38937 154.871 7.43413 154.83 7.46979C154.729 7.55371 154.6 7.59659 154.47 7.58981H154.02ZM154.52 7.98981H154.02V8.98981H153.56V6.3298H154.46C154.71 6.31633 154.958 6.39058 155.16 6.53979C155.247 6.61675 155.316 6.71252 155.361 6.81992C155.406 6.92731 155.426 7.04351 155.42 7.15979C155.418 7.32026 155.369 7.47673 155.28 7.6098C155.191 7.71414 155.082 7.79923 154.96 7.8598L155.53 8.8598V8.95981H155.07L154.52 7.95981V7.98981ZM154.52 5.0498C155.04 5.0498 155.548 5.20405 155.981 5.49304C156.413 5.78203 156.75 6.19277 156.949 6.67334C157.149 7.15391 157.201 7.68273 157.099 8.1929C156.998 8.70307 156.747 9.17168 156.379 9.53949C156.012 9.9073 155.543 10.1578 155.033 10.2593C154.523 10.3608 153.994 10.3087 153.513 10.1096C153.033 9.91056 152.622 9.57346 152.333 9.14096C152.044 8.70846 151.89 8.19997 151.89 7.67981C151.892 6.98654 152.167 6.3221 152.656 5.83002C153.144 5.33793 153.806 5.05768 154.5 5.0498H154.52Z" fill="#005488"/>
<path d="M50.649 30.0738V35.5693H49.9318V30.0738H50.649ZM52.4154 30.0738V30.6701H48.1692V30.0738H52.4154ZM53.8837 31.4854V35.5693H53.1816V31.4854H53.8837ZM53.1288 30.4022C53.1288 30.2889 53.1627 30.1933 53.2307 30.1153C53.3011 30.0373 53.4043 29.9983 53.5402 29.9983C53.6735 29.9983 53.7755 30.0373 53.8459 30.1153C53.9189 30.1933 53.9554 30.2889 53.9554 30.4022C53.9554 30.5104 53.9189 30.6035 53.8459 30.6815C53.7755 30.757 53.6735 30.7947 53.5402 30.7947C53.4043 30.7947 53.3011 30.757 53.2307 30.6815C53.1627 30.6035 53.1288 30.5104 53.1288 30.4022ZM56.6994 35.6448C56.415 35.6448 56.1571 35.597 55.9256 35.5014C55.6966 35.4033 55.4991 35.2661 55.333 35.09C55.1695 34.9138 55.0437 34.705 54.9556 34.4634C54.8675 34.2219 54.8235 33.9577 54.8235 33.6708V33.5123C54.8235 33.1801 54.8725 32.8845 54.9707 32.6253C55.0688 32.3636 55.2022 32.1422 55.3708 31.961C55.5394 31.7798 55.7306 31.6427 55.9445 31.5496C56.1584 31.4565 56.3798 31.4099 56.6088 31.4099C56.9007 31.4099 57.1523 31.4603 57.3637 31.5609C57.5775 31.6616 57.7524 31.8025 57.8883 31.9836C58.0242 32.1623 58.1248 32.3737 58.1903 32.6177C58.2557 32.8593 58.2884 33.1235 58.2884 33.4104V33.7236H55.2387V33.1537H57.5901V33.1009C57.5801 32.9197 57.5423 32.7436 57.4769 32.5725C57.414 32.4013 57.3133 32.2604 57.1749 32.1497C57.0365 32.039 56.8478 31.9836 56.6088 31.9836C56.4503 31.9836 56.3043 32.0176 56.1709 32.0856C56.0376 32.151 55.9231 32.2491 55.8275 32.38C55.7319 32.5108 55.6576 32.6706 55.6048 32.8593C55.5519 33.048 55.5255 33.2657 55.5255 33.5123V33.6708C55.5255 33.8646 55.5519 34.047 55.6048 34.2181C55.6601 34.3867 55.7394 34.5351 55.8426 34.6635C55.9483 34.7918 56.0753 34.8925 56.2238 34.9654C56.3748 35.0384 56.5459 35.0749 56.7371 35.0749C56.9837 35.0749 57.1926 35.0246 57.3637 34.9239C57.5348 34.8233 57.6845 34.6886 57.8128 34.52L58.2356 34.856C58.1475 34.9893 58.0355 35.1164 57.8996 35.2372C57.7637 35.358 57.5964 35.4561 57.3976 35.5316C57.2014 35.6071 56.9686 35.6448 56.6994 35.6448ZM55.2198 30.8815L56.3181 29.8926H56.8919L57.9902 30.8815H57.2467L56.605 30.2852L55.9634 30.8815H55.2198ZM57.7109 30.2134L58.2431 29.2396H58.998L58.2393 30.2134H57.7109ZM59.8019 32.3573V35.5693H59.1037V31.4854H59.7642L59.8019 32.3573ZM59.6359 33.3726L59.3452 33.3613C59.3477 33.082 59.3893 32.8241 59.4698 32.5875C59.5503 32.3485 59.6635 32.1409 59.8095 31.9648C59.9554 31.7886 60.129 31.6528 60.3304 31.5571C60.5342 31.459 60.7594 31.4099 61.006 31.4099C61.2073 31.4099 61.3884 31.4376 61.5495 31.493C61.7105 31.5458 61.8477 31.6314 61.9609 31.7496C62.0766 31.8679 62.1647 32.0214 62.2251 32.2101C62.2855 32.3963 62.3157 32.624 62.3157 32.8933V35.5693H61.6137V32.8857C61.6137 32.6718 61.5822 32.5007 61.5193 32.3724C61.4564 32.2416 61.3645 32.1472 61.2438 32.0893C61.123 32.0289 60.9745 31.9987 60.7984 31.9987C60.6248 31.9987 60.4662 32.0352 60.3228 32.1082C60.1819 32.1812 60.0599 32.2818 59.9567 32.4102C59.856 32.5385 59.7768 32.6857 59.7189 32.8518C59.6635 33.0153 59.6359 33.1889 59.6359 33.3726ZM66.0222 31.4854H66.6563V35.4825C66.6563 35.8424 66.5833 36.1493 66.4374 36.4035C66.2914 36.6576 66.0876 36.8501 65.8259 36.981C65.5667 37.1143 65.2673 37.181 64.9276 37.181C64.7867 37.181 64.6206 37.1584 64.4294 37.1131C64.2406 37.0703 64.0544 36.9961 63.8708 36.8904C63.6896 36.7872 63.5373 36.6476 63.414 36.4714L63.7802 36.0562C63.9513 36.2626 64.1299 36.406 64.3161 36.4865C64.5049 36.567 64.6911 36.6073 64.8747 36.6073C65.0962 36.6073 65.2874 36.5658 65.4485 36.4827C65.6095 36.3997 65.7341 36.2764 65.8221 36.1129C65.9127 35.9518 65.958 35.753 65.958 35.5165V32.3837L66.0222 31.4854ZM63.2102 33.5727V33.4934C63.2102 33.1814 63.2467 32.8983 63.3197 32.6442C63.3952 32.3875 63.5021 32.1673 63.6405 31.9836C63.7814 31.8 63.9513 31.659 64.1501 31.5609C64.3488 31.4603 64.5728 31.4099 64.8219 31.4099C65.0786 31.4099 65.3025 31.4552 65.4938 31.5458C65.6875 31.6339 65.8511 31.7635 65.9844 31.9346C66.1203 32.1032 66.2272 32.307 66.3052 32.546C66.3833 32.7851 66.4374 33.0556 66.4675 33.3575V33.7048C66.4399 34.0042 66.3858 34.2735 66.3052 34.5125C66.2272 34.7515 66.1203 34.9554 65.9844 35.124C65.8511 35.2925 65.6875 35.4221 65.4938 35.5127C65.3 35.6008 65.0735 35.6448 64.8144 35.6448C64.5703 35.6448 64.3488 35.5932 64.1501 35.4901C63.9538 35.3869 63.7852 35.2422 63.6443 35.056C63.5034 34.8698 63.3952 34.6509 63.3197 34.3993C63.2467 34.1451 63.2102 33.8696 63.2102 33.5727ZM63.9085 33.4934V33.5727C63.9085 33.7765 63.9286 33.9677 63.9689 34.1464C64.0117 34.325 64.0758 34.4823 64.1614 34.6182C64.2495 34.7541 64.3614 34.861 64.4973 34.939C64.6332 35.0145 64.7955 35.0522 64.9842 35.0522C65.2157 35.0522 65.4069 35.0032 65.5579 34.905C65.7089 34.8069 65.8284 34.6773 65.9165 34.5163C66.0071 34.3552 66.0775 34.1804 66.1279 33.9916V33.082C66.1002 32.9436 66.0574 32.8102 65.9995 32.6819C65.9442 32.5511 65.8712 32.4353 65.7806 32.3347C65.6925 32.2315 65.5831 32.1497 65.4522 32.0893C65.3214 32.0289 65.1679 31.9987 64.9918 31.9987C64.8005 31.9987 64.6357 32.039 64.4973 32.1195C64.3614 32.1975 64.2495 32.3057 64.1614 32.4441C64.0758 32.58 64.0117 32.7385 63.9689 32.9197C63.9286 33.0984 63.9085 33.2896 63.9085 33.4934ZM71.7744 30.5607L69.9551 35.5693H69.2115L71.3063 30.0738H71.7857L71.7744 30.5607ZM73.2992 35.5693L71.4762 30.5607L71.4649 30.0738H71.9442L74.0466 35.5693H73.2992ZM73.2049 33.5349V34.1313H70.1174V33.5349H73.2049ZM75.3752 32.3573V35.5693H74.6769V31.4854H75.3374L75.3752 32.3573ZM75.2091 33.3726L74.9185 33.3613C74.921 33.082 74.9625 32.8241 75.043 32.5875C75.1235 32.3485 75.2368 32.1409 75.3827 31.9648C75.5287 31.7886 75.7023 31.6528 75.9036 31.5571C76.1074 31.459 76.3326 31.4099 76.5792 31.4099C76.7805 31.4099 76.9617 31.4376 77.1227 31.493C77.2838 31.5458 77.4209 31.6314 77.5341 31.7496C77.6499 31.8679 77.7379 32.0214 77.7983 32.2101C77.8587 32.3963 77.8889 32.624 77.8889 32.8933V35.5693H77.1869V32.8857C77.1869 32.6718 77.1554 32.5007 77.0925 32.3724C77.0296 32.2416 76.9378 32.1472 76.817 32.0893C76.6962 32.0289 76.5478 31.9987 76.3716 31.9987C76.198 31.9987 76.0395 32.0352 75.896 32.1082C75.7551 32.1812 75.6331 32.2818 75.5299 32.4102C75.4293 32.5385 75.35 32.6857 75.2921 32.8518C75.2368 33.0153 75.2091 33.1889 75.2091 33.3726ZM79.6478 29.7718V35.5693H78.9495V29.7718H79.6478ZM79.4817 33.3726L79.1911 33.3613C79.1936 33.082 79.2351 32.8241 79.3157 32.5875C79.3962 32.3485 79.5094 32.1409 79.6554 31.9648C79.8013 31.7886 79.9749 31.6528 80.1762 31.5571C80.38 31.459 80.6052 31.4099 80.8518 31.4099C81.0531 31.4099 81.2343 31.4376 81.3954 31.493C81.5564 31.5458 81.6935 31.6314 81.8068 31.7496C81.9225 31.8679 82.0106 32.0214 82.071 32.2101C82.1314 32.3963 82.1616 32.624 82.1616 32.8933V35.5693H81.4595V32.8857C81.4595 32.6718 81.4281 32.5007 81.3652 32.3724C81.3023 32.2416 81.2104 32.1472 81.0896 32.0893C80.9688 32.0289 80.8204 31.9987 80.6442 31.9987C80.4706 31.9987 80.3121 32.0352 80.1687 32.1082C80.0278 32.1812 79.9057 32.2818 79.8026 32.4102C79.7019 32.5385 79.6226 32.6857 79.5648 32.8518C79.5094 33.0153 79.4817 33.1889 79.4817 33.3726ZM84.9395 33.5727V33.4859C84.9395 33.1915 84.9823 32.9184 85.0679 32.6668C85.1534 32.4127 85.2767 32.1925 85.4378 32.0063C85.5988 31.8176 85.7938 31.6716 86.0228 31.5685C86.2518 31.4628 86.5084 31.4099 86.7928 31.4099C87.0796 31.4099 87.3375 31.4628 87.5665 31.5685C87.798 31.6716 87.9943 31.8176 88.1553 32.0063C88.3189 32.1925 88.4434 32.4127 88.529 32.6668C88.6146 32.9184 88.6573 33.1915 88.6573 33.4859V33.5727C88.6573 33.8671 88.6146 34.1401 88.529 34.3917C88.4434 34.6433 88.3189 34.8635 88.1553 35.0522C87.9943 35.2384 87.7993 35.3844 87.5703 35.4901C87.3438 35.5932 87.0872 35.6448 86.8003 35.6448C86.5135 35.6448 86.2555 35.5932 86.0266 35.4901C85.7976 35.3844 85.6013 35.2384 85.4378 35.0522C85.2767 34.8635 85.1534 34.6433 85.0679 34.3917C84.9823 34.1401 84.9395 33.8671 84.9395 33.5727ZM85.6378 33.4859V33.5727C85.6378 33.7765 85.6617 33.969 85.7095 34.1502C85.7573 34.3288 85.829 34.4873 85.9247 34.6257C86.0228 34.7641 86.1448 34.8736 86.2908 34.9541C86.4367 35.0321 86.6066 35.0711 86.8003 35.0711C86.9916 35.0711 87.1589 35.0321 87.3023 34.9541C87.4483 34.8736 87.569 34.7641 87.6647 34.6257C87.7603 34.4873 87.832 34.3288 87.8798 34.1502C87.9301 33.969 87.9553 33.7765 87.9553 33.5727V33.4859C87.9553 33.2846 87.9301 33.0946 87.8798 32.9159C87.832 32.7348 87.759 32.575 87.6609 32.4366C87.5653 32.2957 87.4445 32.1849 87.2985 32.1044C87.1551 32.0239 86.9865 31.9836 86.7928 31.9836C86.6015 31.9836 86.4329 32.0239 86.287 32.1044C86.1436 32.1849 86.0228 32.2957 85.9247 32.4366C85.829 32.575 85.7573 32.7348 85.7095 32.9159C85.6617 33.0946 85.6378 33.2846 85.6378 33.4859ZM90.2313 32.3573V35.5693H89.533V31.4854H90.1935L90.2313 32.3573ZM90.0652 33.3726L89.7746 33.3613C89.7771 33.082 89.8186 32.8241 89.8991 32.5875C89.9796 32.3485 90.0929 32.1409 90.2388 31.9648C90.3848 31.7886 90.5584 31.6528 90.7597 31.5571C90.9635 31.459 91.1887 31.4099 91.4353 31.4099C91.6366 31.4099 91.8178 31.4376 91.9788 31.493C92.1399 31.5458 92.277 31.6314 92.3902 31.7496C92.506 31.8679 92.594 32.0214 92.6544 32.2101C92.7148 32.3963 92.745 32.624 92.745 32.8933V35.5693H92.043V32.8857C92.043 32.6718 92.0115 32.5007 91.9486 32.3724C91.8857 32.2416 91.7939 32.1472 91.6731 32.0893C91.5523 32.0289 91.4038 31.9987 91.2277 31.9987C91.0541 31.9987 90.8956 32.0352 90.7521 32.1082C90.6112 32.1812 90.4892 32.2818 90.386 32.4102C90.2854 32.5385 90.2061 32.6857 90.1482 32.8518C90.0929 33.0153 90.0652 33.1889 90.0652 33.3726ZM94.5643 29.7718V35.5693H93.8622V29.7718H94.5643ZM96.4439 31.4854V35.5693H95.7419V31.4854H96.4439ZM95.6891 30.4022C95.6891 30.2889 95.723 30.1933 95.791 30.1153C95.8614 30.0373 95.9646 29.9983 96.1005 29.9983C96.2338 29.9983 96.3357 30.0373 96.4062 30.1153C96.4792 30.1933 96.5157 30.2889 96.5157 30.4022C96.5157 30.5104 96.4792 30.6035 96.4062 30.6815C96.3357 30.757 96.2338 30.7947 96.1005 30.7947C95.9646 30.7947 95.8614 30.757 95.791 30.6815C95.723 30.6035 95.6891 30.5104 95.6891 30.4022ZM98.2632 32.3573V35.5693H97.5649V31.4854H98.2255L98.2632 32.3573ZM98.0971 33.3726L97.8065 33.3613C97.809 33.082 97.8505 32.8241 97.9311 32.5875C98.0116 32.3485 98.1248 32.1409 98.2708 31.9648C98.4167 31.7886 98.5903 31.6528 98.7916 31.5571C98.9954 31.459 99.2207 31.4099 99.4673 31.4099C99.6686 31.4099 99.8497 31.4376 100.011 31.493C100.172 31.5458 100.309 31.6314 100.422 31.7496C100.538 31.8679 100.626 32.0214 100.686 32.2101C100.747 32.3963 100.777 32.624 100.777 32.8933V35.5693H100.075V32.8857C100.075 32.6718 100.043 32.5007 99.9806 32.3724C99.9177 32.2416 99.8258 32.1472 99.705 32.0893C99.5843 32.0289 99.4358 31.9987 99.2597 31.9987C99.086 31.9987 98.9275 32.0352 98.7841 32.1082C98.6432 32.1812 98.5211 32.2818 98.418 32.4102C98.3173 32.5385 98.238 32.6857 98.1802 32.8518C98.1248 33.0153 98.0971 33.1889 98.0971 33.3726ZM103.532 35.6448C103.248 35.6448 102.99 35.597 102.759 35.5014C102.53 35.4033 102.332 35.2661 102.166 35.09C102.002 34.9138 101.877 34.705 101.789 34.4634C101.7 34.2219 101.656 33.9577 101.656 33.6708V33.5123C101.656 33.1801 101.705 32.8845 101.804 32.6253C101.902 32.3636 102.035 32.1422 102.204 31.961C102.372 31.7798 102.564 31.6427 102.777 31.5496C102.991 31.4565 103.213 31.4099 103.442 31.4099C103.734 31.4099 103.985 31.4603 104.197 31.5609C104.41 31.6616 104.585 31.8025 104.721 31.9836C104.857 32.1623 104.958 32.3737 105.023 32.6177C105.089 32.8593 105.121 33.1235 105.121 33.4104V33.7236H102.072V33.1537H104.423V33.1009C104.413 32.9197 104.375 32.7436 104.31 32.5725C104.247 32.4013 104.146 32.2604 104.008 32.1497C103.869 32.039 103.681 31.9836 103.442 31.9836C103.283 31.9836 103.137 32.0176 103.004 32.0856C102.871 32.151 102.756 32.2491 102.66 32.38C102.565 32.5108 102.491 32.6706 102.438 32.8593C102.385 33.048 102.358 33.2657 102.358 33.5123V33.6708C102.358 33.8646 102.385 34.047 102.438 34.2181C102.493 34.3867 102.572 34.5351 102.676 34.6635C102.781 34.7918 102.908 34.8925 103.057 34.9654C103.208 35.0384 103.379 35.0749 103.57 35.0749C103.817 35.0749 104.025 35.0246 104.197 34.9239C104.368 34.8233 104.517 34.6886 104.646 34.52L105.068 34.856C104.98 34.9893 104.868 35.1164 104.733 35.2372C104.597 35.358 104.429 35.4561 104.231 35.5316C104.034 35.6071 103.802 35.6448 103.532 35.6448ZM109.488 35.0711C109.654 35.0711 109.808 35.0371 109.949 34.9692C110.09 34.9013 110.205 34.8082 110.296 34.6899C110.387 34.5691 110.438 34.432 110.451 34.2785H111.115C111.103 34.52 111.021 34.7453 110.87 34.9541C110.721 35.1604 110.526 35.3278 110.285 35.4561C110.043 35.5819 109.778 35.6448 109.488 35.6448C109.181 35.6448 108.913 35.5907 108.684 35.4825C108.458 35.3743 108.269 35.2259 108.118 35.0371C107.97 34.8484 107.858 34.632 107.782 34.3879C107.709 34.1413 107.673 33.8809 107.673 33.6066V33.4481C107.673 33.1738 107.709 32.9147 107.782 32.6706C107.858 32.424 107.97 32.2063 108.118 32.0176C108.269 31.8289 108.458 31.6804 108.684 31.5722C108.913 31.464 109.181 31.4099 109.488 31.4099C109.808 31.4099 110.087 31.4754 110.326 31.6062C110.565 31.7345 110.753 31.9107 110.889 32.1346C111.027 32.3561 111.103 32.6077 111.115 32.8895H110.451C110.438 32.7209 110.39 32.5687 110.307 32.4328C110.227 32.2969 110.116 32.1887 109.975 32.1082C109.837 32.0252 109.675 31.9836 109.488 31.9836C109.274 31.9836 109.095 32.0264 108.949 32.112C108.805 32.195 108.691 32.3082 108.605 32.4517C108.522 32.5926 108.462 32.7498 108.424 32.9235C108.389 33.0946 108.371 33.2695 108.371 33.4481V33.6066C108.371 33.7853 108.389 33.9614 108.424 34.1351C108.459 34.3087 108.518 34.4659 108.601 34.6069C108.687 34.7478 108.801 34.861 108.945 34.9466C109.091 35.0296 109.272 35.0711 109.488 35.0711ZM112.598 29.7718V35.5693H111.9V29.7718H112.598ZM112.432 33.3726L112.142 33.3613C112.144 33.082 112.186 32.8241 112.266 32.5875C112.347 32.3485 112.46 32.1409 112.606 31.9648C112.752 31.7886 112.926 31.6528 113.127 31.5571C113.331 31.459 113.556 31.4099 113.802 31.4099C114.004 31.4099 114.185 31.4376 114.346 31.493C114.507 31.5458 114.644 31.6314 114.757 31.7496C114.873 31.8679 114.961 32.0214 115.022 32.2101C115.082 32.3963 115.112 32.624 115.112 32.8933V35.5693H114.41V32.8857C114.41 32.6718 114.379 32.5007 114.316 32.3724C114.253 32.2416 114.161 32.1472 114.04 32.0893C113.919 32.0289 113.771 31.9987 113.595 31.9987C113.421 31.9987 113.263 32.0352 113.119 32.1082C112.978 32.1812 112.856 32.2818 112.753 32.4102C112.653 32.5385 112.573 32.6857 112.515 32.8518C112.46 33.0153 112.432 33.1889 112.432 33.3726ZM118.566 34.8711V32.7687C118.566 32.6077 118.533 32.468 118.468 32.3498C118.405 32.229 118.309 32.1359 118.181 32.0705C118.052 32.005 117.894 31.9723 117.705 31.9723C117.529 31.9723 117.374 32.0025 117.241 32.0629C117.11 32.1233 117.007 32.2026 116.931 32.3007C116.858 32.3988 116.822 32.5045 116.822 32.6177H116.124C116.124 32.4718 116.161 32.3271 116.237 32.1837C116.312 32.0403 116.421 31.9107 116.562 31.7949C116.705 31.6767 116.876 31.5836 117.075 31.5156C117.276 31.4452 117.5 31.4099 117.747 31.4099C118.044 31.4099 118.305 31.4603 118.532 31.5609C118.761 31.6616 118.939 31.8138 119.068 32.0176C119.199 32.2189 119.264 32.4718 119.264 32.7763V34.6786C119.264 34.8145 119.275 34.9591 119.298 35.1126C119.323 35.2661 119.36 35.3982 119.407 35.5089V35.5693H118.679C118.644 35.4888 118.616 35.3819 118.596 35.2485C118.576 35.1126 118.566 34.9868 118.566 34.8711ZM118.687 33.0933L118.694 33.584H117.988C117.79 33.584 117.612 33.6003 117.456 33.6331C117.3 33.6633 117.169 33.7098 117.064 33.7727C116.958 33.8356 116.877 33.9149 116.822 34.0105C116.767 34.1036 116.739 34.2131 116.739 34.3389C116.739 34.4672 116.768 34.5842 116.826 34.6899C116.884 34.7956 116.97 34.8799 117.086 34.9428C117.204 35.0032 117.349 35.0334 117.52 35.0334C117.734 35.0334 117.923 34.9881 118.086 34.8975C118.25 34.8069 118.38 34.6962 118.475 34.5653C118.573 34.4345 118.626 34.3074 118.634 34.1841L118.932 34.52C118.914 34.6257 118.866 34.7427 118.788 34.8711C118.71 34.9994 118.606 35.1227 118.475 35.241C118.347 35.3567 118.193 35.4536 118.015 35.5316C117.839 35.6071 117.64 35.6448 117.418 35.6448C117.142 35.6448 116.899 35.5907 116.69 35.4825C116.484 35.3743 116.323 35.2296 116.207 35.0485C116.094 34.8648 116.037 34.6597 116.037 34.4332C116.037 34.2143 116.08 34.0218 116.165 33.8558C116.251 33.6872 116.374 33.5475 116.535 33.4368C116.696 33.3236 116.89 33.238 117.116 33.1801C117.343 33.1223 117.596 33.0933 117.875 33.0933H118.687ZM116.437 30.8815L117.535 29.8926H118.109L119.207 30.8815H118.464L117.822 30.2852L117.181 30.8815H116.437ZM118.928 30.2134L119.46 29.2396H120.215L119.457 30.2134H118.928ZM122.072 31.4854V32.0214H119.864V31.4854H122.072ZM120.612 30.4927H121.31V34.5578C121.31 34.6962 121.331 34.8006 121.374 34.8711C121.417 34.9415 121.472 34.9881 121.54 35.0107C121.608 35.0334 121.681 35.0447 121.759 35.0447C121.817 35.0447 121.877 35.0397 121.94 35.0296C122.006 35.017 122.055 35.0069 122.087 34.9994L122.091 35.5693C122.036 35.5869 121.963 35.6033 121.872 35.6184C121.784 35.636 121.677 35.6448 121.551 35.6448C121.38 35.6448 121.223 35.6109 121.08 35.5429C120.936 35.475 120.822 35.3617 120.736 35.2032C120.653 35.0422 120.612 34.8258 120.612 34.554V30.4927ZM125.567 29.7718V35.5693H124.865V29.7718H125.567ZM130.512 31.157H131.048C131.048 31.4313 131.011 31.6616 130.938 31.8478C130.868 32.034 130.743 32.1736 130.565 32.2667C130.386 32.3598 130.134 32.4064 129.81 32.4064V31.9761C130.036 31.9761 130.199 31.9484 130.297 31.8931C130.395 31.8352 130.455 31.7459 130.478 31.6251C130.5 31.5043 130.512 31.3483 130.512 31.157ZM129.187 34.6257V31.4854H129.889V35.5693H129.221L129.187 34.6257ZM129.319 33.7652L129.61 33.7576C129.61 34.0294 129.581 34.281 129.523 34.5125C129.468 34.7415 129.377 34.9403 129.251 35.1089C129.125 35.2774 128.961 35.4096 128.757 35.5052C128.553 35.5983 128.305 35.6448 128.013 35.6448C127.814 35.6448 127.632 35.6159 127.466 35.558C127.302 35.5001 127.161 35.4108 127.043 35.29C126.925 35.1692 126.833 35.012 126.768 34.8182C126.705 34.6245 126.673 34.3917 126.673 34.12V31.4854H127.371V34.1275C127.371 34.3112 127.392 34.4634 127.432 34.5842C127.475 34.7025 127.531 34.7968 127.602 34.8673C127.675 34.9352 127.755 34.983 127.843 35.0107C127.934 35.0384 128.027 35.0522 128.123 35.0522C128.42 35.0522 128.655 34.9956 128.828 34.8824C129.002 34.7666 129.127 34.6119 129.202 34.4181C129.28 34.2219 129.319 34.0042 129.319 33.7652ZM134.947 31.0363H135.509C135.509 31.3131 135.471 31.5521 135.396 31.7534C135.32 31.9522 135.195 32.1057 135.018 32.2139C134.842 32.3221 134.603 32.3762 134.301 32.3762V31.9383C134.49 31.9383 134.63 31.9006 134.72 31.8251C134.813 31.7496 134.874 31.6439 134.901 31.5081C134.932 31.3722 134.947 31.2149 134.947 31.0363ZM131.289 33.5727V33.4859C131.289 33.1915 131.332 32.9184 131.418 32.6668C131.503 32.4127 131.627 32.1925 131.788 32.0063C131.949 31.8176 132.144 31.6716 132.373 31.5685C132.602 31.4628 132.858 31.4099 133.143 31.4099C133.429 31.4099 133.687 31.4628 133.916 31.5685C134.148 31.6716 134.344 31.8176 134.505 32.0063C134.666 32.1925 134.789 32.4127 134.875 32.6668C134.961 32.9184 135.003 33.1915 135.003 33.4859V33.5727C135.003 33.8671 134.961 34.1401 134.875 34.3917C134.789 34.6433 134.666 34.8635 134.505 35.0522C134.344 35.2384 134.149 35.3844 133.92 35.4901C133.694 35.5932 133.437 35.6448 133.15 35.6448C132.863 35.6448 132.605 35.5932 132.376 35.4901C132.147 35.3844 131.951 35.2384 131.788 35.0522C131.627 34.8635 131.503 34.6433 131.418 34.3917C131.332 34.1401 131.289 33.8671 131.289 33.5727ZM131.988 33.4859V33.5727C131.988 33.7765 132.012 33.969 132.059 34.1502C132.107 34.3288 132.179 34.4873 132.274 34.6257C132.373 34.7641 132.495 34.8736 132.641 34.9541C132.787 35.0321 132.956 35.0711 133.15 35.0711C133.341 35.0711 133.509 35.0321 133.652 34.9541C133.798 34.8736 133.919 34.7641 134.014 34.6257C134.11 34.4873 134.182 34.3288 134.23 34.1502C134.28 33.969 134.305 33.7765 134.305 33.5727V33.4859C134.305 33.2846 134.28 33.0946 134.23 32.9159C134.182 32.7348 134.109 32.575 134.011 32.4366C133.915 32.2957 133.794 32.1849 133.648 32.1044C133.505 32.0239 133.336 31.9836 133.143 31.9836C132.951 31.9836 132.783 32.0239 132.637 32.1044C132.493 32.1849 132.373 32.2957 132.274 32.4366C132.179 32.575 132.107 32.7348 132.059 32.9159C132.012 33.0946 131.988 33.2846 131.988 33.4859ZM132.705 36.5356C132.705 36.4224 132.739 36.3267 132.807 36.2487C132.877 36.1707 132.98 36.1317 133.116 36.1317C133.25 36.1317 133.351 36.1707 133.422 36.2487C133.495 36.3267 133.531 36.4224 133.531 36.5356C133.531 36.6438 133.495 36.7356 133.422 36.8111C133.351 36.8891 133.25 36.9281 133.116 36.9281C132.98 36.9281 132.877 36.8891 132.807 36.8111C132.739 36.7356 132.705 36.6438 132.705 36.5356ZM136.596 32.3573V35.5693H135.898V31.4854H136.558L136.596 32.3573ZM136.43 33.3726L136.139 33.3613C136.142 33.082 136.183 32.8241 136.264 32.5875C136.345 32.3485 136.458 32.1409 136.604 31.9648C136.75 31.7886 136.923 31.6528 137.125 31.5571C137.328 31.459 137.554 31.4099 137.8 31.4099C138.002 31.4099 138.183 31.4376 138.344 31.493C138.505 31.5458 138.642 31.6314 138.755 31.7496C138.871 31.8679 138.959 32.0214 139.019 32.2101C139.08 32.3963 139.11 32.624 139.11 32.8933V35.5693H138.408V32.8857C138.408 32.6718 138.376 32.5007 138.314 32.3724C138.251 32.2416 138.159 32.1472 138.038 32.0893C137.917 32.0289 137.769 31.9987 137.593 31.9987C137.419 31.9987 137.26 32.0352 137.117 32.1082C136.976 32.1812 136.854 32.2818 136.751 32.4102C136.65 32.5385 136.571 32.6857 136.513 32.8518C136.458 33.0153 136.43 33.1889 136.43 33.3726ZM142.816 31.4854H143.451V35.4825C143.451 35.8424 143.378 36.1493 143.232 36.4035C143.086 36.6576 142.882 36.8501 142.62 36.981C142.361 37.1143 142.062 37.181 141.722 37.181C141.581 37.181 141.415 37.1584 141.224 37.1131C141.035 37.0703 140.849 36.9961 140.665 36.8904C140.484 36.7872 140.332 36.6476 140.208 36.4714L140.574 36.0562C140.746 36.2626 140.924 36.406 141.11 36.4865C141.299 36.567 141.485 36.6073 141.669 36.6073C141.89 36.6073 142.082 36.5658 142.243 36.4827C142.404 36.3997 142.528 36.2764 142.616 36.1129C142.707 35.9518 142.752 35.753 142.752 35.5165V32.3837L142.816 31.4854ZM140.004 33.5727V33.4934C140.004 33.1814 140.041 32.8983 140.114 32.6442C140.189 32.3875 140.296 32.1673 140.435 31.9836C140.576 31.8 140.746 31.659 140.944 31.5609C141.143 31.4603 141.367 31.4099 141.616 31.4099C141.873 31.4099 142.097 31.4552 142.288 31.5458C142.482 31.6339 142.645 31.7635 142.779 31.9346C142.915 32.1032 143.021 32.307 143.099 32.546C143.177 32.7851 143.232 33.0556 143.262 33.3575V33.7048C143.234 34.0042 143.18 34.2735 143.099 34.5125C143.021 34.7515 142.915 34.9554 142.779 35.124C142.645 35.2925 142.482 35.4221 142.288 35.5127C142.094 35.6008 141.868 35.6448 141.609 35.6448C141.365 35.6448 141.143 35.5932 140.944 35.4901C140.748 35.3869 140.579 35.2422 140.439 35.056C140.298 34.8698 140.189 34.6509 140.114 34.3993C140.041 34.1451 140.004 33.8696 140.004 33.5727ZM140.703 33.4934V33.5727C140.703 33.7765 140.723 33.9677 140.763 34.1464C140.806 34.325 140.87 34.4823 140.956 34.6182C141.044 34.7541 141.156 34.861 141.292 34.939C141.427 35.0145 141.59 35.0522 141.778 35.0522C142.01 35.0522 142.201 35.0032 142.352 34.905C142.503 34.8069 142.623 34.6773 142.711 34.5163C142.801 34.3552 142.872 34.1804 142.922 33.9916V33.082C142.894 32.9436 142.852 32.8102 142.794 32.6819C142.738 32.5511 142.665 32.4353 142.575 32.3347C142.487 32.2315 142.377 32.1497 142.246 32.0893C142.116 32.0289 141.962 31.9987 141.786 31.9987C141.595 31.9987 141.43 32.039 141.292 32.1195C141.156 32.1975 141.044 32.3057 140.956 32.4441C140.87 32.58 140.806 32.7385 140.763 32.9197C140.723 33.0984 140.703 33.2896 140.703 33.4934ZM148.063 35.0711C148.229 35.0711 148.382 35.0371 148.523 34.9692C148.664 34.9013 148.78 34.8082 148.871 34.6899C148.961 34.5691 149.013 34.432 149.025 34.2785H149.69C149.677 34.52 149.595 34.7453 149.444 34.9541C149.296 35.1604 149.101 35.3278 148.859 35.4561C148.618 35.5819 148.352 35.6448 148.063 35.6448C147.756 35.6448 147.488 35.5907 147.259 35.4825C147.032 35.3743 146.844 35.2259 146.693 35.0371C146.544 34.8484 146.432 34.632 146.357 34.3879C146.284 34.1413 146.247 33.8809 146.247 33.6066V33.4481C146.247 33.1738 146.284 32.9147 146.357 32.6706C146.432 32.424 146.544 32.2063 146.693 32.0176C146.844 31.8289 147.032 31.6804 147.259 31.5722C147.488 31.464 147.756 31.4099 148.063 31.4099C148.382 31.4099 148.662 31.4754 148.901 31.6062C149.14 31.7345 149.327 31.9107 149.463 32.1346C149.602 32.3561 149.677 32.6077 149.69 32.8895H149.025C149.013 32.7209 148.965 32.5687 148.882 32.4328C148.801 32.2969 148.691 32.1887 148.55 32.1082C148.411 32.0252 148.249 31.9836 148.063 31.9836C147.849 31.9836 147.669 32.0264 147.523 32.112C147.38 32.195 147.265 32.3082 147.18 32.4517C147.097 32.5926 147.036 32.7498 146.998 32.9235C146.963 33.0946 146.946 33.2695 146.946 33.4481V33.6066C146.946 33.7853 146.963 33.9614 146.998 34.1351C147.034 34.3087 147.093 34.4659 147.176 34.6069C147.261 34.7478 147.376 34.861 147.519 34.9466C147.665 35.0296 147.846 35.0711 148.063 35.0711ZM152.883 34.8711V32.7687C152.883 32.6077 152.85 32.468 152.785 32.3498C152.722 32.229 152.626 32.1359 152.498 32.0705C152.369 32.005 152.211 31.9723 152.022 31.9723C151.846 31.9723 151.691 32.0025 151.558 32.0629C151.427 32.1233 151.324 32.2026 151.248 32.3007C151.175 32.3988 151.139 32.5045 151.139 32.6177H150.441C150.441 32.4718 150.478 32.3271 150.554 32.1837C150.629 32.0403 150.738 31.9107 150.879 31.7949C151.022 31.6767 151.193 31.5836 151.392 31.5156C151.593 31.4452 151.817 31.4099 152.064 31.4099C152.361 31.4099 152.622 31.4603 152.849 31.5609C153.078 31.6616 153.256 31.8138 153.385 32.0176C153.516 32.2189 153.581 32.4718 153.581 32.7763V34.6786C153.581 34.8145 153.592 34.9591 153.615 35.1126C153.64 35.2661 153.677 35.3982 153.724 35.5089V35.5693H152.996C152.961 35.4888 152.933 35.3819 152.913 35.2485C152.893 35.1126 152.883 34.9868 152.883 34.8711ZM153.004 33.0933L153.011 33.584H152.305C152.106 33.584 151.929 33.6003 151.773 33.6331C151.617 33.6633 151.486 33.7098 151.381 33.7727C151.275 33.8356 151.194 33.9149 151.139 34.0105C151.084 34.1036 151.056 34.2131 151.056 34.3389C151.056 34.4672 151.085 34.5842 151.143 34.6899C151.201 34.7956 151.287 34.8799 151.403 34.9428C151.521 35.0032 151.666 35.0334 151.837 35.0334C152.051 35.0334 152.24 34.9881 152.403 34.8975C152.567 34.8069 152.697 34.6962 152.792 34.5653C152.89 34.4345 152.943 34.3074 152.951 34.1841L153.249 34.52C153.231 34.6257 153.183 34.7427 153.105 34.8711C153.027 34.9994 152.923 35.1227 152.792 35.241C152.664 35.3567 152.51 35.4536 152.332 35.5316C152.156 35.6071 151.957 35.6448 151.735 35.6448C151.459 35.6448 151.216 35.5907 151.007 35.4825C150.801 35.3743 150.639 35.2296 150.524 35.0485C150.411 34.8648 150.354 34.6597 150.354 34.4332C150.354 34.2143 150.397 34.0218 150.482 33.8558C150.568 33.6872 150.691 33.5475 150.852 33.4368C151.013 33.3236 151.207 33.238 151.433 33.1801C151.66 33.1223 151.913 33.0933 152.192 33.0933H153.004ZM154.494 33.5727V33.4859C154.494 33.1915 154.537 32.9184 154.623 32.6668C154.708 32.4127 154.832 32.1925 154.993 32.0063C155.154 31.8176 155.349 31.6716 155.578 31.5685C155.807 31.4628 156.063 31.4099 156.348 31.4099C156.635 31.4099 156.892 31.4628 157.121 31.5685C157.353 31.6716 157.549 31.8176 157.71 32.0063C157.874 32.1925 157.998 32.4127 158.084 32.6668C158.169 32.9184 158.212 33.1915 158.212 33.4859V33.5727C158.212 33.8671 158.169 34.1401 158.084 34.3917C157.998 34.6433 157.874 34.8635 157.71 35.0522C157.549 35.2384 157.354 35.3844 157.125 35.4901C156.899 35.5932 156.642 35.6448 156.355 35.6448C156.068 35.6448 155.81 35.5932 155.581 35.4901C155.352 35.3844 155.156 35.2384 154.993 35.0522C154.832 34.8635 154.708 34.6433 154.623 34.3917C154.537 34.1401 154.494 33.8671 154.494 33.5727ZM155.193 33.4859V33.5727C155.193 33.7765 155.217 33.969 155.264 34.1502C155.312 34.3288 155.384 34.4873 155.48 34.6257C155.578 34.7641 155.7 34.8736 155.846 34.9541C155.992 35.0321 156.161 35.0711 156.355 35.0711C156.546 35.0711 156.714 35.0321 156.857 34.9541C157.003 34.8736 157.124 34.7641 157.22 34.6257C157.315 34.4873 157.387 34.3288 157.435 34.1502C157.485 33.969 157.51 33.7765 157.51 33.5727V33.4859C157.51 33.2846 157.485 33.0946 157.435 32.9159C157.387 32.7348 157.314 32.575 157.216 32.4366C157.12 32.2957 156.999 32.1849 156.853 32.1044C156.71 32.0239 156.541 31.9836 156.348 31.9836C156.156 31.9836 155.988 32.0239 155.842 32.1044C155.698 32.1849 155.578 32.2957 155.48 32.4366C155.384 32.575 155.312 32.7348 155.264 32.9159C155.217 33.0946 155.193 33.2846 155.193 33.4859Z" fill="#005B94"/>
<path fill-rule="evenodd" clip-rule="evenodd" d="M16.7176 41.154C11.4578 40.1688 6.79216 37.165 3.71814 32.7847C0.644123 28.4045 -0.594306 22.9954 0.26761 17.714C1.84761 18.824 9.93761 20.364 13.0376 22.074C19.2176 25.494 19.0376 32.764 16.7076 41.184L16.7176 41.154ZM18.4476 0.604057C14.1018 1.05242 10.0126 2.87607 6.77509 5.80959C3.5376 8.74311 1.32087 12.6334 0.447603 16.9141C0.602951 16.9214 0.757122 16.9448 0.90761 16.984C13.9076 18.474 27.5676 18.484 28.6176 3.73403C28.6009 3.23862 28.7447 2.75109 29.0276 2.34405C25.7276 0.838212 22.0864 0.237673 18.4776 0.604057H18.4476ZM22.2576 7.04403C22.5392 7.48439 22.7287 7.97724 22.8147 8.49285C22.9006 9.00846 22.8812 9.53613 22.7576 10.044C22.5414 10.9841 21.987 11.8118 21.2 12.3696C20.413 12.9274 19.4483 13.1762 18.4897 13.0687C17.5311 12.9612 16.6455 12.505 16.0016 11.7868C15.3576 11.0686 15.0003 10.1386 14.9976 9.17403L19.2976 9.81405L22.2976 7.07403L22.2576 7.04403ZM17.2576 4.27404L24.1876 4.53405L19.1876 9.21404L11.7376 8.10406L17.2576 4.27404Z" fill="#005488"/>
<path fill-rule="evenodd" clip-rule="evenodd" d="M30.4178 3.06396C34.2445 5.1748 37.2961 8.45386 39.1268 12.4222C40.9575 16.3906 41.4714 20.8403 40.5935 25.1215C39.7156 29.4027 37.4919 33.291 34.2471 36.2186C31.0023 39.1462 26.9065 40.9596 22.5578 41.394C21.7243 41.482 20.8858 41.5154 20.0479 41.494C26.0479 30.074 29.9978 17.124 30.4478 4.49396C30.5081 4.0184 30.498 3.53657 30.4178 3.06396V3.06396Z" fill="#36C0C8"/>
</svg>
