<svg width="20" height="20" viewBox="0 0 20 20" fill="none" xmlns="http://www.w3.org/2000/svg">
<g id="&#240;&#159;&#166;&#134; icon &#34;clock outline&#34;">
<g id="Group">
<path id="Vector" d="M9.90842 1.65137C8.27552 1.65137 6.6793 2.13558 5.32159 3.04277C3.96389 3.94995 2.90569 5.23938 2.2808 6.74798C1.65592 8.25658 1.49242 9.9166 1.81099 11.5181C2.12955 13.1196 2.91586 14.5907 4.07049 15.7454C5.22513 16.9 6.69622 17.6863 8.29774 18.0049C9.89926 18.3234 11.5593 18.1599 13.0679 17.5351C14.5765 16.9102 15.8659 15.852 16.7731 14.4943C17.6803 13.1366 18.1645 11.5403 18.1645 9.90744C18.1645 8.82324 17.9509 7.74965 17.536 6.74798C17.1211 5.7463 16.513 4.83616 15.7463 4.06951C14.9797 3.30287 14.0696 2.69473 13.0679 2.27982C12.0662 1.86492 10.9926 1.65137 9.90842 1.65137ZM9.90842 16.5123C8.6021 16.5123 7.32512 16.1249 6.23896 15.3992C5.15279 14.6734 4.30623 13.6419 3.80633 12.435C3.30642 11.2281 3.17562 9.90011 3.43047 8.6189C3.68532 7.33768 4.31437 6.16081 5.23808 5.2371C6.16179 4.31339 7.33866 3.68434 8.61988 3.42949C9.90109 3.17464 11.2291 3.30544 12.436 3.80535C13.6429 4.30525 14.6744 5.15181 15.4002 6.23798C16.1259 7.32414 16.5133 8.60112 16.5133 9.90744C16.5133 11.6592 15.8174 13.3391 14.5788 14.5778C13.3401 15.8164 11.6601 16.5123 9.90842 16.5123Z" fill="#20BEC6"/>
<path id="Vector_2" d="M13.2101 9.08173H10.7332V6.6049C10.7332 6.38594 10.6463 6.17594 10.4914 6.02111C10.3366 5.86628 10.1266 5.7793 9.90764 5.7793C9.68867 5.7793 9.47868 5.86628 9.32385 6.02111C9.16901 6.17594 9.08203 6.38594 9.08203 6.6049V9.90733C9.08203 10.1263 9.16901 10.3363 9.32385 10.4911C9.47868 10.646 9.68867 10.7329 9.90764 10.7329H13.2101C13.429 10.7329 13.639 10.646 13.7939 10.4911C13.9487 10.3363 14.0357 10.1263 14.0357 9.90733C14.0357 9.68837 13.9487 9.47837 13.7939 9.32354C13.639 9.16871 13.429 9.08173 13.2101 9.08173Z" fill="#20BEC6"/>
</g>
</g>
</svg>
