<svg width="19" height="19" viewBox="0 0 19 19" fill="none" xmlns="http://www.w3.org/2000/svg">
<path id="Vector" d="M10.8571 0C9.1221 0 7.58119 0.816539 6.58715 2.08344C6.42905 2.06105 6.27161 2.03573 6.10741 2.03573C4.39074 2.03573 2.98711 3.31499 2.76116 4.97004C1.01938 5.56312 -0.19467 7.29914 0.0258512 9.28668C0.257229 11.3699 2.12164 12.8929 4.21761 12.8929H8.82151V8.14291C8.82151 7.76834 9.12549 7.46434 9.50004 7.46434C9.87458 7.46434 10.1786 7.76834 10.1786 8.14291V12.8929H14.7838C16.8757 12.8929 18.7368 11.3758 18.9729 9.29729C19.1982 7.31381 17.995 5.57989 16.2628 4.97799C16.0334 2.19108 13.7028 0 10.8571 0ZM10.1786 12.8929H8.82151V16.6834L7.26567 15.1275C7.20244 15.0625 7.12682 15.0108 7.04329 14.9755C6.95975 14.9402 6.86999 14.9221 6.77931 14.922C6.64433 14.9221 6.51242 14.9624 6.40046 15.0378C6.28849 15.1132 6.20156 15.2203 6.15077 15.3453C6.09997 15.4704 6.08763 15.6078 6.11532 15.7399C6.14301 15.872 6.20946 15.9929 6.30619 16.087L9.0203 18.8013C9.14755 18.9285 9.32011 19 9.50004 19C9.67996 19 9.85252 18.9285 9.97978 18.8013L12.6939 16.087C12.759 16.0245 12.811 15.9496 12.8468 15.8667C12.8826 15.7839 12.9015 15.6947 12.9025 15.6044C12.9034 15.5141 12.8863 15.4246 12.8522 15.341C12.818 15.2574 12.7676 15.1814 12.7037 15.1176C12.6399 15.0538 12.564 15.0033 12.4804 14.9692C12.3968 14.9351 12.3073 14.918 12.217 14.9189C12.1267 14.9198 12.0375 14.9387 11.9547 14.9745C11.8718 15.0104 11.7969 15.0624 11.7344 15.1275L10.1786 16.6834V12.8929Z" fill="#20BEC6"/>
</svg>
