<svg width="24" height="24" viewBox="0 0 24 24" fill="none" xmlns="http://www.w3.org/2000/svg">
<g id="Download from the Cloud">
<path id="Vector" d="M13.5996 1.59961C11.554 1.59961 9.73725 2.56226 8.56525 4.05586C8.37885 4.02946 8.19322 3.99961 7.99962 3.99961C5.97562 3.99961 4.32071 5.50778 4.05431 7.45898C2.00071 8.15818 0.569307 10.2048 0.829307 12.548C1.10211 15.004 3.30029 16.7996 5.77149 16.7996H11.1996V11.1996C11.1996 10.758 11.558 10.3996 11.9996 10.3996C12.4412 10.3996 12.7996 10.758 12.7996 11.1996V16.7996H18.2293C20.6957 16.7996 22.89 15.0109 23.1684 12.5605C23.434 10.2221 22.0155 8.17796 19.9731 7.46836C19.7027 4.18276 16.9548 1.59961 13.5996 1.59961ZM12.7996 16.7996H11.1996V21.2684L9.36524 19.434C9.29069 19.3573 9.20154 19.2964 9.10305 19.2548C9.00455 19.2132 8.89872 19.1918 8.79181 19.1918C8.63266 19.1918 8.47714 19.2393 8.34513 19.3282C8.21313 19.4171 8.11063 19.5434 8.05074 19.6908C7.99086 19.8383 7.97631 20.0002 8.00895 20.156C8.04159 20.3117 8.11995 20.4542 8.23399 20.5652L11.434 23.7652C11.584 23.9152 11.7875 23.9995 11.9996 23.9995C12.2118 23.9995 12.4152 23.9152 12.5652 23.7652L15.7652 20.5652C15.842 20.4915 15.9033 20.4032 15.9456 20.3055C15.9878 20.2078 16.0101 20.1027 16.0112 19.9962C16.0123 19.8898 15.9921 19.7842 15.9519 19.6857C15.9116 19.5871 15.8521 19.4976 15.7769 19.4224C15.7016 19.3471 15.6121 19.2876 15.5135 19.2474C15.415 19.2071 15.3094 19.187 15.203 19.1881C15.0966 19.1891 14.9914 19.2114 14.8937 19.2537C14.796 19.2959 14.7077 19.3572 14.634 19.434L12.7996 21.2684V16.7996Z" fill="white"/>
</g>
</svg>
