<svg width="17" height="13" viewBox="0 0 17 13" fill="none" xmlns="http://www.w3.org/2000/svg">
<g id="&#240;&#159;&#166;&#134; icon &#34;eye&#34;">
<path id="Vector" d="M11.0514 6.65072C11.0514 7.32706 10.7828 7.9757 10.3045 8.45394C9.82628 8.93218 9.17765 9.20086 8.50131 9.20086C7.82497 9.20086 7.17633 8.93218 6.69809 8.45394C6.21985 7.9757 5.95117 7.32706 5.95117 6.65072C5.95117 5.97438 6.21985 5.32575 6.69809 4.8475C7.17633 4.36926 7.82497 4.10059 8.50131 4.10059C9.17765 4.10059 9.82628 4.36926 10.3045 4.8475C10.7828 5.32575 11.0514 5.97438 11.0514 6.65072Z" fill="#20BEC6"/>
<path id="Vector_2" d="M16.9103 6.27054C15.076 2.6009 11.8186 0.700195 8.5 0.700195C5.18227 0.700195 1.92405 2.6009 0.0896508 6.27054C0.0306929 6.38853 0 6.51862 0 6.65051C0 6.78241 0.0306929 6.9125 0.0896508 7.03048C1.92405 10.7001 5.18142 12.6008 8.5 12.6008C11.8177 12.6008 15.076 10.7001 16.9103 7.03048C16.9693 6.9125 17 6.78241 17 6.65051C17 6.51862 16.9693 6.38853 16.9103 6.27054ZM8.5 10.9007C5.97621 10.9007 3.39803 9.52367 1.81014 6.65051C3.39803 3.77736 5.97537 2.40029 8.5 2.40029C11.0238 2.40029 13.602 3.77736 15.1899 6.65051C13.602 9.52367 11.0238 10.9007 8.5 10.9007Z" fill="#20BEC6"/>
</g>
</svg>
