<svg width="37" height="37" viewBox="0 0 37 37" fill="none" xmlns="http://www.w3.org/2000/svg">
<g clip-path="url(#clip0_1911_3242)">
<circle cx="18.5" cy="18.5" r="18.5" fill="#21BDC6"/>
<g clip-path="url(#clip1_1911_3242)">
<path d="M16.12 20.5593C16.03 20.5593 14.05 20.5593 13.15 20.5593C12.67 20.5593 12.52 20.3793 12.52 19.9293C12.52 18.7293 12.52 17.4993 12.52 16.2993C12.52 15.8193 12.7 15.6693 13.15 15.6693H16.12C16.12 15.5793 16.12 13.8393 16.12 13.0293C16.12 11.8293 16.33 10.6893 16.93 9.6393C17.56 8.5593 18.46 7.8393 19.6 7.4193C20.35 7.1493 21.1 7.0293 21.91 7.0293H24.85C25.27 7.0293 25.45 7.2093 25.45 7.6293V11.0493C25.45 11.4693 25.27 11.6493 24.85 11.6493C24.04 11.6493 23.23 11.6493 22.42 11.6793C21.61 11.6793 21.19 12.0693 21.19 12.9093C21.16 13.8093 21.19 14.6793 21.19 15.6093H24.67C25.15 15.6093 25.33 15.7893 25.33 16.2693V19.8993C25.33 20.3793 25.18 20.5293 24.67 20.5293C23.59 20.5293 21.28 20.5293 21.19 20.5293V30.3093C21.19 30.8193 21.04 30.9993 20.5 30.9993C19.24 30.9993 18.01 30.9993 16.75 30.9993C16.3 30.9993 16.12 30.8193 16.12 30.3693C16.12 27.2193 16.12 20.6493 16.12 20.5593Z" fill="white"/>
</g>
</g>
<defs>
<clipPath id="clip0_1911_3242">
<rect width="37" height="37" fill="white"/>
</clipPath>
<clipPath id="clip1_1911_3242">
<rect width="14" height="24" fill="white" transform="translate(12 7)"/>
</clipPath>
</defs>
</svg>
