<svg width="21" height="15" viewBox="0 0 21 15" fill="none" xmlns="http://www.w3.org/2000/svg">
<path id="Vector" d="M3.0003 0C2.17158 0 1.50035 0.610227 1.50035 1.36364V3.40909V4.77273H15.7498H19.4996V2.72727C19.4996 1.97386 18.8284 1.36364 17.9997 1.36364H8.3995L7.93662 0.661843C7.66589 0.251388 7.17777 0 6.65054 0H3.0003ZM1.12683 6.13636C0.370114 6.13636 -0.171774 6.80278 0.0502168 7.46005L2.27669 14.0372C2.47093 14.6092 3.05224 15 3.71072 15H10.5H17.2893C17.9478 15 18.5291 14.6092 18.7233 14.0372L20.9498 7.46005C21.1718 6.80278 20.6299 6.13636 19.8732 6.13636H10.5H1.12683Z" fill="#20BEC6"/>
</svg>
