<svg width="50" height="50" viewBox="0 0 50 50" fill="none" xmlns="http://www.w3.org/2000/svg">
<g id="Group 40046">
<path id="Ellipse 1903" d="M50 25C50 11.1929 38.8071 0 25 0C11.1929 0 0 11.1929 0 25C0 38.8071 11.1929 50 25 50C38.8071 50 50 38.8071 50 25Z" fill="#20BEC6"/>
<path id="Arrow 12" d="M28.5 23.5C27.6716 23.5 27 24.1716 27 25C27 25.8284 27.6716 26.5 28.5 26.5L28.5 23.5ZM30.5607 26.0607C31.1464 25.4749 31.1464 24.5251 30.5607 23.9393L21.0147 14.3934C20.4289 13.8076 19.4792 13.8076 18.8934 14.3934C18.3076 14.9792 18.3076 15.9289 18.8934 16.5147L27.3787 25L18.8934 33.4853C18.3076 34.0711 18.3076 35.0208 18.8934 35.6066C19.4792 36.1924 20.4289 36.1924 21.0147 35.6066L30.5607 26.0607ZM28.5 26.5L29.5 26.5L29.5 23.5L28.5 23.5L28.5 26.5Z" fill="white"/>
</g>
</svg>
