<svg width="50" height="50" viewBox="0 0 50 50" fill="none" xmlns="http://www.w3.org/2000/svg">
<g id="Group 40047">
<path id="Ellipse 1903" d="M0 25C0 11.1929 11.1929 0 25 0C38.8071 0 50 11.1929 50 25C50 38.8071 38.8071 50 25 50C11.1929 50 0 38.8071 0 25Z" fill="#20BEC6"/>
<path id="Arrow 12" d="M21.5 23.5C22.3284 23.5 23 24.1716 23 25C23 25.8284 22.3284 26.5 21.5 26.5L21.5 23.5ZM19.4393 26.0607C18.8536 25.4749 18.8536 24.5251 19.4393 23.9393L28.9853 14.3934C29.5711 13.8076 30.5208 13.8076 31.1066 14.3934C31.6924 14.9792 31.6924 15.9289 31.1066 16.5147L22.6213 25L31.1066 33.4853C31.6924 34.0711 31.6924 35.0208 31.1066 35.6066C30.5208 36.1924 29.5711 36.1924 28.9853 35.6066L19.4393 26.0607ZM21.5 26.5L20.5 26.5L20.5 23.5L21.5 23.5L21.5 26.5Z" fill="white"/>
</g>
</svg>
