<svg width="13" height="16" viewBox="0 0 13 16" fill="none" xmlns="http://www.w3.org/2000/svg">
<g id="&#240;&#159;&#166;&#134; icon &#34;User icon&#34;">
<path id="Vector" d="M6.5 7.80162C8.55156 7.80162 10.2143 6.1389 10.2143 4.08733C10.2143 2.03577 8.55156 0.373047 6.5 0.373047C4.44844 0.373047 2.78571 2.03577 2.78571 4.08733C2.78571 6.1389 4.44844 7.80162 6.5 7.80162ZM9.1 8.73019H8.6154C7.9712 9.02617 7.25446 9.19448 6.5 9.19448C5.74554 9.19448 5.0317 9.02617 4.3846 8.73019H3.9C1.74687 8.73019 0 10.4771 0 12.6302V13.8373C0 14.6063 0.623884 15.2302 1.39286 15.2302H11.6071C12.3761 15.2302 13 14.6063 13 13.8373V12.6302C13 10.4771 11.2531 8.73019 9.1 8.73019Z" fill="#20BEC6"/>
</g>
</svg>
