<svg width="50" height="38" viewBox="0 0 50 38" fill="none" xmlns="http://www.w3.org/2000/svg">
<path id="Vector" d="M48.6043 6.38028C48.1421 3.82907 45.9398 1.97118 43.3841 1.39115C39.5595 0.580025 32.4814 0 24.8233 0C17.1697 0 9.97825 0.580025 6.14918 1.39115C3.59797 1.97118 1.39115 3.71126 0.928947 6.38028C0.462208 9.28041 0 13.3406 0 18.5608C0 23.781 0.462208 27.8412 1.04223 30.7413C1.50897 33.2925 3.71126 35.1504 6.26246 35.7305C10.3226 36.5416 17.2829 37.1216 24.9411 37.1216C32.5992 37.1216 39.5595 36.5416 43.6197 35.7305C46.1709 35.1504 48.3732 33.4104 48.84 30.7413C49.3022 27.8412 49.8822 23.6632 50 18.5608C49.7644 13.3406 49.1843 9.28041 48.6043 6.38028ZM18.5608 26.6812V10.4405L32.7125 18.5608L18.5608 26.6812Z" fill="#DEE1E1"/>
</svg>
