<svg width="37" height="37" viewBox="0 0 37 37" fill="none" xmlns="http://www.w3.org/2000/svg">
<g clip-path="url(#clip0_1911_3248)">
<circle cx="18.5" cy="18.5" r="18.5" fill="#21BDC6"/>
<g clip-path="url(#clip1_1911_3248)">
<path d="M29.7046 24.1432C29.4345 25.1472 28.6428 25.9387 27.6389 26.2091C25.8048 26.7109 18.4685 26.7109 18.4685 26.7109C18.4685 26.7109 11.1324 26.7109 9.29831 26.2281C8.31369 25.9581 7.50274 25.1471 7.23265 24.1432C6.75 22.3093 6.75 18.506 6.75 18.506C6.75 18.506 6.75 14.6835 7.23265 12.8687C7.50302 11.8648 8.29438 11.0733 9.29846 10.8029C11.1517 10.301 18.4688 10.301 18.4688 10.301C18.4688 10.301 25.8048 10.301 27.6389 10.7838C28.643 11.054 29.4345 11.8455 29.7048 12.8494C30.1874 14.6835 30.1874 18.4866 30.1874 18.4866C30.1874 18.4866 30.2067 22.3093 29.7046 24.1432ZM16.1327 14.9923V22.0196L22.2333 18.506L16.1327 14.9923Z" fill="white"/>
</g>
</g>
<defs>
<clipPath id="clip0_1911_3248">
<rect width="37" height="37" fill="white"/>
</clipPath>
<clipPath id="clip1_1911_3248">
<rect width="25" height="17" fill="white" transform="matrix(1 0 0 -1 6 27)"/>
</clipPath>
</defs>
</svg>
