<svg width="37" height="37" viewBox="0 0 37 37" fill="none" xmlns="http://www.w3.org/2000/svg">
<g clip-path="url(#clip0_1911_3253)">
<circle cx="18.5" cy="18.5" r="18.5" fill="#21BDC6"/>
<path d="M6 23.25V21.975L10.7875 15.5875L11.35 16.2375H6.325V14.5H12.8375V15.7625L8.075 22.1625L7.5 21.575H12.975V23.25H6Z" fill="white"/>
<path d="M16.9865 23.375C16.4365 23.375 15.9407 23.225 15.499 22.925C15.0574 22.625 14.7074 22.2167 14.449 21.7C14.1907 21.1833 14.0615 20.5917 14.0615 19.925C14.0615 19.2583 14.1907 18.6708 14.449 18.1625C14.7157 17.6458 15.074 17.2417 15.524 16.95C15.974 16.65 16.4865 16.5 17.0615 16.5C17.3865 16.5 17.6824 16.55 17.949 16.65C18.224 16.7417 18.4615 16.8708 18.6615 17.0375C18.8699 17.2042 19.0449 17.3958 19.1865 17.6125C19.3282 17.8292 19.4282 18.0625 19.4865 18.3125L19.1115 18.25V16.6375H20.874V23.25H19.0865V21.6625L19.4865 21.625C19.4199 21.8583 19.3115 22.0792 19.1615 22.2875C19.0115 22.4958 18.824 22.6833 18.599 22.85C18.3824 23.0083 18.1365 23.1375 17.8615 23.2375C17.5865 23.3292 17.2949 23.375 16.9865 23.375ZM17.474 21.8375C17.8074 21.8375 18.099 21.7583 18.349 21.6C18.599 21.4417 18.7907 21.2208 18.924 20.9375C19.0657 20.6458 19.1365 20.3083 19.1365 19.925C19.1365 19.55 19.0657 19.2208 18.924 18.9375C18.7907 18.6542 18.599 18.4333 18.349 18.275C18.099 18.1083 17.8074 18.025 17.474 18.025C17.149 18.025 16.8615 18.1083 16.6115 18.275C16.3699 18.4333 16.1782 18.6542 16.0365 18.9375C15.8949 19.2208 15.824 19.55 15.824 19.925C15.824 20.3083 15.8949 20.6458 16.0365 20.9375C16.1782 21.2208 16.3699 21.4417 16.6115 21.6C16.8615 21.7583 17.149 21.8375 17.474 21.8375Z" fill="white"/>
<path d="M22.6661 23.25V14H24.4411V23.25H22.6661Z" fill="white"/>
<path d="M29.1954 23.375C28.5204 23.375 27.9162 23.2292 27.3829 22.9375C26.8579 22.6375 26.4412 22.2292 26.1329 21.7125C25.8329 21.1958 25.6829 20.6042 25.6829 19.9375C25.6829 19.2708 25.8329 18.6833 26.1329 18.175C26.4412 17.6583 26.8579 17.25 27.3829 16.95C27.9162 16.65 28.5204 16.5 29.1954 16.5C29.8621 16.5 30.4579 16.65 30.9829 16.95C31.5162 17.25 31.9329 17.6583 32.2329 18.175C32.5329 18.6833 32.6829 19.2708 32.6829 19.9375C32.6829 20.6042 32.5329 21.1958 32.2329 21.7125C31.9329 22.2292 31.5162 22.6375 30.9829 22.9375C30.4579 23.2292 29.8621 23.375 29.1954 23.375ZM29.1954 21.825C29.5204 21.825 29.8121 21.7458 30.0704 21.5875C30.3287 21.4208 30.5287 21.1958 30.6704 20.9125C30.8204 20.6208 30.8954 20.2958 30.8954 19.9375C30.8954 19.5708 30.8204 19.2458 30.6704 18.9625C30.5287 18.6708 30.3287 18.4458 30.0704 18.2875C29.8121 18.1208 29.5204 18.0375 29.1954 18.0375C28.8621 18.0375 28.5662 18.1208 28.3079 18.2875C28.0496 18.4542 27.8454 18.6792 27.6954 18.9625C27.5454 19.2458 27.4746 19.5708 27.4829 19.9375C27.4746 20.2958 27.5454 20.6208 27.6954 20.9125C27.8454 21.1958 28.0496 21.4208 28.3079 21.5875C28.5662 21.7458 28.8621 21.825 29.1954 21.825Z" fill="white"/>
</g>
<defs>
<clipPath id="clip0_1911_3253">
<rect width="37" height="37" fill="white"/>
</clipPath>
</defs>
</svg>
