<svg width="209" height="173" viewBox="0 0 209 173" fill="none" xmlns="http://www.w3.org/2000/svg">
<g clip-path="url(#clip0_128_4823)">
<path d="M206.351 89.6597C206.065 90.0741 205.699 90.4116 205.275 90.6527C204.851 90.8938 204.376 91.034 203.878 91.065C203.38 91.0961 202.869 91.0175 202.373 90.8337C201.877 90.65 201.407 90.3647 200.989 89.9941C172.824 65.0578 138.699 39.4035 89.9718 50.8054C62.2958 57.2817 46.0398 71.3231 37.279 81.9612C32.7754 87.3427 29.0185 93.4477 26.1048 100.119L37.1634 94.8729C38.0468 94.4367 39.0987 94.4291 40.0879 94.8517C41.077 95.2743 41.9222 96.0925 42.4377 97.1263C42.9531 98.16 43.0965 99.3248 42.8363 100.364C42.5761 101.404 41.9337 102.233 41.0503 102.669L40.9632 102.713L19.2461 113.021C18.6833 113.287 18.0498 113.384 17.4036 113.303C16.7574 113.222 16.1193 112.966 15.5476 112.557C14.9759 112.149 14.4891 111.601 14.1317 110.965C13.7744 110.329 13.5579 109.624 13.5022 108.916L11.4359 82.4688C11.3483 81.3476 11.6692 80.2915 12.3279 79.533C12.9867 78.7744 13.9293 78.3755 14.9485 78.4239C15.9677 78.4724 16.98 78.9642 17.7626 79.7913C18.5453 80.6184 19.0342 81.7129 19.1218 82.8341L19.9632 93.6254C22.9582 87.285 26.654 81.438 30.9785 76.1982C40.3859 64.6593 57.8166 49.4518 87.4491 42.5198C110.417 37.1438 132.033 39.0415 153.516 48.2791C173.807 57.0156 191.097 71.0797 205.333 83.6873C206.178 84.4332 206.76 85.481 206.95 86.6007C207.141 87.7204 206.926 88.8206 206.351 89.6597Z" fill="#FA5769"/>
</g>
<defs>
<clipPath id="clip0_128_4823">
<rect width="183" height="100" fill="white" transform="matrix(-0.890259 0.455455 0.455455 0.890259 162.917 0)"/>
</clipPath>
</defs>
</svg>
