<svg width="147" height="124" viewBox="0 0 147 124" fill="none" xmlns="http://www.w3.org/2000/svg">
<g id="Curved_thin_hand-drawn_arrows" clip-path="url(#clip0_281_2744)">
<path id="28" d="M2.56115 59.2908C17.8108 72.1344 37.8305 80.6017 57.4838 82.5259C69.7114 83.7186 82.0429 82.5086 93.7881 78.9636C99.0204 77.3892 104.119 75.4024 109.036 73.0217C115.119 70.0695 120.942 66.6079 126.442 62.6734L122.89 72.8201C122.718 73.28 122.639 73.7701 122.659 74.2617C122.678 74.7534 122.795 75.2366 123.003 75.6831C123.21 76.1296 123.505 76.5304 123.868 76.862C124.232 77.1936 124.658 77.4492 125.12 77.614C125.583 77.7788 126.073 77.8494 126.562 77.8216C127.052 77.7938 127.53 77.6682 127.97 77.4522C128.409 77.2362 128.801 76.9341 129.122 76.5636C129.442 76.1932 129.686 75.7619 129.838 75.2949L137.73 52.766C137.935 52.1824 137.99 51.5559 137.89 50.944C137.79 50.3322 137.539 49.7546 137.159 49.2644C136.78 48.7742 136.284 48.3871 135.717 48.1388C135.15 47.8905 134.531 47.7889 133.916 47.8433L110.97 49.8579C110.488 49.8992 110.019 50.0353 109.59 50.2587C109.161 50.482 108.781 50.7881 108.47 51.1595C108.16 51.531 107.926 51.9604 107.781 52.4234C107.637 52.8864 107.584 53.3738 107.628 53.8578C107.671 54.3419 107.809 54.813 108.033 55.2445C108.258 55.6759 108.564 56.0591 108.936 56.3722C109.307 56.6853 109.736 56.9222 110.198 57.0693C110.66 57.2164 111.146 57.2709 111.628 57.2297L122.656 56.2644C78.0322 88.2627 32.9489 75.2913 7.26815 53.6509C6.89678 53.3382 6.468 53.1016 6.00628 52.9548C5.54457 52.808 5.05896 52.7538 4.57719 52.7952C4.09542 52.8366 3.62693 52.9729 3.19845 53.1963C2.76998 53.4197 2.38992 53.7258 2.07996 54.0971C1.77001 54.4684 1.53623 54.8976 1.39199 55.3603C1.24775 55.823 1.19586 56.3101 1.23929 56.7938C1.28271 57.2774 1.4206 57.7482 1.64509 58.1792C1.86957 58.6101 2.17626 58.9929 2.54763 59.3056L2.56115 59.2908Z" fill="#21BDC6"/>
</g>
<defs>
<clipPath id="clip0_281_2744">
<rect width="126" height="76" fill="white" transform="translate(0 54.7256) rotate(-25.7426)"/>
</clipPath>
</defs>
</svg>
