<svg width="270" height="68" viewBox="0 0 270 68" fill="none" xmlns="http://www.w3.org/2000/svg">
<g clip-path="url(#clip0_128_4388)">
<path d="M13.3477 66.9308L20.3517 66.9193L16.7648 64.3522L13.3477 66.9308Z" fill="white"/>
<path d="M20.4424 62.4748V66.9193L52.3898 66.8663C54.4335 66.8636 56.4402 66.296 58.2065 65.2209C59.9727 64.1459 61.4357 62.6017 62.447 60.7449C61.9542 61.2719 61.3657 61.6906 60.716 61.9765C60.0663 62.2625 59.3686 62.4099 58.6637 62.4102L20.4424 62.4748Z" fill="white"/>
<path d="M20.4292 54.1992V55.7077L58.3197 55.6431C58.5116 55.6431 58.6956 55.5634 58.8313 55.4215C58.967 55.2796 59.0432 55.0872 59.0432 54.8866C59.0432 54.6859 58.967 54.4935 58.8313 54.3516C58.6956 54.2097 58.5116 54.13 58.3197 54.13L11.464 54.2062C11.3655 54.2005 11.2669 54.2158 11.1742 54.2514C11.0816 54.2869 10.9968 54.3418 10.9252 54.4127C10.8535 54.4836 10.7964 54.569 10.7574 54.6638C10.7184 54.7586 10.6982 54.8607 10.6982 54.9638C10.6982 55.067 10.7184 55.1691 10.7574 55.2638C10.7964 55.3586 10.8535 55.4441 10.9252 55.515C10.9968 55.5859 11.0816 55.6408 11.1742 55.6763C11.2669 55.7118 11.3655 55.7272 11.464 55.7215H13.2288V54.2131L20.4292 54.1992Z" fill="white"/>
<path d="M11.4709 58.1456C11.3723 58.1399 11.2737 58.1553 11.1811 58.1908C11.0884 58.2263 11.0037 58.2812 10.932 58.3521C10.8603 58.423 10.8032 58.5085 10.7642 58.6032C10.7252 58.698 10.7051 58.8001 10.7051 58.9032C10.7051 59.0064 10.7252 59.1085 10.7642 59.2033C10.8032 59.298 10.8603 59.3835 10.932 59.4544C11.0037 59.5253 11.0884 59.5802 11.1811 59.6157C11.2737 59.6512 11.3723 59.6666 11.4709 59.6609H13.2357V58.1456H11.4709Z" fill="white"/>
<path d="M58.3289 59.5825C58.4274 59.5882 58.526 59.5728 58.6187 59.5373C58.7113 59.5018 58.7961 59.4469 58.8678 59.376C58.9394 59.3051 58.9965 59.2196 59.0355 59.1248C59.0746 59.0301 59.0947 58.928 59.0947 58.8248C59.0947 58.7216 59.0746 58.6196 59.0355 58.5248C58.9965 58.43 58.9394 58.3446 58.8678 58.2737C58.7961 58.2027 58.7113 58.1479 58.6187 58.1123C58.526 58.0768 58.4274 58.0615 58.3289 58.0671L20.4385 58.1317V59.6563L58.3289 59.5825Z" fill="white"/>
<path d="M13.2549 67L13.3485 66.9308H13.2549V67Z" fill="white"/>
<path d="M20.4496 66.9885V66.9193H20.3525L20.4496 66.9885Z" fill="white"/>
<path d="M63.9075 12.0996C63.9052 10.5081 63.6031 8.93258 63.0183 7.46312C62.4336 5.99367 61.5777 4.65904 60.4995 3.53545C59.4214 2.41187 58.1421 1.52134 56.7348 0.914721C55.3274 0.308105 53.8196 -0.00271036 52.2973 1.78049e-05L11.528 0.0669068C8.45485 0.0736292 5.51001 1.35616 3.34107 3.6325C1.17213 5.90885 -0.0433399 8.99262 -0.0380689 12.2057L0.0259056 54.8312C0.031167 58.0459 1.2575 61.1269 3.43519 63.3963C5.61289 65.6658 8.56359 66.938 11.6383 66.9331H13.2642V62.4886H11.5479C10.8411 62.5049 10.1383 62.3735 9.48069 62.1022C8.82307 61.8309 8.22383 61.4252 7.71806 60.9087C7.21229 60.3923 6.81016 59.7755 6.53522 59.0945C6.26029 58.4136 6.11807 57.6821 6.11689 56.9429C6.11572 56.2038 6.25561 55.4718 6.52839 54.7899C6.80116 54.108 7.20132 53.4898 7.70545 52.9716C8.20957 52.4534 8.80753 52.0456 9.46428 51.772C10.121 51.4985 10.8234 51.3647 11.5302 51.3784L52.679 51.3093H58.6683C59.366 51.3083 60.0568 51.1637 60.7011 50.8836C61.3454 50.6035 61.9306 50.1935 62.4233 49.6768C62.916 49.1602 63.3065 48.5472 63.5725 47.8727C63.8386 47.1983 63.9749 46.4756 63.9737 45.7461L63.9075 12.0996ZM13.5333 16.9432L15.6246 12.727C15.6713 12.6334 15.7412 12.5547 15.827 12.4992C15.9127 12.4436 16.0112 12.4131 16.1121 12.411L20.8175 12.3441C20.9193 12.3458 21.0187 12.3766 21.1048 12.4333C21.191 12.4899 21.2606 12.5702 21.3061 12.6653C21.3516 12.7605 21.3713 12.8669 21.3629 12.9729C21.3546 13.079 21.3185 13.1806 21.2587 13.2667L20.0918 14.9666L18.713 16.987C18.6679 17.0507 18.6107 17.1041 18.5451 17.1437C18.4794 17.1834 18.4067 17.2086 18.3314 17.2176L15.9665 17.5313L14.098 17.7781C13.9973 17.7912 13.895 17.7752 13.8022 17.732C13.7095 17.6888 13.6297 17.6199 13.5716 17.5329C13.5135 17.4458 13.4793 17.3438 13.4725 17.2378C13.4658 17.1319 13.4868 17.026 13.5333 16.9317V16.9432ZM22.0794 17.9603C22.0871 18.7824 21.7926 19.5762 21.2568 20.1779C20.721 20.7796 19.9847 21.1433 19.1998 21.1939C18.415 21.2445 17.6415 20.9782 17.0391 20.4498C16.4366 19.9215 16.0511 19.1716 15.9621 18.3547L18.4284 18.0272C18.6095 18.0034 18.7839 17.9407 18.9407 17.8431C19.0975 17.7454 19.2333 17.615 19.3395 17.4598L20.7867 15.354C21.1841 15.6489 21.5086 16.0384 21.7334 16.4904C21.9582 16.9425 22.0768 17.4439 22.0794 17.9534V17.9603ZM51.7789 24.5683L47.8699 34.1377L43.9608 43.7095C43.721 44.2958 43.3379 44.8058 42.8499 45.1884C42.362 45.5709 41.7863 45.8125 41.1808 45.8889C40.5753 45.9653 39.9613 45.8739 39.4003 45.6237C38.8393 45.3736 38.3511 44.9735 37.9847 44.4637L32.0108 36.1305L28.8739 31.7598L28.6268 32.3987L25.9399 39.3065C25.775 39.7298 25.5065 40.1002 25.1613 40.3806C24.8161 40.661 24.4064 40.8415 23.9734 40.9039C23.5404 40.9663 23.0992 40.9084 22.6944 40.7361C22.2895 40.5638 21.9351 40.2832 21.6669 39.9223L17.2879 34.0363L12.909 28.1502C12.6409 27.7893 12.4683 27.361 12.4086 26.9083C12.3489 26.4556 12.4042 25.9944 12.5689 25.5712C12.7337 25.1479 13.0021 24.7774 13.3472 24.4969C13.6923 24.2164 14.1019 24.0358 14.5348 23.9732L21.5941 22.9515L28.6533 21.9297C28.8302 21.9046 29.0093 21.8999 29.1871 21.9159L38.2715 20.7627L48.1544 19.5172C48.7621 19.4378 49.3791 19.5276 49.9429 19.7776C50.5067 20.0276 50.9974 20.4288 51.3652 20.9408C51.7331 21.4527 51.965 22.0571 52.0377 22.6929C52.1103 23.3287 52.0211 23.9733 51.7789 24.5614V24.5683ZM53.1025 17.5013C51.9084 17.5032 50.7406 17.1348 49.7468 16.4427C48.753 15.7507 47.9777 14.7661 47.519 13.6134C47.0604 12.4608 46.9389 11.1918 47.17 9.96694C47.4011 8.74209 47.9743 7.61639 48.8173 6.73216C49.6602 5.84793 50.735 5.24487 51.9058 4.99924C53.0765 4.75361 54.2906 4.87644 55.3946 5.3522C56.4986 5.82795 57.4428 6.63528 58.108 7.67208C58.7732 8.70889 59.1293 9.92862 59.1315 11.1771C59.1321 12.0063 58.9764 12.8274 58.6734 13.5937C58.3704 14.36 57.9259 15.0564 57.3654 15.643C56.8049 16.2297 56.1394 16.6951 55.4068 17.0128C54.6742 17.3305 53.889 17.4941 53.0959 17.4944L53.1025 17.5013Z" fill="white"/>
<path d="M53.0519 8.48544C52.5419 8.48635 52.0436 8.64538 51.62 8.9424C51.1964 9.23943 50.8665 9.66111 50.6722 10.1541C50.4778 10.6472 50.4276 11.1894 50.528 11.7122C50.6283 12.235 50.8747 12.715 51.236 13.0915C51.5973 13.4679 52.0572 13.7239 52.5576 13.827C53.058 13.9301 53.5764 13.8758 54.0473 13.6709C54.5182 13.466 54.9204 13.1197 55.203 12.6758C55.4857 12.2319 55.6361 11.7103 55.6352 11.1771C55.6346 10.823 55.5673 10.4725 55.4372 10.1456C55.3071 9.81871 55.1166 9.52182 54.8767 9.27188C54.6369 9.02194 54.3523 8.82385 54.0392 8.68891C53.7261 8.55397 53.3906 8.48483 53.0519 8.48544Z" fill="white"/>
<path d="M74.2313 14.413V19.2266H81.7185V23.4497L74.2313 23.4635V28.6046L82.6561 28.5907V33.0768L68.8751 33.0999L68.8398 9.94542L82.6208 9.92467V14.4107L74.2313 14.413Z" fill="white"/>
<path d="M105.659 21.4016C105.678 22.9999 105.414 24.5882 104.88 26.0859C104.385 27.4659 103.611 28.7182 102.612 29.7578C101.573 30.8168 100.335 31.6383 98.9765 32.1703C97.4163 32.7745 95.7626 33.0717 94.099 33.0468L85.7162 33.0606L85.6875 9.90621L94.0703 9.89237C95.7311 9.86152 97.3838 10.1419 98.95 10.7204C100.307 11.2248 101.547 12.0243 102.588 13.066C103.592 14.0939 104.37 15.3383 104.867 16.7125C105.406 18.2107 105.675 19.8007 105.659 21.4016ZM93.6093 28.0372C95.6962 28.0372 97.3191 27.4614 98.4779 26.3097C99.6368 25.158 100.213 23.525 100.207 21.4108C100.207 19.2935 99.6258 17.662 98.4625 16.5165C97.2992 15.371 95.6748 14.8005 93.5894 14.8051H91.0525L91.0724 28.0349L93.6093 28.0372Z" fill="white"/>
<path d="M113.847 9.86009L113.867 23.2213C113.867 24.7513 114.193 25.9191 114.844 26.7248C115.496 27.5306 116.457 27.9326 117.728 27.9311C119 27.9311 119.956 27.5259 120.596 26.7156C121.235 25.9053 121.557 24.7367 121.562 23.2098L121.542 9.84855H126.898L126.918 23.2098C126.95 24.7124 126.708 26.2076 126.203 27.6151C125.77 28.7995 125.092 29.8691 124.218 30.7473C123.368 31.5804 122.36 32.2177 121.26 32.6178C120.081 33.0435 118.842 33.2557 117.595 33.2452C116.359 33.261 115.13 33.0527 113.962 32.6293C112.887 32.2371 111.908 31.6015 111.094 30.768C110.254 29.8835 109.611 28.8165 109.21 27.6428C108.733 26.2297 108.502 24.7383 108.529 23.2398L108.509 9.87853L113.847 9.86009Z" fill="white"/>
<path d="M135.852 24.8566L135.866 32.9776H130.509L130.479 9.83703L139.155 9.82319C140.361 9.79711 141.563 9.98346 142.711 10.3744C143.648 10.6918 144.509 11.2165 145.235 11.9128C145.905 12.5776 146.42 13.3943 146.741 14.3C147.086 15.2798 147.258 16.3168 147.249 17.3607C147.259 18.3745 147.085 19.3812 146.735 20.3268C146.399 21.2227 145.876 22.0288 145.204 22.6862C144.478 23.3882 143.623 23.9275 142.691 24.2708C141.564 24.6766 140.377 24.8725 139.186 24.8497L135.852 24.8566ZM138.572 20.3637C139.761 20.3637 140.597 20.0915 141.076 19.5541C141.555 19.0167 141.795 18.2855 141.793 17.363C141.791 16.4404 141.55 15.6723 141.07 15.1257C140.589 14.5791 139.746 14.3046 138.564 14.3069H135.837V20.3637H138.572Z" fill="white"/>
<path d="M155.224 9.79319L155.266 32.9453H149.909L149.874 9.79089L155.224 9.79319Z" fill="white"/>
<path d="M172.666 28.6922L164.367 28.7061L162.986 32.9338H157.348L165.426 9.92928H171.603L179.752 32.9015H174.052L172.666 28.6922ZM171.283 24.4368L168.512 15.926L165.737 24.4461L171.283 24.4368Z" fill="white"/>
<path d="M73.1131 42.1273H71.2468C68.8407 42.1273 67.6348 41.3154 67.6289 39.6917C67.6289 38.028 68.8297 37.193 71.2313 37.1869L80.0554 37.1569C82.4599 37.1569 83.6651 37.9849 83.671 39.6409C83.671 41.2724 82.4702 42.0919 80.0686 42.0996H78.1869L78.231 56.9716C78.231 59.4779 77.3883 60.7334 75.7029 60.738C74.0175 60.7426 73.1675 59.4925 73.1528 56.9877L73.1131 42.1273Z" fill="white"/>
<path d="M85.0522 50.4305L85.0235 40.612C85.0147 38.0948 85.8574 36.834 87.5516 36.8294C89.2458 36.8248 90.0951 38.0833 90.0995 40.605L90.1282 49.8308C90.1385 53.9671 91.6379 56.0298 94.6263 56.019C97.6147 56.0083 99.103 53.9325 99.0912 49.7916L99.0626 40.5658C99.0626 38.0503 99.9001 36.7894 101.575 36.7832C103.25 36.7771 104.1 38.0326 104.125 40.5497L104.154 50.3682C104.166 53.6511 103.378 56.2335 101.791 58.1156C100.124 60.0807 97.7404 61.0686 94.6417 61.0794C91.543 61.0901 89.1539 60.1207 87.4744 58.1709C85.8684 56.3012 85.061 53.721 85.0522 50.4305Z" fill="white"/>
<path d="M110.951 42.0097H109.084C106.68 42.0097 105.475 41.1978 105.469 39.574C105.469 37.9119 106.67 37.0762 109.071 37.0669L117.895 37.0393C120.301 37.0393 121.507 37.8673 121.513 39.5233C121.513 41.1547 120.312 41.9735 117.911 41.9797H116.029L116.073 56.8517C116.073 59.3565 115.23 60.6119 113.545 60.6181C111.86 60.6242 111.01 59.3811 110.995 56.8885L110.951 42.0097Z" fill="white"/>
<path d="M121.784 48.6914C121.773 45.1088 122.723 42.1873 124.634 39.9269C126.624 37.5528 129.308 36.3604 132.684 36.3496C136.061 36.3389 138.756 37.5136 140.769 39.8739C142.703 42.1296 143.675 45.0511 143.686 48.6384C143.696 52.2257 142.746 55.1549 140.835 57.426C138.837 59.777 136.146 60.9579 132.764 60.9687C129.381 60.9794 126.686 59.81 124.679 57.4605C122.761 55.2079 121.796 52.2849 121.784 48.6914ZM127.299 48.7376C127.299 50.7103 127.728 52.3456 128.585 53.6434C129.559 55.1549 130.944 55.9075 132.742 55.9014C134.539 55.8952 135.92 55.1341 136.887 53.618C137.729 52.3126 138.148 50.6742 138.144 48.703C138.144 46.6887 137.73 45.0219 136.902 43.7026C135.928 42.148 134.528 41.3738 132.7 41.38C130.872 41.3861 129.474 42.1688 128.508 43.728C127.691 45.0549 127.285 46.7248 127.29 48.7376H127.299Z" fill="white"/>
<path d="M151.616 51.0279L151.631 56.7525C151.64 59.2573 150.798 60.512 149.103 60.5166C147.409 60.5212 146.559 59.2719 146.553 56.7686L146.507 40.6811C146.507 39.2973 146.759 38.3293 147.263 37.7773C147.768 37.2253 148.68 36.9478 149.999 36.9447L153.946 36.9309C156.372 36.9309 158.341 37.4898 159.853 38.6076C161.581 39.8931 162.448 41.7506 162.454 44.18C162.454 45.8868 161.969 47.2953 160.998 48.4054C160.063 49.4972 158.78 50.1891 157.151 50.4812L161.17 55.1218C162.185 56.2904 162.693 57.3022 162.695 58.1571C162.704 58.4881 162.647 58.8174 162.528 59.1243C162.409 59.4312 162.231 59.709 162.004 59.94C161.779 60.1743 161.51 60.3586 161.215 60.4819C160.919 60.6051 160.603 60.6648 160.286 60.6573C159.438 60.6573 158.529 60.0261 157.557 58.7637L151.616 51.0279ZM151.605 47.4783H153.946C156.097 47.4783 157.17 46.5126 157.164 44.5814C157.164 42.7224 156.106 41.7959 153.99 41.8021H151.587L151.605 47.4783Z" fill="white"/>
</g>
<defs>
<clipPath id="clip0_128_4388">
<rect width="270" height="68" fill="white"/>
</clipPath>
</defs>
</svg>
