<svg width="270" height="68" viewBox="0 0 270 68" fill="none" xmlns="http://www.w3.org/2000/svg">
<path d="M103.174 42.6222C102.829 42.6446 102.483 42.6446 102.138 42.6222C99.6698 42.4896 96.5278 42.4232 92.7123 42.4232H81.4863C81.8894 42.3739 82.2758 42.2365 82.6169 42.0211C82.958 41.8057 83.245 41.518 83.4564 41.1793C83.9741 40.275 84.2157 39.2448 84.1527 38.2106V16.65C84.2176 15.6156 83.9759 14.5849 83.4564 13.6813C83.2431 13.3427 82.956 13.0541 82.6155 12.8363C82.2749 12.6184 81.8894 12.4765 81.4863 12.4208H90.3856C92.7802 12.4208 95.005 12.4208 97.043 12.4208H97.3827C98.8093 12.4208 100.134 12.3213 101.374 12.2218C102.614 12.1223 102.919 12.2218 102.919 12.4208V13.1671V17.2968C102.858 16.9037 102.694 16.5325 102.444 16.2188C102.091 15.8453 101.655 15.5559 101.17 15.373C100.418 15.1009 99.6379 14.9117 98.8432 14.8091C97.5983 14.6455 96.3455 14.5459 95.0899 14.5106C93.7313 14.5106 91.8631 14.5106 89.4515 14.5106C89.0943 14.4655 88.7324 14.5479 88.4325 14.7427C88.3874 14.9784 88.3874 15.2202 88.4325 15.4559V25.1415C88.4325 25.523 88.6533 25.7055 89.1118 25.7055H98.2998C98.8059 25.7485 99.3157 25.6928 99.7996 25.542C100.284 25.3911 100.732 25.1479 101.119 24.8264C101.691 24.2499 102.065 23.5137 102.189 22.7201C102.189 23.9474 102.189 26.5015 102.189 30.3493C102.138 29.9579 101.998 29.5829 101.777 29.2525C101.556 28.9221 101.262 28.6449 100.915 28.442C100.022 27.8671 98.9786 27.5561 97.9091 27.5464C95.8712 27.4137 92.8142 27.3806 88.8571 27.3971C88.5683 27.3971 88.4325 27.5132 88.4325 27.7454V37.8457C88.4325 39.272 89.2816 40.1511 90.9969 40.4993C91.4272 40.5657 92.9047 40.5989 95.4296 40.5989C96.4754 40.6089 97.5187 40.4976 98.5375 40.2672C100.061 39.9122 101.513 39.3125 102.834 38.4926C103.659 37.9668 104.285 37.1922 104.618 36.2867L103.633 42.4066V42.6886L103.174 42.6222Z" fill="white"/>
<path d="M111.292 42.4735C111.693 42.4242 112.077 42.2866 112.415 42.0711C112.753 41.8556 113.037 41.5679 113.245 41.2296C113.769 40.327 114.016 39.2967 113.958 38.2609L114.06 16.5179C114.118 15.482 113.871 14.4517 113.347 13.5491C113.136 13.2089 112.849 12.9192 112.508 12.7011C112.167 12.4831 111.781 12.3421 111.377 12.2886C116.857 12.1338 121.442 12.0565 125.133 12.0565C129.849 11.8225 134.502 13.1813 138.312 15.9042C139.979 17.2048 141.309 18.8705 142.195 20.7664C143.08 22.6624 143.495 24.7352 143.407 26.8172C143.407 32.2129 141.596 36.2983 137.973 39.0736C134.185 41.743 129.553 43.0178 124.896 42.6725H111.309L111.292 42.4735ZM118.374 36.8346C118.295 37.4019 118.367 37.9796 118.585 38.5115C118.802 39.0434 119.156 39.5113 119.614 39.8696C121.173 40.5138 122.869 40.7757 124.556 40.6326C133.829 40.6326 138.46 36.2099 138.448 27.3645C138.437 18.5191 133.727 14.0467 124.318 13.9471H120.922C119.223 14.0964 118.289 14.5774 118.289 15.3569L118.374 36.8346Z" fill="white"/>
<path d="M176.15 13.3685C175.94 13.0276 175.653 12.7372 175.312 12.519C174.971 12.3009 174.584 12.1604 174.18 12.1081H182.247C181.843 12.1604 181.456 12.3009 181.115 12.519C180.774 12.7372 180.488 13.0276 180.277 13.3685C179.768 14.27 179.527 15.2925 179.581 16.3207V29.8043C179.819 31.5592 179.672 33.3434 179.151 35.0388C178.63 36.7342 177.746 38.3023 176.558 39.6393C175.207 40.8918 173.602 41.8545 171.847 42.4657C170.092 43.0769 168.226 43.3231 166.368 43.1885C157.027 43.1885 152.362 38.904 152.374 30.335V16.3207C152.434 15.2847 152.186 14.2538 151.66 13.3519C151.447 13.0133 151.16 12.7248 150.82 12.5069C150.479 12.289 150.094 12.1472 149.69 12.0915H159.371C158.953 12.1557 158.557 12.3155 158.215 12.5576C157.873 12.7997 157.594 13.1173 157.401 13.4846C156.827 14.7285 156.554 16.0849 156.603 17.4485V29.5555C156.603 33.5194 157.435 36.4052 159.099 38.2462C160.764 40.0871 163.464 40.9992 167.183 40.9992C173.569 40.9992 176.762 37.4058 176.762 30.2189V16.3538C176.857 15.322 176.645 14.2853 176.15 13.3685Z" fill="white"/>
<path d="M199.808 42.5751H195.579H194.509H190.28C191.775 42.3927 192.641 41.2815 192.913 39.2581V39.0757C192.936 38.8385 192.936 38.5997 192.913 38.3625V16.6692C192.973 15.6332 192.725 14.6024 192.2 13.7005C191.986 13.3619 191.699 13.0733 191.359 12.8554C191.018 12.6376 190.633 12.4958 190.229 12.4401L202.39 12.3405C204.609 12.3366 206.789 12.909 208.707 13.999C209.637 14.5387 210.404 15.3098 210.929 16.2335C211.454 17.1571 211.719 18.2003 211.696 19.2565C211.696 22.3911 209.675 25.0779 205.667 27.3334C205.513 27.4647 205.341 27.5762 205.158 27.6651L204.495 27.9305L203.867 28.1295L203.426 28.2788C203.143 28.3668 202.853 28.4278 202.559 28.4612C202.174 28.5275 201.461 28.5939 200.419 28.6603C199.284 28.6043 198.145 28.6654 197.023 28.8427L197.176 38.3957C197.11 39.4248 197.352 40.4504 197.872 41.3478C198.082 41.6888 198.369 41.9791 198.71 42.1973C199.051 42.4155 199.438 42.556 199.842 42.6083L199.808 42.5751ZM206.754 19.356C206.774 18.4756 206.63 17.5991 206.33 16.7687C206.136 16.159 205.742 15.6285 205.209 15.2595V15.1766C203.768 14.1324 201.985 13.6424 200.199 13.8C198.347 13.8 197.362 14.0654 197.227 14.5961C197.216 14.7563 197.216 14.9169 197.227 15.0771L197.074 26.6866H199.01C199.994 26.7028 200.977 26.5912 201.931 26.3549H202.016C203.121 26.0945 204.12 25.5168 204.886 24.6964C206.145 23.2962 206.818 21.4843 206.771 19.6214L206.754 19.356Z" fill="white"/>
<path d="M227.373 11.8247C226.575 11.8462 225.806 12.1197 225.182 12.6042C224.569 13.0674 224.041 13.6281 223.619 14.2627V38.1453C223.59 38.9466 223.848 39.7329 224.35 40.3677C224.683 40.8582 225.114 41.2792 225.615 41.6066C226.116 41.9339 226.679 42.1611 227.271 42.275C227.271 42.275 227.356 42.391 227.271 42.4076C226.878 42.5383 226.458 42.5724 226.048 42.5071C221.87 42.3579 218.643 42.3579 216.384 42.5071C216.044 42.5712 215.692 42.5059 215.399 42.3247C216.44 42.2542 217.427 41.8455 218.202 41.1637C218.924 40.5534 219.369 39.6889 219.441 38.7589V15.8052C219.453 15.2294 219.319 14.6597 219.051 14.1467C218.81 13.534 218.453 12.9713 217.998 12.4882C217.825 12.2803 217.608 12.1118 217.361 11.9944C217.115 11.877 216.845 11.8134 216.571 11.8082C216.826 11.8082 218.66 11.6921 222.057 11.6755C223.83 11.5945 225.607 11.6444 227.373 11.8247Z" fill="white"/>
<path d="M237.17 42.4755H231.294C231.636 42.4198 231.963 42.297 232.254 42.1146C232.546 41.9322 232.797 41.6938 232.992 41.414C233.417 40.8335 233.858 40.2365 234.351 39.6394C235.652 37.601 236.788 35.466 237.748 33.2542C239.446 29.5723 240.805 26.6201 241.705 24.6299C244.082 18.9689 246.126 13.9049 247.836 9.43799C252.183 19.5438 256.474 29.1687 260.709 38.3126C261.096 39.4128 261.728 40.4155 262.56 41.2482C263.215 41.8998 264.066 42.3299 264.989 42.4755H257.465C256.073 38.9152 254.969 36.151 254.153 34.1829H240.295L237.17 42.4755ZM253.117 31.9937L247.139 17.7969L240.957 32.3752H253.304L253.117 31.9937Z" fill="white"/>
<path fill-rule="evenodd" clip-rule="evenodd" d="M262.391 8.34151C261.668 8.34151 260.963 8.55063 260.362 8.94245C259.762 9.33426 259.294 9.89114 259.017 10.5427C258.741 11.1943 258.669 11.9112 258.809 12.6029C258.95 13.2946 259.298 13.93 259.809 14.4287C260.319 14.9273 260.97 15.267 261.678 15.4045C262.387 15.5421 263.121 15.4715 263.788 15.2016C264.455 14.9317 265.025 14.4747 265.427 13.8883C265.828 13.3019 266.042 12.6125 266.042 11.9073C266.042 10.9616 265.657 10.0546 264.973 9.38587C264.288 8.71716 263.359 8.34151 262.391 8.34151ZM261.575 11.758V10.3649H262.34C262.565 10.348 262.789 10.413 262.968 10.5473C263.036 10.6177 263.088 10.7015 263.12 10.793C263.152 10.8845 263.164 10.9817 263.155 11.078C263.162 11.1682 263.147 11.2586 263.111 11.3421C263.076 11.4256 263.021 11.4998 262.951 11.559C262.78 11.6982 262.562 11.7693 262.34 11.758H261.575ZM262.425 12.4214H261.575V14.0799H260.794V9.6683H262.323C262.748 9.64595 263.169 9.76909 263.512 10.0166C263.66 10.1442 263.777 10.303 263.853 10.4812C263.93 10.6593 263.964 10.852 263.953 11.0448C263.95 11.311 263.868 11.5705 263.715 11.7912C263.565 11.9642 263.38 12.1054 263.172 12.2058L264.14 13.8643V14.0302H263.359L262.425 12.3717V12.4214ZM262.425 7.54541C263.308 7.54541 264.172 7.80123 264.906 8.28052C265.641 8.75981 266.213 9.44103 266.551 10.2381C266.889 11.0351 266.978 11.9121 266.805 12.7583C266.633 13.6044 266.208 14.3816 265.583 14.9916C264.958 15.6016 264.162 16.0171 263.296 16.1854C262.43 16.3537 261.532 16.2673 260.715 15.9372C259.899 15.607 259.202 15.0479 258.711 14.3306C258.22 13.6133 257.958 12.77 257.958 11.9073C257.962 10.7575 258.43 9.65553 259.259 8.8394C260.088 8.02327 261.213 7.55847 262.391 7.54541H262.425Z" fill="white"/>
<path d="M86.0181 49.0491V58.1636H84.8002V49.0491H86.0181ZM89.0181 49.0491V50.0382H81.8066V49.0491H89.0181Z" fill="white"/>
<path d="M91.5117 51.3903V58.1636H90.3194V51.3903H91.5117ZM90.2296 49.5938C90.2296 49.406 90.2873 49.2474 90.4027 49.118C90.5224 48.9886 90.6976 48.9239 90.9283 48.9239C91.1548 48.9239 91.3279 48.9886 91.4476 49.118C91.5715 49.2474 91.6335 49.406 91.6335 49.5938C91.6335 49.7732 91.5715 49.9276 91.4476 50.057C91.3279 50.1822 91.1548 50.2448 90.9283 50.2448C90.6976 50.2448 90.5224 50.1822 90.4027 50.057C90.2873 49.9276 90.2296 49.7732 90.2296 49.5938Z" fill="white"/>
<path d="M96.2937 58.2888C95.8108 58.2888 95.3727 58.2095 94.9796 58.0509C94.5907 57.8881 94.2552 57.6607 93.9732 57.3685C93.6954 57.0764 93.4817 56.73 93.3322 56.3294C93.1826 55.9288 93.1078 55.4906 93.1078 55.0148V54.7519C93.1078 54.201 93.1911 53.7107 93.3578 53.2808C93.5245 52.8468 93.751 52.4796 94.0373 52.1791C94.3236 51.8786 94.6484 51.6512 95.0116 51.4968C95.3749 51.3424 95.7509 51.2651 96.1398 51.2651C96.6355 51.2651 97.0629 51.3486 97.4219 51.5155C97.7851 51.6825 98.0821 51.9162 98.3129 52.2167C98.5436 52.513 98.7146 52.8635 98.8257 53.2683C98.9368 53.6689 98.9924 54.1071 98.9924 54.5829V55.1025H93.8129V54.1572H97.8065V54.0696C97.7894 53.7691 97.7253 53.477 97.6142 53.1932C97.5073 52.9094 97.3364 52.6757 97.1014 52.4921C96.8663 52.3085 96.5458 52.2167 96.1398 52.2167C95.8706 52.2167 95.6227 52.273 95.3962 52.3857C95.1698 52.4942 94.9753 52.6569 94.8129 52.8739C94.6505 53.091 94.5245 53.356 94.4347 53.6689C94.345 53.9819 94.3001 54.3429 94.3001 54.7519V55.0148C94.3001 55.3362 94.345 55.6387 94.4347 55.9225C94.5287 56.2021 94.6633 56.4483 94.8386 56.6612C95.018 56.874 95.2339 57.0409 95.486 57.162C95.7424 57.283 96.033 57.3435 96.3578 57.3435C96.7766 57.3435 97.1313 57.26 97.4219 57.0931C97.7125 56.9262 97.9667 56.7029 98.1847 56.4233L98.9026 56.9804C98.753 57.2016 98.5629 57.4124 98.3321 57.6127C98.1013 57.813 97.8172 57.9758 97.4796 58.101C97.1462 58.2262 96.7509 58.2888 96.2937 58.2888ZM93.7809 50.3888L95.6462 48.7487H96.6206L98.486 50.3888H97.2231L96.1334 49.3997L95.0437 50.3888H93.7809ZM98.0116 49.2808L98.9154 47.6657H100.197L98.909 49.2808H98.0116Z" fill="white"/>
<path d="M101.563 52.8364V58.1636H100.377V51.3903H101.499L101.563 52.8364ZM101.281 54.5203L100.787 54.5015C100.791 54.0383 100.862 53.6105 100.999 53.2182C101.135 52.8218 101.328 52.4775 101.576 52.1854C101.824 51.8932 102.118 51.6679 102.46 51.5093C102.806 51.3465 103.189 51.2651 103.608 51.2651C103.95 51.2651 104.257 51.3111 104.531 51.4029C104.804 51.4905 105.037 51.6324 105.229 51.8285C105.426 52.0247 105.576 52.2793 105.678 52.5922C105.781 52.9011 105.832 53.2787 105.832 53.7253V58.1636H104.64V53.7128C104.64 53.358 104.586 53.0743 104.479 52.8614C104.373 52.6444 104.217 52.4879 104.012 52.3919C103.806 52.2918 103.554 52.2417 103.255 52.2417C102.96 52.2417 102.691 52.3022 102.447 52.4232C102.208 52.5443 102.001 52.7112 101.826 52.924C101.655 53.1369 101.52 53.381 101.422 53.6564C101.328 53.9277 101.281 54.2156 101.281 54.5203Z" fill="white"/>
<path d="M112.127 51.3903H113.204V58.0196C113.204 58.6164 113.08 59.1255 112.832 59.547C112.584 59.9685 112.238 60.2877 111.794 60.5048C111.353 60.7259 110.845 60.8365 110.268 60.8365C110.029 60.8365 109.747 60.799 109.422 60.7239C109.101 60.6529 108.785 60.5298 108.473 60.3545C108.165 60.1834 107.907 59.9518 107.697 59.6597L108.319 58.9711C108.61 59.3133 108.913 59.5512 109.229 59.6847C109.55 59.8183 109.866 59.885 110.178 59.885C110.554 59.885 110.879 59.8162 111.152 59.6784C111.426 59.5407 111.638 59.3362 111.787 59.065C111.941 58.7979 112.018 58.4682 112.018 58.0759V52.8802L112.127 51.3903ZM107.351 54.8521V54.7206C107.351 54.2031 107.413 53.7336 107.537 53.3121C107.665 52.8865 107.847 52.5213 108.082 52.2167C108.321 51.912 108.61 51.6783 108.947 51.5155C109.285 51.3486 109.665 51.2651 110.088 51.2651C110.524 51.2651 110.905 51.3403 111.229 51.4905C111.558 51.6366 111.836 51.8515 112.063 52.1353C112.294 52.4149 112.475 52.7529 112.608 53.1494C112.74 53.5458 112.832 53.9945 112.883 54.4953V55.0712C112.836 55.5678 112.744 56.0143 112.608 56.4108C112.475 56.8072 112.294 57.1453 112.063 57.4249C111.836 57.7045 111.558 57.9194 111.229 58.0697C110.9 58.2157 110.516 58.2888 110.076 58.2888C109.661 58.2888 109.285 58.2032 108.947 58.0321C108.614 57.861 108.328 57.621 108.088 57.3122C107.849 57.0034 107.665 56.6403 107.537 56.223C107.413 55.8015 107.351 55.3445 107.351 54.8521ZM108.537 54.7206V54.8521C108.537 55.1901 108.571 55.5073 108.64 55.8036C108.712 56.0999 108.821 56.3607 108.967 56.5861C109.116 56.8114 109.306 56.9888 109.537 57.1182C109.768 57.2433 110.044 57.3059 110.364 57.3059C110.757 57.3059 111.082 57.2246 111.338 57.0618C111.595 56.8991 111.798 56.6841 111.947 56.417C112.101 56.15 112.221 55.8599 112.306 55.5469V54.0383C112.259 53.8088 112.187 53.5876 112.088 53.3747C111.994 53.1577 111.87 52.9658 111.717 52.7988C111.567 52.6277 111.381 52.4921 111.159 52.3919C110.937 52.2918 110.676 52.2417 110.377 52.2417C110.052 52.2417 109.772 52.3085 109.537 52.442C109.306 52.5714 109.116 52.7508 108.967 52.9804C108.821 53.2057 108.712 53.4686 108.64 53.7691C108.571 54.0654 108.537 54.3826 108.537 54.7206Z" fill="white"/>
<path d="M121.896 49.8567L118.806 58.1636H117.543L121.101 49.0491H121.915L121.896 49.8567ZM124.486 58.1636L121.39 49.8567L121.37 49.0491H122.184L125.755 58.1636H124.486ZM124.325 54.7895V55.7785H119.082V54.7895H124.325Z" fill="white"/>
<path d="M128.011 52.8364V58.1636H126.825V51.3903H127.947L128.011 52.8364ZM127.729 54.5203L127.236 54.5015C127.24 54.0383 127.31 53.6105 127.447 53.2182C127.584 52.8218 127.776 52.4775 128.024 52.1854C128.272 51.8932 128.567 51.6679 128.909 51.5093C129.255 51.3465 129.637 51.2651 130.056 51.2651C130.398 51.2651 130.706 51.3111 130.979 51.4029C131.253 51.4905 131.486 51.6324 131.678 51.8285C131.875 52.0247 132.024 52.2793 132.127 52.5922C132.229 52.9011 132.28 53.2787 132.28 53.7253V58.1636H131.088V53.7128C131.088 53.358 131.035 53.0743 130.928 52.8614C130.821 52.6444 130.665 52.4879 130.46 52.3919C130.255 52.2918 130.003 52.2417 129.704 52.2417C129.409 52.2417 129.139 52.3022 128.896 52.4232C128.657 52.5443 128.449 52.7112 128.274 52.924C128.103 53.1369 127.969 53.381 127.87 53.6564C127.776 53.9277 127.729 54.2156 127.729 54.5203Z" fill="white"/>
<path d="M135.268 48.5484V58.1636H134.082V48.5484H135.268ZM134.986 54.5203L134.492 54.5015C134.496 54.0383 134.567 53.6105 134.704 53.2182C134.84 52.8218 135.033 52.4775 135.28 52.1854C135.528 51.8932 135.823 51.6679 136.165 51.5093C136.511 51.3465 136.894 51.2651 137.312 51.2651C137.654 51.2651 137.962 51.3111 138.236 51.4029C138.509 51.4905 138.742 51.6324 138.934 51.8285C139.131 52.0247 139.28 52.2793 139.383 52.5922C139.486 52.9011 139.537 53.2787 139.537 53.7253V58.1636H138.345V53.7128C138.345 53.358 138.291 53.0743 138.184 52.8614C138.077 52.6444 137.921 52.4879 137.716 52.3919C137.511 52.2918 137.259 52.2417 136.96 52.2417C136.665 52.2417 136.396 52.3022 136.152 52.4232C135.913 52.5443 135.706 52.7112 135.53 52.924C135.36 53.1369 135.225 53.381 135.127 53.6564C135.033 53.9277 134.986 54.2156 134.986 54.5203Z" fill="white"/>
<path d="M144.255 54.8521V54.7081C144.255 54.2198 144.327 53.767 144.473 53.3497C144.618 52.9282 144.827 52.563 145.101 52.2542C145.374 51.9412 145.706 51.6992 146.094 51.5281C146.483 51.3528 146.919 51.2651 147.402 51.2651C147.889 51.2651 148.327 51.3528 148.716 51.5281C149.109 51.6992 149.443 51.9412 149.716 52.2542C149.994 52.563 150.206 52.9282 150.351 53.3497C150.496 53.767 150.569 54.2198 150.569 54.7081V54.8521C150.569 55.3403 150.496 55.7931 150.351 56.2105C150.206 56.6278 149.994 56.993 149.716 57.3059C149.443 57.6148 149.112 57.8568 148.723 58.0321C148.338 58.2032 147.902 58.2888 147.415 58.2888C146.928 58.2888 146.49 58.2032 146.101 58.0321C145.712 57.8568 145.379 57.6148 145.101 57.3059C144.827 56.993 144.618 56.6278 144.473 56.2105C144.327 55.7931 144.255 55.3403 144.255 54.8521ZM145.441 54.7081V54.8521C145.441 55.1901 145.481 55.5094 145.562 55.8098C145.644 56.1061 145.765 56.3691 145.928 56.5986C146.094 56.8281 146.302 57.0096 146.55 57.1432C146.797 57.2726 147.086 57.3372 147.415 57.3372C147.74 57.3372 148.024 57.2726 148.267 57.1432C148.515 57.0096 148.72 56.8281 148.883 56.5986C149.045 56.3691 149.167 56.1061 149.248 55.8098C149.334 55.5094 149.376 55.1901 149.376 54.8521V54.7081C149.376 54.3742 149.334 54.0591 149.248 53.7628C149.167 53.4624 149.043 53.1974 148.876 52.9678C148.714 52.7341 148.509 52.5505 148.261 52.417C148.017 52.2834 147.731 52.2167 147.402 52.2167C147.077 52.2167 146.791 52.2834 146.543 52.417C146.3 52.5505 146.094 52.7341 145.928 52.9678C145.765 53.1974 145.644 53.4624 145.562 53.7628C145.481 54.0591 145.441 54.3742 145.441 54.7081Z" fill="white"/>
<path d="M153.242 52.8364V58.1636H152.056V51.3903H153.178L153.242 52.8364ZM152.96 54.5203L152.466 54.5015C152.47 54.0383 152.541 53.6105 152.678 53.2182C152.814 52.8218 153.007 52.4775 153.255 52.1854C153.502 51.8932 153.797 51.6679 154.139 51.5093C154.485 51.3465 154.868 51.2651 155.287 51.2651C155.629 51.2651 155.936 51.3111 156.21 51.4029C156.483 51.4905 156.716 51.6324 156.908 51.8285C157.105 52.0247 157.255 52.2793 157.357 52.5922C157.46 52.9011 157.511 53.2787 157.511 53.7253V58.1636H156.319V53.7128C156.319 53.358 156.265 53.0743 156.158 52.8614C156.052 52.6444 155.896 52.4879 155.69 52.3919C155.485 52.2918 155.233 52.2417 154.934 52.2417C154.639 52.2417 154.37 52.3022 154.126 52.4232C153.887 52.5443 153.68 52.7112 153.505 52.924C153.334 53.1369 153.199 53.381 153.101 53.6564C153.007 53.9277 152.96 54.2156 152.96 54.5203Z" fill="white"/>
<path d="M160.601 48.5484V58.1636H159.408V48.5484H160.601Z" fill="white"/>
<path d="M163.793 51.3903V58.1636H162.601V51.3903H163.793ZM162.511 49.5938C162.511 49.406 162.569 49.2474 162.684 49.118C162.804 48.9886 162.979 48.9239 163.21 48.9239C163.436 48.9239 163.609 48.9886 163.729 49.118C163.853 49.2474 163.915 49.406 163.915 49.5938C163.915 49.7732 163.853 49.9276 163.729 50.057C163.609 50.1822 163.436 50.2448 163.21 50.2448C162.979 50.2448 162.804 50.1822 162.684 50.057C162.569 49.9276 162.511 49.7732 162.511 49.5938Z" fill="white"/>
<path d="M166.883 52.8364V58.1636H165.697V51.3903H166.819L166.883 52.8364ZM166.601 54.5203L166.107 54.5015C166.111 54.0383 166.182 53.6105 166.319 53.2182C166.455 52.8218 166.648 52.4775 166.896 52.1854C167.143 51.8932 167.438 51.6679 167.78 51.5093C168.126 51.3465 168.509 51.2651 168.928 51.2651C169.269 51.2651 169.577 51.3111 169.851 51.4029C170.124 51.4905 170.357 51.6324 170.549 51.8285C170.746 52.0247 170.895 52.2793 170.998 52.5922C171.101 52.9011 171.152 53.2787 171.152 53.7253V58.1636H169.96V53.7128C169.96 53.358 169.906 53.0743 169.799 52.8614C169.692 52.6444 169.537 52.4879 169.331 52.3919C169.126 52.2918 168.874 52.2417 168.575 52.2417C168.28 52.2417 168.011 52.3022 167.767 52.4232C167.528 52.5443 167.321 52.7112 167.146 52.924C166.975 53.1369 166.84 53.381 166.742 53.6564C166.648 53.9277 166.601 54.2156 166.601 54.5203Z" fill="white"/>
<path d="M175.831 58.2888C175.348 58.2888 174.91 58.2095 174.517 58.0509C174.128 57.8881 173.793 57.6607 173.511 57.3685C173.233 57.0764 173.019 56.73 172.87 56.3294C172.72 55.9288 172.645 55.4906 172.645 55.0148V54.7519C172.645 54.201 172.729 53.7107 172.895 53.2808C173.062 52.8468 173.289 52.4796 173.575 52.1791C173.861 51.8786 174.186 51.6512 174.549 51.4968C174.913 51.3424 175.289 51.2651 175.677 51.2651C176.173 51.2651 176.601 51.3486 176.96 51.5155C177.323 51.6825 177.62 51.9162 177.851 52.2167C178.081 52.513 178.252 52.8635 178.363 53.2683C178.474 53.6689 178.53 54.1071 178.53 54.5829V55.1025H173.351V54.1572H177.344V54.0696C177.327 53.7691 177.263 53.477 177.152 53.1932C177.045 52.9094 176.874 52.6757 176.639 52.4921C176.404 52.3085 176.083 52.2167 175.677 52.2167C175.408 52.2167 175.16 52.273 174.934 52.3857C174.707 52.4942 174.513 52.6569 174.351 52.8739C174.188 53.091 174.062 53.356 173.972 53.6689C173.883 53.9819 173.838 54.3429 173.838 54.7519V55.0148C173.838 55.3362 173.883 55.6387 173.972 55.9225C174.066 56.2021 174.201 56.4483 174.376 56.6612C174.556 56.874 174.771 57.0409 175.024 57.162C175.28 57.283 175.571 57.3435 175.895 57.3435C176.314 57.3435 176.669 57.26 176.96 57.0931C177.25 56.9262 177.504 56.7029 177.722 56.4233L178.44 56.9804C178.291 57.2016 178.101 57.4124 177.87 57.6127C177.639 57.813 177.355 57.9758 177.017 58.101C176.684 58.2262 176.289 58.2888 175.831 58.2888Z" fill="white"/>
<path d="M185.947 57.3372C186.229 57.3372 186.489 57.2809 186.729 57.1682C186.968 57.0556 187.165 56.9011 187.318 56.705C187.472 56.5047 187.56 56.2772 187.581 56.0227H188.709C188.688 56.4233 188.549 56.7968 188.293 57.1432C188.041 57.4854 187.709 57.7629 187.299 57.9758C186.889 58.1844 186.438 58.2888 185.947 58.2888C185.425 58.2888 184.97 58.199 184.581 58.0196C184.197 57.8401 183.876 57.5939 183.62 57.2809C183.368 56.9679 183.177 56.609 183.049 56.2042C182.925 55.7952 182.863 55.3633 182.863 54.9084V54.6455C182.863 54.1906 182.925 53.7608 183.049 53.356C183.177 52.947 183.368 52.586 183.62 52.273C183.876 51.96 184.197 51.7138 184.581 51.5343C184.97 51.3549 185.425 51.2651 185.947 51.2651C186.489 51.2651 186.964 51.3737 187.37 51.5907C187.776 51.8035 188.094 52.0956 188.325 52.467C188.56 52.8343 188.688 53.2516 188.709 53.719H187.581C187.56 53.4394 187.479 53.1869 187.338 52.9616C187.201 52.7362 187.013 52.5568 186.774 52.4232C186.538 52.2855 186.263 52.2167 185.947 52.2167C185.583 52.2167 185.278 52.2876 185.03 52.4295C184.786 52.5672 184.592 52.755 184.447 52.9929C184.306 53.2266 184.203 53.4874 184.139 53.7754C184.079 54.0591 184.049 54.3492 184.049 54.6455V54.9084C184.049 55.2047 184.079 55.4968 184.139 55.7848C184.199 56.0727 184.299 56.3336 184.44 56.5673C184.585 56.801 184.78 56.9888 185.024 57.1307C185.271 57.2684 185.579 57.3372 185.947 57.3372Z" fill="white"/>
<path d="M191.229 48.5484V58.1636H190.043V48.5484H191.229ZM190.947 54.5203L190.453 54.5015C190.457 54.0383 190.528 53.6105 190.664 53.2182C190.801 52.8218 190.994 52.4775 191.241 52.1854C191.489 51.8932 191.784 51.6679 192.126 51.5093C192.472 51.3465 192.855 51.2651 193.273 51.2651C193.615 51.2651 193.923 51.3111 194.197 51.4029C194.47 51.4905 194.703 51.6324 194.895 51.8285C195.092 52.0247 195.241 52.2793 195.344 52.5922C195.447 52.9011 195.498 53.2787 195.498 53.7253V58.1636H194.305V53.7128C194.305 53.358 194.252 53.0743 194.145 52.8614C194.038 52.6444 193.882 52.4879 193.677 52.3919C193.472 52.2918 193.22 52.2417 192.921 52.2417C192.626 52.2417 192.357 52.3022 192.113 52.4232C191.874 52.5443 191.667 52.7112 191.491 52.924C191.32 53.1369 191.186 53.381 191.088 53.6564C190.994 53.9277 190.947 54.2156 190.947 54.5203Z" fill="white"/>
<path d="M201.363 57.0055V53.5187C201.363 53.2516 201.308 53.02 201.196 52.8239C201.09 52.6235 200.927 52.4691 200.709 52.3606C200.491 52.2521 200.222 52.1979 199.902 52.1979C199.602 52.1979 199.34 52.248 199.113 52.3481C198.891 52.4483 198.716 52.5797 198.587 52.7425C198.464 52.9052 198.402 53.0805 198.402 53.2683H197.216C197.216 53.0263 197.28 52.7863 197.408 52.5484C197.536 52.3106 197.72 52.0956 197.959 51.9037C198.203 51.7075 198.493 51.5531 198.831 51.4404C199.173 51.3236 199.553 51.2651 199.972 51.2651C200.476 51.2651 200.921 51.3486 201.305 51.5155C201.694 51.6825 201.998 51.935 202.216 52.273C202.438 52.6069 202.549 53.0263 202.549 53.5312V56.6862C202.549 56.9116 202.568 57.1515 202.607 57.4061C202.649 57.6607 202.711 57.8798 202.793 58.0634V58.1636H201.555C201.496 58.03 201.449 57.8526 201.414 57.6315C201.38 57.4061 201.363 57.1974 201.363 57.0055ZM201.568 54.0571L201.581 54.8708H200.382C200.045 54.8708 199.743 54.898 199.479 54.9522C199.214 55.0023 198.991 55.0795 198.812 55.1838C198.632 55.2882 198.496 55.4196 198.402 55.5782C198.308 55.7326 198.261 55.9142 198.261 56.1228C198.261 56.3357 198.31 56.5297 198.408 56.705C198.506 56.8803 198.654 57.0201 198.85 57.1244C199.051 57.2246 199.297 57.2746 199.587 57.2746C199.951 57.2746 200.271 57.1995 200.549 57.0493C200.827 56.8991 201.047 56.7154 201.209 56.4984C201.376 56.2814 201.466 56.0707 201.478 55.8662L201.985 56.4233C201.955 56.5986 201.874 56.7926 201.741 57.0055C201.609 57.2183 201.431 57.4228 201.209 57.6189C200.991 57.8109 200.731 57.9716 200.427 58.101C200.128 58.2262 199.79 58.2888 199.414 58.2888C198.944 58.2888 198.532 58.199 198.177 58.0196C197.827 57.8401 197.553 57.6002 197.357 57.2997C197.164 56.995 197.068 56.6549 197.068 56.2793C197.068 55.9163 197.141 55.597 197.286 55.3216C197.432 55.042 197.641 54.8103 197.914 54.6267C198.188 54.4389 198.517 54.297 198.902 54.201C199.286 54.1051 199.716 54.0571 200.19 54.0571H201.568ZM197.748 50.3888L199.613 48.7487H200.587L202.453 50.3888H201.19L200.1 49.3997L199.011 50.3888H197.748ZM201.978 49.2808L202.882 47.6657H204.164L202.876 49.2808H201.978Z" fill="white"/>
<path d="M207.318 51.3903V52.2793H203.568V51.3903H207.318ZM204.837 49.744H206.023V56.4859C206.023 56.7154 206.06 56.8886 206.132 57.0055C206.205 57.1223 206.299 57.1995 206.414 57.2371C206.53 57.2746 206.654 57.2934 206.786 57.2934C206.884 57.2934 206.987 57.2851 207.094 57.2684C207.205 57.2475 207.288 57.2308 207.344 57.2183L207.35 58.1636C207.256 58.1928 207.132 58.2199 206.978 58.2449C206.829 58.2741 206.647 58.2888 206.434 58.2888C206.143 58.2888 205.876 58.2324 205.632 58.1197C205.389 58.0071 205.194 57.8193 205.049 57.5563C204.908 57.2893 204.837 56.9304 204.837 56.4796V49.744Z" fill="white"/>
<path d="M213.254 48.5484V58.1636H212.062V48.5484H213.254Z" fill="white"/>
<path d="M221.651 50.8457H222.562C222.562 51.3006 222.5 51.6825 222.376 51.9913C222.256 52.3001 222.045 52.5317 221.741 52.6861C221.438 52.8406 221.01 52.9178 220.459 52.9178V52.2041C220.844 52.2041 221.119 52.1582 221.286 52.0664C221.453 51.9704 221.555 51.8223 221.594 51.622C221.632 51.4216 221.651 51.1629 221.651 50.8457ZM219.401 56.5986V51.3903H220.594V58.1636H219.459L219.401 56.5986ZM219.626 55.1713L220.119 55.1588C220.119 55.6095 220.07 56.0268 219.972 56.4108C219.878 56.7905 219.724 57.1202 219.51 57.3998C219.297 57.6795 219.017 57.8986 218.671 58.0571C218.324 58.2115 217.904 58.2888 217.408 58.2888C217.07 58.2888 216.76 58.2408 216.478 58.1448C216.201 58.0488 215.961 57.9006 215.76 57.7003C215.56 57.5 215.404 57.2392 215.292 56.9178C215.186 56.5965 215.132 56.2105 215.132 55.7598V51.3903H216.318V55.7723C216.318 56.0769 216.352 56.3294 216.421 56.5297C216.493 56.7259 216.589 56.8824 216.709 56.9992C216.833 57.1119 216.97 57.1912 217.119 57.2371C217.273 57.283 217.431 57.3059 217.594 57.3059C218.098 57.3059 218.498 57.212 218.792 57.0243C219.087 56.8323 219.299 56.5756 219.427 56.2543C219.559 55.9288 219.626 55.5678 219.626 55.1713Z" fill="white"/>
<path d="M229.183 50.6454H230.138C230.138 51.1045 230.074 51.5009 229.946 51.8348C229.818 52.1645 229.604 52.4191 229.305 52.5985C229.006 52.778 228.6 52.8677 228.087 52.8677V52.1415C228.408 52.1415 228.645 52.0789 228.799 51.9537C228.957 51.8285 229.059 51.6533 229.106 51.4279C229.158 51.2026 229.183 50.9417 229.183 50.6454ZM222.972 54.8521V54.7081C222.972 54.2198 223.045 53.767 223.19 53.3497C223.335 52.9282 223.544 52.563 223.818 52.2542C224.092 51.9412 224.423 51.6992 224.812 51.5281C225.2 51.3528 225.636 51.2651 226.119 51.2651C226.606 51.2651 227.044 51.3528 227.433 51.5281C227.827 51.6992 228.16 51.9412 228.433 52.2542C228.707 52.563 228.916 52.9282 229.062 53.3497C229.207 53.767 229.279 54.2198 229.279 54.7081V54.8521C229.279 55.3403 229.207 55.7931 229.062 56.2105C228.916 56.6278 228.707 56.993 228.433 57.3059C228.16 57.6148 227.829 57.8568 227.44 58.0321C227.055 58.2032 226.619 58.2888 226.132 58.2888C225.645 58.2888 225.207 58.2032 224.818 58.0321C224.429 57.8568 224.096 57.6148 223.818 57.3059C223.544 56.993 223.335 56.6278 223.19 56.2105C223.045 55.7931 222.972 55.3403 222.972 54.8521ZM224.158 54.7081V54.8521C224.158 55.1901 224.198 55.5094 224.28 55.8098C224.361 56.1061 224.483 56.3691 224.645 56.5986C224.812 56.8281 225.019 57.0096 225.267 57.1432C225.515 57.2726 225.803 57.3372 226.132 57.3372C226.457 57.3372 226.741 57.2726 226.985 57.1432C227.232 57.0096 227.438 56.8281 227.6 56.5986C227.762 56.3691 227.884 56.1061 227.965 55.8098C228.051 55.5094 228.094 55.1901 228.094 54.8521V54.7081C228.094 54.3742 228.051 54.0591 227.965 53.7628C227.884 53.4624 227.76 53.1974 227.594 52.9678C227.431 52.7341 227.226 52.5505 226.978 52.417C226.735 52.2834 226.448 52.2167 226.119 52.2167C225.794 52.2167 225.508 52.2834 225.26 52.417C225.017 52.5505 224.812 52.7341 224.645 52.9678C224.483 53.1974 224.361 53.4624 224.28 53.7628C224.198 54.0591 224.158 54.3742 224.158 54.7081ZM225.376 59.7661C225.376 59.5783 225.433 59.4197 225.549 59.2903C225.668 59.161 225.844 59.0963 226.074 59.0963C226.301 59.0963 226.474 59.161 226.594 59.2903C226.718 59.4197 226.78 59.5783 226.78 59.7661C226.78 59.9455 226.718 60.0979 226.594 60.2231C226.474 60.3524 226.301 60.4171 226.074 60.4171C225.844 60.4171 225.668 60.3524 225.549 60.2231C225.433 60.0979 225.376 59.9455 225.376 59.7661Z" fill="white"/>
<path d="M231.985 52.8364V58.1636H230.799V51.3903H231.921L231.985 52.8364ZM231.703 54.5203L231.209 54.5015C231.213 54.0383 231.284 53.6105 231.42 53.2182C231.557 52.8218 231.75 52.4775 231.997 52.1854C232.245 51.8932 232.54 51.6679 232.882 51.5093C233.228 51.3465 233.611 51.2651 234.029 51.2651C234.371 51.2651 234.679 51.3111 234.952 51.4029C235.226 51.4905 235.459 51.6324 235.651 51.8285C235.848 52.0247 235.997 52.2793 236.1 52.5922C236.202 52.9011 236.254 53.2787 236.254 53.7253V58.1636H235.061V53.7128C235.061 53.358 235.008 53.0743 234.901 52.8614C234.794 52.6444 234.638 52.4879 234.433 52.3919C234.228 52.2918 233.976 52.2417 233.677 52.2417C233.382 52.2417 233.113 52.3022 232.869 52.4232C232.63 52.5443 232.423 52.7112 232.247 52.924C232.076 53.1369 231.942 53.381 231.844 53.6564C231.75 53.9277 231.703 54.2156 231.703 54.5203Z" fill="white"/>
<path d="M242.549 51.3903H243.625V58.0196C243.625 58.6164 243.502 59.1255 243.254 59.547C243.006 59.9685 242.66 60.2877 242.215 60.5048C241.775 60.7259 241.267 60.8365 240.69 60.8365C240.45 60.8365 240.168 60.799 239.843 60.7239C239.523 60.6529 239.207 60.5298 238.895 60.3545C238.587 60.1834 238.329 59.9518 238.119 59.6597L238.741 58.9711C239.032 59.3133 239.335 59.5512 239.651 59.6847C239.972 59.8183 240.288 59.885 240.6 59.885C240.976 59.885 241.301 59.8162 241.574 59.6784C241.848 59.5407 242.059 59.3362 242.209 59.065C242.363 58.7979 242.44 58.4682 242.44 58.0759V52.8802L242.549 51.3903ZM237.773 54.8521V54.7206C237.773 54.2031 237.835 53.7336 237.959 53.3121C238.087 52.8865 238.269 52.5213 238.504 52.2167C238.743 51.912 239.032 51.6783 239.369 51.5155C239.707 51.3486 240.087 51.2651 240.51 51.2651C240.946 51.2651 241.326 51.3403 241.651 51.4905C241.98 51.6366 242.258 51.8515 242.484 52.1353C242.715 52.4149 242.897 52.7529 243.029 53.1494C243.162 53.5458 243.254 53.9945 243.305 54.4953V55.0712C243.258 55.5678 243.166 56.0143 243.029 56.4108C242.897 56.8072 242.715 57.1453 242.484 57.4249C242.258 57.7045 241.98 57.9194 241.651 58.0697C241.322 58.2157 240.937 58.2888 240.497 58.2888C240.083 58.2888 239.707 58.2032 239.369 58.0321C239.036 57.861 238.749 57.621 238.51 57.3122C238.271 57.0034 238.087 56.6403 237.959 56.223C237.835 55.8015 237.773 55.3445 237.773 54.8521ZM238.959 54.7206V54.8521C238.959 55.1901 238.993 55.5073 239.061 55.8036C239.134 56.0999 239.243 56.3607 239.388 56.5861C239.538 56.8114 239.728 56.9888 239.959 57.1182C240.19 57.2433 240.465 57.3059 240.786 57.3059C241.179 57.3059 241.504 57.2246 241.76 57.0618C242.017 56.8991 242.22 56.6841 242.369 56.417C242.523 56.15 242.643 55.8599 242.728 55.5469V54.0383C242.681 53.8088 242.608 53.5876 242.51 53.3747C242.416 53.1577 242.292 52.9658 242.138 52.7988C241.989 52.6277 241.803 52.4921 241.581 52.3919C241.358 52.2918 241.098 52.2417 240.799 52.2417C240.474 52.2417 240.194 52.3085 239.959 52.442C239.728 52.5714 239.538 52.7508 239.388 52.9804C239.243 53.2057 239.134 53.4686 239.061 53.7691C238.993 54.0654 238.959 54.3826 238.959 54.7206Z" fill="white"/>
<path d="M251.459 57.3372C251.741 57.3372 252.001 57.2809 252.241 57.1682C252.48 57.0556 252.677 56.9011 252.831 56.705C252.984 56.5047 253.072 56.2772 253.093 56.0227H254.222C254.2 56.4233 254.061 56.7968 253.805 57.1432C253.553 57.4854 253.222 57.7629 252.811 57.9758C252.401 58.1844 251.95 58.2888 251.459 58.2888C250.937 58.2888 250.482 58.199 250.093 58.0196C249.709 57.8401 249.388 57.5939 249.132 57.2809C248.88 56.9679 248.69 56.609 248.561 56.2042C248.437 55.7952 248.375 55.3633 248.375 54.9084V54.6455C248.375 54.1906 248.437 53.7608 248.561 53.356C248.69 52.947 248.88 52.586 249.132 52.273C249.388 51.96 249.709 51.7138 250.093 51.5343C250.482 51.3549 250.937 51.2651 251.459 51.2651C252.001 51.2651 252.476 51.3737 252.882 51.5907C253.288 51.8035 253.606 52.0956 253.837 52.467C254.072 52.8343 254.2 53.2516 254.222 53.719H253.093C253.072 53.4394 252.991 53.1869 252.85 52.9616C252.713 52.7362 252.525 52.5568 252.286 52.4232C252.051 52.2855 251.775 52.2167 251.459 52.2167C251.095 52.2167 250.79 52.2876 250.542 52.4295C250.298 52.5672 250.104 52.755 249.959 52.9929C249.818 53.2266 249.715 53.4874 249.651 53.7754C249.591 54.0591 249.561 54.3492 249.561 54.6455V54.9084C249.561 55.2047 249.591 55.4968 249.651 55.7848C249.711 56.0727 249.811 56.3336 249.952 56.5673C250.098 56.801 250.292 56.9888 250.536 57.1307C250.784 57.2684 251.091 57.3372 251.459 57.3372Z" fill="white"/>
<path d="M259.645 57.0055V53.5187C259.645 53.2516 259.589 53.02 259.478 52.8239C259.371 52.6235 259.209 52.4691 258.991 52.3606C258.773 52.2521 258.504 52.1979 258.183 52.1979C257.884 52.1979 257.621 52.248 257.395 52.3481C257.172 52.4483 256.997 52.5797 256.869 52.7425C256.745 52.9052 256.683 53.0805 256.683 53.2683H255.497C255.497 53.0263 255.561 52.7863 255.689 52.5484C255.818 52.3106 256.001 52.0956 256.241 51.9037C256.484 51.7075 256.775 51.5531 257.113 51.4404C257.454 51.3236 257.835 51.2651 258.254 51.2651C258.758 51.2651 259.202 51.3486 259.587 51.5155C259.976 51.6825 260.279 51.935 260.497 52.273C260.719 52.6069 260.83 53.0263 260.83 53.5312V56.6862C260.83 56.9116 260.85 57.1515 260.888 57.4061C260.931 57.6607 260.993 57.8798 261.074 58.0634V58.1636H259.837C259.777 58.03 259.73 57.8526 259.696 57.6315C259.662 57.4061 259.645 57.1974 259.645 57.0055ZM259.85 54.0571L259.862 54.8708H258.664C258.326 54.8708 258.025 54.898 257.76 54.9522C257.495 55.0023 257.273 55.0795 257.093 55.1838C256.914 55.2882 256.777 55.4196 256.683 55.5782C256.589 55.7326 256.542 55.9142 256.542 56.1228C256.542 56.3357 256.591 56.5297 256.689 56.705C256.788 56.8803 256.935 57.0201 257.132 57.1244C257.333 57.2246 257.578 57.2746 257.869 57.2746C258.232 57.2746 258.553 57.1995 258.83 57.0493C259.108 56.8991 259.328 56.7154 259.491 56.4984C259.657 56.2814 259.747 56.0707 259.76 55.8662L260.266 56.4233C260.236 56.5986 260.155 56.7926 260.023 57.0055C259.89 57.2183 259.713 57.4228 259.491 57.6189C259.273 57.8109 259.012 57.9716 258.709 58.101C258.41 58.2262 258.072 58.2888 257.696 58.2888C257.226 58.2888 256.813 58.199 256.459 58.0196C256.108 57.8401 255.835 57.6002 255.638 57.2997C255.446 56.995 255.35 56.6549 255.35 56.2793C255.35 55.9163 255.422 55.597 255.568 55.3216C255.713 55.042 255.922 54.8103 256.196 54.6267C256.469 54.4389 256.798 54.297 257.183 54.201C257.568 54.1051 257.997 54.0571 258.471 54.0571H259.85Z" fill="white"/>
<path d="M262.382 54.8521V54.7081C262.382 54.2198 262.454 53.767 262.6 53.3497C262.745 52.9282 262.954 52.563 263.228 52.2542C263.501 51.9412 263.833 51.6992 264.221 51.5281C264.61 51.3528 265.046 51.2651 265.529 51.2651C266.016 51.2651 266.454 51.3528 266.843 51.5281C267.236 51.6992 267.57 51.9412 267.843 52.2542C268.121 52.563 268.333 52.9282 268.478 53.3497C268.623 53.767 268.696 54.2198 268.696 54.7081V54.8521C268.696 55.3403 268.623 55.7931 268.478 56.2105C268.333 56.6278 268.121 56.993 267.843 57.3059C267.57 57.6148 267.238 57.8568 266.85 58.0321C266.465 58.2032 266.029 58.2888 265.542 58.2888C265.055 58.2888 264.617 58.2032 264.228 58.0321C263.839 57.8568 263.506 57.6148 263.228 57.3059C262.954 56.993 262.745 56.6278 262.6 56.2105C262.454 55.7931 262.382 55.3403 262.382 54.8521ZM263.568 54.7081V54.8521C263.568 55.1901 263.608 55.5094 263.689 55.8098C263.771 56.1061 263.892 56.3691 264.055 56.5986C264.221 56.8281 264.429 57.0096 264.677 57.1432C264.924 57.2726 265.213 57.3372 265.542 57.3372C265.867 57.3372 266.151 57.2726 266.394 57.1432C266.642 57.0096 266.847 56.8281 267.01 56.5986C267.172 56.3691 267.294 56.1061 267.375 55.8098C267.461 55.5094 267.503 55.1901 267.503 54.8521V54.7081C267.503 54.3742 267.461 54.0591 267.375 53.7628C267.294 53.4624 267.17 53.1974 267.003 52.9678C266.841 52.7341 266.636 52.5505 266.388 52.417C266.144 52.2834 265.858 52.2167 265.529 52.2167C265.204 52.2167 264.918 52.2834 264.67 52.417C264.427 52.5505 264.221 52.7341 264.055 52.9678C263.892 53.1974 263.771 53.4624 263.689 53.7628C263.608 54.0591 263.568 54.3742 263.568 54.7081Z" fill="white"/>
<path fill-rule="evenodd" clip-rule="evenodd" d="M27.805 67.4258C19.0568 65.7918 11.2968 60.8099 6.18407 53.5453C1.07132 46.2806 -0.988459 37.3097 0.445094 28.5504C3.07298 30.3914 16.5284 32.9454 21.6844 35.7815C31.9631 41.4536 31.6637 53.511 27.7884 67.4756L27.805 67.4258ZM30.6824 0.173388C23.4544 0.916995 16.6531 3.94154 11.2684 8.80681C5.8838 13.6721 2.1969 20.1241 0.744461 27.2236C1.00284 27.2358 1.25926 27.2746 1.50955 27.3397C23.1314 29.8109 45.8509 29.8275 47.5973 5.36447C47.5695 4.54283 47.8087 3.73427 48.2792 3.05918C42.7906 0.561737 36.7344 -0.434262 30.7323 0.173388H30.6824ZM37.0192 10.8541C37.4876 11.5845 37.8028 12.4019 37.9457 13.257C38.0887 14.1121 38.0564 14.9873 37.8508 15.8297C37.4912 17.3888 36.5692 18.7616 35.2602 19.6866C33.9512 20.6117 32.3468 21.0244 30.7524 20.8461C29.1581 20.6679 27.6851 19.9112 26.6141 18.72C25.543 17.5289 24.9487 15.9866 24.9443 14.3868L32.0961 15.4482L37.0858 10.9039L37.0192 10.8541ZM28.7032 6.26008L40.2292 6.69131L31.9131 14.4531L19.5222 12.6122L28.7032 6.26008Z" fill="white"/>
<path fill-rule="evenodd" clip-rule="evenodd" d="M50.5913 4.25278C56.9559 7.75362 62.0313 13.192 65.0762 19.7735C68.121 26.355 68.9758 33.735 67.5156 40.8353C66.0555 47.9357 62.3569 54.3846 56.9601 59.24C51.5634 64.0954 44.7511 67.1029 37.5184 67.8233C36.132 67.9693 34.7374 68.0247 33.3438 67.9892C43.323 49.049 49.8927 27.5714 50.6412 6.62443C50.7415 5.83572 50.7247 5.0366 50.5913 4.25278Z" fill="white"/>
</svg>
