<svg width="217" height="71" viewBox="0 0 217 71" fill="none" xmlns="http://www.w3.org/2000/svg">
<path d="M89.0617 10.6396V13.3996H94.4617V16.9756H89.0617V20.0236H95.1817V23.7916H84.3577V6.87162H95.1817V10.6396H89.0617ZM104.802 6.87162C106.578 6.87162 108.13 7.23163 109.458 7.95163C110.802 8.65562 111.834 9.64762 112.554 10.9276C113.274 12.2076 113.634 13.6716 113.634 15.3196C113.634 16.9516 113.266 18.4076 112.53 19.6876C111.81 20.9676 110.778 21.9756 109.434 22.7116C108.106 23.4316 106.562 23.7916 104.802 23.7916H98.1061V6.87162H104.802ZM104.442 19.6396C105.818 19.6396 106.898 19.2636 107.682 18.5116C108.466 17.7596 108.858 16.6956 108.858 15.3196C108.858 13.9276 108.466 12.8556 107.682 12.1036C106.898 11.3356 105.818 10.9516 104.442 10.9516H102.81V19.6396H104.442ZM120.963 6.87162V16.6876C120.963 17.5996 121.171 18.3036 121.587 18.7996C122.019 19.2956 122.667 19.5436 123.531 19.5436C124.395 19.5436 125.043 19.2956 125.475 18.7996C125.923 18.2876 126.147 17.5836 126.147 16.6876V6.87162H130.851V16.6876C130.851 18.2396 130.523 19.5676 129.867 20.6716C129.211 21.7596 128.315 22.5836 127.179 23.1436C126.059 23.6876 124.811 23.9596 123.435 23.9596C122.059 23.9596 120.827 23.6876 119.739 23.1436C118.667 22.5836 117.819 21.7596 117.195 20.6716C116.587 19.5836 116.283 18.2556 116.283 16.6876V6.87162H120.963ZM147.408 12.5116C147.408 13.5356 147.168 14.4716 146.688 15.3196C146.224 16.1516 145.512 16.8236 144.552 17.3356C143.608 17.8316 142.448 18.0796 141.072 18.0796H138.744V23.7916H134.04V6.87162H141.072C142.432 6.87162 143.584 7.11163 144.528 7.59163C145.488 8.07163 146.208 8.73563 146.688 9.58363C147.168 10.4316 147.408 11.4076 147.408 12.5116ZM140.616 14.3356C141.944 14.3356 142.608 13.7276 142.608 12.5116C142.608 11.2796 141.944 10.6636 140.616 10.6636H138.744V14.3356H140.616ZM154.602 6.87162V23.7916H149.898V6.87162H154.602ZM168.585 21.0316H162.585L161.673 23.7916H156.729L162.897 6.87162H168.321L174.465 23.7916H169.497L168.585 21.0316ZM167.409 17.4316L165.585 11.9596L163.785 17.4316H167.409ZM89.0617 30.8716V47.7916H84.3577V30.8716H89.0617ZM97.0445 34.6396V37.3996H102.444V40.9756H97.0445V44.0236H103.164V47.7916H92.3405V30.8716H103.164V34.6396H97.0445ZM110.793 44.1916H116.049V47.7916H106.089V30.8716H110.793V44.1916ZM131.222 30.8716V34.6156H126.71V47.7916H122.006V34.6156H117.542V30.8716H131.222ZM139.946 47.9596C137.978 47.9596 136.362 47.4956 135.098 46.5676C133.834 45.6236 133.154 44.2796 133.058 42.5356H138.074C138.122 43.1276 138.298 43.5596 138.602 43.8316C138.906 44.1036 139.298 44.2396 139.778 44.2396C140.21 44.2396 140.562 44.1356 140.834 43.9276C141.122 43.7036 141.266 43.3996 141.266 43.0156C141.266 42.5196 141.034 42.1356 140.57 41.8636C140.106 41.5916 139.354 41.2876 138.314 40.9516C137.21 40.5836 136.314 40.2316 135.626 39.8956C134.954 39.5436 134.362 39.0396 133.85 38.3836C133.354 37.7116 133.106 36.8396 133.106 35.7676C133.106 34.6796 133.378 33.7516 133.922 32.9836C134.466 32.1996 135.218 31.6076 136.178 31.2076C137.138 30.8076 138.226 30.6076 139.442 30.6076C141.41 30.6076 142.978 31.0716 144.146 31.9996C145.33 32.9116 145.962 34.1996 146.042 35.8636H140.93C140.914 35.3516 140.754 34.9676 140.45 34.7116C140.162 34.4556 139.786 34.3276 139.322 34.3276C138.97 34.3276 138.682 34.4316 138.458 34.6396C138.234 34.8476 138.122 35.1436 138.122 35.5276C138.122 35.8476 138.242 36.1276 138.482 36.3676C138.738 36.5916 139.05 36.7916 139.418 36.9676C139.786 37.1276 140.33 37.3356 141.05 37.5916C142.122 37.9596 143.002 38.3276 143.69 38.6956C144.394 39.0476 144.994 39.5516 145.49 40.2076C146.002 40.8476 146.258 41.6636 146.258 42.6556C146.258 43.6636 146.002 44.5676 145.49 45.3676C144.994 46.1676 144.266 46.7996 143.306 47.2636C142.362 47.7276 141.242 47.9596 139.946 47.9596Z" fill="white"/>
<path fill-rule="evenodd" clip-rule="evenodd" d="M28.4961 67.5696C19.5305 65.9562 11.5776 61.0371 6.33779 53.8641C1.09795 46.691 -1.01303 37.8332 0.456158 29.1844C3.14936 31.0022 16.9393 33.524 22.2234 36.3243C32.7576 41.9249 32.4507 53.8302 28.4791 67.6188L28.4961 67.5696ZM31.445 1.16522C24.0374 1.89945 17.067 4.88586 11.5485 9.68977C6.03005 14.4937 2.25151 20.8643 0.762966 27.8744C1.02776 27.8863 1.29056 27.9247 1.54707 27.989C23.7063 30.429 46.9906 30.4454 48.7804 6.29085C48.752 5.47957 48.9971 4.6812 49.4793 4.01462C43.8543 1.54867 37.6475 0.565233 31.4962 1.16522H31.445ZM37.9394 11.7113C38.4195 12.4324 38.7425 13.2395 38.889 14.0839C39.0354 14.9282 39.0024 15.7923 38.7917 16.6241C38.4232 18.1635 37.4782 19.519 36.1367 20.4324C34.7952 21.3458 33.1508 21.7533 31.5168 21.5773C29.8828 21.4013 28.3733 20.6541 27.2756 19.478C26.1779 18.3019 25.5688 16.779 25.5643 15.1994L32.8939 16.2474L38.0076 11.7604L37.9394 11.7113ZM29.4166 7.17516L41.2292 7.60095L32.7064 15.2649L20.0075 13.4472L29.4166 7.17516Z" fill="white"/>
<path fill-rule="evenodd" clip-rule="evenodd" d="M51.8491 5.19316C58.372 8.64986 63.5735 14.0196 66.694 20.5182C69.8146 27.0167 70.6906 34.3036 69.1942 41.3144C67.6977 48.3253 63.9072 54.6928 58.3763 59.487C52.8454 64.2811 45.8638 67.2507 38.4513 67.9621C37.0304 68.1062 35.6012 68.1609 34.1729 68.1259C44.4002 49.4246 51.1332 28.2177 51.9003 7.53491C52.003 6.75615 51.9858 5.9671 51.8491 5.19316Z" fill="white"/>
</svg>
