<svg width="21" height="21" viewBox="0 0 21 21" fill="none" xmlns="http://www.w3.org/2000/svg">
<path id="Star 26" d="M16.286 3.80514C19.1033 3.09218 21.1871 6.40094 19.3269 8.63374L18.6409 9.45702C17.809 10.4556 17.7147 11.8762 18.4073 12.976L18.9783 13.8827C20.527 16.3419 18.0241 19.3461 15.3257 18.2669L14.3308 17.869C13.1241 17.3863 11.7438 17.7356 10.9119 18.7342L10.226 19.5575C8.36575 21.7903 4.73513 20.3382 4.92766 17.4384L4.99866 16.3692C5.08476 15.0724 4.32603 13.8676 3.11929 13.385L2.12435 12.987C-0.574016 11.9079 -0.314954 8.00621 2.5024 7.29325L3.54122 7.03036C4.80118 6.71151 5.71254 5.61762 5.79864 4.3208L5.86964 3.25158C6.06218 0.351799 9.85291 -0.607494 11.4016 1.85165L11.9726 2.7584C12.6652 3.85816 13.9872 4.38688 15.2472 4.06803L16.286 3.80514Z" fill="#DEE1E1"/>
</svg>
