<svg width="156" height="40" viewBox="0 0 156 40" fill="none" xmlns="http://www.w3.org/2000/svg">
<g id="cafefmob_logo2022 1">
<path id="Vector" fill-rule="evenodd" clip-rule="evenodd" d="M43.0146 15.8282H50.1412V20.5424H43.0146V15.8282Z" fill="#C32022"/>
<path id="Vector_2" fill-rule="evenodd" clip-rule="evenodd" d="M63.8135 1.55725H92.9887V6.77005H63.8135V1.55725ZM66.3189 8.88394H92.9887V13.5981H70.8893V20.5394H63.8135V11.3924C63.8135 10.0066 64.9363 8.88394 66.3189 8.88394Z" fill="#C32022"/>
<path id="Vector_3" fill-rule="evenodd" clip-rule="evenodd" d="M95.1514 1.55725H123.715V6.77004H95.1514V1.55725ZM97.6568 8.88394H123.715V13.5981H102.227V15.8282H123.715V20.5424H97.9046C96.384 20.5424 95.1514 19.3097 95.1514 17.7892V11.3924C95.1514 10.0066 96.274 8.88394 97.6568 8.88394Z" fill="#C32022"/>
<path id="Vector_4" d="M41.3522 1.55725L30.2168 20.5394H38.7274L46.5774 6.26836L54.4272 20.5394H62.9378L52.301 1.55725H41.3522Z" fill="#C32022"/>
<path id="Vector_5" fill-rule="evenodd" clip-rule="evenodd" d="M25.0198 13.0352C25.0198 14.577 23.7716 15.8252 22.2298 15.8252H11.483C9.94114 15.8252 8.693 14.577 8.693 13.0352V8.55966C8.693 7.01784 9.94114 5.7697 11.483 5.7697H22.2298C23.7716 5.7697 25.0198 7.01784 25.0198 8.55966H32.0528C31.6184 4.3472 28.0544 1.05859 23.7258 1.05859H9.98706C5.36466 1.05859 1.61719 4.80608 1.61719 9.42846V12.1695C1.61719 16.7919 5.36466 20.5394 9.98706 20.5394H23.7258C28.0576 20.5394 31.6184 17.2507 32.0528 13.0352H25.0198Z" fill="#C32022"/>
<path id="Vector_6" fill-rule="evenodd" clip-rule="evenodd" d="M125.878 1.55713H155.053V6.76994H125.878V1.55713ZM128.383 8.88382H155.053V13.598H132.954V20.5392H125.878V11.3923C125.878 10.0065 126.998 8.88382 128.383 8.88382Z" fill="#344971"/>
<path id="Vector_7" d="M4.03849 34.7788H5.01205V29.083H6.83177V28.2824H2.21875V29.083H4.03849V34.7788ZM8.83589 32.0492H9.99143L11.2925 34.7788H12.3662L10.9468 31.9582C11.8384 31.758 12.2297 31.203 12.2297 30.1294C12.2297 29.5016 12.0841 29.074 11.7656 28.7556C11.429 28.4188 10.9741 28.2824 10.1734 28.2824H7.86233V34.7788H8.83589V32.0492ZM8.81769 31.2758V29.0648H10.0824C10.9013 29.0648 11.2652 29.4016 11.2652 30.1748C11.2652 30.93 10.9195 31.2758 10.137 31.2758H8.81769ZM17.1997 33.4232L17.6547 34.7788H18.7101L16.3445 28.2824H15.4073L13.0417 34.7788H14.0971L14.552 33.4232H17.1997ZM16.9632 32.6406H14.7886L15.8805 29.4652L16.9632 32.6406ZM19.287 34.7788H20.2332V29.9202L23.1266 34.7788H24.0728V28.2824H23.1266V33.141L20.2332 28.2824H19.287V34.7788ZM27.9106 32.0492H29.1298V32.5496C29.1298 33.5778 28.684 34.0782 27.765 34.0782C26.7734 34.0782 26.4002 33.5596 26.4002 32.1584V30.921C26.4002 29.5288 26.7734 29.0012 27.756 29.0012C28.4748 29.0012 28.9024 29.347 28.9934 30.0112L29.8942 29.9474C29.8304 28.81 29.0752 28.2096 27.7196 28.2096C26.9008 28.2096 26.3456 28.428 25.9362 28.901C25.5632 29.3288 25.4268 29.8564 25.4268 30.8572V32.213C25.4268 33.141 25.536 33.6414 25.8452 34.06C26.2456 34.615 26.8462 34.8698 27.7832 34.8698C28.6204 34.8698 29.2118 34.6332 29.6212 34.142C29.967 33.7234 30.0944 33.2412 30.0944 32.3404V31.294H27.9106V32.0492ZM34.128 34.7788H35.1016V29.083H36.9214V28.2824H32.3082V29.083H34.128V34.7788ZM37.9428 34.7788H38.9164V31.8946H41.4094V34.7788H42.383V28.2824H41.4094V31.0938H38.9164V28.2824H37.9428V34.7788ZM43.7448 32.3222C43.7448 33.1774 43.8722 33.6778 44.1908 34.0874C44.6002 34.6242 45.1916 34.8698 46.0924 34.8698C46.9202 34.8698 47.4662 34.6696 47.8938 34.1964C48.285 33.778 48.4306 33.2502 48.4306 32.3222V30.739C48.4306 29.8838 48.3032 29.3834 47.9848 28.9738C47.5754 28.437 46.984 28.1914 46.0924 28.1914C45.2552 28.1914 44.7094 28.3916 44.2816 28.8646C43.8904 29.2924 43.7448 29.811 43.7448 30.739V32.3222ZM47.4572 32.2312C47.4572 33.5322 47.0476 34.0782 46.0924 34.0782C45.1278 34.0782 44.7184 33.5322 44.7184 32.2312V30.83C44.7184 29.5288 45.1278 28.983 46.0924 28.983C47.0476 28.983 47.4572 29.5288 47.4572 30.83V32.2312ZM46.0832 26.8902L46.6656 27.6182H47.5936L46.4016 26.3262H45.7648L44.582 27.6182H45.51L46.0832 26.8902ZM49.7942 34.7788H50.7404V29.9202L53.6338 34.7788H54.58V28.2824H53.6338V33.141L50.7404 28.2824H49.7942V34.7788ZM58.4178 32.0492H59.637V32.5496C59.637 33.5778 59.1912 34.0782 58.2722 34.0782C57.2804 34.0782 56.9074 33.5596 56.9074 32.1584V30.921C56.9074 29.5288 57.2804 29.0012 58.2632 29.0012C58.982 29.0012 59.4096 29.347 59.5006 30.0112L60.4012 29.9474C60.3376 28.81 59.5824 28.2096 58.2268 28.2096C57.4078 28.2096 56.8528 28.428 56.4434 28.901C56.0704 29.3288 55.9338 29.8564 55.9338 30.8572V32.213C55.9338 33.141 56.043 33.6414 56.3524 34.06C56.7528 34.615 57.3532 34.8698 58.2904 34.8698C59.1274 34.8698 59.719 34.6332 60.1284 34.142C60.474 33.7234 60.6014 33.2412 60.6014 32.3404V31.294H58.4178V32.0492ZM64.6352 34.7788H65.6088V29.083H67.4284V28.2824H62.8154V29.083H64.6352V34.7788ZM68.45 34.7788H69.4234V28.2824H68.45V34.7788ZM70.9414 34.7788H71.8876V29.9202L74.781 34.7788H75.7272V28.2824H74.781V33.141L71.8876 28.2824H70.9414V34.7788ZM78.8388 31.103H78.1108V31.8854H78.8388V34.7788H80.977C82.6146 34.797 83.4244 33.96 83.379 32.2858V30.7754C83.4244 29.1012 82.6146 28.255 80.977 28.2824H78.8388V31.103ZM79.8122 31.103V29.0648H80.804C81.9414 29.0376 82.3962 29.547 82.4054 30.8572V32.1948C82.3962 33.514 81.9414 34.0236 80.804 33.9964H79.8122V31.8854H81.177V31.103H79.8122ZM84.751 34.7788H85.7246V28.2824H84.751V34.7788ZM87.2516 34.7788H91.1732V33.9782H88.216V31.8946H90.7092V31.0938H88.216V29.083H91.1458V28.2824H87.2516V34.7788ZM89.217 26.8902L89.7992 27.6182H90.7182L89.5354 26.3262H88.8984L87.7066 27.6182H88.6346L89.217 26.8902ZM88.7894 36.5986H89.69V35.5612H88.7894V36.5986ZM92.293 34.7788H93.2392V29.9202L96.1326 34.7788H97.0788V28.2824H96.1326V33.141L93.2392 28.2824H92.293V34.7788ZM101.355 34.7788H102.329V29.083H104.148V28.2824H99.5352V29.083H101.355V34.7788ZM104.982 28.2824V32.3768C104.982 33.2412 105.055 33.6414 105.292 34.0054C105.683 34.5968 106.302 34.8698 107.266 34.8698C108.167 34.8698 108.731 34.6424 109.141 34.1146C109.45 33.7324 109.541 33.314 109.541 32.3768V30.2568C110.014 30.0112 110.178 29.9202 110.36 29.7928C110.869 29.4288 111.088 29.0648 111.088 28.5826C111.088 28.437 111.079 28.346 111.024 28.1822H110.205C110.305 28.3734 110.342 28.5008 110.342 28.6918C110.342 29.1194 110.132 29.3834 109.541 29.6562V28.2824H108.567V32.3768C108.567 32.9226 108.522 33.232 108.413 33.4686C108.203 33.8962 107.858 34.0782 107.266 34.0782C106.702 34.0782 106.384 33.9236 106.156 33.5504C106.011 33.2958 105.956 33.0046 105.956 32.3768V28.2824H104.982ZM107.721 27.7274C107.73 27.4452 107.739 27.3998 107.885 27.2178C108.14 26.9084 108.176 26.8448 108.176 26.6356C108.176 26.1988 107.858 25.944 107.312 25.944C107.039 25.944 106.857 25.9804 106.538 26.0896L106.693 26.6082C106.911 26.5082 107.03 26.4808 107.157 26.4808C107.321 26.4808 107.412 26.5536 107.412 26.672C107.412 26.7446 107.385 26.8174 107.33 26.8994C107.102 27.2088 107.084 27.2634 107.075 27.609V27.7274H107.721ZM114.267 34.7788H115.241V29.083H117.061V28.2824H112.448V29.083H114.267V34.7788ZM117.767 32.3222C117.767 33.1774 117.895 33.6778 118.213 34.0874C118.623 34.6242 119.214 34.8698 120.115 34.8698C120.943 34.8698 121.489 34.6696 121.916 34.1964C122.308 33.778 122.453 33.2502 122.453 32.3222V30.739C122.453 29.8838 122.326 29.3834 122.007 28.9738C121.598 28.437 121.006 28.1914 120.115 28.1914C119.278 28.1914 118.732 28.3916 118.304 28.8646C117.913 29.2924 117.767 29.811 117.767 30.739V32.3222ZM121.48 32.2312C121.48 33.5322 121.07 34.0782 120.115 34.0782C119.15 34.0782 118.741 33.5322 118.741 32.2312V30.83C118.741 29.5288 119.15 28.983 120.115 28.983C121.07 28.983 121.48 29.5288 121.48 30.83V32.2312ZM120.388 26.7356C120.397 26.5446 120.397 26.5172 120.515 26.408C120.715 26.1988 120.752 26.135 120.752 25.9804C120.752 25.6528 120.479 25.4526 120.024 25.4526C119.778 25.4526 119.605 25.489 119.369 25.571L119.505 25.9896C119.678 25.9076 119.778 25.8804 119.887 25.8804C120.024 25.8804 120.097 25.9168 120.097 25.9896C120.097 26.035 120.069 26.0986 120.033 26.1442C119.833 26.3808 119.824 26.4172 119.815 26.7356H120.388ZM120.097 27.3634L120.661 27.8548H121.543L120.397 26.8812H119.787L118.65 27.8548H119.523L120.097 27.3634ZM123.817 34.7788H124.763V29.9202L127.656 34.7788H128.603V28.2824H127.656V33.141L124.763 28.2824H123.817V34.7788ZM132.44 32.0492H133.66V32.5496C133.66 33.5778 133.214 34.0782 132.295 34.0782C131.303 34.0782 130.93 33.5596 130.93 32.1584V30.921C130.93 29.5288 131.303 29.0012 132.286 29.0012C133.004 29.0012 133.432 29.347 133.523 30.0112L134.424 29.9474C134.36 28.81 133.605 28.2096 132.249 28.2096C131.43 28.2096 130.875 28.428 130.466 28.901C130.093 29.3288 129.956 29.8564 129.956 30.8572V32.213C129.956 33.141 130.066 33.6414 130.375 34.06C130.775 34.615 131.376 34.8698 132.313 34.8698C133.15 34.8698 133.741 34.6332 134.151 34.142C134.497 33.7234 134.624 33.2412 134.624 32.3404V31.294H132.44V32.0492ZM137.493 34.7788H138.467V31.8946H140.96V34.7788H141.933V28.2824H140.96V31.0938H138.467V28.2824H137.493V34.7788ZM148.236 28.1822C148.336 28.3642 148.372 28.5008 148.372 28.6828C148.372 29.0194 148.227 29.2378 147.817 29.5106C147.49 28.619 146.78 28.1914 145.633 28.1914C144.805 28.1914 144.26 28.4006 143.832 28.8646C143.441 29.2924 143.295 29.811 143.295 30.739V32.3222C143.295 33.1774 143.423 33.6778 143.741 34.0874C144.15 34.6242 144.742 34.8698 145.643 34.8698C146.471 34.8698 147.016 34.6696 147.444 34.1964C147.835 33.778 147.981 33.2502 147.981 32.3222V30.739C147.981 30.4752 147.972 30.3114 147.926 30.0566C148.281 29.8474 148.409 29.7746 148.581 29.629C148.927 29.347 149.118 28.9648 149.118 28.5644C149.118 28.4188 149.1 28.337 149.055 28.1822H148.236ZM147.007 32.2312C147.007 33.5322 146.598 34.0782 145.643 34.0782C144.678 34.0782 144.269 33.5322 144.269 32.2312V30.83C144.269 29.538 144.678 28.992 145.643 28.992C146.598 28.992 147.007 29.538 147.007 30.83V32.2312ZM145.088 36.5986H145.988V35.5612H145.088V36.5986ZM150.611 32.3404H151.776C152.558 32.3404 153.022 32.213 153.368 31.9036C153.759 31.5488 153.932 31.0484 153.932 30.3022C153.932 29.6108 153.787 29.1558 153.45 28.801C153.095 28.428 152.631 28.2824 151.776 28.2824H149.638V34.7788H150.611V32.3404ZM150.593 31.5488V29.0648H151.776C152.604 29.0648 152.968 29.438 152.968 30.3114C152.968 31.1666 152.604 31.5488 151.776 31.5488H150.593Z" fill="#525252" fill-opacity="0.6"/>
</g>
</svg>
