<svg width="180" height="80" viewBox="0 0 180 80" fill="none" xmlns="http://www.w3.org/2000/svg">
<g clip-path="url(#clip0_773_24111)">
<path d="M91.0377 23.0355V39.8221L80.0881 23.0355H69.9616V44.8368L62.3398 23.0355H57.5091L61.0874 27.659H52.6427L56.0062 23.4623L56.2925 23.0355H51.3545L44.6273 41.4937C44.6273 41.4937 45.4861 24.7071 30.2783 23.8891H15.9294L15.5 23.4267V57H29.8489C29.8489 57 37.0413 56.5732 41.2279 51.5585L39.5461 56.6087H49.6727L51.3545 51.5585H61.481L63.1628 56.6087H79.1936V40.6401L91.0019 56.5732H100.27V23.0355H91.0377ZM34.0713 41.8849C34.0101 42.7338 33.7481 43.5563 33.3067 44.2856C32.8652 45.0148 32.2567 45.6302 31.5307 46.0815C31.5307 46.0815 29.8489 47.7531 25.6266 47.7531V32.6736H28.1671C28.1671 32.6736 34.0713 33.5272 34.0713 39.3954V41.8849ZM54.3244 42.7385L56.865 37.6882L59.4056 42.7385H54.3244Z" fill="#0F6C32"/>
<path d="M161.53 27.6234H157.307L160.277 23H154.373V28.8682C154.373 28.8682 152.691 24.6715 146.787 23H104.563V33.0649H112.149V56.5732H121.417V33.1004H129.003V56.6088H138.271V48.1799L145.034 56.5732H164.5V24.7071L161.53 27.6234ZM142.136 38.5418H138.736V31.8201H141.277C141.277 31.8201 143.817 32.6736 143.817 36.0167C143.785 36.5474 143.613 37.0603 143.317 37.5037C143.022 37.947 142.615 38.3051 142.136 38.5418ZM154.767 52.8033L148.863 44.41C148.863 44.41 151.403 43.5565 154.767 38.5418V52.8033Z" fill="#0F6C32"/>
</g>
<defs>
<clipPath id="clip0_773_24111">
<rect width="149" height="34" fill="white" transform="translate(15.5 23)"/>
</clipPath>
</defs>
</svg>
