<svg width="208" height="142" viewBox="0 0 208 142" fill="none" xmlns="http://www.w3.org/2000/svg">
<g clip-path="url(#clip0_901_5423)">
<path fill-rule="evenodd" clip-rule="evenodd" d="M96.6497 78.6102C88.1942 77.0333 80.4798 72.7699 74.6628 66.4589C68.8458 60.1479 65.2395 52.1294 64.3847 43.6054C64.041 40.1437 64.147 36.6523 64.7 33.2175C67.781 35.3676 83.4768 38.339 89.5174 41.6486C101.647 48.3162 101.186 62.3278 96.6497 78.6102ZM99.9974 0.193716C91.5469 1.04879 83.5921 4.57145 77.2943 10.2474C70.9966 15.9234 66.6858 23.4554 64.9911 31.7439H65.8887C91.1428 34.7395 117.561 34.7878 119.696 6.25734C119.657 5.29986 119.939 4.35664 120.497 3.57582C114.086 0.656749 107.011 -0.510577 99.9974 0.193716ZM107.275 12.635C107.838 13.463 108.231 14.3932 108.432 15.3725C108.633 16.3518 108.639 17.3609 108.448 18.3423C108.258 19.3238 107.875 20.2582 107.322 21.0924C106.769 21.9266 106.057 22.6442 105.225 23.2041C104.394 23.764 103.46 24.1554 102.476 24.3559C101.493 24.5563 100.48 24.5619 99.494 24.3724C98.5085 24.1828 97.5701 23.8018 96.7324 23.2511C95.8947 22.7004 95.1742 21.9908 94.6119 21.1628C93.7113 19.8576 93.2524 18.3005 93.3019 16.7177L101.671 17.9498L107.397 12.635H107.275ZM97.6685 7.24782L111.133 7.75513L101.332 16.911L86.7761 14.7851L97.6685 7.24782Z" fill="#005B94"/>
<path fill-rule="evenodd" clip-rule="evenodd" d="M123.236 4.95312C130.667 9.03395 136.594 15.3741 140.149 23.0474C143.705 30.7207 144.703 39.3252 142.999 47.6038C141.294 55.8824 136.976 63.4014 130.675 69.0624C124.375 74.7234 116.421 78.2299 107.977 79.0695C106.366 79.2429 104.745 79.3074 103.125 79.2628C115.108 57.1918 122.003 32.7396 123.309 7.68297C123.43 6.77492 123.405 5.85349 123.236 4.95312Z" fill="#20BEC6"/>
<path fill-rule="evenodd" clip-rule="evenodd" d="M198.03 97.4532C197.306 97.4532 196.597 97.6671 195.995 98.068C195.393 98.4688 194.923 99.0385 194.646 99.7051C194.369 100.372 194.296 101.105 194.437 101.813C194.579 102.52 194.928 103.17 195.44 103.68C195.952 104.191 196.605 104.538 197.315 104.679C198.026 104.82 198.763 104.747 199.432 104.471C200.101 104.195 200.673 103.728 201.076 103.128C201.478 102.528 201.693 101.823 201.693 101.101C201.693 100.134 201.307 99.2057 200.62 98.5216C199.933 97.8375 199.002 97.4532 198.03 97.4532ZM197.205 100.932V99.5308H197.982C198.091 99.52 198.201 99.5315 198.305 99.5648C198.409 99.598 198.506 99.6522 198.588 99.724C198.666 99.7876 198.727 99.8695 198.765 99.9623C198.803 100.055 198.817 100.156 198.806 100.256C198.806 100.35 198.787 100.444 198.75 100.531C198.712 100.619 198.657 100.697 198.588 100.763C198.41 100.887 198.199 100.955 197.982 100.956L197.205 100.932ZM198.054 101.608H197.205V103.348H196.502V98.8544H198.03C198.458 98.8259 198.881 98.9549 199.219 99.2167C199.366 99.3453 199.482 99.5057 199.558 99.6858C199.634 99.8658 199.667 100.061 199.656 100.256C199.657 100.532 199.573 100.802 199.413 101.029C199.283 101.206 199.118 101.354 198.928 101.463L199.898 103.203V103.372H198.928L197.982 101.633L198.054 101.608ZM198.054 96.6318C198.942 96.6318 199.81 96.894 200.548 97.385C201.286 97.8761 201.861 98.5741 202.201 99.3908C202.54 100.207 202.629 101.106 202.456 101.973C202.283 102.84 201.856 103.636 201.228 104.261C200.6 104.886 199.801 105.312 198.93 105.484C198.059 105.657 197.157 105.568 196.337 105.23C195.517 104.892 194.816 104.319 194.323 103.584C193.83 102.849 193.566 101.985 193.566 101.101C193.566 99.9199 194.036 98.7868 194.872 97.9493C195.709 97.1119 196.844 96.6382 198.03 96.6318H198.054Z" fill="#005B94"/>
<path d="M176.512 141.204H169.816C170.214 141.141 170.595 141 170.936 140.788C171.278 140.577 171.574 140.299 171.806 139.972C172.291 139.295 172.8 138.595 173.358 137.894C174.788 135.573 176.045 133.151 177.118 130.647C179.083 126.395 180.588 123.061 181.606 120.694C184.291 114.123 186.604 108.268 188.545 103.131C193.397 114.775 198.248 125.896 203.1 136.493C203.551 137.765 204.271 138.927 205.211 139.899C205.944 140.659 206.907 141.16 207.952 141.324H199.461C197.885 137.193 196.623 134.077 195.725 131.661H180.005L176.512 141.204ZM194.585 129.125C194.488 128.867 192.232 123.399 187.817 112.722L180.806 129.632H194.804L194.585 129.125Z" fill="#005B94"/>
<path d="M24.5748 141.3H23.4103C20.6205 141.155 16.9816 141.082 12.7362 141.082H0C0.457235 141.022 0.895143 140.861 1.28142 140.61C1.66771 140.359 1.9925 140.025 2.23186 139.633C2.818 138.587 3.09551 137.398 3.03242 136.202V111.126C3.09159 109.946 2.81403 108.774 2.23186 107.744C1.9925 107.352 1.66771 107.018 1.28142 106.767C0.895143 106.516 0.457235 106.355 0 106.295H18.1218C19.63 106.341 21.1394 106.26 22.634 106.053C24.0168 105.812 24.4049 106.053 24.4049 106.295V111.996C24.3316 111.536 24.1393 111.103 23.847 110.74C23.4609 110.301 22.968 109.968 22.4157 109.773C21.561 109.46 20.6742 109.241 19.7714 109.121C18.3643 108.912 16.9473 108.774 15.526 108.711H9.14579C8.73485 108.658 8.31916 108.762 7.98134 109C7.91905 109.271 7.91905 109.552 7.98134 109.822V121.007C7.98134 121.442 8.24819 121.659 8.75764 121.659H19.1892C20.2823 121.769 21.3762 121.458 22.2459 120.789C22.8881 120.126 23.3114 119.283 23.4588 118.374V127.215C23.3987 126.76 23.2367 126.324 22.9848 125.939C22.7329 125.555 22.3975 125.231 22.0033 124.993C20.9595 124.394 19.7606 124.116 18.5584 124.196C16.1325 124.051 12.8332 124.002 8.32097 124.027C7.98134 124.027 7.81152 124.172 7.81152 124.413V136.009C7.81152 137.652 8.80616 138.666 10.7469 139.077C11.2321 139.077 12.8817 139.077 15.7686 139.077C16.9459 138.975 18.1089 138.749 19.2377 138.401C20.9534 137.974 22.5908 137.281 24.0896 136.347C25.0096 135.721 25.7129 134.826 26.1031 133.786L25.0842 140.816V141.155L24.5748 141.3Z" fill="#005B94"/>
<path d="M33.7681 141.155C34.2253 141.095 34.6632 140.933 35.0495 140.682C35.4358 140.432 35.7606 140.098 36 139.705C36.5861 138.66 36.8636 137.47 36.8005 136.275V111.126C36.869 109.93 36.5911 108.739 36 107.696C35.7606 107.303 35.4358 106.969 35.0495 106.718C34.6632 106.468 34.2253 106.306 33.7681 106.246C39.9785 106.053 45.17 105.957 49.3426 105.957C54.6879 105.692 59.9626 107.261 64.2864 110.402C66.1903 111.9 67.7106 113.826 68.7226 116.022C69.7346 118.218 70.2096 120.622 70.1087 123.036C70.2829 125.713 69.815 128.393 68.7435 130.855C67.6721 133.317 66.0279 135.489 63.9468 137.193C59.6473 140.264 54.4014 141.735 49.1243 141.348H33.6953L33.7681 141.155ZM41.8222 134.608C41.7275 135.267 41.8075 135.939 42.0543 136.558C42.3012 137.176 42.7062 137.72 43.2293 138.135C44.9945 138.858 46.9062 139.156 48.8089 139.004C59.3051 139.004 64.5613 133.883 64.5775 123.64C64.5937 113.397 59.2404 108.227 48.5178 108.131H44.8061C42.8168 108.3 41.8222 108.855 41.8222 109.773V134.608Z" fill="#005B94"/>
<path d="M107.298 107.479C107.058 107.086 106.734 106.752 106.347 106.501C105.961 106.25 105.523 106.089 105.066 106.029H114.212C113.754 106.089 113.317 106.25 112.93 106.501C112.544 106.752 112.219 107.086 111.98 107.479C111.389 108.522 111.111 109.713 111.179 110.909V126.491C111.448 128.515 111.284 130.573 110.699 132.529C110.114 134.486 109.12 136.298 107.783 137.845C106.26 139.285 104.455 140.396 102.48 141.107C100.505 141.818 98.4036 142.114 96.3082 141.976C85.7311 141.976 80.4426 137.016 80.4426 127.095V110.909C80.5111 109.713 80.2332 108.522 79.642 107.479C79.4027 107.086 79.0779 106.752 78.6916 106.501C78.3053 106.25 77.8674 106.089 77.4102 106.029H88.4724C87.997 106.1 87.5458 106.284 87.1572 106.566C86.7686 106.848 86.4541 107.219 86.2406 107.648C85.6022 109.092 85.2955 110.66 85.343 112.238V126.225C85.0604 129.745 86.0498 133.249 88.1328 136.106C89.3453 137.257 90.7905 138.137 92.372 138.687C93.9534 139.236 95.6345 139.444 97.3029 139.295C104.532 139.295 108.147 135.14 108.147 126.829V110.813C108.174 109.645 107.881 108.492 107.298 107.479Z" fill="#005B94"/>
<path d="M134.153 141.252H123.236C124.934 141.034 125.905 139.754 126.22 137.41V137.193C126.244 136.92 126.244 136.645 126.22 136.372V111.296C126.288 110.1 126.011 108.909 125.419 107.865C125.18 107.473 124.855 107.139 124.469 106.888C124.083 106.637 123.645 106.476 123.188 106.416H136.967C139.519 106.349 142.04 106.993 144.245 108.276C145.293 108.929 146.147 109.848 146.718 110.94C147.29 112.031 147.558 113.255 147.495 114.485C147.495 118.108 145.215 121.201 140.654 123.81C140.48 123.966 140.284 124.096 140.072 124.196L139.344 124.486L138.616 124.728L138.131 124.897C137.806 124.995 137.473 125.067 137.137 125.114C136.7 125.114 135.875 125.259 134.711 125.332C133.467 125.308 132.224 125.405 130.999 125.621L131.145 136.662C131.069 137.863 131.339 139.061 131.921 140.116C132.168 140.502 132.495 140.831 132.88 141.081C133.264 141.331 133.699 141.496 134.153 141.566V141.252ZM142.037 114.485C142.065 113.463 141.892 112.445 141.528 111.489C141.321 110.782 140.876 110.167 140.266 109.75V109.532C138.623 108.334 136.59 107.791 134.565 108.01C132.479 108.01 131.363 108.324 131.217 108.952C131.193 109.129 131.193 109.308 131.217 109.484L130.999 122.867H133.182C134.3 122.868 135.415 122.746 136.506 122.505C137.747 122.2 138.87 121.536 139.732 120.597C141.175 118.984 141.946 116.885 141.891 114.726L142.037 114.485Z" fill="#005B94"/>
<path d="M165.352 105.715C164.468 105.745 163.617 106.058 162.926 106.609C162.218 107.165 161.618 107.844 161.155 108.614V136.106C161.123 137.037 161.414 137.95 161.98 138.691C162.345 139.243 162.815 139.719 163.363 140.092C163.946 140.475 164.596 140.746 165.28 140.889V141.058C164.832 141.155 164.369 141.155 163.921 141.058C159.069 140.889 155.527 140.889 152.956 141.058C152.57 141.134 152.169 141.056 151.84 140.841C153.018 140.764 154.137 140.296 155.018 139.512C155.828 138.801 156.332 137.806 156.425 136.734V110.16C156.442 109.498 156.292 108.842 155.988 108.252C155.712 107.556 155.309 106.917 154.799 106.368C154.6 106.129 154.352 105.935 154.072 105.797C153.792 105.66 153.486 105.583 153.174 105.57C153.465 105.57 155.6 105.57 159.385 105.425C161.378 105.353 163.375 105.45 165.352 105.715Z" fill="#005B94"/>
</g>
<defs>
<clipPath id="clip0_901_5423">
<rect width="208" height="142" fill="white"/>
</clipPath>
</defs>
</svg>
