<svg width="149" height="167" viewBox="0 0 149 167" fill="none" xmlns="http://www.w3.org/2000/svg">
<g id="Asset 4 2">
<g id="Layer 2">
<g id="Layer 1">
<path id="Vector" fill-rule="evenodd" clip-rule="evenodd" d="M65.2905 90.1682C56.4264 88.4988 48.3409 84.013 42.2412 77.3805C36.1414 70.748 32.3546 62.3245 31.446 53.3675C31.0996 49.7288 31.2127 46.061 31.7826 42.4505C35.0175 44.7085 51.4722 47.825 57.8111 51.3147C70.5448 58.2568 70.0587 73.0368 65.2905 90.1682ZM68.8059 7.72122C59.9396 8.62117 51.5938 12.3263 44.9869 18.2956C38.3801 24.2649 33.8583 32.1857 32.0818 40.9015C32.3972 40.8457 32.72 40.8457 33.0354 40.9015C59.5126 44.0367 87.2614 44.0927 89.4678 14.1035C89.4174 13.087 89.7068 12.0827 90.2906 11.2483C83.5707 8.18652 76.1543 6.96899 68.8059 7.72122ZM76.4349 20.7843C77.1436 21.828 77.5953 23.024 77.7532 24.2748C77.9111 25.5257 77.7708 26.7961 77.3436 27.9826C76.9165 29.1691 76.2146 30.2381 75.2952 31.1026C74.3757 31.9672 73.2647 32.6028 72.0525 32.9577C70.8404 33.3126 69.5614 33.3768 68.3196 33.145C67.0779 32.9132 65.9086 32.392 64.9069 31.6239C63.9052 30.8557 63.0995 29.8623 62.5553 28.7246C62.011 27.5868 61.7438 26.3369 61.7752 25.0765L70.5635 26.3828L76.5658 20.7843H76.4349ZM66.3563 15.1859L80.4925 15.7084L70.2082 25.3378L54.9315 23.0984L66.3563 15.1859Z" fill="#005B94"/>
<path id="Vector_2" fill-rule="evenodd" clip-rule="evenodd" d="M93.1866 12.7227C100.978 17.0135 107.191 23.6772 110.919 31.7413C114.647 39.8053 115.694 48.8475 113.909 57.5479C112.124 66.2483 107.599 74.1515 100.995 80.1038C94.3907 86.0562 86.0532 89.746 77.1993 90.6348C75.511 90.8239 73.8114 90.8925 72.1133 90.8401C84.66 67.6319 91.8834 41.9315 93.2614 15.5965C93.3769 14.6401 93.3517 13.6719 93.1866 12.7227Z" fill="#20BEC6"/>
<path id="Vector_3" d="M22.841 130.832H22.037C20.1671 130.832 17.6802 130.683 14.7071 130.683H5.9749C6.28996 130.641 6.59146 130.528 6.85694 130.354C7.12241 130.179 7.34502 129.947 7.50818 129.675C7.88592 128.965 8.06058 128.164 8.01305 127.361V110.155C8.05614 109.336 7.86828 108.522 7.47079 107.804C7.30762 107.532 7.08501 107.3 6.81954 107.125C6.55406 106.951 6.25256 106.838 5.9375 106.796H12.856C14.7258 106.796 16.4461 106.796 18.0355 106.796H18.2973C19.4192 106.796 20.4476 106.796 21.4013 106.647C22.3549 106.498 22.6167 106.647 22.6167 106.796V107.393V110.678C22.5616 110.363 22.4264 110.067 22.224 109.819C21.9665 109.512 21.6306 109.28 21.2517 109.147C20.6487 108.924 20.0209 108.773 19.3818 108.7C18.6152 108.588 17.6615 108.513 16.4648 108.457L12.1828 108.289C11.901 108.252 11.6155 108.319 11.3788 108.476C11.3336 108.66 11.3336 108.852 11.3788 109.035V116.687C11.3788 116.985 11.5658 117.135 11.9024 117.135H19.0639C19.8012 117.179 20.5284 116.946 21.1021 116.481C21.5494 116.024 21.8378 115.435 21.9248 114.802C21.9248 115.772 21.9248 117.806 21.9248 120.867C21.9021 120.569 21.8171 120.279 21.6755 120.015C21.5338 119.752 21.3385 119.52 21.1021 119.337C20.3753 118.942 19.5537 118.755 18.7274 118.796C17.138 118.702 14.8006 118.665 11.6967 118.684C11.4723 118.684 11.3601 118.684 11.3601 118.945V126.951C11.3601 128.089 12.0332 128.817 13.3608 129.059C13.6974 129.059 14.838 129.059 16.8014 129.059C17.6147 129.104 18.4305 129.054 19.2322 128.91C20.4186 128.625 21.5495 128.145 22.5793 127.492C23.2214 127.08 23.7031 126.461 23.9443 125.738L23.1776 130.683V130.907L22.841 130.832Z" fill="#005B94"/>
<path id="Vector_4" d="M26.7148 130.683C27.0299 130.641 27.3314 130.528 27.5969 130.354C27.8624 130.179 28.085 129.947 28.2481 129.675C28.6545 128.961 28.8429 128.144 28.7904 127.324V110.043C28.8335 109.224 28.6456 108.41 28.2481 107.692C28.085 107.42 27.8624 107.187 27.5969 107.013C27.3314 106.839 27.0299 106.726 26.7148 106.684C30.9781 106.553 34.5496 106.497 37.4104 106.497C41.0766 106.315 44.6944 107.395 47.6573 109.558C48.9696 110.582 50.0187 111.903 50.7178 113.412C51.4169 114.921 51.7459 116.574 51.6775 118.236C51.7948 120.076 51.471 121.918 50.7329 123.609C49.9947 125.3 48.8635 126.791 47.4329 127.958C44.4937 130.095 40.8864 131.115 37.2609 130.832L26.7148 130.683ZM32.3244 126.185C32.2608 126.639 32.317 127.102 32.4875 127.527C32.6581 127.953 32.937 128.327 33.2968 128.611C34.5087 129.112 35.8228 129.317 37.13 129.209C44.3476 129.209 47.9378 125.682 47.9378 118.646C47.9378 111.611 44.198 107.972 36.943 107.972H34.2878C32.9415 108.102 32.2496 108.476 32.2496 109.091L32.3244 126.185Z" fill="#005B94"/>
<path id="Vector_5" d="M76.3007 109.931C76.3438 109.112 76.156 108.297 75.7585 107.579C75.5953 107.307 75.3727 107.075 75.1072 106.901C74.8417 106.726 74.5402 106.614 74.2252 106.572H80.4892C80.1742 106.614 79.8727 106.726 79.6072 106.901C79.3417 107.075 79.1191 107.307 78.9559 107.579C78.5584 108.297 78.3706 109.112 78.4137 109.931V120.643C78.599 122.037 78.4865 123.454 78.0837 124.802C77.6808 126.15 76.9967 127.397 76.0763 128.462C75.0299 129.448 73.7903 130.207 72.4356 130.692C71.0808 131.177 69.6402 131.377 68.2042 131.28C60.9492 131.28 57.3216 127.883 57.3216 121.053V109.856C57.3685 109.035 57.1735 108.217 56.7607 107.505C56.6037 107.231 56.3852 106.998 56.1224 106.823C55.8595 106.648 55.5595 106.536 55.2461 106.497H62.7255C62.3986 106.547 62.0885 106.675 61.8216 106.87C61.5547 107.065 61.3388 107.321 61.1923 107.617C60.7509 108.602 60.5399 109.674 60.5752 110.752V120.419C60.3368 122.871 61.0015 125.325 62.4451 127.323C63.277 128.117 64.2703 128.723 65.3576 129.1C66.4449 129.477 67.6007 129.615 68.7465 129.507C73.7328 129.507 76.2259 126.652 76.2259 120.941L76.3007 109.931Z" fill="#005B94"/>
<path id="Vector_6" d="M91.3514 130.795H88.0604H87.219H83.928C85.0873 130.646 85.7979 129.769 85.9849 128.164V127.996C85.9997 127.809 85.9997 127.622 85.9849 127.436V110.193C86.0317 109.371 85.8368 108.554 85.4239 107.841C85.2629 107.567 85.0408 107.334 84.775 107.159C84.5091 106.984 84.2065 106.873 83.8906 106.833H93.3521C95.0772 106.816 96.7754 107.261 98.2699 108.121C98.9866 108.569 99.5707 109.199 99.9619 109.947C100.353 110.695 100.537 111.533 100.495 112.376C100.421 113.763 99.9475 115.099 99.1316 116.225C98.3158 117.35 97.192 118.217 95.8951 118.721L95.4277 118.889L94.9228 119.076C94.7595 119.145 94.5906 119.202 94.4179 119.243L94.0814 119.355L93.4082 119.523L91.744 119.673C90.881 119.623 90.0151 119.673 89.1636 119.822L89.2758 127.399C89.2289 128.22 89.4239 129.038 89.8368 129.75C89.9978 130.024 90.2198 130.257 90.4857 130.432C90.7516 130.607 91.0542 130.718 91.3701 130.758L91.3514 130.795ZM96.7553 112.376C96.767 111.677 96.653 110.982 96.4187 110.323C96.2661 109.839 95.957 109.419 95.5399 109.129C94.423 108.299 93.0367 107.913 91.6505 108.046C90.2108 108.046 89.4441 108.252 89.3506 108.681C89.3297 108.805 89.3297 108.931 89.3506 109.054L89.2384 118.273H90.753C91.5212 118.278 92.2871 118.19 93.0342 118.012H93.1464C94 117.792 94.7724 117.332 95.3716 116.687C96.3519 115.568 96.8786 114.124 96.8488 112.637L96.7553 112.376Z" fill="#005B94"/>
<path id="Vector_7" d="M112.557 106.422C111.94 106.452 111.347 106.666 110.855 107.038C110.38 107.432 109.969 107.898 109.64 108.419V127.323C109.59 127.996 109.797 128.663 110.219 129.189C110.466 129.569 110.783 129.899 111.154 130.16C111.553 130.433 112.005 130.618 112.482 130.701C112.482 130.701 112.482 130.794 112.482 130.813C112.168 130.883 111.842 130.883 111.528 130.813C109.037 130.681 106.54 130.681 104.049 130.813C103.675 130.813 103.413 130.813 103.301 130.664C104.11 130.61 104.875 130.281 105.47 129.73C105.744 129.498 105.97 129.213 106.134 128.892C106.297 128.572 106.396 128.223 106.423 127.864V109.576C106.437 109.116 106.334 108.66 106.124 108.251C105.935 107.772 105.663 107.33 105.32 106.945C105.18 106.783 105.008 106.651 104.815 106.558C104.622 106.465 104.412 106.412 104.198 106.403C104.404 106.403 105.825 106.31 108.48 106.31C109.84 106.25 111.202 106.287 112.557 106.422Z" fill="#005B94"/>
<path id="Vector_8" d="M119.513 130.683H114.895C115.168 130.644 115.43 130.55 115.665 130.405C115.9 130.261 116.102 130.069 116.26 129.843C116.596 129.377 116.933 128.891 117.325 128.425C118.315 126.802 119.178 125.105 119.906 123.349C121.252 120.419 122.28 118.124 122.991 116.5C124.823 112.021 126.413 108.009 127.684 104.557C131.05 112.581 134.391 120.226 137.707 127.492C137.994 128.368 138.481 129.166 139.128 129.824C139.63 130.344 140.285 130.691 140.998 130.814H135.164C134.079 127.996 133.294 125.812 132.602 124.245H121.888L119.513 130.683ZM131.91 122.341L127.254 111.144L122.467 122.714H132.06L131.91 122.341Z" fill="#005B94"/>
<path id="Vector_9" d="M55.4137 142.011C55.4137 142.813 55.4137 143.56 55.4137 144.232V146.098H55.2641C54.7585 145.239 54.1284 144.459 53.3943 143.784C52.3277 143.218 51.1199 142.971 49.9163 143.075H48.9814C48.6635 143.075 48.4952 143.075 48.4391 143.298C48.3831 143.522 48.4391 143.298 48.4391 143.522V156.194C48.4305 156.625 48.5545 157.048 48.7944 157.407C49.1864 157.912 49.7304 158.278 50.3464 158.452C50.1384 158.509 49.9187 158.509 49.7107 158.452C47.9979 158.356 46.2812 158.356 44.5685 158.452C44.3905 158.464 44.2133 158.418 44.0637 158.321C44.6134 158.296 45.1365 158.078 45.5409 157.705C45.9207 157.363 46.1549 156.889 46.1953 156.38V143.317C46.197 143.228 46.1709 143.141 46.1207 143.067C46.0704 142.994 45.9985 142.938 45.9148 142.907H44.5685C43.3625 142.798 42.1514 143.051 41.0906 143.634C40.3605 144.306 39.7308 145.079 39.2207 145.93H39.0898V144.064C39.0898 143.392 39.0898 142.645 39.0898 141.824H46.1953L55.4137 142.011Z" fill="#20BEC6"/>
<path id="Vector_10" d="M73.1596 158.675H71.589H70.2988C71.2337 158.526 71.7011 157.76 71.7011 156.379V151.658C71.7287 151.408 71.6832 151.155 71.5703 150.93C71.49 150.858 71.3949 150.804 71.2916 150.771C71.1883 150.739 71.0792 150.73 70.9719 150.744H62.0901C61.6974 150.744 61.473 150.744 61.3982 150.912C61.3021 151.128 61.2634 151.366 61.286 151.602V156.342C61.286 157.704 61.7535 158.451 62.6884 158.6H60.4633H58.9113H57.6211C58.5934 158.451 59.0796 157.686 59.0796 156.305V144.716C59.0796 143.372 58.5934 142.607 57.6398 142.421H62.7819C62.5621 142.451 62.3532 142.535 62.1738 142.665C61.9944 142.795 61.85 142.968 61.7535 143.167C61.4588 143.856 61.3185 144.601 61.3421 145.35V148.598C61.3421 149.157 61.6039 149.437 62.1462 149.437H70.9158C71.144 149.448 71.3722 149.416 71.589 149.344C71.7491 149.102 71.8156 148.81 71.7759 148.523V144.604C71.7759 143.223 71.2898 142.458 70.3362 142.309H75.4783C75.2564 142.347 75.0471 142.439 74.8681 142.575C74.689 142.711 74.5456 142.889 74.4498 143.092C74.146 143.779 74.0052 144.526 74.0385 145.276V156.323C74.0385 157.704 74.5059 158.47 75.4409 158.619L73.1596 158.675Z" fill="#20BEC6"/>
<path id="Vector_11" d="M93.4482 153.917C93.5467 154.326 93.5783 154.748 93.5417 155.167C93.5495 155.86 93.5057 156.552 93.4108 157.238L93.2799 157.369C92.8493 157.718 92.3536 157.978 91.8214 158.134C90.3765 158.588 88.8668 158.802 87.3525 158.769C84.966 158.839 82.648 157.967 80.9014 156.343C80.0458 155.556 79.3629 154.601 78.8958 153.538C78.4287 152.475 78.1875 151.327 78.1875 150.166C78.1875 149.005 78.4287 147.856 78.8958 146.793C79.3629 145.73 80.0458 144.775 80.9014 143.989C81.7583 143.169 82.7699 142.528 83.8773 142.101C84.9848 141.675 86.166 141.473 87.3525 141.507C88.8699 141.47 90.3821 141.698 91.8214 142.179C92.3504 142.342 92.8448 142.602 93.2799 142.944L93.4108 143.074C93.4175 143.089 93.421 143.105 93.421 143.121C93.421 143.137 93.4175 143.153 93.4108 143.168C93.5221 143.977 93.5659 144.795 93.5417 145.612C93.5772 146.019 93.5456 146.429 93.4482 146.825C93.2819 146.225 92.9814 145.67 92.5694 145.202C91.8612 144.369 90.9546 143.727 89.9329 143.336C89.0888 142.976 88.1763 142.804 87.259 142.832C86.4088 142.798 85.5613 142.947 84.7741 143.269C83.9868 143.591 83.2782 144.078 82.6965 144.698C81.3783 146.212 80.707 148.182 80.8266 150.184V150.464C80.7504 151.475 80.8765 152.49 81.1975 153.451C81.5185 154.412 82.0281 155.3 82.6965 156.063C83.282 156.678 83.9912 157.162 84.7775 157.483C85.5639 157.805 86.4096 157.957 87.259 157.929C88.1721 157.972 89.0839 157.819 89.9329 157.481C90.9512 157.083 91.8565 156.443 92.5694 155.615C92.9896 155.145 93.291 154.582 93.4482 153.973V153.917Z" fill="#20BEC6"/>
<path id="Vector_12" d="M106.05 151.658C106.771 152.344 107.205 153.278 107.265 154.27C107.318 154.629 107.318 154.994 107.265 155.353C107.183 155.773 107.018 156.173 106.779 156.528C106.542 156.926 106.252 157.29 105.919 157.611C105.678 157.871 105.393 158.086 105.077 158.245C103.819 158.878 102.397 159.113 101.001 158.917C99.5823 158.956 98.1898 158.53 97.0369 157.704V154.401C97.5341 155.33 98.2147 156.149 99.0377 156.808C99.7514 157.322 100.592 157.631 101.468 157.704C103.226 157.853 104.348 157.443 104.853 156.491C104.877 156.375 104.928 156.266 105.003 156.174C105.075 155.86 105.131 155.542 105.171 155.222C105.201 154.536 104.959 153.866 104.498 153.356C103.58 152.536 102.577 151.817 101.506 151.21C100.149 150.418 98.8937 149.466 97.7662 148.373C97.4124 147.985 97.1446 147.527 96.9803 147.029C96.816 146.53 96.7588 146.003 96.8125 145.481C96.8503 144.916 97.0164 144.367 97.2983 143.875C97.5801 143.384 97.9703 142.963 98.4393 142.644C99.5717 141.889 100.941 141.57 102.291 141.748C103.275 141.833 104.243 142.046 105.171 142.383C105.994 142.7 106.368 142.999 106.311 143.279V144.118C106.311 144.604 106.311 145.294 106.311 146.171C106.442 146.414 106.311 146.171 105.769 145.443C105.36 144.766 104.827 144.171 104.198 143.689C103.489 143.192 102.652 142.908 101.786 142.868C101.052 142.783 100.31 142.94 99.6734 143.316C99.4048 143.506 99.1863 143.758 99.0365 144.05C98.8867 144.343 98.8101 144.667 98.8133 144.996C98.7776 145.334 98.816 145.676 98.9258 145.998C99.0355 146.321 99.2141 146.615 99.449 146.862C100.205 147.615 101.076 148.245 102.029 148.728C102.983 149.306 103.806 149.829 104.46 150.314C105.032 150.71 105.564 151.16 106.05 151.658Z" fill="#20BEC6"/>
</g>
</g>
</g>
</svg>
