<svg width="270" height="67" viewBox="0 0 270 67" fill="none" xmlns="http://www.w3.org/2000/svg">
<g clip-path="url(#clip0_147_1750)">
<path d="M97.7069 35.4342C97.3997 35.4708 97.0903 35.4863 96.781 35.4806C94.5422 35.3612 91.6833 35.3016 88.2042 35.3016C85.6707 35.3016 82.2693 35.3163 78 35.3458V35.3016C78.3664 35.2511 78.7171 35.1195 79.0267 34.9161C79.3363 34.7128 79.5971 34.4429 79.7901 34.1259C80.2168 33.46 80.4301 32.5354 80.4301 31.3524L80.4741 11.1137H80.4301V11.0694C80.4301 9.89079 80.2168 8.96631 79.7901 8.29596C79.5971 7.97896 79.3363 7.70903 79.0267 7.5057C78.7171 7.30237 78.3664 7.17071 78 7.12025V7.07606L86.082 7.03188C88.2621 7.03188 90.2795 7.0024 92.1341 6.94347H92.442C93.7396 6.91253 94.9447 6.85285 96.0641 6.76445C97.0068 6.70552 97.4782 6.7652 97.4782 6.94347V7.65286L97.5221 11.5136H97.487C97.4329 11.1402 97.2811 10.7878 97.0471 10.4926C96.7343 10.1425 96.3399 9.87595 95.8992 9.71695C95.2163 9.45453 94.5045 9.27573 93.7791 9.18437C92.6515 9.02995 91.5167 8.93331 90.3792 8.89485C89.1418 8.86538 87.4338 8.85066 85.2551 8.85066C84.7845 8.85066 84.4744 8.9258 84.327 9.07166C84.2484 9.28317 84.2183 9.50981 84.2391 9.73464V18.7954C84.2391 19.1512 84.4458 19.328 84.8571 19.328C85.6224 19.328 88.408 19.3435 93.2139 19.3745C94.3868 19.3745 95.2409 19.1004 95.776 18.5523C96.3009 18.0156 96.6408 17.3239 96.7458 16.5789H96.792C96.7612 17.7325 96.7759 20.114 96.836 23.7236H96.792C96.7411 23.3554 96.6096 23.003 96.4069 22.6919C96.2042 22.3809 95.9354 22.1189 95.6199 21.9247C94.9586 21.496 94.0386 21.2816 92.8599 21.2816C91.0052 21.1638 88.2672 21.1196 84.6459 21.149C84.3798 21.149 84.2479 21.2529 84.2479 21.4606V30.9126C84.2479 32.2386 85.0286 33.0673 86.59 33.3988C86.9697 33.4577 88.309 33.4872 90.6079 33.4872C91.559 33.4996 92.5081 33.3949 93.4339 33.1756C95.202 32.6747 96.5054 32.12 97.344 31.5115C98.1826 30.903 98.72 30.215 98.956 29.4474L99 29.4916L98.1203 35.2176L98.0763 35.485L97.7069 35.4342Z" fill="white"/>
<path d="M105 35.3854C105.364 35.3348 105.712 35.2026 106.019 34.9986C106.326 34.7945 106.585 34.5236 106.776 34.2056C107.2 33.5373 107.413 32.6095 107.414 31.4222L107.502 11.0184H107.458V10.9741C107.458 9.79125 107.245 8.86346 106.82 8.19072C106.629 7.87265 106.37 7.60178 106.063 7.39771C105.755 7.19364 105.407 7.06151 105.044 7.01087V6.96427C109.987 6.81642 114.126 6.74249 117.459 6.74249C122.404 6.74249 126.368 7.94529 129.351 10.3509C132.452 12.8437 134.001 16.2584 134 20.5949C134 25.6426 132.362 29.4728 129.087 32.0853C126.018 34.4924 122.085 35.6213 117.289 35.4719C116.178 35.4719 112.083 35.4564 105.004 35.4254L105 35.3854ZM111.406 30.0849C111.406 31.5102 111.778 32.4609 112.524 32.937C113.27 33.413 114.755 33.6504 116.979 33.6489C125.345 33.6489 129.527 29.492 129.526 21.1782C129.526 12.7742 125.27 8.57292 116.758 8.5744H113.776C112.194 8.72225 111.404 9.16581 111.406 9.90508V30.0849Z" fill="white"/>
<path d="M164.356 8.03911C164.16 7.71596 163.895 7.44064 163.58 7.23313C163.265 7.02562 162.908 6.89108 162.535 6.83927V6.79426H170V6.83927C169.627 6.89108 169.27 7.02562 168.955 7.23313C168.64 7.44064 168.375 7.71596 168.179 8.03911C167.745 8.71743 167.527 9.65911 167.527 10.8642L167.572 23.6953C167.813 27.7337 166.883 30.8529 164.784 33.053C162.625 35.3161 159.507 36.4461 155.429 36.4431C146.793 36.4431 142.475 32.3597 142.475 24.1928L142.52 10.8575H142.475V10.8124C142.475 9.61185 142.258 8.66941 141.823 7.98509C141.626 7.66271 141.36 7.38815 141.045 7.18111C140.73 6.97407 140.373 6.83966 140 6.7875V6.74249H148.959V6.7875C148.571 6.84803 148.203 7.00075 147.886 7.23294C147.569 7.46512 147.312 7.77007 147.135 8.1224C146.701 8.88926 146.454 10.1476 146.394 11.8974V23.4252C146.394 27.1935 147.166 29.951 148.71 31.6978C150.254 33.4447 152.75 34.3188 156.199 34.3203C162.108 34.3203 165.061 30.8994 165.059 24.0577L165.015 10.8575C165.01 9.64938 164.791 8.70993 164.356 8.03911Z" fill="white"/>
<path d="M185.483 35.4721L181.718 35.4267H180.765L177 35.4721V35.4267C178.328 35.2538 179.106 34.2451 179.336 32.4006V32.2255C179.372 32.0112 179.387 31.7941 179.381 31.577L179.422 11.7384H179.381V11.6951C179.381 10.5423 179.172 9.63807 178.752 8.9824C178.563 8.6724 178.308 8.40839 178.005 8.2095C177.702 8.01061 177.359 7.88183 177 7.83247V7.78923L187.819 7.70062C190.185 7.78997 192.061 8.28207 193.446 9.17695C195.149 10.2764 196 11.912 196 14.0836C196 16.9484 194.211 19.4082 190.634 21.4631C190.501 21.5895 190.347 21.6919 190.179 21.7658C189.988 21.8557 189.793 21.9358 189.595 22.0057L189.032 22.2002L188.642 22.3299C188.387 22.4069 188.127 22.4654 187.864 22.505C187.517 22.5634 186.881 22.6196 185.959 22.6779C184.974 22.6312 183.988 22.6892 183.015 22.8509L183.147 31.577C183.147 32.7356 183.362 33.6391 183.774 34.2897C183.962 34.5997 184.218 34.8638 184.521 35.0626C184.824 35.2615 185.167 35.3903 185.526 35.4397V35.4851L185.483 35.4721ZM191.672 14.289V14.2457C191.688 13.4359 191.556 12.63 191.282 11.8681C191.021 11.1893 190.689 10.734 190.287 10.502V10.4155C189.363 9.57683 187.877 9.15678 185.83 9.15534C184.183 9.15534 183.302 9.40176 183.187 9.89459C183.157 10.0366 183.143 10.1817 183.147 10.3269L183.015 20.9185H184.739C185.615 20.9278 186.488 20.8254 187.338 20.6137C187.35 20.6147 187.362 20.6132 187.373 20.6095C187.384 20.6058 187.394 20.5999 187.403 20.5921C187.412 20.584 187.422 20.5779 187.433 20.5742C187.444 20.5704 187.456 20.5692 187.468 20.5704C188.45 20.3343 189.34 19.8071 190.019 19.0573C191.148 17.7792 191.752 16.1192 191.709 14.4122L191.672 14.289Z" fill="white"/>
<path d="M211 6.85346C210.269 6.88677 209.567 7.14103 208.989 7.58153C208.424 8.03914 207.939 8.5836 207.552 9.19381V31.4095C207.526 32.1569 207.763 32.8901 208.222 33.4859C208.521 33.9258 208.9 34.3076 209.339 34.6121C209.811 34.9294 210.343 35.1473 210.904 35.2522C210.963 35.3109 210.979 35.3548 210.951 35.3842C210.83 35.4743 210.457 35.503 209.833 35.4744C205.975 35.3277 202.995 35.3277 200.894 35.4744C200.447 35.503 200.145 35.4436 200 35.2962C200.959 35.2319 201.868 34.8505 202.579 34.214C202.91 33.9346 203.181 33.5938 203.377 33.2111C203.573 32.8284 203.691 32.4112 203.723 31.9836V10.5597C203.735 10.0253 203.612 9.49638 203.366 9.02004C203.143 8.45748 202.815 7.94062 202.4 7.49574C202.239 7.30261 202.037 7.14561 201.809 7.03523C201.581 6.92486 201.331 6.86364 201.077 6.85566C201.314 6.797 203.004 6.76034 206.148 6.74568C209.292 6.73102 210.909 6.76694 211 6.85346Z" fill="white"/>
<path d="M219.459 35.4369H214.045L214 35.3932C214.323 35.3457 214.633 35.2334 214.91 35.0634C215.187 34.8933 215.426 34.6691 215.611 34.4046C215.999 33.8651 216.416 33.3162 216.863 32.7577C217.309 32.2299 218.331 30.2615 219.929 26.8526C221.527 23.4436 222.742 20.7863 223.574 18.8806C225.753 13.6403 227.633 8.95559 229.214 4.82635C233.211 14.1682 237.164 23.0696 241.072 31.5308C241.517 32.6972 242.084 33.6049 242.772 34.2537C243.373 34.8559 244.153 35.2556 245 35.3954V35.4391L238.064 35.485C236.78 32.1752 235.766 29.6127 235.02 27.7974H222.269L219.459 35.4369ZM234.136 25.7306C234.047 25.525 232.212 21.1508 228.632 12.608L222.948 26.0936H234.312L234.136 25.7306Z" fill="white"/>
<path d="M128.108 62.2825C127.382 61.1262 124.749 56.9708 120.208 49.8164L120.236 57.3503V59.614C120.236 60.4101 120.378 61.035 120.671 61.482C120.799 61.696 120.972 61.8782 121.177 62.0155C121.382 62.1529 121.614 62.2418 121.857 62.2758V62.3047H117V62.2825C117.243 62.2481 117.475 62.1591 117.68 62.0218C117.886 61.8845 118.058 61.7024 118.186 61.4886C118.467 61.0439 118.621 60.4168 118.621 59.6207V56.9901L118.708 46.0183C118.708 44.7241 118.689 43.7679 118.65 43.1497H118.737L128.917 58.0953C130.206 56.2422 133.688 51.31 139.363 43.2987V43.3299H139.392L139.363 43.3899L139.392 59.5607C139.392 60.3582 139.533 60.9809 139.816 61.4286C139.943 61.6423 140.116 61.8244 140.321 61.9617C140.525 62.099 140.757 62.1881 141 62.2224V62.2514L138.456 62.2224H137.958C137.178 62.2224 136.272 62.2321 135.237 62.2514V62.2224C135.482 62.1871 135.715 62.0978 135.923 61.9607C136.13 61.8236 136.305 61.642 136.436 61.4286C136.73 60.9839 136.872 60.359 136.848 59.5607L136.73 49.4272L128.108 62.2825V62.3114H128.077V62.2825H128.108Z" fill="white"/>
<path d="M146.695 62.2942H143V62.2642C143.218 62.2334 143.428 62.1603 143.615 62.0495C143.803 61.9388 143.965 61.7926 144.091 61.62C144.354 61.2636 144.636 60.9028 144.94 60.5464C145.244 60.1899 145.934 58.9059 147.013 56.6642C148.092 54.4224 148.917 52.6767 149.492 51.4248C150.965 47.9806 152.237 44.9029 153.308 42.1917C156.012 48.3299 158.688 54.1798 161.334 59.7412C161.573 60.4125 161.967 61.0244 162.486 61.532C162.895 61.9283 163.425 62.1913 164 62.2835V62.3114H159.304C158.436 60.1556 157.75 58.4814 157.245 57.289H148.613L146.695 62.2942ZM156.632 55.9148C156.572 55.7788 155.33 52.9021 152.905 47.2849L149.059 56.1445H156.751L156.632 55.9148Z" fill="white"/>
<path d="M184 43.1497C183.981 44.9979 183.961 46.579 183.941 47.893H183.822C182.941 46.5612 182.19 45.6734 181.571 45.2295C180.803 44.6716 179.481 44.3934 177.606 44.3949H176.49C176.135 44.4349 175.937 44.5126 175.897 44.6324C175.855 44.7049 175.835 44.7883 175.84 44.8721L175.809 59.5524C175.791 60.0566 175.947 60.5515 176.25 60.953C176.446 61.2522 176.697 61.5107 176.99 61.7143C177.301 61.9296 177.654 62.077 178.025 62.1471C178.065 62.187 178.076 62.2159 178.056 62.2381C177.976 62.2958 177.73 62.3158 177.316 62.2958C175.353 62.196 173.387 62.196 171.424 62.2958C171.323 62.3164 171.218 62.3166 171.117 62.2964C171.015 62.2762 170.918 62.236 170.832 62.1782C171.465 62.1341 172.065 61.876 172.534 61.4457C172.973 61.0633 173.245 60.5217 173.29 59.9386L173.259 44.8721C173.259 44.777 173.231 44.6839 173.178 44.6049C173.126 44.5258 173.051 44.4643 172.964 44.4282H171.394C169.52 44.4282 168.199 44.7064 167.429 45.2628C166.817 45.7067 166.067 46.5945 165.178 47.9263H165.059C165.04 46.6137 165.021 45.0319 165 43.1808L173.149 43.2119L184 43.1497Z" fill="white"/>
<path d="M206.975 62.3114L204.331 62.2836H203.814C203.004 62.2836 202.062 62.2929 200.987 62.3114V62.2815C201.239 62.2485 201.48 62.1631 201.693 62.0314C201.906 61.8997 202.085 61.725 202.217 61.5199C202.511 61.0933 202.658 60.4917 202.658 59.7279L202.629 54.5077C202.655 54.2324 202.603 53.9553 202.477 53.7056C202.375 53.5733 202.142 53.505 201.778 53.505H191.29C190.837 53.505 190.57 53.5584 190.469 53.6629C190.367 53.7674 190.317 54.0298 190.317 54.4522L190.347 59.7279C190.347 60.4917 190.494 61.0911 190.788 61.5199C190.92 61.725 191.099 61.8997 191.312 62.0314C191.525 62.1631 191.766 62.2485 192.018 62.2815V62.3092L189.374 62.2815H188.856C188.047 62.2815 187.104 62.2908 186.029 62.3092V62.2815C186.282 62.2486 186.523 62.1631 186.736 62.0314C186.95 61.8997 187.129 61.725 187.262 61.5199C187.556 61.0933 187.701 60.4917 187.701 59.7279V46.736H187.671V46.7083C187.671 45.9446 187.524 45.3472 187.23 44.9163C187.098 44.7116 186.919 44.5372 186.706 44.4058C186.493 44.2745 186.252 44.1894 186 44.1569V44.127H192.049V44.1569C191.787 44.1967 191.538 44.2948 191.324 44.4432C191.11 44.5916 190.936 44.7859 190.817 45.0102C190.523 45.498 190.356 46.3158 190.317 47.4635V51.1051C190.317 51.7557 190.65 52.08 191.319 52.08H201.656C202.06 52.08 202.313 52.0416 202.416 51.9648C202.556 51.8304 202.629 51.5253 202.629 51.0475L202.658 46.7168H202.633V46.687C202.633 45.9232 202.482 45.3259 202.181 44.895C202.048 44.6907 201.868 44.5167 201.656 44.3854C201.443 44.2542 201.202 44.1688 200.951 44.1355V44.1078H207V44.1355C206.737 44.175 206.489 44.273 206.274 44.4214C206.06 44.5698 205.886 44.7644 205.767 44.9888C205.466 45.4752 205.299 46.2923 205.265 47.44V55.6682L205.297 59.7407C205.297 60.5045 205.444 61.1039 205.749 61.5327C205.882 61.7378 206.061 61.9125 206.274 62.0442C206.486 62.1759 206.728 62.2614 206.98 62.2943L206.975 62.3114Z" fill="white"/>
<path d="M55.4358 3.25143C52.2997 1.43966 48.6914 0.779871 45.0988 1.05449C41.1734 1.35674 37.384 2.61756 33.821 4.22898C29.866 6.02004 26.1375 8.28779 22.5675 10.7421C20.7764 11.9718 19.0237 13.2568 17.3006 14.5763C16.6385 15.0824 15.9207 15.5159 15.2307 15.9822C14.5745 16.4278 13.9246 16.8844 13.2811 17.3518C10.7374 19.212 8.31559 21.2621 6.22484 23.6214C4.18462 25.934 2.4824 28.5386 1.38128 31.4195C0.231947 34.4774 -0.213901 37.7511 0.0762969 41.0017C0.424755 45.0587 1.73844 49.0295 3.56088 52.6599C5.09409 55.6842 7.37103 58.277 10.1816 60.1989C12.9414 62.0988 16.1193 63.3544 19.3565 64.2007C22.7801 65.0971 26.31 65.5617 29.8329 65.8484C33.3871 66.1368 36.9449 66.2923 40.4992 65.9382C44.0208 65.6058 47.4829 64.8148 50.7961 63.5858C54.0672 62.3726 57.1247 60.6555 59.856 58.4977C62.6012 56.3079 64.9168 53.6365 66.6875 50.6167C68.3455 47.7489 69.5274 44.6354 70.1878 41.3955C70.8364 38.2282 71.0828 34.9928 70.9213 31.7649C70.7689 28.4594 70.2233 25.1834 69.2957 22.0048C68.3872 18.8517 67.0614 15.8317 65.3529 13.0236C63.7116 10.3099 61.6334 7.8805 59.2009 5.83178C58.028 4.85642 56.7678 3.98925 55.4358 3.24106C54.9462 2.96817 54.5054 3.71429 54.995 3.98718C57.6805 5.50475 60.0645 7.49468 62.0304 9.85948C64.0324 12.2792 65.6708 14.9732 66.8949 17.8579C68.1654 20.8275 69.0653 23.9399 69.5745 27.1258C70.0909 30.2782 70.2289 33.4802 69.9857 36.6648C69.764 39.7313 69.1192 42.7532 68.0692 45.646C66.8903 48.8686 65.1232 51.8486 62.8562 54.4372C60.6232 56.9509 57.9712 59.0657 55.0159 60.6894C52.0169 62.3282 48.7963 63.5322 45.4525 64.2646C42.0463 65.0197 38.5595 65.3578 35.0702 65.2715C31.5956 65.1997 28.1293 64.9049 24.6931 64.389C21.3828 63.8846 18.0515 63.1213 14.9607 61.7983C11.9849 60.5288 9.24075 58.7378 7.0925 56.3163C5.97467 55.0486 5.03033 53.6404 4.28393 52.128C3.33154 50.2196 2.55143 48.2313 1.95275 46.1866C0.987518 42.8687 0.572851 39.3522 1.09554 35.9204C1.57078 32.9536 2.66501 30.1177 4.30832 27.5938C5.94259 25.0428 8.03682 22.8096 10.3192 20.8182C11.4848 19.8027 12.7027 18.8476 13.9554 17.9408C15.2708 16.9891 16.6716 16.1498 17.9626 15.1653C21.3395 12.5533 24.8748 10.1492 28.5488 7.96653C32.0508 5.91641 35.741 4.10636 39.6542 2.95781C43.0882 1.95606 46.7749 1.47074 50.3135 2.2065C51.9633 2.54981 53.5464 3.15459 55.002 3.99755C55.4811 4.27735 55.9202 3.53296 55.4358 3.25143Z" fill="white"/>
<path d="M20.1076 55.1712C19.866 54.7163 19.758 53.573 19.7835 51.741C19.8091 49.9091 20.0588 45.1698 20.5327 37.5232L21.0554 29.2743L20.2818 29.4211C19.7161 29.5362 19.0877 29.4315 18.3966 29.1068C16.9169 28.4908 16.0968 27.58 15.9365 26.3744C15.9365 25.4348 16.6886 23.778 18.1928 21.4037C19.697 19.0295 20.8777 17.6685 21.7349 17.3207C22.9278 16.8394 24.1892 17.1273 25.5191 18.1843C26.1069 18.6644 26.5349 18.9604 26.8032 19.0721C27.0053 19.1567 27.2858 19.4313 27.643 19.8925C28.319 20.7249 28.6843 22.2891 28.7389 24.5851C28.8434 27.4142 28.7633 33.1754 28.4984 41.8687C28.2336 50.562 28.0013 55.1418 27.8015 55.6081C27.6273 56.2851 27.1429 56.7843 26.331 57.1125C25.9968 57.2645 25.6371 57.3541 25.27 57.3767C24.3605 57.47 23.3848 57.2972 22.3429 56.8586C21.301 56.4199 20.5559 55.8574 20.1076 55.1712Z" fill="#FFFBE9"/>
<path d="M39.4014 14.5193C43.6933 12.7829 47.222 13.6281 49.9876 17.0547C51.3419 18.6403 52.2897 20.828 52.831 23.6179C53.2186 25.6674 53.3937 27.7508 53.3537 29.8356C53.3334 32.2271 53.0814 34.6112 52.601 36.9549C52.1426 39.2842 51.265 41.5126 50.0102 43.5336C48.7697 45.5199 47.2272 46.8854 45.3827 47.6304C43.7775 48.2798 42.0526 48.3512 40.2081 47.8446C37.8479 47.2228 35.9534 45.7167 34.5247 43.3264C33.0961 40.936 32.2331 37.9002 31.9357 34.2191C31.6679 30.5966 32.0718 26.9562 33.1274 23.478C34.1821 20.0168 35.6683 17.4336 37.586 15.7283C38.1057 15.2117 38.7225 14.801 39.4014 14.5193ZM47.0292 23.6732C46.7363 22.379 46.2797 21.1267 45.6702 19.946C45.0046 18.6161 44.5156 17.9678 44.2032 18.0012C43.1195 18.4376 42.0741 19.6466 41.067 21.6282C39.9485 23.7975 39.2185 26.3998 38.877 29.4349C38.5293 32.3006 38.6345 35.2026 39.1889 38.0361C39.4573 39.1468 39.8325 40.2295 40.3092 41.2694C40.8318 42.3056 41.2105 42.9389 41.4451 43.1692C41.5305 43.223 41.628 43.2551 41.7289 43.2626C41.8298 43.2702 41.931 43.2529 42.0236 43.2124C42.3836 43.0673 42.8517 42.6695 43.4279 42.0189C45.0865 40.1432 46.266 37.4408 46.9664 33.9117C47.6626 30.5363 47.6839 27.0584 47.0292 23.6749V23.6732Z" fill="#FFFBE9"/>
<path d="M32.0113 58.6237C33.3511 55.1608 36.5273 52.4872 40.0363 51.4095C41.7437 50.9638 43.6272 50.5027 45.352 50.2004C48.2442 49.646 51.3054 49.5752 54.229 49.8015C55.3998 49.8878 56.5602 50.1055 57.7136 50.2713C57.7427 50.2753 57.7707 50.285 57.796 50.2997C57.8213 50.3145 57.8434 50.3341 57.861 50.3574C57.8787 50.3806 57.8915 50.4071 57.8988 50.4353C57.9061 50.4635 57.9077 50.4929 57.9035 50.5217C57.8954 50.5721 57.8703 50.6183 57.8323 50.6528C57.7944 50.6873 57.7458 50.708 57.6944 50.7117C55.4678 51.0036 53.1366 51.292 50.9814 51.874C48.8271 52.3876 46.7175 53.0703 44.6725 53.9155C42.6985 54.7377 40.8883 56.1056 38.8759 56.8379C36.7225 57.6617 34.6805 58.3923 32.3319 58.9363C32.2881 58.949 32.2417 58.9496 32.1976 58.9382C32.1535 58.9267 32.1133 58.9037 32.0813 58.8715C32.0493 58.8392 32.0268 58.799 32.016 58.7551C32.0052 58.7112 32.0066 58.6652 32.02 58.622L32.0113 58.6237Z" fill="#FFFBE9"/>
<path d="M60.4242 23.1429L58.2777 23.3899L58.0303 21.2603C58.0074 21.0629 57.9455 20.8718 57.8482 20.6981C57.7508 20.5244 57.6199 20.3714 57.4629 20.2478C57.3059 20.1242 57.1258 20.0325 56.9331 19.9779C56.7403 19.9233 56.5386 19.9069 56.3394 19.9296C56.1402 19.9522 55.9475 20.0136 55.7723 20.1101C55.597 20.2066 55.4427 20.3364 55.318 20.492C55.1933 20.6477 55.1008 20.8262 55.0458 21.0173C54.9907 21.2083 54.9741 21.4083 54.997 21.6058L55.2444 23.7336L53.0927 23.9823C52.6904 24.0281 52.323 24.2305 52.0712 24.5448C51.8195 24.8592 51.704 25.2598 51.7502 25.6585C51.7964 26.0573 52.0005 26.4215 52.3176 26.671C52.6347 26.9206 53.0389 27.0351 53.4411 26.9893L55.5894 26.744L55.8368 28.8719C55.883 29.2706 56.0871 29.6348 56.4042 29.8844C56.7213 30.134 57.1254 30.2484 57.5277 30.2026C57.9299 30.1568 58.2973 29.9545 58.5491 29.6402C58.8008 29.3258 58.9163 28.9252 58.8701 28.5264L58.6209 26.3986L60.7674 26.1533C61.1697 26.1075 61.5371 25.9052 61.7889 25.5908C62.0406 25.2765 62.1561 24.8759 62.1099 24.4771C62.0637 24.0784 61.8596 23.7142 61.5425 23.4646C61.2253 23.215 60.8212 23.1006 60.419 23.1464L60.4242 23.1429Z" fill="#FFFBE9"/>
</g>
<defs>
<clipPath id="clip0_147_1750">
<rect width="270" height="65.1497" fill="white" transform="translate(0 0.994019)"/>
</clipPath>
</defs>
</svg>
