<svg width="230" height="85" viewBox="0 0 230 85" fill="none" xmlns="http://www.w3.org/2000/svg">
<g id="Asset 3 2" clip-path="url(#clip0_901_5495)">
<g id="Layer 2">
<g id="Layer 1">
<path id="Vector" fill-rule="evenodd" clip-rule="evenodd" d="M34.968 84.2957C25.864 82.596 17.5592 78.0219 11.2948 71.2569C5.03041 64.492 1.1427 55.8994 0.212649 46.7633C-0.149667 43.053 -0.0399968 39.3123 0.53908 35.6291C3.8418 37.9321 20.7779 41.1106 27.2873 44.6697C40.3254 51.7498 39.8453 66.8237 34.968 84.2957ZM38.5588 0.209308C29.4552 1.1252 20.886 4.90371 14.1041 10.9924C7.32218 17.081 2.68322 25.1605 0.865512 34.0494C1.18295 33.9923 1.50817 33.9923 1.82561 34.0494C29.0347 37.2469 57.511 37.304 59.7768 6.71849C59.7306 5.67964 60.0347 4.65511 60.6409 3.80649C53.7356 0.676931 46.1114 -0.565042 38.5588 0.209308ZM46.4123 13.5322C47.1401 14.5966 47.604 15.8163 47.7661 17.0921C47.9283 18.3678 47.7842 19.6635 47.3456 20.8736C46.9069 22.0836 46.1862 23.1739 45.242 24.0557C44.2978 24.9374 43.1568 25.5856 41.9121 25.9476C40.6673 26.3096 39.3538 26.375 38.0787 26.1386C36.8036 25.9022 35.6028 25.3707 34.5741 24.5873C33.5455 23.8038 32.718 22.7907 32.1591 21.6303C31.6003 20.4699 31.3258 19.1951 31.3581 17.9097L40.3638 19.242L46.5276 13.5322H46.4123ZM36.0625 7.82238L50.56 8.3553L39.9989 18.1762L24.3302 15.8922L36.0625 7.82238Z" fill="#005B94"/>
<path id="Vector_2" fill-rule="evenodd" clip-rule="evenodd" d="M63.5972 5.31055C71.5986 9.68783 77.9788 16.4857 81.8063 24.7117C85.6338 32.9377 86.7082 42.161 84.8725 51.0351C83.0369 59.9092 78.3874 67.9693 71.6029 74.0387C64.8184 80.1081 56.2541 83.8689 47.1604 84.772C45.4267 84.9655 43.6813 85.0355 41.9375 84.9814C54.8459 61.3202 62.2715 35.1047 63.674 8.24158C63.8013 7.2665 63.7754 6.27776 63.5972 5.31055Z" fill="#20BEC6"/>
<path id="Vector_3" d="M110.47 22.839H104.018V26.341H109.779V29.6908H104.018V33.4973H110.47V36.8852H99.8516V19.5273H110.566L110.47 22.839Z" fill="#005B94"/>
<path id="Vector_4" d="M128.962 28.2062C129.007 29.3941 128.797 30.5779 128.346 31.6793C127.895 32.7807 127.213 33.7745 126.345 34.595C125.477 35.4155 124.443 36.044 123.312 36.4388C122.181 36.8336 120.978 36.9857 119.783 36.8852H113.293V19.5273H119.841C125.371 19.5273 128.962 23.0294 128.962 28.2062ZM119.514 33.2118C120.198 33.2858 120.89 33.2077 121.54 32.9831C122.19 32.7586 122.781 32.3933 123.27 31.9138C123.759 31.4343 124.134 30.8527 124.368 30.2113C124.602 29.57 124.689 28.885 124.622 28.2062C124.691 27.5245 124.606 26.8362 124.374 26.1909C124.141 25.5457 123.767 24.9596 123.279 24.4752C122.79 23.9907 122.199 23.6199 121.548 23.3896C120.897 23.1594 120.202 23.0753 119.514 23.1436H117.498V33.2118H119.514Z" fill="#005B94"/>
<path id="Vector_5" d="M131.283 19.5273H135.546V29.9002C135.546 31.9557 136.564 33.1357 138.599 33.1357C139.029 33.1711 139.462 33.1102 139.865 32.9576C140.268 32.8049 140.632 32.5643 140.929 32.2537C141.225 31.9431 141.448 31.5703 141.58 31.1629C141.712 30.7555 141.75 30.324 141.691 29.9002V19.5273H145.934V29.8811C145.987 30.8535 145.829 31.8257 145.471 32.7326C145.113 33.6395 144.564 34.4601 143.861 35.1396C143.157 35.819 142.315 36.3416 141.391 36.6722C140.467 37.0028 139.482 37.1338 138.503 37.0564C137.533 37.134 136.557 37.0016 135.643 36.6685C134.729 36.3353 133.899 35.8093 133.211 35.1269C132.522 34.4445 131.991 33.6219 131.655 32.7162C131.319 31.8104 131.186 30.8431 131.264 29.8811L131.283 19.5273Z" fill="#005B94"/>
<path id="Vector_6" d="M155.842 30.6424H153.193V36.8852H148.93V19.5273H155.842C160.124 19.5273 162.275 21.9255 162.275 25.1039C162.275 27.9779 160.316 30.6424 155.842 30.6424ZM155.535 27.2927C157.225 27.2927 157.955 26.4552 157.955 25.1039C157.955 23.7526 157.225 22.9342 155.535 22.9342H153.193V27.2927H155.535Z" fill="#005B94"/>
<path id="Vector_7" d="M164.504 19.5273H168.767V36.8852H164.504V19.5273Z" fill="#005B94"/>
<path id="Vector_8" d="M182.747 33.8019H176.218L175.162 36.8852H170.707L177.044 19.5273H181.979L188.315 36.8852H183.803L182.747 33.8019ZM179.482 24.1904L177.332 30.5473H181.652L179.482 24.1904Z" fill="#005B94"/>
<path id="Vector_9" d="M98.7969 49.1807H112.238V52.5685H107.707V66.6146H103.444V52.5685H98.7969V49.1807Z" fill="#005B94"/>
<path id="Vector_10" d="M114.484 49.1807H118.747V66.6146H114.484V49.1807Z" fill="#005B94"/>
<path id="Vector_11" d="M132.493 52.5678H126.099V56.0698H131.859V59.3435H126.099V63.15H132.493V66.614H121.836V49.18H132.493V52.5678ZM124.044 48.1903L122.623 46.1348L127.097 43.2989L131.552 46.1348L130.15 48.1903L127.097 46.3822L124.044 48.1903ZM135.738 42.1379L131.418 45.088L129.805 43.0515L134.01 39.835L135.738 42.1379Z" fill="#005B94"/>
<path id="Vector_12" d="M150.985 49.1807V66.6146H146.722L139.598 55.8231V66.6146H135.316V49.1807H139.598L146.722 59.9341V49.1807H150.985Z" fill="#005B94"/>
<path id="Vector_13" d="M170.398 54.6614H165.693C165.344 54.0778 164.837 53.6027 164.229 53.2899C163.622 52.9771 162.938 52.839 162.256 52.8913C161.615 52.8765 160.978 52.9978 160.389 53.2471C159.799 53.4964 159.27 53.8679 158.837 54.3366C158.404 54.8054 158.077 55.3605 157.879 55.9647C157.68 56.569 157.614 57.2083 157.686 57.8398C157.608 58.5079 157.679 59.1848 157.896 59.8222C158.112 60.4597 158.468 61.0419 158.937 61.5273C159.407 62.0128 159.979 62.3895 160.612 62.6305C161.246 62.8715 161.925 62.9709 162.602 62.9216C163.555 62.9637 164.494 62.6833 165.265 62.1265C166.036 61.5697 166.593 60.7695 166.845 59.8573H161.43V56.7359H170.705V60.6757C169.977 62.5931 168.601 64.201 166.811 65.225C165.021 66.2491 162.928 66.626 160.889 66.2914C158.85 65.9568 156.991 64.9315 155.63 63.3902C154.268 61.849 153.488 59.8874 153.423 57.8398C153.369 56.6649 153.562 55.4916 153.99 54.3946C154.418 53.2977 155.072 52.3012 155.91 51.4686C156.748 50.6361 157.752 49.9856 158.858 49.5588C159.964 49.132 161.147 48.9382 162.333 48.9896C164.136 48.8423 165.933 49.3304 167.408 50.368C168.884 51.4056 169.942 52.926 170.398 54.6614Z" fill="#005B94"/>
<path id="Vector_14" d="M190.273 49.1807H194.786L188.583 66.6146H183.245L177.043 49.1807H181.575L185.914 62.2752L190.273 49.1807Z" fill="#005B94"/>
<path id="Vector_15" d="M196.551 49.1807H200.833V66.6146H196.551V49.1807Z" fill="#005B94"/>
<path id="Vector_16" d="M214.64 52.5687H208.189V56.0707H213.949V59.3444H208.189V63.1509H214.64V66.6149H203.926V49.1809H214.64V52.5687ZM206.192 48.1912L204.771 46.1357L209.302 43.2998L213.776 46.1357L212.375 48.1912L209.302 46.3831L206.192 48.1912ZM206.825 70.6307C206.837 70.3269 206.911 70.0285 207.044 69.7545C207.177 69.4805 207.366 69.2367 207.598 69.0383C207.831 68.84 208.102 68.6914 208.396 68.6019C208.689 68.5123 208.997 68.4838 209.302 68.5181C209.888 68.5181 210.45 68.7487 210.864 69.1592C211.278 69.5697 211.511 70.1264 211.511 70.7069C211.511 71.2874 211.278 71.8441 210.864 72.2546C210.45 72.665 209.888 72.8956 209.302 72.8956C208.985 72.9313 208.663 72.8988 208.359 72.8003C208.055 72.7017 207.776 72.5395 207.541 72.3247C207.306 72.1098 207.121 71.8473 206.997 71.555C206.874 71.2627 206.815 70.9475 206.825 70.6307Z" fill="#005B94"/>
<path id="Vector_17" d="M216.463 49.1807H229.905V52.5685H225.258V66.6146H220.995V52.5685H216.367L216.463 49.1807Z" fill="#005B94"/>
</g>
</g>
</g>
<defs>
<clipPath id="clip0_901_5495">
<rect width="230" height="85" fill="white"/>
</clipPath>
</defs>
</svg>
