<svg width="270" height="68" viewBox="0 0 270 68" fill="none" xmlns="http://www.w3.org/2000/svg">
<path d="M103.174 41.3686C102.829 41.3904 102.483 41.3904 102.138 41.3686C99.6698 41.2399 96.5278 41.1755 92.7123 41.1755H81.4863C81.8894 41.1276 82.2758 40.9942 82.6169 40.7852C82.958 40.5762 83.245 40.2969 83.4564 39.9682C83.9741 39.0905 84.2157 38.0906 84.1527 37.0868V16.1603C84.2176 15.1564 83.9759 14.156 83.4564 13.2789C83.2431 12.9502 82.956 12.6702 82.6155 12.4587C82.2749 12.2473 81.8894 12.1096 81.4863 12.0555H90.3856C92.7802 12.0555 95.005 12.0555 97.043 12.0555H97.3827C98.8093 12.0555 100.134 11.9589 101.374 11.8624C102.614 11.7658 102.919 11.8623 102.919 12.0555V12.7799V16.7881C102.858 16.4065 102.694 16.0462 102.444 15.7418C102.091 15.3793 101.655 15.0984 101.17 14.9208C100.418 14.6567 99.6379 14.4732 98.8432 14.3735C97.5983 14.2148 96.3455 14.1181 95.0899 14.0838C93.7313 14.0838 91.8631 14.0838 89.4515 14.0838C89.0943 14.0401 88.7324 14.1201 88.4325 14.3091C88.3874 14.5379 88.3874 14.7725 88.4325 15.0013V24.4021C88.4325 24.7723 88.6533 24.9495 89.1118 24.9495H98.2998C98.8059 24.9912 99.3157 24.9372 99.7996 24.7907C100.284 24.6443 100.732 24.4082 101.119 24.0962C101.691 23.5367 102.065 22.8222 102.189 22.0519C102.189 23.2431 102.189 25.7221 102.189 29.4567C102.138 29.0768 101.998 28.7128 101.777 28.3921C101.556 28.0714 101.262 27.8025 100.915 27.6055C100.022 27.0474 98.9786 26.7456 97.9091 26.7362C95.8712 26.6074 92.8142 26.5753 88.8571 26.5914C88.5683 26.5914 88.4325 26.704 88.4325 26.9294V36.7326C88.4325 38.117 89.2816 38.9702 90.9969 39.3082C91.4272 39.3726 92.9047 39.4048 95.4296 39.4048C96.4754 39.4146 97.5187 39.3065 98.5375 39.0829C100.061 38.7383 101.513 38.1563 102.834 37.3604C103.659 36.8501 104.285 36.0983 104.618 35.2195L103.632 41.1594V41.4331L103.174 41.3686Z" fill="white"/>
<path d="M111.292 41.2243C111.693 41.1764 112.077 41.0429 112.415 40.8337C112.753 40.6246 113.037 40.3453 113.245 40.017C113.769 39.1409 114.016 38.1409 113.958 37.1355L114.06 16.032C114.118 15.0267 113.871 14.0266 113.347 13.1506C113.136 12.8204 112.849 12.5392 112.508 12.3276C112.167 12.1159 111.781 11.9791 111.377 11.9272C116.857 11.777 121.442 11.7019 125.133 11.7019C129.849 11.4748 134.502 12.7936 138.312 15.4364C139.979 16.6987 141.309 18.3154 142.195 20.1556C143.08 21.9958 143.495 24.0077 143.407 26.0284C143.407 31.2654 141.596 35.2307 137.973 37.9243C134.185 40.5153 129.553 41.7526 124.896 41.4174H111.309L111.292 41.2243ZM118.374 35.7512C118.295 36.3019 118.367 36.8626 118.585 37.3788C118.802 37.895 119.156 38.3492 119.614 38.697C121.173 39.3222 122.869 39.5764 124.556 39.4375C133.829 39.4375 138.46 35.1449 138.448 26.5597C138.437 17.9745 133.727 13.6335 124.318 13.5369H120.922C119.223 13.6818 118.289 14.1486 118.289 14.9052L118.374 35.7512Z" fill="white"/>
<path d="M176.149 12.9754C175.939 12.6444 175.652 12.3626 175.311 12.1508C174.97 11.9391 174.583 11.8027 174.179 11.752H182.246C181.842 11.8027 181.455 11.9391 181.114 12.1508C180.773 12.3626 180.487 12.6444 180.276 12.9754C179.767 13.8503 179.526 14.8427 179.58 15.8407V28.9277C179.818 30.631 179.671 32.3627 179.15 34.0083C178.629 35.6538 177.745 37.1758 176.557 38.4734C175.206 39.6891 173.601 40.6235 171.846 41.2167C170.091 41.81 168.225 42.0489 166.367 41.9182C157.026 41.9182 152.361 37.7598 152.373 29.4428V15.8407C152.433 14.8352 152.185 13.8346 151.659 12.9592C151.446 12.6306 151.159 12.3505 150.819 12.1391C150.478 11.9276 150.093 11.7899 149.689 11.7358H159.37C158.952 11.7982 158.556 11.9533 158.214 12.1882C157.872 12.4232 157.593 12.7315 157.4 13.088C156.826 14.2954 156.553 15.6118 156.602 16.9353V28.6863C156.602 32.5335 157.434 35.3345 159.098 37.1213C160.763 38.9081 163.463 39.7934 167.182 39.7934C173.568 39.7934 176.761 36.3056 176.761 29.3302V15.8729C176.856 14.8713 176.644 13.8651 176.149 12.9754Z" fill="white"/>
<path d="M199.808 41.3229H195.579H194.509H190.28C191.775 41.1458 192.641 40.0673 192.913 38.1035V37.9264C192.936 37.6962 192.936 37.4644 192.913 37.2342V16.179C192.973 15.1734 192.725 14.1729 192.2 13.2975C191.986 12.9689 191.699 12.6888 191.359 12.4774C191.018 12.2659 190.633 12.1283 190.229 12.0742L202.39 11.9776C204.609 11.9738 206.789 12.5293 208.707 13.5873C209.637 14.1111 210.404 14.8595 210.929 15.756C211.454 16.6525 211.719 17.665 211.696 18.6901C211.696 21.7325 209.675 24.3403 205.667 26.5295C205.513 26.6569 205.341 26.7651 205.158 26.8515L204.495 27.109L203.867 27.3022L203.426 27.4471C203.143 27.5325 202.853 27.5917 202.559 27.6241C202.174 27.6885 201.461 27.7529 200.419 27.8173C199.284 27.763 198.145 27.8223 197.023 27.9944L197.176 37.2664C197.11 38.2653 197.352 39.2607 197.872 40.1317C198.082 40.4627 198.369 40.7445 198.71 40.9562C199.051 41.168 199.438 41.3043 199.842 41.3551L199.808 41.3229ZM206.754 18.7867C206.774 17.9322 206.63 17.0815 206.33 16.2756C206.136 15.6837 205.742 15.1689 205.209 14.8107V14.7302C203.768 13.7168 201.985 13.2412 200.199 13.3941C198.347 13.3941 197.362 13.6517 197.227 14.1668C197.216 14.3223 197.216 14.4782 197.227 14.6336L197.074 25.9017H199.01C199.994 25.9174 200.977 25.8091 201.931 25.5798H202.016C203.121 25.327 204.12 24.7663 204.886 23.97C206.145 22.6111 206.818 20.8524 206.771 19.0443L206.754 18.7867Z" fill="white"/>
<path d="M227.372 11.4769C226.574 11.4977 225.805 11.7632 225.181 12.2335C224.568 12.6831 224.04 13.2273 223.618 13.8432V37.0233C223.589 37.8011 223.847 38.5643 224.349 39.1804C224.683 39.6564 225.113 40.0651 225.614 40.3828C226.115 40.7005 226.678 40.921 227.27 41.0316C227.27 41.0316 227.355 41.1442 227.27 41.1603C226.877 41.2871 226.457 41.3203 226.047 41.2569C221.869 41.112 218.642 41.112 216.383 41.2569C216.043 41.3191 215.691 41.2557 215.398 41.0798C216.439 41.0114 217.426 40.6147 218.201 39.953C218.923 39.3606 219.368 38.5216 219.44 37.6189V15.3403C219.452 14.7814 219.318 14.2285 219.05 13.7306C218.809 13.1359 218.452 12.5898 217.997 12.1209C217.824 11.9191 217.607 11.7556 217.36 11.6416C217.114 11.5276 216.844 11.4659 216.57 11.4609C216.825 11.4609 218.659 11.3482 222.056 11.3321C223.829 11.2535 225.606 11.3019 227.372 11.4769Z" fill="white"/>
<path d="M237.17 41.2262H231.294C231.636 41.1722 231.963 41.053 232.254 40.8759C232.546 40.6989 232.797 40.4675 232.992 40.196C233.417 39.6326 233.858 39.0531 234.351 38.4736C235.652 36.4951 236.788 34.4229 237.748 32.2761C239.446 28.7025 240.805 25.8372 241.705 23.9055C244.082 18.411 246.126 13.4959 247.836 9.1604C252.183 18.969 256.474 28.3108 260.709 37.1858C261.096 38.2536 261.728 39.2268 262.56 40.035C263.215 40.6675 264.066 41.0849 264.989 41.2262H257.465C256.073 37.7707 254.969 35.0878 254.153 33.1776H240.295L237.17 41.2262ZM253.117 31.0527L247.139 17.2734L240.957 31.423H253.304L253.117 31.0527Z" fill="white"/>
<path fill-rule="evenodd" clip-rule="evenodd" d="M262.391 8.09617C261.668 8.09617 260.963 8.29914 260.362 8.67943C259.762 9.05972 259.294 9.60022 259.017 10.2326C258.741 10.865 258.669 11.5609 258.809 12.2323C258.95 12.9036 259.298 13.5203 259.809 14.0043C260.319 14.4883 260.97 14.8179 261.678 14.9515C262.387 15.085 263.121 15.0165 263.788 14.7545C264.455 14.4926 265.025 14.049 265.427 13.4798C265.828 12.9107 266.042 12.2416 266.042 11.5571C266.042 10.6392 265.657 9.75887 264.973 9.10982C264.288 8.46077 263.359 8.09617 262.391 8.09617ZM261.575 11.4122V10.06H262.34C262.565 10.0437 262.789 10.1067 262.968 10.2371C263.036 10.3054 263.088 10.3867 263.12 10.4755C263.152 10.5644 263.164 10.6587 263.155 10.7522C263.162 10.8397 263.147 10.9275 263.111 11.0085C263.076 11.0895 263.021 11.1616 262.951 11.219C262.78 11.3541 262.562 11.4231 262.34 11.4122H261.575ZM262.425 12.0561H261.575V13.6658H260.794V9.38394H262.323C262.748 9.36225 263.169 9.48176 263.512 9.72197C263.66 9.84584 263.777 10 263.853 10.1729C263.93 10.3458 263.964 10.5328 263.953 10.72C263.95 10.9783 263.868 11.2302 263.715 11.4444C263.565 11.6123 263.38 11.7493 263.172 11.8468L264.14 13.4565V13.6175H263.359L262.425 12.0078V12.0561ZM262.425 7.32349C263.308 7.32349 264.172 7.57179 264.906 8.03698C265.641 8.50217 266.213 9.16335 266.551 9.93694C266.889 10.7105 266.978 11.5618 266.805 12.383C266.633 13.2043 266.208 13.9586 265.583 14.5507C264.958 15.1427 264.162 15.546 263.296 15.7093C262.43 15.8727 261.532 15.7888 260.715 15.4684C259.899 15.148 259.202 14.6053 258.711 13.9091C258.22 13.2129 257.958 12.3944 257.958 11.5571C257.962 10.4411 258.43 9.37154 259.259 8.57942C260.088 7.78729 261.213 7.33616 262.391 7.32349H262.425Z" fill="white"/>
<path d="M203.675 54.0661C203.675 53.8504 203.639 53.6601 203.566 53.4951C203.497 53.3259 203.374 53.1737 203.196 53.0383C203.023 52.903 202.781 52.774 202.471 52.6513C202.166 52.5287 201.778 52.4039 201.308 52.277C200.815 52.1417 200.371 51.9915 199.974 51.8266C199.577 51.6574 199.237 51.465 198.954 51.2493C198.671 51.0336 198.455 50.7861 198.304 50.507C198.154 50.2278 198.078 49.9085 198.078 49.549C198.078 49.1895 198.158 48.8575 198.318 48.5529C198.478 48.2484 198.706 47.9841 199.002 47.7599C199.303 47.5315 199.661 47.3539 200.076 47.227C200.491 47.1001 200.954 47.0367 201.465 47.0367C202.213 47.0367 202.847 47.1699 203.367 47.4364C203.892 47.6986 204.291 48.0433 204.565 48.4705C204.839 48.8934 204.975 49.346 204.975 49.8281H203.662C203.662 49.4813 203.582 49.1747 203.422 48.9082C203.263 48.6375 203.021 48.4261 202.697 48.2738C202.373 48.1173 201.963 48.0391 201.465 48.0391C200.996 48.0391 200.608 48.1046 200.302 48.2357C199.997 48.3668 199.768 48.5445 199.618 48.7686C199.472 48.9928 199.399 49.2487 199.399 49.5363C199.399 49.7309 199.442 49.9085 199.529 50.0692C199.62 50.2257 199.759 50.3716 199.946 50.507C200.138 50.6423 200.38 50.7671 200.672 50.8813C200.968 50.9955 201.322 51.1055 201.732 51.2112C202.298 51.3592 202.786 51.5242 203.196 51.706C203.607 51.8879 203.945 52.093 204.209 52.3214C204.478 52.5456 204.677 52.8015 204.804 53.0891C204.937 53.3725 205.003 53.6939 205.003 54.0534C205.003 54.4298 204.921 54.7703 204.756 55.0748C204.592 55.3794 204.357 55.6395 204.052 55.8552C203.746 56.0709 203.379 56.238 202.95 56.3564C202.526 56.4706 202.051 56.5277 201.527 56.5277C201.066 56.5277 200.612 56.4685 200.165 56.35C199.723 56.2316 199.319 56.054 198.954 55.8171C198.594 55.5803 198.304 55.2884 198.085 54.9416C197.871 54.5906 197.764 54.1845 197.764 53.7235H199.077C199.077 54.0407 199.144 54.3135 199.276 54.5419C199.408 54.7661 199.588 54.9522 199.816 55.1002C200.049 55.2483 200.311 55.3582 200.603 55.4301C200.9 55.4978 201.208 55.5316 201.527 55.5316C201.988 55.5316 202.378 55.4724 202.697 55.354C203.016 55.2356 203.258 55.0664 203.422 54.8465C203.591 54.6265 203.675 54.3664 203.675 54.0661Z" fill="white"/>
<path d="M209.567 56.5277C209.051 56.5277 208.584 56.4473 208.164 56.2866C207.749 56.1217 207.391 55.8911 207.09 55.5951C206.793 55.299 206.565 54.948 206.405 54.5419C206.246 54.1359 206.166 53.6918 206.166 53.2096V52.9432C206.166 52.3849 206.255 51.8879 206.433 51.4523C206.611 51.0124 206.852 50.6402 207.158 50.3357C207.464 50.0312 207.81 49.8006 208.198 49.6442C208.586 49.4877 208.987 49.4094 209.402 49.4094C209.932 49.4094 210.388 49.494 210.771 49.6632C211.159 49.8324 211.476 50.0692 211.722 50.3737C211.968 50.674 212.151 51.0293 212.269 51.4396C212.388 51.8456 212.447 52.2897 212.447 52.7719V53.2985H206.919V52.3405H211.181V52.2516C211.163 51.9471 211.095 51.6511 210.976 51.3635C210.862 51.0758 210.68 50.839 210.429 50.6529C210.178 50.4668 209.836 50.3737 209.402 50.3737C209.115 50.3737 208.85 50.4308 208.609 50.545C208.367 50.655 208.159 50.82 207.986 51.0399C207.813 51.2598 207.678 51.5284 207.582 51.8456C207.487 52.1628 207.439 52.5287 207.439 52.9432V53.2096C207.439 53.5353 207.487 53.8419 207.582 54.1296C207.683 54.4129 207.826 54.6625 208.013 54.8782C208.205 55.0939 208.435 55.2631 208.704 55.3857C208.978 55.5084 209.288 55.5697 209.635 55.5697C210.082 55.5697 210.461 55.4851 210.771 55.3159C211.081 55.1468 211.352 54.9205 211.585 54.6371L212.351 55.2017C212.192 55.4259 211.989 55.6395 211.742 55.8425C211.496 56.0455 211.193 56.2105 210.832 56.3374C210.477 56.4642 210.055 56.5277 209.567 56.5277Z" fill="white"/>
<path d="M216.888 55.5634C217.189 55.5634 217.467 55.5063 217.723 55.3921C217.978 55.2779 218.188 55.1214 218.352 54.9226C218.516 54.7196 218.61 54.4891 218.633 54.2311H219.837C219.814 54.6371 219.666 55.0156 219.392 55.3667C219.123 55.7135 218.769 55.9948 218.332 56.2105C217.894 56.4219 217.412 56.5277 216.888 56.5277C216.331 56.5277 215.846 56.4368 215.43 56.2549C215.02 56.073 214.678 55.8235 214.404 55.5063C214.135 55.189 213.932 54.8253 213.795 54.415C213.663 54.0006 213.597 53.5628 213.597 53.1018V52.8353C213.597 52.3743 213.663 51.9387 213.795 51.5284C213.932 51.1139 214.135 50.7481 214.404 50.4308C214.678 50.1136 215.02 49.8641 215.43 49.6822C215.846 49.5004 216.331 49.4094 216.888 49.4094C217.467 49.4094 217.973 49.5194 218.407 49.7393C218.84 49.955 219.18 50.2511 219.426 50.6275C219.677 50.9997 219.814 51.4227 219.837 51.8964H218.633C218.61 51.613 218.523 51.3571 218.373 51.1287C218.227 50.9003 218.026 50.7185 217.77 50.5831C217.52 50.4435 217.225 50.3737 216.888 50.3737C216.5 50.3737 216.174 50.4456 215.909 50.5895C215.649 50.729 215.442 50.9194 215.287 51.1604C215.136 51.3973 215.027 51.6616 214.958 51.9535C214.894 52.2411 214.863 52.535 214.863 52.8353V53.1018C214.863 53.4021 214.894 53.6981 214.958 53.99C215.022 54.2818 215.129 54.5462 215.28 54.783C215.435 55.0199 215.643 55.2102 215.903 55.354C216.167 55.4936 216.496 55.5634 216.888 55.5634Z" fill="white"/>
<path d="M220.925 53.0447V52.8988C220.925 52.4039 221.002 51.945 221.157 51.5221C221.312 51.0949 221.536 50.7248 221.828 50.4118C222.12 50.0946 222.473 49.8493 222.888 49.6759C223.304 49.4982 223.769 49.4094 224.284 49.4094C224.804 49.4094 225.272 49.4982 225.687 49.6759C226.107 49.8493 226.462 50.0946 226.754 50.4118C227.051 50.7248 227.277 51.0949 227.432 51.5221C227.587 51.945 227.664 52.4039 227.664 52.8988V53.0447C227.664 53.5395 227.587 53.9984 227.432 54.4214C227.277 54.8443 227.051 55.2144 226.754 55.5316C226.462 55.8446 226.109 56.0899 225.694 56.2676C225.283 56.441 224.818 56.5277 224.298 56.5277C223.778 56.5277 223.31 56.441 222.895 56.2676C222.48 56.0899 222.124 55.8446 221.828 55.5316C221.536 55.2144 221.312 54.8443 221.157 54.4214C221.002 53.9984 220.925 53.5395 220.925 53.0447ZM222.191 52.8988V53.0447C222.191 53.3873 222.234 53.7108 222.321 54.0154C222.407 54.3157 222.537 54.5821 222.711 54.8147C222.888 55.0474 223.11 55.2313 223.374 55.3667C223.639 55.4978 223.947 55.5634 224.298 55.5634C224.645 55.5634 224.948 55.4978 225.208 55.3667C225.473 55.2313 225.692 55.0474 225.865 54.8147C226.038 54.5821 226.168 54.3157 226.255 54.0154C226.346 53.7108 226.392 53.3873 226.392 53.0447V52.8988C226.392 52.5604 226.346 52.2411 226.255 51.9408C226.168 51.6363 226.036 51.3677 225.858 51.1351C225.685 50.8982 225.466 50.7121 225.201 50.5768C224.941 50.4414 224.636 50.3737 224.284 50.3737C223.938 50.3737 223.632 50.4414 223.367 50.5768C223.107 50.7121 222.888 50.8982 222.711 51.1351C222.537 51.3677 222.407 51.6363 222.321 51.9408C222.234 52.2411 222.191 52.5604 222.191 52.8988Z" fill="white"/>
<path d="M230.518 51.0018V56.4008H229.252V49.5363H230.449L230.518 51.0018ZM230.217 52.7084L229.69 52.6894C229.694 52.2199 229.77 51.7864 229.916 51.3888C230.061 50.987 230.267 50.6381 230.531 50.342C230.796 50.046 231.111 49.8176 231.476 49.6568C231.845 49.4919 232.253 49.4094 232.7 49.4094C233.065 49.4094 233.394 49.4559 233.686 49.549C233.978 49.6378 234.226 49.7816 234.431 49.9804C234.641 50.1792 234.801 50.4372 234.91 50.7544C235.02 51.0674 235.075 51.4502 235.075 51.9027V56.4008H233.802V51.89C233.802 51.5305 233.745 51.2429 233.631 51.0272C233.517 50.8073 233.35 50.6487 233.131 50.5514C232.912 50.4499 232.643 50.3991 232.324 50.3991C232.009 50.3991 231.722 50.4605 231.462 50.5831C231.206 50.7058 230.985 50.8749 230.798 51.0906C230.616 51.3064 230.472 51.5538 230.367 51.8329C230.267 52.1078 230.217 52.3997 230.217 52.7084Z" fill="white"/>
<path d="M241.664 55.0685V46.656H242.936V56.4008H241.773L241.664 55.0685ZM236.683 53.0447V52.9115C236.683 52.387 236.751 51.9112 236.888 51.484C237.029 51.0526 237.228 50.6825 237.483 50.3737C237.743 50.065 238.051 49.8281 238.407 49.6632C238.767 49.494 239.169 49.4094 239.611 49.4094C240.076 49.4094 240.482 49.4855 240.829 49.6378C241.18 49.7858 241.477 50.0037 241.718 50.2913C241.965 50.5746 242.159 50.9172 242.3 51.319C242.441 51.7208 242.539 52.1755 242.594 52.6831V53.2667C242.544 53.77 242.446 54.2226 242.3 54.6244C242.159 55.0262 241.965 55.3688 241.718 55.6522C241.477 55.9356 241.18 56.1534 240.829 56.3056C240.478 56.4537 240.067 56.5277 239.597 56.5277C239.164 56.5277 238.767 56.441 238.407 56.2676C238.051 56.0942 237.743 55.851 237.483 55.538C237.228 55.225 237.029 54.857 236.888 54.4341C236.751 54.0069 236.683 53.5438 236.683 53.0447ZM237.955 52.9115V53.0447C237.955 53.3873 237.992 53.7087 238.065 54.009C238.142 54.3093 238.261 54.5737 238.42 54.802C238.58 55.0304 238.783 55.2102 239.029 55.3413C239.276 55.4682 239.57 55.5316 239.912 55.5316C240.332 55.5316 240.676 55.4492 240.945 55.2842C241.219 55.1193 241.438 54.9014 241.602 54.6308C241.766 54.3601 241.894 54.0661 241.985 53.7489V52.2199C241.931 51.9873 241.851 51.7631 241.746 51.5474C241.645 51.3275 241.513 51.1329 241.349 50.9638C241.189 50.7904 240.991 50.6529 240.754 50.5514C240.521 50.4499 240.245 50.3991 239.926 50.3991C239.579 50.3991 239.28 50.4668 239.029 50.6021C238.783 50.7333 238.58 50.9151 238.42 51.1477C238.261 51.3761 238.142 51.6426 238.065 51.9471C237.992 52.2474 237.955 52.5689 237.955 52.9115Z" fill="white"/>
<path d="M249.272 55.2271V51.6934C249.272 51.4227 249.213 51.1879 249.094 50.9891C248.98 50.7861 248.807 50.6296 248.574 50.5197C248.342 50.4097 248.054 50.3547 247.712 50.3547C247.393 50.3547 247.112 50.4055 246.871 50.507C246.633 50.6085 246.446 50.7417 246.31 50.9067C246.177 51.0716 246.111 51.2493 246.111 51.4396H244.845C244.845 51.1943 244.914 50.9511 245.051 50.71C245.187 50.4689 245.384 50.2511 245.639 50.0565C245.899 49.8577 246.209 49.7013 246.57 49.5871C246.935 49.4686 247.34 49.4094 247.788 49.4094C248.326 49.4094 248.8 49.494 249.211 49.6632C249.626 49.8324 249.95 50.0883 250.182 50.4308C250.42 50.7692 250.538 51.1943 250.538 51.706V54.9036C250.538 55.1319 250.559 55.3751 250.6 55.6331C250.645 55.8911 250.711 56.1132 250.798 56.2993V56.4008H249.478C249.414 56.2655 249.364 56.0857 249.327 55.8615C249.291 55.6331 249.272 55.4217 249.272 55.2271ZM249.491 52.239L249.505 53.0637H248.225C247.865 53.0637 247.543 53.0912 247.261 53.1462C246.978 53.1969 246.741 53.2752 246.549 53.3809C246.357 53.4867 246.212 53.6199 246.111 53.7806C246.011 53.9371 245.961 54.1211 245.961 54.3326C245.961 54.5483 246.013 54.7449 246.118 54.9226C246.223 55.1002 246.38 55.2419 246.59 55.3477C246.805 55.4492 247.067 55.4999 247.377 55.4999C247.765 55.4999 248.107 55.4238 248.403 55.2715C248.7 55.1193 248.935 54.9332 249.108 54.7132C249.286 54.4933 249.382 54.2797 249.395 54.0725L249.936 54.6371C249.904 54.8147 249.817 55.0114 249.676 55.2271C249.535 55.4428 249.345 55.6501 249.108 55.8488C248.875 56.0434 248.597 56.2062 248.273 56.3374C247.954 56.4642 247.594 56.5277 247.192 56.5277C246.69 56.5277 246.25 56.4368 245.872 56.2549C245.498 56.073 245.206 55.8298 244.996 55.5253C244.791 55.2165 244.688 54.8718 244.688 54.4912C244.688 54.1232 244.766 53.7997 244.921 53.5205C245.076 53.2371 245.299 53.0024 245.591 52.8163C245.883 52.626 246.234 52.4822 246.645 52.3849C247.055 52.2876 247.514 52.239 248.02 52.239H249.491Z" fill="white"/>
<path d="M253.795 50.6148V56.4008H252.529V49.5363H253.761L253.795 50.6148ZM256.108 49.4982L256.101 50.5895C255.996 50.5683 255.896 50.5556 255.8 50.5514C255.709 50.5429 255.604 50.5387 255.485 50.5387C255.193 50.5387 254.935 50.581 254.712 50.6656C254.488 50.7502 254.299 50.8686 254.144 51.0209C253.989 51.1731 253.866 51.355 253.775 51.5665C253.688 51.7737 253.631 52.0021 253.603 52.2516L253.248 52.442C253.248 52.0275 253.291 51.6384 253.378 51.2746C253.469 50.9109 253.608 50.5895 253.795 50.3103C253.982 50.0269 254.219 49.807 254.507 49.6505C254.799 49.4898 255.145 49.4094 255.547 49.4094C255.638 49.4094 255.743 49.42 255.861 49.4411C255.98 49.4581 256.062 49.4771 256.108 49.4982Z" fill="white"/>
<path d="M259.481 55.6902L261.54 49.5363H262.895L259.926 57.4603C259.857 57.6295 259.766 57.8113 259.652 58.0059C259.543 58.2047 259.401 58.3929 259.228 58.5705C259.054 58.7482 258.845 58.892 258.598 59.002C258.357 59.1161 258.067 59.1732 257.729 59.1732C257.629 59.1732 257.501 59.1606 257.346 59.1352C257.191 59.1098 257.082 59.0887 257.018 59.0717L257.011 58.1201C257.047 58.1243 257.104 58.1286 257.182 58.1328C257.264 58.1412 257.321 58.1455 257.353 58.1455C257.64 58.1455 257.884 58.1095 258.085 58.0376C258.286 57.9699 258.455 57.8536 258.591 57.6887C258.733 57.528 258.854 57.3059 258.954 57.0225L259.481 55.6902ZM257.969 49.5363L259.891 54.8655L260.22 56.1026L259.31 56.534L256.587 49.5363H257.969Z" fill="white"/>
<path fill-rule="evenodd" clip-rule="evenodd" d="M27.805 65.4427C19.0568 63.8568 11.2968 59.0214 6.18407 51.9704C1.07132 44.9194 -0.988459 36.2123 0.445094 27.7107C3.07298 29.4975 16.5284 31.9765 21.6844 34.7291C31.9631 40.2344 31.6637 51.9371 27.7884 65.491L27.805 65.4427ZM30.6824 0.168289C23.4544 0.890024 16.6531 3.82561 11.2684 8.54779C5.8838 13.27 2.1969 19.5322 0.744461 26.423C1.00284 26.4347 1.25926 26.4724 1.50955 26.5356C23.1314 28.9341 45.8509 28.9502 47.5973 5.2067C47.5695 4.40922 47.8087 3.62443 48.2792 2.9692C42.7906 0.545215 36.7344 -0.42149 30.7323 0.168289H30.6824ZM37.0192 10.5349C37.4876 11.2438 37.8028 12.0371 37.9457 12.8671C38.0887 13.6971 38.0564 14.5465 37.8508 15.3641C37.4912 16.8773 36.5692 18.2098 35.2602 19.1076C33.9512 20.0054 32.3468 20.406 30.7524 20.233C29.1581 20.06 27.6851 19.3256 26.6141 18.1695C25.543 17.0134 24.9487 15.5164 24.9443 13.9636L32.0961 14.9939L37.0858 10.5832L37.0192 10.5349ZM28.7031 6.07596L40.2292 6.49451L31.9131 14.028L19.5222 12.2412L28.7031 6.07596Z" fill="white"/>
<path fill-rule="evenodd" clip-rule="evenodd" d="M50.5913 4.12769C56.9559 7.52556 62.0313 12.8039 65.0762 19.1919C68.121 25.5799 68.9758 32.7428 67.5156 39.6343C66.0555 46.5258 62.3569 52.785 56.9601 57.4976C51.5634 62.2102 44.7511 65.1293 37.5184 65.8285C36.132 65.9702 34.7374 66.024 33.3438 65.9895C43.323 47.6064 49.8927 26.7604 50.6412 6.42958C50.7415 5.66407 50.7246 4.88845 50.5913 4.12769Z" fill="white"/>
</svg>
