<svg width="146" height="60" viewBox="0 0 146 60" fill="none" xmlns="http://www.w3.org/2000/svg">
<g id="gi&#195;&#161;o d&#225;&#187;&#165;c th&#225;&#187;&#157;i &#196;&#145;&#225;&#186;&#161;i 1" clip-path="url(#clip0_773_24169)">
<g id="Group">
<g id="Group_2">
<path id="Vector" d="M27.979 57.6128C30.4068 57.6128 32.3749 55.9611 32.3749 53.9237C32.3749 51.8862 30.4068 50.2345 27.979 50.2345C25.5511 50.2345 23.583 51.8862 23.583 53.9237C23.583 55.9611 25.5511 57.6128 27.979 57.6128Z" fill="#F8975B"/>
<g id="Group_3">
<path id="Vector_2" d="M12.583 37.549C12.583 37.549 13.9285 39.3823 13.9285 42.2758L18.2033 52.7895L22.7664 41.6479L25.7932 41.6954L22.5269 49.7017C22.5269 49.7017 26.6582 45.6027 32.5181 49.1227C32.5181 49.1227 33.1421 45.4084 30.4524 44.4924C27.7627 43.5764 25.7932 44.5399 25.7932 44.5399L27.1387 41.55C27.1387 41.55 34.4403 41.1165 35.1604 46.5663V59.6364H38.715V40.2494L35.8332 37.5965H29.3005C29.3005 37.5965 29.6362 39.2369 30.9344 40.9724C30.9344 40.9724 28.4369 40.2969 26.4186 37.5965C26.4172 37.5979 12.583 37.5979 12.583 37.549Z" fill="#F8975B"/>
<path id="Vector_3" d="M21.0382 52.886L18.2998 59.7832H24.7851C24.7851 59.7832 20.9421 58.5288 21.0382 52.886Z" fill="#F8975B"/>
<path id="Vector_4" d="M12.7283 47.2432L18.0603 59.7833H14.6491C14.6491 59.7833 8.59698 55.1054 12.7283 47.2432Z" fill="#F8975B"/>
<path id="Vector_5" d="M30.1641 59.6867H32.5417V58.119C32.5431 58.119 31.894 59.1077 30.1641 59.6867Z" fill="#F8975B"/>
</g>
</g>
<g id="Group_4">
<path id="Vector_6" d="M85.9013 45.1146C85.2675 43.0883 84.0794 41.3038 82.5165 39.9291C83.1642 39.2397 84.1351 37.9013 83.9902 36.1728C83.9916 36.1532 83.993 36.1351 83.993 36.1155C83.993 35.24 83.2339 34.531 82.2965 34.531C81.3591 34.531 80.5999 35.24 80.5999 36.1155C80.5999 36.9909 81.3591 37.6999 82.2965 37.6999C82.2965 37.6999 82.8355 38.4355 82.3118 39.7543C80.2921 38.0607 77.6818 37.0371 74.8278 37.0371C69.135 37.0371 64.4034 41.1038 63.4256 46.4656V37.5937H58.9084V46.3033H50.5636V41.5318V41.0703V37.6062H32.6162V41.5318H37.2336V59.6014H42.0099V41.5318H46.0493V59.6014H50.5664V49.8513H58.9112V59.6014H63.4284V50.5715C64.4062 55.9318 69.1364 60 74.8306 60C80.0344 60 84.4373 56.6017 85.9027 51.9238V59.6014H90.5201V37.6999H85.9027L85.9013 45.1146ZM74.8292 55.7794C70.8358 55.7794 67.5973 52.5279 67.5973 48.5185C67.5973 44.5091 70.8358 41.2576 74.8292 41.2576C78.8226 41.2576 82.0611 44.5091 82.0611 48.5185C82.0611 52.5293 78.824 55.7794 74.8292 55.7794Z" fill="#EE0200"/>
<path id="Vector_7" d="M45.3837 3.31158L44.0647 0C44.0647 0 39.9654 3.78426 39.7773 9.17677C39.7773 9.17677 42.0394 4.58838 45.3837 3.31158Z" fill="#EE0200"/>
<path id="Vector_8" d="M47.175 24.0775C44.2541 20.0569 40.2021 23.2734 40.2021 23.2734L43.8306 13.0086L51.0862 32.5914H57.0227L55.1715 28.0058C57.7554 31.2768 61.7683 33.3871 66.2868 33.3871C74.0842 33.3871 80.4066 27.1248 80.4066 19.401C80.4066 11.6759 74.0856 5.4149 66.2868 5.4149C58.4894 5.4149 52.1671 11.6772 52.1671 19.401C52.1671 19.8499 52.1935 20.2932 52.2353 20.7323L46.0439 5.39252C41.0964 7.3322 39.2118 12.5345 39.2118 12.5345L31.5788 31.1831V6.0554H26.0671V18.5437H20.7295H14.4629V22.707H20.4941C20.4941 22.707 20.164 28.761 14.0395 28.761C7.91492 28.761 4.38115 21.4288 6.83125 15.2322C9.28134 9.03554 17.3378 8.37266 20.5888 14.1442L25.2536 11.7793C25.2536 11.7793 22.5208 4.96739 13.9935 5.29882C5.46621 5.63026 0.754063 11.7318 0.518665 17.8809C0.283266 24.0299 2.21521 34.7366 17.4325 32.9704C23.8176 32.2292 25.7969 25.097 26.0685 23.9866V32.4501H31.062H31.5801H36.9985C40.6256 24.0775 47.175 24.0775 47.175 24.0775ZM66.2868 10.5557C71.1522 10.5557 75.0969 14.5161 75.0969 19.401C75.0969 24.2859 71.1522 28.2463 66.2868 28.2463C61.4214 28.2463 57.4768 24.2859 57.4768 19.401C57.4754 14.5161 61.4201 10.5557 66.2868 10.5557Z" fill="#EE0200"/>
<path id="Vector_9" d="M139.501 10.5557C141.82 10.5557 143.928 11.4563 145.501 12.9261V6.73787C143.68 5.8904 141.646 5.41492 139.501 5.41492C132.938 5.41492 127.438 9.85786 125.855 15.8671V6.14911H120.201V21.5225C120.201 21.5225 120.767 28.8071 115.537 28.8071C110.306 28.8071 110.448 22.7532 110.448 20.4345C110.448 18.1172 110.448 6.10157 110.448 6.10157C110.448 6.10157 104.842 6.10157 104.795 6.10157V15.1748C103.134 10.0522 98.5712 6.4372 93.912 6.14911C93.912 6.14911 83.7829 6.10157 83.8302 6.14911V32.5914H93.0178C93.0178 32.5914 102.207 32.397 104.848 23.4412C105.09 26.0983 106.533 33.6123 115.113 33.3004C125.525 32.9214 125.62 25.827 125.855 23.8873V22.935C127.438 28.9456 132.939 33.3871 139.501 33.3871C141.646 33.3871 143.68 32.9117 145.501 32.0642V25.8759C143.928 27.3457 141.819 28.2464 139.501 28.2464C134.636 28.2464 130.691 24.2859 130.691 19.401C130.691 14.5162 134.635 10.5557 139.501 10.5557ZM99.6591 21.475C98.9529 28.712 89.4826 28.1443 89.4826 28.1443V10.5487C97.3037 10.4061 100.365 14.2379 99.6591 21.475Z" fill="#EE0200"/>
<path id="Vector_10" d="M118.397 34.3646H112.484C112.911 35.7128 114.072 36.6819 115.44 36.6819C116.811 36.6833 117.971 35.7141 118.397 34.3646Z" fill="#EE0200"/>
<path id="Vector_11" d="M130.706 58.5498L122.274 37.1322C117.986 38.3615 116.62 42.7135 116.62 42.7135L113.579 50.1687C113.905 47.6291 113.34 44.9231 111.862 42.4772C108.611 37.0958 99.0471 37.7 99.0471 37.7H95.8908V46.5453H94.5244V50.5184H95.8908V59.6H100.508C100.508 59.6 105.691 59.3637 107.576 58.4169C109.235 57.5848 110.554 56.4689 111.537 55.1739L109.791 59.4574C109.743 59.4098 114.691 59.4574 114.691 59.4574C118.082 52.3154 122.983 52.4091 122.983 52.4091C120.438 49.5716 117.424 51.7462 117.424 51.7462L120.25 43.5162L126.281 59.5049H130.709V59.6H135.326V37.7H130.709V58.5498H130.706ZM108.892 49.5255C108.657 55.9584 101.919 55.8633 101.919 55.8633H100.505V50.5184H103.945V46.5453H100.505V41.3416C101.018 41.3416 101.684 41.3416 102.531 41.3416C105.123 41.343 109.129 43.0925 108.892 49.5255Z" fill="#EE0200"/>
<path id="Vector_12" d="M120.459 57.1415C119.089 57.1415 117.929 58.1106 117.503 59.4587H123.416C122.99 58.1106 121.828 57.1415 120.459 57.1415Z" fill="#EE0200"/>
<path id="Vector_13" d="M73.9111 32.5913C75.8194 35.7127 79.7766 37.1321 79.7766 37.1321C78.3628 35.8553 77.6566 32.5913 77.6566 32.5913H73.9111Z" fill="#EE0200"/>
</g>
</g>
</g>
<defs>
<clipPath id="clip0_773_24169">
<rect width="145" height="60" fill="white" transform="translate(0.5)"/>
</clipPath>
</defs>
</svg>
