<svg width="27" height="27" viewBox="0 0 27 27" fill="none" xmlns="http://www.w3.org/2000/svg">
<g id="24px" clip-path="url(#clip0_874_4906)">
<g id="Icon">
<path d="M23.5194 11.3202C23.5194 19.1602 13.4394 25.8802 13.4394 25.8802C13.4394 25.8802 3.35938 19.1602 3.35938 11.3202C3.35938 8.64685 4.42137 6.08296 6.31174 4.1926C8.2021 2.30223 10.766 1.24023 13.4394 1.24023C16.1128 1.24023 18.6766 2.30223 20.567 4.1926C22.4574 6.08296 23.5194 8.64685 23.5194 11.3202Z" stroke="#21BDC6" stroke-width="2" stroke-linecap="round" stroke-linejoin="round"/>
<path d="M13.4394 14.6802C15.2951 14.6802 16.7994 13.1759 16.7994 11.3202C16.7994 9.46456 15.2951 7.96023 13.4394 7.96023C11.5837 7.96023 10.0794 9.46456 10.0794 11.3202C10.0794 13.1759 11.5837 14.6802 13.4394 14.6802Z" stroke="#21BDC6" stroke-width="2" stroke-linecap="round" stroke-linejoin="round"/>
</g>
</g>
<defs>
<clipPath id="clip0_874_4906">
<rect width="26.88" height="26.88" fill="white" transform="translate(0 0.120117)"/>
</clipPath>
</defs>
</svg>
