<svg width="270" height="74" viewBox="0 0 270 74" fill="none" xmlns="http://www.w3.org/2000/svg">
<path d="M103.174 47.5867C102.829 47.6097 102.483 47.6097 102.138 47.5867C99.6698 47.4501 96.5278 47.3818 92.7123 47.3818H81.4863C81.8894 47.3311 82.2758 47.1896 82.6169 46.9679C82.958 46.7462 83.245 46.45 83.4564 46.1014C83.9741 45.1705 84.2157 44.1099 84.1527 43.0453V20.8506C84.2176 19.7858 83.9759 18.7248 83.4564 17.7946C83.2431 17.446 82.956 17.1489 82.6155 16.9247C82.2749 16.7004 81.8894 16.5544 81.4863 16.497H90.3856C92.7802 16.497 95.005 16.497 97.043 16.497H97.3827C98.8093 16.497 100.134 16.3946 101.374 16.2921C102.614 16.1897 102.919 16.2921 102.919 16.497V17.2653V21.5164C102.858 21.1117 102.694 20.7296 102.444 20.4067C102.091 20.0222 101.655 19.7243 101.17 19.536C100.418 19.2559 99.6379 19.0612 98.8432 18.9555C97.5983 18.7871 96.3455 18.6846 95.0899 18.6482C93.7313 18.6482 91.8631 18.6482 89.4515 18.6482C89.0943 18.6018 88.7324 18.6867 88.4325 18.8872C88.3874 19.1298 88.3874 19.3787 88.4325 19.6213V29.5919C88.4325 29.9845 88.6533 30.1724 89.1118 30.1724H98.2998C98.8059 30.2166 99.3157 30.1594 99.7996 30.0041C100.284 29.8487 100.732 29.5984 101.119 29.2675C101.691 28.674 102.065 27.9162 102.189 27.0992C102.189 28.3626 102.189 30.9919 102.189 34.9528C102.138 34.5499 101.998 34.1638 101.777 33.8237C101.556 33.4836 101.262 33.1983 100.915 32.9894C100.022 32.3975 98.9786 32.0774 97.9091 32.0675C95.8712 31.9309 92.8142 31.8967 88.8571 31.9138C88.5683 31.9138 88.4325 32.0333 88.4325 32.2723V42.6697C88.4325 44.138 89.2816 45.0428 90.9969 45.4014C91.4272 45.4697 92.9047 45.5038 95.4296 45.5038C96.4754 45.5142 97.5187 45.3996 98.5375 45.1624C100.061 44.797 101.513 44.1796 102.834 43.3356C103.659 42.7943 104.285 41.9969 104.618 41.0648L103.633 47.3647V47.655L103.174 47.5867Z" fill="white"/>
<path d="M111.292 47.434C111.693 47.3832 112.077 47.2416 112.415 47.0198C112.754 46.7979 113.038 46.5017 113.245 46.1535C113.769 45.2244 114.016 44.1637 113.959 43.0974L114.06 20.7149C114.118 19.6486 113.871 18.588 113.347 17.6589C113.136 17.3087 112.849 17.0105 112.508 16.786C112.167 16.5615 111.781 16.4164 111.377 16.3613C116.857 16.202 121.443 16.1223 125.134 16.1223C129.849 15.8815 134.503 17.2802 138.313 20.0832C139.98 21.422 141.31 23.1367 142.195 25.0884C143.08 27.0402 143.495 29.174 143.408 31.3172C143.408 36.8715 141.596 41.0772 137.973 43.934C134.186 46.682 129.553 47.9943 124.896 47.6388H111.309L111.292 47.434ZM118.374 41.6292C118.295 42.2133 118.368 42.8079 118.585 43.3555C118.802 43.903 119.157 44.3846 119.614 44.7535C121.173 45.4166 122.87 45.6863 124.556 45.5389C133.829 45.5389 138.46 40.9861 138.448 31.8806C138.437 22.7751 133.727 18.171 124.318 18.0686H120.922C119.223 18.2223 118.289 18.7174 118.289 19.5198L118.374 41.6292Z" fill="white"/>
<path d="M176.15 17.4709C175.939 17.1199 175.653 16.821 175.312 16.5964C174.971 16.3718 174.584 16.2272 174.18 16.1733H182.247C181.843 16.2272 181.456 16.3718 181.115 16.5964C180.774 16.821 180.487 17.1199 180.277 17.4709C179.767 18.3988 179.526 19.4514 179.58 20.5099V34.3901C179.818 36.1966 179.672 38.0332 179.15 39.7785C178.629 41.5238 177.745 43.138 176.557 44.5143C175.206 45.8036 173.601 46.7947 171.847 47.4239C170.092 48.0531 168.226 48.3065 166.368 48.1679C157.027 48.1679 152.362 43.7574 152.373 34.9364V20.5099C152.433 19.4434 152.185 18.3822 151.66 17.4538C151.447 17.1052 151.16 16.8082 150.819 16.5839C150.479 16.3596 150.093 16.2136 149.69 16.1562H159.37C158.953 16.2224 158.557 16.3868 158.214 16.6361C157.872 16.8853 157.593 17.2122 157.4 17.5904C156.826 18.8709 156.553 20.2671 156.602 21.6708V34.134C156.602 38.2144 157.434 41.1851 159.099 43.0802C160.763 44.9753 163.463 45.9143 167.183 45.9143C173.568 45.9143 176.761 42.2151 176.761 34.8169V20.544C176.856 19.4818 176.644 18.4146 176.15 17.4709Z" fill="white"/>
<path d="M199.808 47.536H195.579H194.509H190.28C191.775 47.3482 192.641 46.2043 192.913 44.1214V43.9336C192.935 43.6895 192.935 43.4436 192.913 43.1995V20.8682C192.972 19.8017 192.725 18.7405 192.199 17.8121C191.986 17.4635 191.699 17.1665 191.358 16.9422C191.018 16.7179 190.632 16.572 190.229 16.5146L202.389 16.4121C204.609 16.4081 206.789 16.9973 208.707 18.1194C209.637 18.675 210.404 19.4688 210.929 20.4196C211.454 21.3704 211.719 22.4442 211.696 23.5315C211.696 26.7583 209.675 29.5241 205.667 31.846C205.512 31.9811 205.341 32.0959 205.158 32.1875L204.495 32.4607L203.867 32.6655L203.425 32.8192C203.143 32.9097 202.853 32.9726 202.559 33.007C202.174 33.0753 201.461 33.1436 200.419 33.2119C199.284 33.1542 198.145 33.2172 197.023 33.3997L197.175 43.2336C197.11 44.2931 197.352 45.3488 197.872 46.2726C198.082 46.6236 198.369 46.9225 198.71 47.1471C199.051 47.3717 199.438 47.5163 199.842 47.5701L199.808 47.536ZM206.754 23.634C206.773 22.7277 206.63 21.8254 206.329 20.9706C206.136 20.3429 205.742 19.7968 205.208 19.417V19.3316C203.768 18.2568 201.985 17.7523 200.198 17.9146C198.347 17.9146 197.362 18.1877 197.226 18.7341C197.216 18.8989 197.216 19.0643 197.226 19.2292L197.074 31.1802H199.01C199.994 31.1968 200.976 31.082 201.931 30.8387H202.016C203.121 30.5706 204.12 29.976 204.886 29.1314C206.145 27.6901 206.818 25.8249 206.771 23.9071L206.754 23.634Z" fill="white"/>
<path d="M227.372 15.8837C226.575 15.9058 225.806 16.1874 225.181 16.6862C224.569 17.163 224.041 17.7401 223.619 18.3934V42.9784C223.589 43.8033 223.847 44.6127 224.349 45.2662C224.683 45.7711 225.113 46.2045 225.614 46.5415C226.116 46.8785 226.679 47.1123 227.27 47.2295C227.27 47.2295 227.355 47.349 227.27 47.3661C226.877 47.5006 226.457 47.5358 226.047 47.4685C221.87 47.3149 218.643 47.3149 216.384 47.4685C216.044 47.5345 215.691 47.4673 215.399 47.2808C216.44 47.2082 217.426 46.7874 218.201 46.0856C218.923 45.4573 219.369 44.5675 219.441 43.6101V19.9813C219.452 19.3885 219.318 18.8021 219.05 18.274C218.81 17.6433 218.452 17.064 217.997 16.5667C217.825 16.3527 217.607 16.1793 217.361 16.0584C217.115 15.9375 216.845 15.8721 216.571 15.8667C216.826 15.8667 218.66 15.7472 222.056 15.7301C223.83 15.6468 225.607 15.6981 227.372 15.8837Z" fill="white"/>
<path d="M237.171 47.433H231.294C231.636 47.3757 231.963 47.2493 232.255 47.0615C232.547 46.8737 232.798 46.6284 232.993 46.3403C233.417 45.7428 233.859 45.1282 234.351 44.5136C235.653 42.4152 236.788 40.2174 237.748 37.9405C239.446 34.1503 240.805 31.1113 241.705 29.0626C244.083 23.235 246.126 18.0221 247.836 13.4238C252.184 23.8269 256.475 33.7349 260.709 43.1477C261.096 44.2803 261.729 45.3124 262.561 46.1696C263.215 46.8404 264.066 47.2831 264.989 47.433H257.466C256.073 43.768 254.969 40.9226 254.154 38.8966H240.296L237.171 47.433ZM253.118 36.6429L247.14 22.0286L240.958 37.0356H253.305L253.118 36.6429Z" fill="white"/>
<path fill-rule="evenodd" clip-rule="evenodd" d="M262.391 12.3C261.669 12.3 260.963 12.5153 260.362 12.9186C259.762 13.3219 259.294 13.8952 259.017 14.5659C258.741 15.2366 258.669 15.9747 258.81 16.6867C258.951 17.3988 259.298 18.0528 259.809 18.5662C260.32 19.0795 260.97 19.4291 261.679 19.5708C262.387 19.7124 263.121 19.6397 263.788 19.3619C264.455 19.0841 265.026 18.6136 265.427 18.0099C265.828 17.4063 266.042 16.6966 266.042 15.9706C266.042 14.9971 265.658 14.0634 264.973 13.3751C264.288 12.6867 263.359 12.3 262.391 12.3ZM261.576 15.817V14.3829H262.34C262.565 14.3655 262.789 14.4324 262.968 14.5707C263.036 14.6431 263.088 14.7293 263.12 14.8236C263.153 14.9178 263.164 15.0178 263.155 15.117C263.162 15.2098 263.147 15.3029 263.112 15.3888C263.076 15.4748 263.021 15.5512 262.951 15.6121C262.78 15.7554 262.562 15.8286 262.34 15.817H261.576ZM262.425 16.4999H261.576V18.2072H260.794V13.6658H262.323C262.749 13.6428 263.169 13.7696 263.512 14.0243C263.66 14.1557 263.777 14.3192 263.854 14.5026C263.93 14.6859 263.964 14.8843 263.953 15.0828C263.951 15.3568 263.868 15.6239 263.716 15.8511C263.565 16.0293 263.38 16.1745 263.172 16.2779L264.14 17.9852V18.156H263.359L262.425 16.4487V16.4999ZM262.425 11.4805C263.308 11.4805 264.172 11.7438 264.906 12.2372C265.641 12.7306 266.213 13.4318 266.551 14.2523C266.89 15.0728 266.978 15.9756 266.806 16.8466C266.633 17.7176 266.208 18.5177 265.583 19.1457C264.959 19.7736 264.163 20.2013 263.296 20.3745C262.43 20.5478 261.532 20.4589 260.716 20.119C259.899 19.7792 259.202 19.2037 258.711 18.4652C258.22 17.7268 257.958 16.8587 257.958 15.9706C257.963 14.787 258.43 13.6527 259.259 12.8125C260.089 11.9724 261.214 11.4939 262.391 11.4805H262.425Z" fill="white"/>
<path d="M85.985 54.3707V63.6348H84.7761V54.3707H85.985ZM88.9628 54.3707V55.376H81.8047V54.3707H88.9628ZM91.4378 56.7503V63.6348H90.2544V56.7503H91.4378ZM90.1653 54.9242C90.1653 54.7333 90.2226 54.5722 90.3371 54.4407C90.4559 54.3092 90.6298 54.2434 90.8588 54.2434C91.0837 54.2434 91.2554 54.3092 91.3742 54.4407C91.4972 54.5722 91.5587 54.7333 91.5587 54.9242C91.5587 55.1066 91.4972 55.2636 91.3742 55.3951C91.2554 55.5223 91.0837 55.5859 90.8588 55.5859C90.6298 55.5859 90.4559 55.5223 90.3371 55.3951C90.2226 55.2636 90.1653 55.1066 90.1653 54.9242ZM96.1844 63.762C95.7051 63.762 95.2703 63.6814 94.8801 63.5202C94.4941 63.3548 94.1611 63.1236 93.8811 62.8267C93.6054 62.5298 93.3933 62.1777 93.2449 61.7705C93.0964 61.3633 93.0222 60.9179 93.0222 60.4343V60.1671C93.0222 59.6072 93.1049 59.1088 93.2703 58.6719C93.4357 58.2307 93.6606 57.8574 93.9448 57.552C94.229 57.2466 94.5513 57.0154 94.9119 56.8585C95.2724 56.7015 95.6457 56.6231 96.0317 56.6231C96.5238 56.6231 96.948 56.7079 97.3043 56.8776C97.6648 57.0472 97.9596 57.2848 98.1887 57.5902C98.4177 57.8914 98.5874 58.2477 98.6977 58.6591C98.808 59.0663 98.8631 59.5117 98.8631 59.9953V60.5234H93.7221V59.5626H97.686V59.4736C97.6691 59.1681 97.6054 58.8712 97.4951 58.5828C97.3891 58.2943 97.2194 58.0568 96.9861 57.8702C96.7528 57.6835 96.4347 57.5902 96.0317 57.5902C95.7645 57.5902 95.5185 57.6475 95.2936 57.762C95.0688 57.8723 94.8758 58.0377 94.7146 58.2583C94.5535 58.4789 94.4283 58.7482 94.3392 59.0663C94.2502 59.3845 94.2056 59.7514 94.2056 60.1671V60.4343C94.2056 60.7609 94.2502 61.0685 94.3392 61.3569C94.4326 61.6411 94.5662 61.8914 94.7401 62.1077C94.9182 62.324 95.1325 62.4937 95.3827 62.6167C95.6372 62.7397 95.9257 62.8013 96.2481 62.8013C96.6637 62.8013 97.0158 62.7164 97.3043 62.5467C97.5927 62.3771 97.8451 62.1501 98.0614 61.8659L98.774 62.4322C98.6256 62.657 98.4368 62.8712 98.2078 63.0748C97.9787 63.2785 97.6966 63.4439 97.3615 63.5711C97.0307 63.6984 96.6383 63.762 96.1844 63.762ZM93.6902 55.7323L95.5418 54.0653H96.5089L98.3605 55.7323H97.107L96.0254 54.727L94.9437 55.7323H93.6902ZM97.8896 54.6061L98.7868 52.9645H100.059L98.7804 54.6061H97.8896ZM101.415 58.2201V63.6348H100.237V56.7503H101.351L101.415 58.2201ZM101.135 59.9317L100.645 59.9126C100.649 59.4417 100.719 59.007 100.855 58.6082C100.99 58.2053 101.181 57.8553 101.427 57.5584C101.673 57.2615 101.966 57.0324 102.305 56.8712C102.649 56.7058 103.029 56.6231 103.444 56.6231C103.784 56.6231 104.089 56.6697 104.361 56.763C104.632 56.8521 104.863 56.9963 105.054 57.1957C105.249 57.3951 105.398 57.6538 105.499 57.972C105.601 58.2859 105.652 58.6697 105.652 59.1236V63.6348H104.469V59.1109C104.469 58.7503 104.416 58.4619 104.31 58.2456C104.204 58.025 104.049 57.8659 103.845 57.7683C103.642 57.6665 103.391 57.6156 103.094 57.6156C102.802 57.6156 102.534 57.6772 102.293 57.8002C102.055 57.9232 101.849 58.0928 101.675 58.3092C101.506 58.5255 101.372 58.7737 101.275 59.0536C101.181 59.3293 101.135 59.622 101.135 59.9317ZM111.9 56.7503H112.969V63.4884C112.969 64.095 112.846 64.6125 112.6 65.0409C112.354 65.4693 112.011 65.7938 111.569 66.0144C111.133 66.2392 110.628 66.3516 110.055 66.3516C109.818 66.3516 109.538 66.3135 109.215 66.2371C108.897 66.165 108.583 66.0399 108.274 65.8617C107.968 65.6878 107.712 65.4524 107.504 65.1555L108.121 64.4556C108.409 64.8034 108.71 65.0452 109.024 65.1809C109.343 65.3166 109.656 65.3845 109.966 65.3845C110.339 65.3845 110.662 65.3145 110.933 65.1745C111.205 65.0346 111.415 64.8267 111.563 64.551C111.716 64.2795 111.792 63.9444 111.792 63.5457V58.2646L111.9 56.7503ZM107.16 60.2689V60.1353C107.16 59.6093 107.222 59.1321 107.345 58.7037C107.472 58.271 107.652 57.8998 107.885 57.5902C108.123 57.2805 108.409 57.043 108.744 56.8776C109.08 56.7079 109.457 56.6231 109.877 56.6231C110.31 56.6231 110.687 56.6994 111.01 56.8521C111.336 57.0006 111.612 57.219 111.837 57.5075C112.066 57.7917 112.246 58.1353 112.378 58.5382C112.509 58.9412 112.6 59.3972 112.651 59.9062V60.4916C112.604 60.9964 112.513 61.4502 112.378 61.8532C112.246 62.2562 112.066 62.5998 111.837 62.884C111.612 63.1682 111.336 63.3866 111.01 63.5393C110.683 63.6878 110.301 63.762 109.864 63.762C109.453 63.762 109.08 63.6751 108.744 63.5011C108.414 63.3272 108.129 63.0833 107.892 62.7694C107.654 62.4555 107.472 62.0865 107.345 61.6623C107.222 61.2339 107.16 60.7694 107.16 60.2689ZM108.337 60.1353V60.2689C108.337 60.6125 108.371 60.9349 108.439 61.236C108.511 61.5372 108.619 61.8023 108.763 62.0314C108.912 62.2604 109.101 62.4407 109.33 62.5722C109.559 62.6994 109.832 62.7631 110.151 62.7631C110.541 62.7631 110.863 62.6804 111.118 62.5149C111.372 62.3495 111.574 62.131 111.722 61.8596C111.875 61.5881 111.994 61.2933 112.078 60.9752V59.4417C112.032 59.2084 111.96 58.9836 111.862 58.7673C111.769 58.5467 111.646 58.3516 111.493 58.1819C111.345 58.008 111.16 57.8702 110.94 57.7683C110.719 57.6665 110.46 57.6156 110.163 57.6156C109.841 57.6156 109.563 57.6835 109.33 57.8193C109.101 57.9507 108.912 58.1331 108.763 58.3664C108.619 58.5955 108.511 58.8627 108.439 59.1681C108.371 59.4693 108.337 59.7917 108.337 60.1353ZM121.597 55.1915L118.53 63.6348H117.277L120.808 54.3707H121.616L121.597 55.1915ZM124.168 63.6348L121.094 55.1915L121.075 54.3707H121.883L125.427 63.6348H124.168ZM124.009 60.2053V61.2106H118.804V60.2053H124.009ZM127.667 58.2201V63.6348H126.49V56.7503H127.603L127.667 58.2201ZM127.387 59.9317L126.897 59.9126C126.901 59.4417 126.971 59.007 127.107 58.6082C127.243 58.2053 127.434 57.8553 127.68 57.5584C127.926 57.2615 128.219 57.0324 128.558 56.8712C128.901 56.7058 129.281 56.6231 129.697 56.6231C130.036 56.6231 130.342 56.6697 130.613 56.763C130.885 56.8521 131.116 56.9963 131.307 57.1957C131.502 57.3951 131.65 57.6538 131.752 57.972C131.854 58.2859 131.905 58.6697 131.905 59.1236V63.6348H130.721V59.1109C130.721 58.7503 130.668 58.4619 130.562 58.2456C130.456 58.025 130.301 57.8659 130.098 57.7683C129.894 57.6665 129.644 57.6156 129.347 57.6156C129.054 57.6156 128.787 57.6772 128.545 57.8002C128.308 57.9232 128.102 58.0928 127.928 58.3092C127.758 58.5255 127.625 58.7737 127.527 59.0536C127.434 59.3293 127.387 59.622 127.387 59.9317ZM134.87 53.8616V63.6348H133.693V53.8616H134.87ZM134.59 59.9317L134.1 59.9126C134.104 59.4417 134.174 59.007 134.31 58.6082C134.446 58.2053 134.636 57.8553 134.882 57.5584C135.128 57.2615 135.421 57.0324 135.76 56.8712C136.104 56.7058 136.484 56.6231 136.899 56.6231C137.239 56.6231 137.544 56.6697 137.816 56.763C138.087 56.8521 138.318 56.9963 138.509 57.1957C138.704 57.3951 138.853 57.6538 138.955 57.972C139.056 58.2859 139.107 58.6697 139.107 59.1236V63.6348H137.924V59.1109C137.924 58.7503 137.871 58.4619 137.765 58.2456C137.659 58.025 137.504 57.8659 137.3 57.7683C137.097 57.6665 136.846 57.6156 136.549 57.6156C136.257 57.6156 135.99 57.6772 135.748 57.8002C135.51 57.9232 135.304 58.0928 135.131 58.3092C134.961 58.5255 134.827 58.7737 134.73 59.0536C134.636 59.3293 134.59 59.622 134.59 59.9317ZM143.79 60.2689V60.1226C143.79 59.6263 143.862 59.166 144.007 58.7418C144.151 58.3134 144.359 57.9423 144.63 57.6284C144.902 57.3102 145.23 57.0642 145.616 56.8903C146.002 56.7121 146.435 56.6231 146.914 56.6231C147.398 56.6231 147.833 56.7121 148.219 56.8903C148.609 57.0642 148.94 57.3102 149.211 57.6284C149.487 57.9423 149.697 58.3134 149.841 58.7418C149.985 59.166 150.057 59.6263 150.057 60.1226V60.2689C150.057 60.7652 149.985 61.2254 149.841 61.6496C149.697 62.0738 149.487 62.4449 149.211 62.7631C148.94 63.077 148.611 63.323 148.225 63.5011C147.843 63.6751 147.411 63.762 146.927 63.762C146.443 63.762 146.009 63.6751 145.623 63.5011C145.237 63.323 144.906 63.077 144.63 62.7631C144.359 62.4449 144.151 62.0738 144.007 61.6496C143.862 61.2254 143.79 60.7652 143.79 60.2689ZM144.967 60.1226V60.2689C144.967 60.6125 145.008 60.937 145.088 61.2424C145.169 61.5436 145.29 61.8108 145.451 62.0441C145.616 62.2774 145.822 62.4619 146.068 62.5976C146.314 62.7291 146.6 62.7949 146.927 62.7949C147.249 62.7949 147.531 62.7291 147.773 62.5976C148.019 62.4619 148.223 62.2774 148.384 62.0441C148.545 61.8108 148.666 61.5436 148.747 61.2424C148.832 60.937 148.874 60.6125 148.874 60.2689V60.1226C148.874 59.7832 148.832 59.463 148.747 59.1618C148.666 58.8564 148.543 58.587 148.378 58.3537C148.217 58.1162 148.013 57.9295 147.767 57.7938C147.525 57.6581 147.241 57.5902 146.914 57.5902C146.592 57.5902 146.308 57.6581 146.062 57.7938C145.82 57.9295 145.616 58.1162 145.451 58.3537C145.29 58.587 145.169 58.8564 145.088 59.1618C145.008 59.463 144.967 59.7832 144.967 60.1226ZM152.711 58.2201V63.6348H151.534V56.7503H152.647L152.711 58.2201ZM152.431 59.9317L151.941 59.9126C151.945 59.4417 152.015 59.007 152.151 58.6082C152.287 58.2053 152.477 57.8553 152.723 57.5584C152.969 57.2615 153.262 57.0324 153.601 56.8712C153.945 56.7058 154.325 56.6231 154.74 56.6231C155.08 56.6231 155.385 56.6697 155.657 56.763C155.928 56.8521 156.159 56.9963 156.35 57.1957C156.545 57.3951 156.694 57.6538 156.796 57.972C156.897 58.2859 156.948 58.6697 156.948 59.1236V63.6348H155.765V59.1109C155.765 58.7503 155.712 58.4619 155.606 58.2456C155.5 58.025 155.345 57.8659 155.141 57.7683C154.938 57.6665 154.687 57.6156 154.39 57.6156C154.098 57.6156 153.831 57.6772 153.589 57.8002C153.351 57.9232 153.145 58.0928 152.972 58.3092C152.802 58.5255 152.668 58.7737 152.571 59.0536C152.477 59.3293 152.431 59.622 152.431 59.9317ZM160.015 53.8616V63.6348H158.832V53.8616H160.015ZM163.184 56.7503V63.6348H162V56.7503H163.184ZM161.911 54.9242C161.911 54.7333 161.968 54.5722 162.083 54.4407C162.202 54.3092 162.376 54.2434 162.605 54.2434C162.83 54.2434 163.001 54.3092 163.12 54.4407C163.243 54.5722 163.305 54.7333 163.305 54.9242C163.305 55.1066 163.243 55.2636 163.12 55.3951C163.001 55.5223 162.83 55.5859 162.605 55.5859C162.376 55.5859 162.202 55.5223 162.083 55.3951C161.968 55.2636 161.911 55.1066 161.911 54.9242ZM166.251 58.2201V63.6348H165.073V56.7503H166.187L166.251 58.2201ZM165.971 59.9317L165.481 59.9126C165.485 59.4417 165.555 59.007 165.691 58.6082C165.826 58.2053 166.017 57.8553 166.263 57.5584C166.509 57.2615 166.802 57.0324 167.141 56.8712C167.485 56.7058 167.865 56.6231 168.28 56.6231C168.62 56.6231 168.925 56.6697 169.196 56.763C169.468 56.8521 169.699 56.9963 169.89 57.1957C170.085 57.3951 170.234 57.6538 170.335 57.972C170.437 58.2859 170.488 58.6697 170.488 59.1236V63.6348H169.305V59.1109C169.305 58.7503 169.252 58.4619 169.146 58.2456C169.04 58.025 168.885 57.8659 168.681 57.7683C168.477 57.6665 168.227 57.6156 167.93 57.6156C167.638 57.6156 167.37 57.6772 167.129 57.8002C166.891 57.9232 166.685 58.0928 166.511 58.3092C166.342 58.5255 166.208 58.7737 166.111 59.0536C166.017 59.3293 165.971 59.622 165.971 59.9317ZM175.133 63.762C174.654 63.762 174.219 63.6814 173.829 63.5202C173.443 63.3548 173.11 63.1236 172.83 62.8267C172.554 62.5298 172.342 62.1777 172.193 61.7705C172.045 61.3633 171.971 60.9179 171.971 60.4343V60.1671C171.971 59.6072 172.053 59.1088 172.219 58.6719C172.384 58.2307 172.609 57.8574 172.893 57.552C173.177 57.2466 173.5 57.0154 173.86 56.8585C174.221 56.7015 174.594 56.6231 174.98 56.6231C175.472 56.6231 175.896 56.7079 176.253 56.8776C176.613 57.0472 176.908 57.2848 177.137 57.5902C177.366 57.8914 177.536 58.2477 177.646 58.6591C177.756 59.0663 177.812 59.5117 177.812 59.9953V60.5234H172.671V59.5626H176.634V59.4736C176.618 59.1681 176.554 58.8712 176.444 58.5828C176.338 58.2943 176.168 58.0568 175.935 57.8702C175.701 57.6835 175.383 57.5902 174.98 57.5902C174.713 57.5902 174.467 57.6475 174.242 57.762C174.017 57.8723 173.824 58.0377 173.663 58.2583C173.502 58.4789 173.377 58.7482 173.288 59.0663C173.199 59.3845 173.154 59.7514 173.154 60.1671V60.4343C173.154 60.7609 173.199 61.0685 173.288 61.3569C173.381 61.6411 173.515 61.8914 173.689 62.1077C173.867 62.324 174.081 62.4937 174.331 62.6167C174.586 62.7397 174.874 62.8013 175.197 62.8013C175.612 62.8013 175.964 62.7164 176.253 62.5467C176.541 62.3771 176.794 62.1501 177.01 61.8659L177.723 62.4322C177.574 62.657 177.385 62.8712 177.156 63.0748C176.927 63.2785 176.645 63.4439 176.31 63.5711C175.979 63.6984 175.587 63.762 175.133 63.762ZM185.173 62.7949C185.453 62.7949 185.712 62.7376 185.949 62.6231C186.187 62.5086 186.382 62.3516 186.535 62.1523C186.688 61.9486 186.775 61.7175 186.796 61.4587H187.916C187.894 61.8659 187.757 62.2456 187.502 62.5976C187.252 62.9455 186.923 63.2276 186.516 63.4439C186.109 63.656 185.661 63.762 185.173 63.762C184.656 63.762 184.204 63.6708 183.818 63.4884C183.436 63.306 183.118 63.0558 182.864 62.7376C182.613 62.4195 182.425 62.0547 182.297 61.6432C182.174 61.2275 182.113 60.7885 182.113 60.3262V60.0589C182.113 59.5966 182.174 59.1597 182.297 58.7482C182.425 58.3325 182.613 57.9656 182.864 57.6475C183.118 57.3293 183.436 57.0791 183.818 56.8967C184.204 56.7143 184.656 56.6231 185.173 56.6231C185.712 56.6231 186.183 56.7333 186.586 56.9539C186.989 57.1703 187.305 57.4672 187.534 57.8447C187.767 58.218 187.894 58.6422 187.916 59.1172H186.796C186.775 58.833 186.694 58.5764 186.554 58.3474C186.418 58.1183 186.232 57.9359 185.994 57.8002C185.761 57.6602 185.487 57.5902 185.173 57.5902C184.813 57.5902 184.509 57.6623 184.263 57.8065C184.022 57.9465 183.829 58.1374 183.684 58.3792C183.544 58.6167 183.443 58.8818 183.379 59.1745C183.32 59.463 183.29 59.7578 183.29 60.0589V60.3262C183.29 60.6273 183.32 60.9243 183.379 61.2169C183.438 61.5096 183.538 61.7747 183.678 62.0123C183.822 62.2498 184.015 62.4407 184.257 62.5849C184.503 62.7249 184.808 62.7949 185.173 62.7949ZM190.416 53.8616V63.6348H189.239V53.8616H190.416ZM190.136 59.9317L189.646 59.9126C189.65 59.4417 189.72 59.007 189.856 58.6082C189.992 58.2053 190.183 57.8553 190.429 57.5584C190.675 57.2615 190.968 57.0324 191.307 56.8712C191.65 56.7058 192.03 56.6231 192.446 56.6231C192.785 56.6231 193.091 56.6697 193.362 56.763C193.634 56.8521 193.865 56.9963 194.056 57.1957C194.251 57.3951 194.399 57.6538 194.501 57.972C194.603 58.2859 194.654 58.6697 194.654 59.1236V63.6348H193.47V59.1109C193.47 58.7503 193.417 58.4619 193.311 58.2456C193.205 58.025 193.05 57.8659 192.847 57.7683C192.643 57.6665 192.393 57.6156 192.096 57.6156C191.803 57.6156 191.536 57.6772 191.294 57.8002C191.057 57.9232 190.851 58.0928 190.677 58.3092C190.507 58.5255 190.374 58.7737 190.276 59.0536C190.183 59.3293 190.136 59.622 190.136 59.9317ZM200.476 62.4577V58.9136C200.476 58.6422 200.42 58.4067 200.31 58.2074C200.204 58.0038 200.043 57.8468 199.827 57.7365C199.61 57.6262 199.343 57.5711 199.025 57.5711C198.728 57.5711 198.467 57.622 198.242 57.7238C198.022 57.8256 197.848 57.9592 197.721 58.1247C197.597 58.2901 197.536 58.4682 197.536 58.6591H196.359C196.359 58.4131 196.423 58.1692 196.55 57.9274C196.677 57.6856 196.859 57.4672 197.097 57.2721C197.339 57.0727 197.627 56.9157 197.962 56.8012C198.302 56.6824 198.679 56.6231 199.095 56.6231C199.595 56.6231 200.037 56.7079 200.418 56.8776C200.804 57.0472 201.105 57.3039 201.322 57.6475C201.542 57.9868 201.653 58.4131 201.653 58.9264V62.1332C201.653 62.3622 201.672 62.6061 201.71 62.8649C201.752 63.1236 201.814 63.3463 201.894 63.533V63.6348H200.666C200.607 63.499 200.56 63.3188 200.526 63.0939C200.493 62.8649 200.476 62.6528 200.476 62.4577ZM200.679 59.4608L200.692 60.288H199.502C199.167 60.288 198.868 60.3156 198.605 60.3707C198.342 60.4216 198.121 60.5001 197.943 60.6061C197.765 60.7122 197.629 60.8458 197.536 61.007C197.443 61.1639 197.396 61.3484 197.396 61.5605C197.396 61.7769 197.445 61.9741 197.542 62.1523C197.64 62.3304 197.786 62.4725 197.981 62.5786C198.181 62.6804 198.425 62.7313 198.713 62.7313C199.074 62.7313 199.392 62.6549 199.667 62.5022C199.943 62.3495 200.162 62.1629 200.323 61.9423C200.488 61.7217 200.577 61.5075 200.59 61.2997L201.093 61.8659C201.063 62.0441 200.982 62.2413 200.851 62.4577C200.719 62.674 200.543 62.8818 200.323 63.0812C200.107 63.2763 199.848 63.4396 199.547 63.5711C199.25 63.6984 198.915 63.762 198.541 63.762C198.075 63.762 197.665 63.6708 197.313 63.4884C196.965 63.306 196.694 63.0621 196.499 62.7567C196.308 62.4471 196.213 62.1014 196.213 61.7196C196.213 61.3506 196.285 61.0261 196.429 60.7461C196.573 60.4619 196.781 60.2265 197.052 60.0398C197.324 59.849 197.651 59.7047 198.032 59.6072C198.414 59.5096 198.84 59.4608 199.311 59.4608H200.679ZM196.887 55.7323L198.739 54.0653H199.706L201.557 55.7323H200.304L199.222 54.727L198.14 55.7323H196.887ZM201.086 54.6061L201.984 52.9645H203.256L201.977 54.6061H201.086ZM206.387 56.7503V57.6538H202.664V56.7503H206.387ZM203.924 55.0769H205.101V61.9296C205.101 62.1629 205.137 62.3389 205.209 62.4577C205.282 62.5764 205.375 62.6549 205.489 62.6931C205.604 62.7313 205.727 62.7503 205.858 62.7503C205.956 62.7503 206.058 62.7419 206.164 62.7249C206.274 62.7037 206.357 62.6867 206.412 62.674L206.418 63.6348C206.325 63.6645 206.202 63.692 206.049 63.7175C205.901 63.7472 205.721 63.762 205.508 63.762C205.22 63.762 204.955 63.7048 204.713 63.5902C204.471 63.4757 204.278 63.2848 204.134 63.0176C203.994 62.7461 203.924 62.3813 203.924 61.9232V55.0769ZM212.278 53.8616V63.6348H211.095V53.8616H212.278ZM220.614 56.1968H221.517C221.517 56.6591 221.456 57.0472 221.332 57.3611C221.214 57.675 221.004 57.9105 220.703 58.0674C220.401 58.2243 219.977 58.3028 219.43 58.3028V57.5775C219.812 57.5775 220.085 57.5308 220.251 57.4375C220.416 57.3399 220.518 57.1893 220.556 56.9857C220.594 56.7821 220.614 56.5191 220.614 56.1968ZM218.38 62.0441V56.7503H219.564V63.6348H218.437L218.38 62.0441ZM218.603 60.5934L219.093 60.5807C219.093 61.0388 219.044 61.463 218.946 61.8532C218.853 62.2392 218.7 62.5743 218.488 62.8585C218.276 63.1427 217.998 63.3654 217.655 63.5266C217.311 63.6835 216.893 63.762 216.401 63.762C216.066 63.762 215.759 63.7132 215.479 63.6157C215.203 63.5181 214.966 63.3675 214.766 63.1639C214.567 62.9603 214.412 62.6952 214.302 62.3686C214.196 62.042 214.143 61.6496 214.143 61.1915V56.7503H215.32V61.2042C215.32 61.5139 215.354 61.7705 215.422 61.9741C215.494 62.1735 215.589 62.3325 215.708 62.4513C215.831 62.5658 215.967 62.6464 216.115 62.6931C216.268 62.7397 216.425 62.7631 216.586 62.7631C217.086 62.7631 217.483 62.6676 217.776 62.4768C218.068 62.2816 218.278 62.0208 218.406 61.6941C218.537 61.3633 218.603 60.9964 218.603 60.5934ZM228.09 55.9932H229.038C229.038 56.4598 228.974 56.8627 228.847 57.2021C228.72 57.5372 228.508 57.7959 228.211 57.9783C227.914 58.1607 227.511 58.2519 227.002 58.2519V57.5138C227.32 57.5138 227.555 57.4502 227.708 57.323C227.865 57.1957 227.967 57.0176 228.013 56.7885C228.064 56.5594 228.09 56.2943 228.09 55.9932ZM221.924 60.2689V60.1226C221.924 59.6263 221.996 59.166 222.141 58.7418C222.285 58.3134 222.493 57.9423 222.764 57.6284C223.036 57.3102 223.364 57.0642 223.75 56.8903C224.136 56.7121 224.569 56.6231 225.048 56.6231C225.532 56.6231 225.967 56.7121 226.353 56.8903C226.743 57.0642 227.074 57.3102 227.345 57.6284C227.617 57.9423 227.825 58.3134 227.969 58.7418C228.113 59.166 228.185 59.6263 228.185 60.1226V60.2689C228.185 60.7652 228.113 61.2254 227.969 61.6496C227.825 62.0738 227.617 62.4449 227.345 62.7631C227.074 63.077 226.745 63.323 226.359 63.5011C225.977 63.6751 225.545 63.762 225.061 63.762C224.577 63.762 224.143 63.6751 223.757 63.5011C223.371 63.323 223.04 63.077 222.764 62.7631C222.493 62.4449 222.285 62.0738 222.141 61.6496C221.996 61.2254 221.924 60.7652 221.924 60.2689ZM223.101 60.1226V60.2689C223.101 60.6125 223.142 60.937 223.222 61.2424C223.303 61.5436 223.424 61.8108 223.585 62.0441C223.75 62.2774 223.956 62.4619 224.202 62.5976C224.448 62.7291 224.734 62.7949 225.061 62.7949C225.383 62.7949 225.666 62.7291 225.907 62.5976C226.153 62.4619 226.357 62.2774 226.518 62.0441C226.679 61.8108 226.8 61.5436 226.881 61.2424C226.966 60.937 227.008 60.6125 227.008 60.2689V60.1226C227.008 59.7832 226.966 59.463 226.881 59.1618C226.8 58.8564 226.677 58.587 226.512 58.3537C226.351 58.1162 226.147 57.9295 225.901 57.7938C225.659 57.6581 225.375 57.5902 225.048 57.5902C224.726 57.5902 224.442 57.6581 224.196 57.7938C223.954 57.9295 223.75 58.1162 223.585 58.3537C223.424 58.587 223.303 58.8564 223.222 59.1618C223.142 59.463 223.101 59.7832 223.101 60.1226ZM224.31 65.2636C224.31 65.0727 224.368 64.9115 224.482 64.7801C224.601 64.6486 224.775 64.5828 225.004 64.5828C225.229 64.5828 225.4 64.6486 225.519 64.7801C225.642 64.9115 225.704 65.0727 225.704 65.2636C225.704 65.446 225.642 65.6008 225.519 65.7281C225.4 65.8596 225.229 65.9253 225.004 65.9253C224.775 65.9253 224.601 65.8596 224.482 65.7281C224.368 65.6008 224.31 65.446 224.31 65.2636ZM230.87 58.2201V63.6348H229.693V56.7503H230.807L230.87 58.2201ZM230.59 59.9317L230.1 59.9126C230.105 59.4417 230.175 59.007 230.31 58.6082C230.446 58.2053 230.637 57.8553 230.883 57.5584C231.129 57.2615 231.422 57.0324 231.761 56.8712C232.105 56.7058 232.484 56.6231 232.9 56.6231C233.239 56.6231 233.545 56.6697 233.816 56.763C234.088 56.8521 234.319 56.9963 234.51 57.1957C234.705 57.3951 234.853 57.6538 234.955 57.972C235.057 58.2859 235.108 58.6697 235.108 59.1236V63.6348H233.924V59.1109C233.924 58.7503 233.871 58.4619 233.765 58.2456C233.659 58.025 233.504 57.8659 233.301 57.7683C233.097 57.6665 232.847 57.6156 232.55 57.6156C232.257 57.6156 231.99 57.6772 231.748 57.8002C231.511 57.9232 231.305 58.0928 231.131 58.3092C230.961 58.5255 230.828 58.7737 230.73 59.0536C230.637 59.3293 230.59 59.622 230.59 59.9317ZM241.356 56.7503H242.425V63.4884C242.425 64.095 242.302 64.6125 242.056 65.0409C241.81 65.4693 241.466 65.7938 241.025 66.0144C240.588 66.2392 240.083 66.3516 239.511 66.3516C239.273 66.3516 238.993 66.3135 238.671 66.2371C238.353 66.165 238.039 66.0399 237.729 65.8617C237.424 65.6878 237.167 65.4524 236.959 65.1555L237.577 64.4556C237.865 64.8034 238.166 65.0452 238.48 65.1809C238.798 65.3166 239.112 65.3845 239.422 65.3845C239.795 65.3845 240.117 65.3145 240.389 65.1745C240.66 65.0346 240.87 64.8267 241.019 64.551C241.171 64.2795 241.248 63.9444 241.248 63.5457V58.2646L241.356 56.7503ZM236.616 60.2689V60.1353C236.616 59.6093 236.677 59.1321 236.8 58.7037C236.928 58.271 237.108 57.8998 237.341 57.5902C237.579 57.2805 237.865 57.043 238.2 56.8776C238.535 56.7079 238.913 56.6231 239.333 56.6231C239.765 56.6231 240.143 56.6994 240.465 56.8521C240.792 57.0006 241.068 57.219 241.292 57.5075C241.521 57.7917 241.702 58.1353 241.833 58.5382C241.965 58.9412 242.056 59.3972 242.107 59.9062V60.4916C242.06 60.9964 241.969 61.4502 241.833 61.8532C241.702 62.2562 241.521 62.5998 241.292 62.884C241.068 63.1682 240.792 63.3866 240.465 63.5393C240.139 63.6878 239.757 63.762 239.32 63.762C238.908 63.762 238.535 63.6751 238.2 63.5011C237.869 63.3272 237.585 63.0833 237.347 62.7694C237.11 62.4555 236.928 62.0865 236.8 61.6623C236.677 61.2339 236.616 60.7694 236.616 60.2689ZM237.793 60.1353V60.2689C237.793 60.6125 237.827 60.9349 237.895 61.236C237.967 61.5372 238.075 61.8023 238.219 62.0314C238.368 62.2604 238.556 62.4407 238.785 62.5722C239.014 62.6994 239.288 62.7631 239.606 62.7631C239.996 62.7631 240.319 62.6804 240.573 62.5149C240.828 62.3495 241.029 62.131 241.178 61.8596C241.33 61.5881 241.449 61.2933 241.534 60.9752V59.4417C241.487 59.2084 241.415 58.9836 241.318 58.7673C241.224 58.5467 241.101 58.3516 240.949 58.1819C240.8 58.008 240.616 57.8702 240.395 57.7683C240.175 57.6665 239.916 57.6156 239.619 57.6156C239.297 57.6156 239.019 57.6835 238.785 57.8193C238.556 57.9507 238.368 58.1331 238.219 58.3664C238.075 58.5955 237.967 58.8627 237.895 59.1681C237.827 59.4693 237.793 59.7917 237.793 60.1353ZM250.2 62.7949C250.48 62.7949 250.739 62.7376 250.976 62.6231C251.214 62.5086 251.409 62.3516 251.562 62.1523C251.714 61.9486 251.801 61.7175 251.823 61.4587H252.942C252.921 61.8659 252.783 62.2456 252.529 62.5976C252.279 62.9455 251.95 63.2276 251.543 63.4439C251.135 63.656 250.688 63.762 250.2 63.762C249.683 63.762 249.231 63.6708 248.845 63.4884C248.463 63.306 248.145 63.0558 247.89 62.7376C247.64 62.4195 247.451 62.0547 247.324 61.6432C247.201 61.2275 247.14 60.7885 247.14 60.3262V60.0589C247.14 59.5966 247.201 59.1597 247.324 58.7482C247.451 58.3325 247.64 57.9656 247.89 57.6475C248.145 57.3293 248.463 57.0791 248.845 56.8967C249.231 56.7143 249.683 56.6231 250.2 56.6231C250.739 56.6231 251.21 56.7333 251.613 56.9539C252.016 57.1703 252.332 57.4672 252.561 57.8447C252.794 58.218 252.921 58.6422 252.942 59.1172H251.823C251.801 58.833 251.721 58.5764 251.581 58.3474C251.445 58.1183 251.258 57.9359 251.021 57.8002C250.788 57.6602 250.514 57.5902 250.2 57.5902C249.84 57.5902 249.536 57.6623 249.29 57.8065C249.048 57.9465 248.855 58.1374 248.711 58.3792C248.571 58.6167 248.469 58.8818 248.406 59.1745C248.346 59.463 248.317 59.7578 248.317 60.0589V60.3262C248.317 60.6273 248.346 60.9243 248.406 61.2169C248.465 61.5096 248.565 61.7747 248.705 62.0123C248.849 62.2498 249.042 62.4407 249.284 62.5849C249.53 62.7249 249.835 62.7949 250.2 62.7949ZM258.325 62.4577V58.9136C258.325 58.6422 258.27 58.4067 258.16 58.2074C258.054 58.0038 257.893 57.8468 257.676 57.7365C257.46 57.6262 257.193 57.5711 256.875 57.5711C256.578 57.5711 256.317 57.622 256.092 57.7238C255.871 57.8256 255.697 57.9592 255.57 58.1247C255.447 58.2901 255.386 58.4682 255.386 58.6591H254.209C254.209 58.4131 254.272 58.1692 254.399 57.9274C254.527 57.6856 254.709 57.4672 254.947 57.2721C255.188 57.0727 255.477 56.9157 255.812 56.8012C256.151 56.6824 256.529 56.6231 256.945 56.6231C257.445 56.6231 257.886 56.7079 258.268 56.8776C258.654 57.0472 258.955 57.3039 259.172 57.6475C259.392 57.9868 259.502 58.4131 259.502 58.9264V62.1332C259.502 62.3622 259.521 62.6061 259.56 62.8649C259.602 63.1236 259.664 63.3463 259.744 63.533V63.6348H258.516C258.457 63.499 258.41 63.3188 258.376 63.0939C258.342 62.8649 258.325 62.6528 258.325 62.4577ZM258.529 59.4608L258.542 60.288H257.352C257.017 60.288 256.718 60.3156 256.455 60.3707C256.192 60.4216 255.971 60.5001 255.793 60.6061C255.615 60.7122 255.479 60.8458 255.386 61.007C255.292 61.1639 255.246 61.3484 255.246 61.5605C255.246 61.7769 255.295 61.9741 255.392 62.1523C255.49 62.3304 255.636 62.4725 255.831 62.5786C256.03 62.6804 256.274 62.7313 256.563 62.7313C256.923 62.7313 257.241 62.6549 257.517 62.5022C257.793 62.3495 258.011 62.1629 258.173 61.9423C258.338 61.7217 258.427 61.5075 258.44 61.2997L258.942 61.8659C258.913 62.0441 258.832 62.2413 258.701 62.4577C258.569 62.674 258.393 62.8818 258.173 63.0812C257.956 63.2763 257.697 63.4396 257.396 63.5711C257.099 63.6984 256.764 63.762 256.391 63.762C255.924 63.762 255.515 63.6708 255.163 63.4884C254.815 63.306 254.544 63.0621 254.349 62.7567C254.158 62.4471 254.062 62.1014 254.062 61.7196C254.062 61.3506 254.134 61.0261 254.279 60.7461C254.423 60.4619 254.631 60.2265 254.902 60.0398C255.174 59.849 255.5 59.7047 255.882 59.6072C256.264 59.5096 256.69 59.4608 257.161 59.4608H258.529ZM261.042 60.2689V60.1226C261.042 59.6263 261.114 59.166 261.258 58.7418C261.403 58.3134 261.611 57.9423 261.882 57.6284C262.154 57.3102 262.482 57.0642 262.868 56.8903C263.254 56.7121 263.687 56.6231 264.166 56.6231C264.65 56.6231 265.085 56.7121 265.471 56.8903C265.861 57.0642 266.192 57.3102 266.463 57.6284C266.739 57.9423 266.949 58.3134 267.093 58.7418C267.237 59.166 267.309 59.6263 267.309 60.1226V60.2689C267.309 60.7652 267.237 61.2254 267.093 61.6496C266.949 62.0738 266.739 62.4449 266.463 62.7631C266.192 63.077 265.863 63.323 265.477 63.5011C265.095 63.6751 264.663 63.762 264.179 63.762C263.695 63.762 263.261 63.6751 262.875 63.5011C262.489 63.323 262.158 63.077 261.882 62.7631C261.611 62.4449 261.403 62.0738 261.258 61.6496C261.114 61.2254 261.042 60.7652 261.042 60.2689ZM262.219 60.1226V60.2689C262.219 60.6125 262.26 60.937 262.34 61.2424C262.421 61.5436 262.542 61.8108 262.703 62.0441C262.868 62.2774 263.074 62.4619 263.32 62.5976C263.566 62.7291 263.852 62.7949 264.179 62.7949C264.501 62.7949 264.783 62.7291 265.025 62.5976C265.271 62.4619 265.475 62.2774 265.636 62.0441C265.797 61.8108 265.918 61.5436 265.999 61.2424C266.084 60.937 266.126 60.6125 266.126 60.2689V60.1226C266.126 59.7832 266.084 59.463 265.999 59.1618C265.918 58.8564 265.795 58.587 265.63 58.3537C265.468 58.1162 265.265 57.9295 265.019 57.7938C264.777 57.6581 264.493 57.5902 264.166 57.5902C263.844 57.5902 263.56 57.6581 263.314 57.7938C263.072 57.9295 262.868 58.1162 262.703 58.3537C262.542 58.587 262.421 58.8564 262.34 59.1618C262.26 59.463 262.219 59.7832 262.219 60.1226Z" fill="white"/>
<path fill-rule="evenodd" clip-rule="evenodd" d="M28.392 73.1199C19.4591 71.4378 11.5353 66.3094 6.31462 58.8311C1.09393 51.3527 -1.00933 42.118 0.45449 33.1011C3.13785 34.9962 16.8773 37.6254 22.1421 40.5448C32.6378 46.3838 32.3321 58.7958 28.375 73.1711L28.392 73.1199ZM31.3301 3.88943C23.9495 4.6549 17.0046 7.76841 11.5063 12.7768C6.008 17.7851 2.24328 24.4269 0.760176 31.7353C1.02401 31.7477 1.28584 31.7878 1.54142 31.8547C23.6197 34.3986 46.8188 34.4157 48.6021 9.23319C48.5737 8.38739 48.8179 7.55503 49.2984 6.86009C43.6939 4.2892 37.5099 3.2639 31.381 3.88943H31.3301ZM37.8007 14.8843C38.279 15.6361 38.6008 16.4776 38.7468 17.3579C38.8927 18.2381 38.8598 19.139 38.6499 20.0062C38.2827 21.6111 37.3412 23.0243 36.0046 23.9766C34.668 24.9288 33.0296 25.3537 31.4016 25.1702C29.7736 24.9867 28.2695 24.2077 27.1759 22.9816C26.0822 21.7554 25.4754 20.1677 25.4708 18.5208L32.7737 19.6135L37.8686 14.9355L37.8007 14.8843ZM29.3091 10.1551L41.0785 10.5991L32.5868 18.5891L19.9343 16.6941L29.3091 10.1551Z" fill="white"/>
<path fill-rule="evenodd" clip-rule="evenodd" d="M51.6597 8.08984C58.1587 11.6937 63.3413 17.2919 66.4504 24.0671C69.5595 30.8422 70.4323 38.4392 68.9414 45.7484C67.4504 53.0576 63.6737 59.6961 58.163 64.6943C52.6523 69.6925 45.6963 72.7885 38.3109 73.5301C36.8952 73.6804 35.4712 73.7374 34.0481 73.7009C44.2381 54.2037 50.9464 32.0943 51.7107 10.5313C51.8131 9.71935 51.7959 8.89672 51.6597 8.08984Z" fill="white"/>
</svg>
