<svg width="76" height="56" viewBox="0 0 76 56" fill="none" xmlns="http://www.w3.org/2000/svg">
<g id="Group 40264">
<path id="Vector" d="M21.75 28C27.9632 28 33 22.9632 33 16.75C33 10.5368 27.9632 5.5 21.75 5.5C15.5368 5.5 10.5 10.5368 10.5 16.75C10.5 22.9632 15.5368 28 21.75 28Z" fill="#FF9900"/>
<path id="Vector_2" d="M34.5625 34.25C30.1625 32.0156 25.3062 31.125 21.75 31.125C14.7844 31.125 0.5 35.3969 0.5 43.9375V50.5H23.9375V47.9891C23.9375 45.0203 25.1875 42.0437 27.375 39.5625C29.1203 37.5813 31.5641 35.7422 34.5625 34.25Z" fill="#FF9900"/>
<path id="Vector_3" d="M51.125 33C42.9891 33 26.75 38.025 26.75 48V55.5H75.5V48C75.5 38.025 59.2609 33 51.125 33Z" fill="#FF9900"/>
<path id="Vector_4" d="M51.125 28C58.7189 28 64.875 21.8439 64.875 14.25C64.875 6.65608 58.7189 0.5 51.125 0.5C43.5311 0.5 37.375 6.65608 37.375 14.25C37.375 21.8439 43.5311 28 51.125 28Z" fill="#FF9900"/>
</g>
</svg>
