<svg width="45" height="45" viewBox="0 0 45 45" fill="none" xmlns="http://www.w3.org/2000/svg">
<g id="Group 39896">
<circle id="Ellipse 1903" cx="22.5" cy="22.5" r="22.5" transform="matrix(1 0 0 -1 0 45)" fill="#20BEC6"/>
<path id="Arrow 12" d="M26.3203 20.5762C25.4919 20.5762 24.8203 21.2477 24.8203 22.0762C24.8203 22.9046 25.4919 23.5762 26.3203 23.5762L26.3203 20.5762ZM28.23 23.1368C28.8158 22.551 28.8158 21.6013 28.23 21.0155L18.6841 11.4696C18.0983 10.8838 17.1486 10.8838 16.5628 11.4696C15.977 12.0554 15.977 13.0051 16.5628 13.5909L25.048 22.0762L16.5628 30.5615C15.977 31.1472 15.977 32.097 16.5628 32.6828C17.1486 33.2686 18.0983 33.2686 18.6841 32.6828L28.23 23.1368ZM26.3203 23.5762L27.1694 23.5762L27.1694 20.5762L26.3203 20.5762L26.3203 23.5762Z" fill="white"/>
</g>
</svg>
