<svg width="25" height="25" viewBox="0 0 25 25" fill="none" xmlns="http://www.w3.org/2000/svg">
<path id="Icon" d="M23.9993 18.2199V21.6823C24.0006 22.0038 23.9346 22.3219 23.8056 22.6164C23.6766 22.911 23.4873 23.1753 23.25 23.3926C23.0127 23.6099 22.7325 23.7754 22.4274 23.8783C22.1223 23.9813 21.799 24.0196 21.4783 23.9906C17.9197 23.6047 14.5015 22.3912 11.4982 20.4474C8.7041 18.6754 6.33515 16.3112 4.55964 13.5226C2.60524 10.5116 1.38898 7.08359 1.00939 3.51614C0.980488 3.19698 1.01849 2.87532 1.12098 2.57162C1.22347 2.26792 1.3882 1.98885 1.60468 1.75218C1.82116 1.5155 2.08464 1.3264 2.37836 1.19692C2.67208 1.06744 2.98959 1.00041 3.31069 1.00011H6.77999C7.34122 0.994599 7.8853 1.19294 8.31083 1.55818C8.73637 1.92341 9.01431 2.43061 9.09286 2.98524C9.23929 4.09329 9.51085 5.18126 9.90236 6.22838C10.058 6.64147 10.0916 7.09042 9.99939 7.52203C9.90716 7.95364 9.69289 8.34982 9.38197 8.66362L7.9133 10.1294C9.55954 13.0188 11.9567 15.4112 14.8519 17.0542L16.3206 15.5885C16.635 15.2782 17.032 15.0643 17.4644 14.9723C17.8969 14.8802 18.3467 14.9138 18.7606 15.0691C19.8098 15.4598 20.9 15.7309 22.0102 15.877C22.572 15.9561 23.085 16.2385 23.4518 16.6705C23.8185 17.1025 24.0134 17.6539 23.9993 18.2199Z" stroke="#21BDC6" stroke-width="2" stroke-linecap="round" stroke-linejoin="round"/>
</svg>
