<svg width="75" height="75" viewBox="0 0 75 75" fill="none" xmlns="http://www.w3.org/2000/svg">
<g id="Group">
<path id="Vector" fill-rule="evenodd" clip-rule="evenodd" d="M35.9375 9.375C39.0095 9.37524 41.997 10.381 44.4437 12.2386C46.8904 14.0962 48.6618 16.7035 49.4875 19.6625L49.65 20.3031L55.4937 18.8438C55.9209 18.7374 56.3657 18.7225 56.7989 18.8001C57.2322 18.8776 57.6442 19.0458 58.008 19.2936C58.3718 19.5414 58.6791 19.8633 58.9098 20.2381C59.1405 20.613 59.2895 21.0323 59.3469 21.4688L59.375 21.875V27.5313C61.1368 29.2204 62.5806 31.2125 63.6375 33.4125L64.0688 34.375H65.625C66.3904 34.3751 67.1292 34.6561 67.7012 35.1647C68.2731 35.6734 68.6386 36.3742 68.7281 37.1344L68.75 37.5V46.875C68.7501 47.3894 68.6232 47.8958 68.3806 48.3493C68.138 48.8029 67.7872 49.1895 67.3594 49.475L67.0219 49.6688L63.3719 51.4969C61.8776 54.3878 59.7132 56.879 57.0594 58.7625L56.25 59.3063V62.5C56.2499 63.2654 55.9689 64.0042 55.4603 64.5762C54.9516 65.1481 54.2508 65.5136 53.4906 65.6031L53.125 65.625H43.75C42.9846 65.6249 42.2458 65.3439 41.6738 64.8353C41.1019 64.3266 40.7364 63.6258 40.6469 62.8656L40.625 62.5H37.5C37.4999 63.2654 37.2189 64.0042 36.7103 64.5762C36.2016 65.1481 35.5008 65.5136 34.7406 65.6031L34.375 65.625H25C24.2346 65.6249 23.4958 65.3439 22.9238 64.8353C22.3519 64.3266 21.9864 63.6258 21.8969 62.8656L21.875 62.5V59.3063C19.6174 57.8629 17.6674 55.9878 16.1368 53.7884C14.6062 51.5891 13.5253 49.109 12.9562 46.4906C11.1135 45.9422 9.4838 44.8408 8.28767 43.3356C7.09154 41.8304 6.38677 39.994 6.26875 38.075L6.25 37.5V35.9375C6.25088 35.141 6.55587 34.3749 7.10265 33.7957C7.64943 33.2165 8.39673 32.868 9.19186 32.8213C9.98699 32.7747 10.7699 33.0334 11.3807 33.5446C11.9915 34.0558 12.3841 34.781 12.4781 35.5719L12.5 35.9375V37.5C12.5 37.9625 12.6 38.4031 12.7813 38.7969C13.2582 35.9835 14.3223 33.302 15.9042 30.9271C17.486 28.5521 19.5502 26.5369 21.9625 25.0125C21.7408 23.0453 21.9369 21.0534 22.5381 19.1672C23.1392 17.281 24.1319 15.5429 25.4511 14.0668C26.7703 12.5907 28.3863 11.4098 30.1933 10.6012C32.0004 9.79272 33.9578 9.37486 35.9375 9.375ZM50 34.375C49.1712 34.375 48.3763 34.7042 47.7903 35.2903C47.2042 35.8763 46.875 36.6712 46.875 37.5C46.875 38.3288 47.2042 39.1237 47.7903 39.7097C48.3763 40.2958 49.1712 40.625 50 40.625C50.8288 40.625 51.6237 40.2958 52.2097 39.7097C52.7958 39.1237 53.125 38.3288 53.125 37.5C53.125 36.6712 52.7958 35.8763 52.2097 35.2903C51.6237 34.7042 50.8288 34.375 50 34.375ZM35.9375 15.625C34.0447 15.625 32.2162 16.3122 30.7919 17.5589C29.3676 18.8056 28.4444 20.5269 28.1938 22.4031C29.7081 22.0514 31.2578 21.8743 32.8125 21.875H43.3656L43.5844 21.8219C43.2138 20.0686 42.2517 18.4961 40.8595 17.3678C39.4673 16.2396 37.7295 15.6243 35.9375 15.625Z" fill="#FF9900"/>
</g>
</svg>
