<svg width="45" height="45" viewBox="0 0 45 45" fill="none" xmlns="http://www.w3.org/2000/svg">
<g id="Group 40262">
<circle id="Ellipse 1903" cx="22.5" cy="22.5" r="22.5" transform="rotate(180 22.5 22.5)" fill="#20BEC6"/>
<path id="Arrow 12" d="M18.6797 20.5762C19.5081 20.5762 20.1797 21.2477 20.1797 22.0762C20.1797 22.9046 19.5081 23.5762 18.6797 23.5762L18.6797 20.5762ZM16.77 23.1368C16.1842 22.551 16.1842 21.6013 16.77 21.0155L26.3159 11.4696C26.9017 10.8838 27.8514 10.8838 28.4372 11.4696C29.023 12.0554 29.023 13.0051 28.4372 13.5909L19.952 22.0762L28.4372 30.5615C29.023 31.1472 29.023 32.097 28.4372 32.6828C27.8514 33.2686 26.9017 33.2686 26.3159 32.6828L16.77 23.1368ZM18.6797 23.5762L17.8306 23.5762L17.8306 20.5762L18.6797 20.5762L18.6797 23.5762Z" fill="white"/>
</g>
</svg>
