<svg width="117" height="34" viewBox="0 0 117 34" fill="none" xmlns="http://www.w3.org/2000/svg">
<g id="Group 40054">
<g id="Group 40051">
<g id="&#240;&#159;&#166;&#134; icon &#34;Facebook v1 icon&#34;">
<path id="Vector" d="M16.9053 33.8106C26.2418 33.8106 33.8106 26.2418 33.8106 16.9053C33.8106 7.56876 26.2418 0 16.9053 0C7.56876 0 0 7.56876 0 16.9053C0 26.2418 7.56876 33.8106 16.9053 33.8106Z" fill="#3C5A99"/>
<path id="Vector_2" d="M18.2185 25.3581V17.6582H20.8137L21.2033 14.6437H18.2185V12.7253C18.2185 11.8536 18.4595 11.2626 19.7076 11.2626H21.2892V8.57492C21.0151 8.5386 20.0708 8.45605 18.9713 8.45605C16.6765 8.45605 15.1049 9.85602 15.1049 12.4281V14.647H12.5195V17.6615H15.1049V25.3581H18.2185Z" fill="white"/>
</g>
<g id="&#240;&#159;&#166;&#134; icon &#34;Instagram icon&#34;">
<path id="Vector_3" d="M58.3584 33.8106C67.695 33.8106 75.2637 26.2418 75.2637 16.9053C75.2637 7.56876 67.695 0 58.3584 0C49.0219 0 41.4531 7.56876 41.4531 16.9053C41.4531 26.2418 49.0219 33.8106 58.3584 33.8106Z" fill="#E4405F"/>
<path id="Vector_4" d="M58.3595 8.45312C56.0647 8.45312 55.7775 8.46303 54.8761 8.50265C53.9747 8.54558 53.3639 8.68755 52.8257 8.89557C52.271 9.11019 51.7988 9.40075 51.3266 9.8696C50.8545 10.3385 50.5672 10.8106 50.3526 11.3686C50.1446 11.9068 50.0026 12.521 49.9597 13.4191C49.9168 14.3205 49.9102 14.6077 49.9102 16.9025C49.9102 19.1972 49.9201 19.4845 49.9597 20.3859C50.0026 21.284 50.1446 21.8981 50.3526 22.4363C50.5672 22.991 50.8578 23.4632 51.3266 23.9353C51.7955 24.4042 52.2677 24.6948 52.8257 24.9094C53.3639 25.1174 53.978 25.2594 54.8761 25.3023C55.7775 25.3452 56.0647 25.3518 58.3595 25.3518C60.6543 25.3518 60.9415 25.3419 61.8429 25.3023C62.741 25.2594 63.3552 25.1174 63.8934 24.9094C64.4481 24.6948 64.9202 24.4042 65.3924 23.9353C65.8612 23.4665 66.1518 22.9943 66.3664 22.4363C66.5744 21.8981 66.7164 21.284 66.7593 20.3859C66.8023 19.4845 66.8089 19.1972 66.8089 16.9025C66.8089 14.6077 66.799 14.3205 66.7593 13.4191C66.7164 12.521 66.5744 11.9068 66.3664 11.3686C66.1518 10.8139 65.8612 10.3418 65.3924 9.8696C64.9235 9.40075 64.4514 9.11019 63.8934 8.89557C63.3552 8.68755 62.741 8.54558 61.8429 8.50265C60.9415 8.46303 60.6543 8.45312 58.3595 8.45312ZM58.3595 9.97526C60.6146 9.97526 60.8854 9.98517 61.7769 10.0248C62.6023 10.0644 63.0481 10.1998 63.3453 10.3187C63.7415 10.4705 64.0221 10.6554 64.3193 10.9493C64.6132 11.2465 64.7981 11.5271 64.9499 11.9233C65.0655 12.2205 65.2042 12.6662 65.2405 13.4917C65.2801 14.3832 65.29 14.6506 65.29 16.9091C65.29 19.1675 65.2801 19.435 65.2372 20.3265C65.1943 21.1519 65.0556 21.5977 64.94 21.8948C64.7815 22.291 64.6032 22.5717 64.3061 22.8689C64.0122 23.1627 63.725 23.3476 63.3353 23.4995C63.0382 23.6151 62.5858 23.7537 61.7604 23.7901C60.8623 23.8297 60.5981 23.8396 58.3364 23.8396C56.0746 23.8396 55.8105 23.8297 54.9124 23.7868C54.087 23.7438 53.6346 23.6052 53.3374 23.4896C52.9379 23.3311 52.6606 23.1528 52.3667 22.8557C52.0695 22.5618 51.8813 22.2745 51.7328 21.8849C51.6172 21.5878 51.4785 21.1354 51.4356 20.31C51.4026 19.4218 51.3927 19.1477 51.3927 16.8992C51.3927 14.6473 51.4026 14.3733 51.4356 13.4752C51.4785 12.6497 51.6139 12.1974 51.7328 11.9002C51.8813 11.4974 52.0695 11.2233 52.3667 10.9262C52.6606 10.6323 52.9379 10.4408 53.3374 10.2922C53.6346 10.1767 54.077 10.038 54.9025 9.99507C55.8006 9.96206 56.0647 9.95215 58.3265 9.95215L58.3595 9.97526ZM58.3595 12.5639C55.9624 12.5639 54.0176 14.5087 54.0176 16.9058C54.0176 19.3029 55.9624 21.2477 58.3595 21.2477C60.7566 21.2477 62.7014 19.3029 62.7014 16.9058C62.7014 14.5087 60.7566 12.5639 58.3595 12.5639ZM58.3595 19.7222C56.8044 19.7222 55.5431 18.4609 55.5431 16.9058C55.5431 15.3506 56.8044 14.0893 58.3595 14.0893C59.9147 14.0893 61.176 15.3506 61.176 16.9058C61.176 18.4609 59.9147 19.7222 58.3595 19.7222ZM63.8868 12.3955C63.8868 12.9568 63.4311 13.4092 62.8731 13.4092C62.3118 13.4092 61.8594 12.9535 61.8594 12.3955C61.8594 11.8375 62.3151 11.3818 62.8731 11.3818C63.4311 11.3785 63.8868 11.8342 63.8868 12.3955Z" fill="white"/>
</g>
<g id="&#240;&#159;&#166;&#134; icon &#34;Pinterest&#34;">
<path id="Vector_5" d="M99.8076 33.8106C109.144 33.8106 116.713 26.2418 116.713 16.9053C116.713 7.56876 109.144 0 99.8076 0C90.4711 0 82.9023 7.56876 82.9023 16.9053C82.9023 26.2418 90.4711 33.8106 99.8076 33.8106Z" fill="#BD081C"/>
<path id="Vector_6" d="M99.7982 8.45215C95.1361 8.45215 91.3555 12.2327 91.3555 16.8949C91.3555 20.4741 93.5809 23.5282 96.7209 24.7565C96.6483 24.0896 96.5822 23.0627 96.7506 22.333C96.9058 21.6726 97.7412 18.1364 97.7412 18.1364C97.7412 18.1364 97.4869 17.6279 97.4869 16.8817C97.4869 15.7095 98.1671 14.8313 99.0157 14.8313C99.7355 14.8313 100.085 15.3728 100.085 16.0199C100.085 16.7463 99.6265 17.8293 99.3855 18.8331C99.1841 19.675 99.8081 20.3585 100.637 20.3585C102.136 20.3585 103.292 18.7769 103.292 16.4921C103.292 14.478 101.839 13.0615 99.7652 13.0615C97.3648 13.0615 95.9549 14.8676 95.9549 16.7232C95.9549 17.4496 96.2323 18.2321 96.5822 18.6548C96.6516 18.7406 96.6615 18.8133 96.6417 18.8991C96.5789 19.1632 96.4337 19.7444 96.4072 19.8599C96.3709 20.0184 96.2851 20.0514 96.1233 19.9755C95.07 19.4901 94.4097 17.9482 94.4097 16.7034C94.4097 14.0421 96.3445 11.5955 99.9897 11.5955C102.918 11.5955 105.197 13.6855 105.197 16.4723C105.197 19.3845 103.361 21.7288 100.805 21.7288C99.9501 21.7288 99.1478 21.2863 98.8638 20.758L98.3355 22.7655C98.1473 23.5018 97.6289 24.423 97.2789 24.981C98.0714 25.2254 98.9034 25.3575 99.7784 25.3575C104.431 25.3575 108.221 21.5769 108.221 16.9147C108.221 12.2492 104.434 8.47196 99.7784 8.47196L99.7982 8.45215Z" fill="white"/>
</g>
</g>
</g>
</svg>
