<svg width="68" height="67" viewBox="0 0 68 67" fill="none" xmlns="http://www.w3.org/2000/svg">
<path id="Star 23" d="M43.1897 2.29948C47.4719 -1.63072 54.2815 2.21479 53.1273 7.91138L50.673 20.0246C50.1568 22.5722 51.3397 25.1624 53.6031 26.4406L64.365 32.518C69.4261 35.376 67.8731 43.0407 62.0987 43.7033L49.8199 45.1123C47.2375 45.4087 45.1396 47.3341 44.6234 49.8817L42.1691 61.9949C41.0149 67.6915 33.2454 68.583 30.8308 63.296L25.6965 52.0536C24.6166 49.6891 22.1371 48.2889 19.5547 48.5852L7.27592 49.9942C1.50147 50.6568 -1.74733 43.5431 2.53482 39.6129L11.6404 31.2557C13.5554 29.4981 14.1209 26.7072 13.0411 24.3428L7.90669 13.1004C5.49211 7.81332 11.2537 2.52527 16.3148 5.38334L27.0767 11.4607C29.3401 12.7389 32.1691 12.4143 34.0842 10.6566L43.1897 2.29948Z" fill="#FBC63D"/>
</svg>
