<svg width="47" height="46" viewBox="0 0 47 46" fill="none" xmlns="http://www.w3.org/2000/svg">
<path d="M31.2642 1.37692C33.4052 -0.588181 36.8101 1.33458 36.233 4.18287L34.0589 14.9128C33.8008 16.1866 34.3923 17.4817 35.524 18.1208L45.0569 23.5042C47.5875 24.9332 46.811 28.7656 43.9238 29.0969L33.0472 30.3449C31.756 30.4931 30.707 31.4558 30.4489 32.7296L28.2749 43.4596C27.6978 46.3079 23.813 46.7536 22.6057 44.1101L18.0577 34.1515C17.5178 32.9693 16.278 32.2692 14.9868 32.4173L4.11021 33.6654C1.22299 33.9967 -0.401409 30.4399 1.73967 28.4748L9.80541 21.072C10.7629 20.1931 11.0457 18.7977 10.5057 17.6155L5.95771 7.65692C4.75041 5.01338 7.63122 2.36936 10.1618 3.7984L19.6947 9.18178C20.8264 9.82086 22.2409 9.65855 23.1984 8.77973L31.2642 1.37692Z" fill="#FBC63D"/>
</svg>
