<svg width="46" height="47" viewBox="0 0 46 47" fill="none" xmlns="http://www.w3.org/2000/svg">
<path id="Star 25" d="M42.0241 9.79712C44.8415 9.08415 46.9252 12.3929 45.065 14.6257L38.0573 23.037C37.2254 24.0356 37.131 25.4562 37.8236 26.556L43.6578 35.8199C45.2064 38.2791 42.7035 41.2833 40.0052 40.2041L29.8401 36.1386C28.6333 35.656 27.253 36.0053 26.4211 37.0038L19.4134 45.4151C17.5532 47.6479 13.9226 46.1958 14.1151 43.2961L14.8404 32.3722C14.9265 31.0753 14.1678 29.8706 12.9611 29.3879L2.79595 25.3224C0.0975876 24.2432 0.356652 20.3416 3.17401 19.6286L13.7874 16.9428C15.0474 16.6239 15.9587 15.53 16.0448 14.2332L16.7701 3.30931C16.9627 0.409522 20.7534 -0.549764 22.3021 1.90938L28.1362 11.1733C28.8288 12.2731 30.1508 12.8018 31.4107 12.483L42.0241 9.79712Z" fill="#DEE1E1"/>
</svg>
