<svg width="142" height="48" viewBox="0 0 142 48" fill="none" xmlns="http://www.w3.org/2000/svg">
<g id="vov 1" clip-path="url(#clip0_773_24197)">
<path id="Vector" d="M24.0157 4.06983L34.5343 22.4123C34.9636 23.1619 36.0476 23.1619 36.4777 22.4123L41.5259 13.6087C41.6486 13.3941 41.6486 13.1314 41.5259 12.9169L35.1934 1.87473C34.7669 1.13135 35.3058 0.206421 36.1651 0.206421H56.3434C56.5579 0.206421 56.6926 0.43748 56.5862 0.623842L29.9775 47.0245C29.2791 48.2418 27.5181 48.2418 26.8196 47.0245L0.210952 0.623842C0.104675 0.438167 0.239245 0.206421 0.45387 0.206421H17.334C20.0965 0.206421 22.6458 1.68081 24.0157 4.06983Z" fill="url(#paint0_linear_773_24197)"/>
<path id="Vector_2" d="M109.343 4.06983L119.862 22.4123C120.292 23.1619 121.375 23.1619 121.805 22.4123L126.853 13.6087C126.976 13.3941 126.976 13.1314 126.853 12.9169L120.521 1.87473C120.094 1.13135 120.633 0.206421 121.492 0.206421H141.671C141.885 0.206421 142.02 0.43748 141.914 0.623842L115.305 47.0245C114.607 48.2418 112.845 48.2418 112.147 47.0245L85.5383 0.623842C85.4315 0.438167 85.5667 0.206421 85.7812 0.206421H102.661C105.423 0.206421 107.973 1.68081 109.343 4.06983Z" fill="url(#paint1_linear_773_24197)"/>
<path id="Vector_3" d="M92.5227 20.1794L83.9859 25.04C84.738 24.6122 84.738 23.5312 83.9859 23.1034L56.8087 7.62785C55.6182 6.94978 54.1102 7.1774 53.1904 8.18625C57.5759 3.28925 63.9581 0.205688 71.0636 0.205688C81.7292 0.205688 90.7675 7.15472 93.8669 16.7561C93.8689 16.761 93.8697 16.7671 93.8717 16.7719C94.2851 18.0799 93.7179 19.4993 92.5227 20.1794Z" fill="url(#paint2_linear_773_24197)"/>
<path id="Vector_4" d="M65.6069 35.5058L57.1356 40.3293C55.9928 40.9806 55.8977 42.5918 56.9617 43.3648C50.9924 39.0253 47.1133 31.9993 47.1133 24.0718C47.1133 17.972 49.4099 12.4066 53.1897 8.18701C54.1097 7.17818 55.6175 6.95056 56.8079 7.62861L65.6061 12.6391C64.86 12.2141 63.9313 12.7505 63.9313 13.6066V34.5376C63.932 35.3938 64.8608 35.9308 65.6069 35.5058Z" fill="url(#paint3_linear_773_24197)"/>
<path id="Vector_5" d="M95.0123 24.0716C95.0123 37.2523 84.2901 47.9376 71.0628 47.9376C65.7917 47.9376 60.918 46.2398 56.9616 43.3638C55.8976 42.5908 55.9922 40.9796 57.1357 40.3283L92.5218 20.1794C93.717 19.4986 94.2843 18.0792 93.8708 16.7726C94.6127 19.0729 95.0123 21.5258 95.0123 24.0716Z" fill="url(#paint4_linear_773_24197)"/>
<path id="Vector_6" d="M63.9375 34.5375V13.6065C63.9375 12.7504 64.8655 12.2133 65.6116 12.6383L83.9906 23.1034C84.7423 23.5318 84.7423 24.6115 83.9906 25.04L65.6116 35.505C64.8655 35.9308 63.9375 35.3938 63.9375 34.5375Z" fill="white"/>
<path id="Vector_7" d="M65.7537 14.3258L82.4455 23.8303C82.6331 23.9376 82.6331 24.2071 82.4455 24.3144L65.7537 33.8188C65.5675 33.9248 65.335 33.7908 65.335 33.5768V14.5679C65.3355 14.3533 65.5675 14.2192 65.7537 14.3258Z" fill="#EF4135"/>
</g>
<defs>
<linearGradient id="paint0_linear_773_24197" x1="0.393555" y1="24.0722" x2="55.7294" y2="24.0722" gradientUnits="userSpaceOnUse">
<stop stop-color="#CE1628"/>
<stop offset="0.0957" stop-color="#D4212A"/>
<stop offset="0.3569" stop-color="#E23330"/>
<stop offset="0.6433" stop-color="#EB3D33"/>
<stop offset="1" stop-color="#EF4135"/>
</linearGradient>
<linearGradient id="paint1_linear_773_24197" x1="85.5017" y1="24.0722" x2="141.669" y2="24.0722" gradientUnits="userSpaceOnUse">
<stop stop-color="#CE1628"/>
<stop offset="0.0957" stop-color="#D4212A"/>
<stop offset="0.3569" stop-color="#E23330"/>
<stop offset="0.6433" stop-color="#EB3D33"/>
<stop offset="1" stop-color="#EF4135"/>
</linearGradient>
<linearGradient id="paint2_linear_773_24197" x1="58.6614" y1="0.270467" x2="89.3624" y2="18.3346" gradientUnits="userSpaceOnUse">
<stop stop-color="#09446C"/>
<stop offset="0.2" stop-color="#0A4E7E"/>
<stop offset="0.5349" stop-color="#0D5D98"/>
<stop offset="0.8135" stop-color="#0D66AB"/>
<stop offset="1" stop-color="#086BB5"/>
</linearGradient>
<linearGradient id="paint3_linear_773_24197" x1="56.3603" y1="43.2408" x2="56.3603" y2="7.28751" gradientUnits="userSpaceOnUse">
<stop stop-color="#09446C"/>
<stop offset="0.2" stop-color="#0A4E7E"/>
<stop offset="0.5349" stop-color="#0D5D98"/>
<stop offset="0.8135" stop-color="#0D66AB"/>
<stop offset="1" stop-color="#086BB5"/>
</linearGradient>
<linearGradient id="paint4_linear_773_24197" x1="96.0901" y1="26.4333" x2="61.0862" y2="46.4057" gradientUnits="userSpaceOnUse">
<stop stop-color="#09446C"/>
<stop offset="0.2" stop-color="#0A4E7E"/>
<stop offset="0.5349" stop-color="#0D5D98"/>
<stop offset="0.8135" stop-color="#0D66AB"/>
<stop offset="1" stop-color="#086BB5"/>
</linearGradient>
<clipPath id="clip0_773_24197">
<rect width="142" height="48" fill="white"/>
</clipPath>
</defs>
</svg>
