<svg width="154" height="48" viewBox="0 0 154 48" fill="none" xmlns="http://www.w3.org/2000/svg">
<g id="zing-news" clip-path="url(#clip0_773_24150)">
<g id="Page-1">
<g id="logo-zalo-appp">
<g id="Group-Copy-5">
<g id="Group-13-Copy-2">
<g id="Group-26-Copy">
<path id="Fill-4" fill-rule="evenodd" clip-rule="evenodd" d="M30.5857 30.7873C30.7108 31.8806 31.1214 32.8756 31.7889 33.6859C32.7075 34.7982 34.0634 35.4107 35.6148 35.4107C37.1534 35.4107 38.512 34.7982 39.4315 33.6859C40.2507 32.6972 40.6887 31.4356 40.6887 30.0522V16.2305C40.6887 15.0608 40.367 13.9923 39.7404 13.0534C39.5448 12.7562 39.5528 12.363 39.7686 12.0871C40.4693 11.1775 40.8275 10.1434 40.8275 9.01899C40.8275 7.64595 40.3086 6.40565 39.3443 5.43232C38.3718 4.46373 37.1258 3.94788 35.7536 3.94788C34.3712 3.94788 33.1303 4.46047 32.1601 5.43232H32.1548C31.1902 6.40565 30.6746 7.64595 30.6746 9.01899C30.6746 10.0886 30.9839 11.0631 31.6 11.9331C31.7026 12.0756 31.7483 12.2377 31.7483 12.4071C31.7483 12.5745 31.6949 12.7455 31.5876 12.8862C30.9023 13.8451 30.5361 15.0006 30.5361 16.2305V29.3633C30.5773 29.6812 30.604 30.0042 30.604 30.339C30.604 30.4883 30.596 30.6421 30.5857 30.7873Z" fill="#FEFEFE"/>
<path id="Fill-6" fill-rule="evenodd" clip-rule="evenodd" d="M62.1086 13.2556C60.3381 11.5341 58.0054 10.6615 55.1844 10.6615C53.6298 10.6615 52.2324 10.9371 51.0496 11.4763C50.8183 11.5768 50.5446 11.5753 50.3181 11.452C49.5872 11.0662 48.7531 10.8725 47.8327 10.8725C46.2849 10.8725 44.9296 11.4852 44.0039 12.604C43.1825 13.5942 42.749 14.8449 42.749 16.2307V30.052C42.749 31.4357 43.1825 32.6888 44.0062 33.6861C44.9177 34.7984 46.2849 35.4105 47.8265 35.4105C49.3743 35.4105 50.7379 34.7984 51.658 33.6796C52.471 32.6888 52.9004 31.4357 52.9004 30.052V20.9812L52.9303 20.6387C52.9579 20.1907 53.2948 19.9184 53.7446 19.9353L53.8632 19.9439C54.2895 19.9661 54.6139 20.2458 54.635 20.6716L54.654 20.9812V30.052C54.654 31.4334 55.0869 32.6888 55.9052 33.6796C56.8256 34.7984 58.1848 35.4105 59.7294 35.4105C61.2825 35.4105 62.6355 34.7984 63.5535 33.6861C64.376 32.6888 64.8086 31.4334 64.8086 30.052V25.2739C64.7389 24.6014 64.6944 23.924 64.6944 23.2123C64.6944 22.564 64.7389 21.9228 64.8086 21.2988V20.1252C64.8086 17.3039 63.8968 14.9942 62.1086 13.2556Z" fill="#FEFEFE"/>
<path id="Fill-8" fill-rule="evenodd" clip-rule="evenodd" d="M70.5176 33.421C70.7032 33.5798 70.8111 33.811 70.8111 34.0527C70.8111 34.1058 70.8072 34.1594 70.7945 34.2071C70.7456 34.5061 70.5347 34.7455 70.2495 34.8364C68.3836 35.4595 67.0347 37.3624 67.0347 39.3677C67.0347 41.9327 69.083 44.0939 71.5002 44.0939H77.3189C81.0295 44.0939 84.0237 43.1046 86.2247 41.1508C88.8793 38.7671 89.8228 34.4616 89.8228 31.2195V16.2305C89.8228 14.8492 89.3967 13.5941 88.576 12.6021C87.6559 11.4853 86.2988 10.8723 84.7531 10.8723C83.7882 10.8723 82.9165 11.0871 82.1524 11.5138C81.9119 11.6521 81.6255 11.6554 81.3773 11.5321C80.2375 10.9588 78.8987 10.6616 77.4037 10.6616C74.0407 10.6616 71.1613 12.0755 69.0958 14.7558L69.0913 14.7644C67.6242 16.6841 66.7441 18.9111 66.458 21.3973V25.2021C66.7296 27.5932 67.4694 29.6865 68.7068 31.4335C69.2168 32.1742 69.8252 32.8415 70.5176 33.421Z" fill="#FEFEFE"/>
<path id="Fill-10" fill-rule="evenodd" clip-rule="evenodd" d="M23.872 25.4774H19.8887C19.5788 25.4774 19.2951 25.3046 19.1563 25.0279C19.0125 24.7505 19.0401 24.4169 19.2191 24.1656C19.2191 24.1656 26.9969 13.4054 26.9913 13.4083C27.8144 12.2454 28.2334 10.9905 28.2334 9.68268C28.2334 8.08387 27.5784 6.70283 26.3974 5.79498C25.397 5.02046 24.1252 4.61365 22.7195 4.61365H9.52321C8.19099 4.61365 6.98359 5.09454 6.02764 6.00357C5.03996 6.94283 4.52136 8.16861 4.52136 9.55231C4.52136 10.9864 5.08918 12.2622 6.12074 13.1307C7.04734 13.9218 8.22657 14.3348 9.52321 14.3348H12.5307C12.8421 14.3348 13.1258 14.5105 13.2649 14.7876C13.4108 15.0608 13.3841 15.3947 13.2062 15.6477C13.2062 15.6477 5.3258 26.6365 5.32906 26.6279C5.07554 26.9932 4.86353 27.3591 4.70964 27.7129L4.68652 27.7532C4.33989 28.5645 4.16406 29.3677 4.16406 30.1336C4.16406 31.7132 4.81965 33.0862 6.01341 34.0113C7.0257 34.7911 8.28913 35.203 9.67384 35.203H23.872C25.1458 35.203 26.3339 34.7645 27.3151 33.9061C28.2358 33.1031 28.8015 32.0436 28.9234 30.8531C28.8961 30.5902 28.8825 30.3274 28.8825 30.0519V29.4439C28.5157 27.0071 26.6358 25.4774 23.872 25.4774Z" fill="#FEFEFE"/>
<path id="Fill-12" fill-rule="evenodd" clip-rule="evenodd" d="M33.1549 9.01886C33.1549 8.3042 33.4081 7.69086 33.9113 7.18923C34.4162 6.68345 35.0288 6.42627 35.7532 6.42627C36.4675 6.42627 37.0839 6.68345 37.5877 7.18923C38.0918 7.69086 38.342 8.3042 38.342 9.01886C38.342 9.74242 38.0918 10.3516 37.5877 10.8559C37.0839 11.362 36.4675 11.6138 35.7532 11.6138C35.0288 11.6138 34.4162 11.362 33.9113 10.8559C33.4081 10.3516 33.1549 9.74242 33.1549 9.01886ZM33.0176 30.052V16.2304C33.0176 15.4147 33.2417 14.7303 33.7022 14.1821C34.158 13.6289 34.7919 13.3498 35.6144 13.3498C36.4263 13.3498 37.0632 13.6289 37.5183 14.1821C37.9755 14.7303 38.2059 15.4147 38.2059 16.2304V30.052C38.2059 30.8669 37.9755 31.551 37.5183 32.1072C37.0632 32.6603 36.4263 32.9335 35.6144 32.9335C34.7919 32.9335 34.158 32.6603 33.7022 32.1072C33.2417 31.551 33.0176 30.8669 33.0176 30.052Z" fill="#49A942"/>
<path id="Fill-14" fill-rule="evenodd" clip-rule="evenodd" d="M45.2344 30.0521V16.2307C45.2344 15.4147 45.4618 14.7306 45.9187 14.1821C46.3742 13.629 47.0096 13.3498 47.8324 13.3498C49.1759 13.3498 49.97 13.9786 50.2137 15.2198C51.2423 13.8393 52.9004 13.1418 55.1841 13.1418C57.349 13.1418 59.0791 13.7685 60.379 15.026C61.6733 16.29 62.328 17.9913 62.328 20.1253V30.0521C62.328 30.8722 62.0946 31.5513 61.641 32.1075C61.1828 32.6604 60.5477 32.9338 59.729 32.9338C58.9181 32.9338 58.2821 32.6604 57.8216 32.1075C57.3641 31.5513 57.1381 30.8669 57.1381 30.0521V20.9813C57.1381 19.9057 56.8381 19.0423 56.2569 18.41C55.6633 17.7774 54.8268 17.4521 53.7443 17.4521C52.7094 17.4521 51.8934 17.786 51.3049 18.45C50.7151 19.1081 50.4195 19.9534 50.4195 20.9813V30.0521C50.4195 30.8669 50.1968 31.5513 49.7313 32.1075C49.2826 32.6604 48.6416 32.9338 47.8262 32.9338C47.0096 32.9338 46.3706 32.6604 45.9187 32.1075C45.4618 31.5513 45.2344 30.8669 45.2344 30.0521Z" fill="#F37A20"/>
<path id="Fill-16" fill-rule="evenodd" clip-rule="evenodd" d="M82.1604 23.2844C82.1604 21.8752 81.836 20.6633 81.1872 19.663C80.4451 18.4977 79.3954 17.9078 78.049 17.9078C76.779 17.9078 75.7652 18.466 75.0242 19.5975C74.3532 20.5975 74.0179 21.7596 74.0179 23.0725C74.0179 24.4802 74.3254 25.6743 74.9519 26.6577C75.6751 27.8017 76.7087 28.3762 78.049 28.3762C79.3954 28.3762 80.4451 27.8355 81.1872 26.7635C81.836 25.8322 82.1604 24.674 82.1604 23.2844ZM71.5011 41.6147C70.4218 41.6147 69.5195 40.5362 69.5195 39.3676C69.5195 38.199 70.5807 37.1238 71.4525 37.1238H77.3195C78.6449 37.1238 80.1503 36.7561 80.9542 36.0358C81.7565 35.3045 82.1604 33.2411 82.1604 31.9356V30.7107C80.9868 32.3285 79.2057 33.1424 76.8276 33.1424C74.21 33.1424 72.184 32.0965 70.7396 30.0118C69.4623 28.2162 68.8271 25.9498 68.8271 23.2124C68.8271 20.5276 69.5747 18.2159 71.0643 16.2749C72.6714 14.1863 74.7835 13.1418 77.4043 13.1418C79.5873 13.1418 81.1786 13.9315 82.1604 15.5048C82.4699 14.0687 83.3364 13.3498 84.7537 13.3498C85.5679 13.3498 86.2072 13.629 86.66 14.1821C87.1181 14.7303 87.3428 15.4189 87.3428 16.2304V31.2195C87.3428 34.239 86.4183 37.6396 84.5758 39.2989C82.8157 40.8541 80.3964 41.6147 77.3195 41.6147H71.5011Z" fill="#ED2B74"/>
<path id="Fill-18" fill-rule="evenodd" clip-rule="evenodd" d="M13.4213 27.9566H23.8722C25.6029 27.9566 26.4678 28.7583 26.4678 30.3391C26.4678 31.0137 26.2045 31.5817 25.6815 32.0437C25.151 32.497 24.5503 32.726 23.8722 32.726H9.67399C8.83012 32.726 8.11493 32.497 7.52547 32.0437C6.93511 31.585 6.64453 30.9486 6.64453 30.1337C6.64453 29.6961 6.74742 29.2363 6.96625 28.7296C7.06499 28.5139 7.19812 28.289 7.36268 28.0455L18.9729 11.8535H9.52336C8.80847 11.8535 8.20507 11.6523 7.72591 11.2369C7.24319 10.8366 7.00598 10.2674 7.00598 9.55241C7.00598 8.85197 7.24853 8.26412 7.74667 7.80012C8.23532 7.32871 8.83012 7.08752 9.52336 7.08752H22.7193C23.5822 7.08752 24.3101 7.31152 24.8827 7.75656C25.4585 8.20041 25.7449 8.84041 25.7449 9.68278C25.7449 10.4763 25.4846 11.2369 24.963 11.982L13.4213 27.9566Z" fill="#009CDB"/>
<path id="Fill-20" fill-rule="evenodd" clip-rule="evenodd" d="M29.9579 12.4071C29.2656 13.5428 28.8825 14.8492 28.8825 16.2305V25.8101C27.6884 24.5618 25.9458 23.827 23.8717 23.827H21.5103C22.9641 21.8021 28.3428 14.3727 28.3428 14.3727C28.937 13.5227 29.3557 12.6355 29.6104 11.7096C29.7136 11.9443 29.8275 12.1801 29.9579 12.4071ZM28.9231 30.853C28.8012 32.0435 28.2355 33.1034 27.3148 33.9064C26.3337 34.7644 25.1455 35.2032 23.8717 35.2032H9.67356C8.28885 35.2032 7.02541 34.7911 6.01312 34.0112C4.81937 33.0862 4.16378 31.7132 4.16378 30.1336C4.16378 29.3677 4.33991 28.5644 4.68623 27.7532L4.70936 27.7129C4.86325 27.3591 5.07555 26.9935 5.32877 26.6278C5.32551 26.6364 13.2059 15.648 13.2059 15.648C13.3841 15.3947 13.4105 15.061 13.2646 14.7875C13.1255 14.5105 12.8418 14.3348 12.5307 14.3348H9.52323C8.22628 14.3348 7.04706 13.9221 6.12046 13.1307C5.08889 12.2625 4.52108 10.9864 4.52108 9.55228C4.52108 8.16858 5.03967 6.9431 6.02735 6.00384C6.9836 5.0948 8.1907 4.61391 9.52323 4.61391H22.7192C24.1249 4.61391 25.3967 5.02073 26.3971 5.79525C27.5784 6.7031 28.2334 8.08414 28.2334 9.68265C28.2334 10.9905 27.8141 12.2456 26.991 13.4083C26.9967 13.4056 19.2189 24.1659 19.2189 24.1659C19.0398 24.4169 19.0122 24.7505 19.156 25.0281C19.2948 25.3046 19.5785 25.4773 19.8887 25.4773H23.8717C26.6355 25.4773 28.5154 27.0071 28.8825 29.4438C28.9231 29.7321 28.9536 30.0299 28.9536 30.3392C28.9536 30.5138 28.9409 30.6847 28.9231 30.853ZM35.6145 35.4107C34.0628 35.4107 32.7069 34.7982 31.7883 33.6859C31.1208 32.8755 30.7105 31.8809 30.5853 30.7872C30.5954 30.6421 30.6037 30.4883 30.6037 30.3392C30.6037 30.0044 30.577 29.6812 30.5358 29.3635V16.2305C30.5358 15.0006 30.902 13.8453 31.5872 12.8865C31.6946 12.7455 31.748 12.5745 31.748 12.4071C31.748 12.2376 31.7023 12.0755 31.5997 11.933C30.9836 11.0631 30.6743 10.0886 30.6743 9.01895C30.6743 7.64591 31.1896 6.40591 32.1545 5.43228H32.1598C33.13 4.46073 34.3709 3.94784 35.7529 3.94784C37.1252 3.94784 38.3714 4.46369 39.3437 5.43228C40.3083 6.40591 40.8271 7.64591 40.8271 9.01895C40.8271 10.1434 40.469 11.1778 39.768 12.0871C39.5521 12.3632 39.5444 12.7561 39.7401 13.0533C40.3667 13.9926 40.6884 15.061 40.6884 16.2305V30.0521C40.6884 31.4358 40.2504 32.6972 39.4312 33.6859C38.5117 34.7982 37.1531 35.4107 35.6145 35.4107ZM64.8084 30.0521C64.8084 31.4335 64.3758 32.6889 63.5533 33.6859C62.6353 34.7982 61.2823 35.4107 59.7289 35.4107C58.1843 35.4107 56.8251 34.7982 55.9051 33.6797C55.0867 32.6889 54.6538 31.4335 54.6538 30.0521V20.981L54.6348 20.6717C54.6137 20.2459 54.2894 19.9662 53.863 19.944L53.7444 19.9354C53.2946 19.9185 52.9574 20.1908 52.9302 20.6388L52.9002 20.981V30.0521C52.9002 31.4358 52.4709 32.6889 51.6578 33.6797C50.7377 34.7982 49.3741 35.4107 47.826 35.4107C46.2847 35.4107 44.9175 34.7982 44.0057 33.6859C43.1823 32.6889 42.7488 31.4358 42.7488 30.0521V16.2305C42.7488 14.845 43.1823 13.5941 44.0037 12.6041C44.9294 11.4853 46.2847 10.8723 47.8322 10.8723C48.7529 10.8723 49.587 11.0664 50.3179 11.4518C50.5444 11.5754 50.8181 11.5769 51.0491 11.4761C52.2322 10.9372 53.6296 10.6616 55.1842 10.6616C58.0052 10.6616 60.3379 11.5342 62.1084 13.2557C63.8966 14.9941 64.8084 17.3037 64.8084 20.125V21.299C64.7387 21.923 64.694 22.5638 64.694 23.2124C64.694 23.9241 64.7387 24.6012 64.8084 25.2741V30.0521ZM89.823 31.2195C89.823 34.4616 88.8795 38.7671 86.2249 41.1508C84.0239 43.1046 81.0297 44.0936 77.3191 44.0936H71.5004C69.0832 44.0936 67.0349 41.9324 67.0349 39.3677C67.0349 37.3624 68.3837 35.4595 70.2497 34.8364C70.5349 34.7455 70.7458 34.5061 70.7947 34.2071C70.8074 34.1594 70.8113 34.1055 70.8113 34.0527C70.8113 33.8109 70.7034 33.5798 70.5177 33.421C69.8254 32.8415 69.2169 32.1742 68.7069 31.4335C67.4696 29.6865 66.7298 27.5932 66.4582 25.2021C66.387 24.5579 66.3458 23.899 66.3458 23.2124C66.3458 22.5881 66.387 21.9855 66.4582 21.3973C66.7443 18.9111 67.6244 16.6841 69.0915 14.7644L69.096 14.7558C71.1615 12.0755 74.0409 10.6616 77.4039 10.6616C78.8989 10.6616 80.2377 10.9588 81.3775 11.5318C81.6257 11.6554 81.9121 11.6521 82.1526 11.5138C82.9167 11.0868 83.7884 10.8723 84.7533 10.8723C86.299 10.8723 87.6561 11.4853 88.5762 12.6021C89.3969 13.5941 89.823 14.8492 89.823 16.2305V31.2195ZM89.855 11.5547C88.6124 10.0483 86.8016 9.21599 84.7533 9.21599C83.6591 9.21599 82.6498 9.44976 81.7336 9.89717C80.4488 9.31495 78.9997 9.0068 77.4039 9.0068C73.5042 9.0068 70.1753 10.6441 67.7898 13.7505L67.7771 13.7606C67.0649 14.688 66.4804 15.6797 66.0203 16.7265C65.523 14.9327 64.5985 13.3692 63.2648 12.0675C61.1699 10.0409 58.4476 9.0068 55.1842 9.0068C53.5398 9.0068 52.0477 9.29332 50.7312 9.82932C49.8524 9.43169 48.878 9.21599 47.8322 9.21599C45.7819 9.21599 43.9645 10.0483 42.7272 11.5547C42.3014 12.0607 41.9539 12.6355 41.6986 13.2429C41.6002 13.0347 41.5056 12.8261 41.3864 12.6228C42.0915 11.5342 42.4802 10.312 42.4802 9.01895C42.4802 7.19139 41.8018 5.54873 40.5149 4.2631C39.2251 2.97865 37.5735 2.29688 35.7529 2.29688C33.9249 2.29688 32.2755 2.97865 30.9883 4.2631L30.9835 4.2711C30.2011 5.04443 29.6475 5.95969 29.3385 6.96562C28.9148 5.99643 28.2705 5.14784 27.4106 4.48443C26.1119 3.4871 24.4899 2.96117 22.7192 2.96117H9.52323C7.7575 2.96117 6.15307 3.59999 4.88727 4.80562C3.56483 6.06458 2.86773 7.7031 2.86773 9.55228C2.86773 11.4815 3.64103 13.1958 5.04827 14.3955C6.27405 15.4379 7.82688 15.9878 9.52323 15.9878H10.918C9.46066 18.0189 3.97609 25.6693 3.97609 25.6693C3.66089 26.1298 3.39403 26.5858 3.18855 27.0432C3.18677 27.0557 3.17106 27.1004 3.17106 27.1004C2.734 28.1206 2.50391 29.141 2.50391 30.1336C2.50391 32.2355 3.39403 34.0809 5.00261 35.3173C6.29955 36.3241 7.9188 36.859 9.67356 36.859H23.8717C25.5532 36.859 27.1161 36.2708 28.3914 35.1523C28.937 34.6924 29.3833 34.1523 29.732 33.563C29.9555 33.9784 30.2108 34.3724 30.5151 34.7369C31.7515 36.2412 33.5653 37.0658 35.6145 37.0658C37.6616 37.0658 39.4718 36.237 40.7106 34.7369C41.1263 34.2391 41.4623 33.6859 41.7214 33.0907C41.9838 33.6797 42.3103 34.2391 42.7272 34.7369C43.9645 36.237 45.775 37.0658 47.826 37.0658C49.882 37.0658 51.6896 36.237 52.9302 34.7315C53.2756 34.3173 53.5398 33.864 53.7823 33.3795C54.0136 33.864 54.2894 34.3173 54.6306 34.7315C55.8701 36.237 57.6838 37.0658 59.7289 37.0658C61.7784 37.0658 63.5936 36.237 64.8318 34.7369C65.735 33.6352 66.2758 32.3013 66.4223 30.832C66.6978 31.3677 67.0023 31.8859 67.3477 32.3816C67.705 32.8948 68.1207 33.3704 68.5596 33.8302C66.6735 34.9627 65.3851 37.1123 65.3851 39.3677C65.3851 42.8278 68.1866 45.7496 71.5004 45.7496H77.3191C81.4516 45.7496 84.8126 44.6172 87.3211 42.3861C90.3852 39.6355 91.4823 34.8154 91.4823 31.2195V16.2305C91.4823 14.4554 90.9174 12.8421 89.855 11.5547Z" fill="#B8B8B8"/>
<path id="Fill-22" fill-rule="evenodd" clip-rule="evenodd" d="M89.8551 11.5546C88.6127 10.0483 86.8016 9.21597 84.7533 9.21597C83.6592 9.21597 82.6498 9.44974 81.7336 9.89715C80.4488 9.31493 78.9998 9.00678 77.404 9.00678C73.5042 9.00678 70.1753 10.6441 67.7899 13.7505L67.7771 13.7606C67.0649 14.688 66.4805 15.6797 66.0203 16.7265C65.523 14.9327 64.5985 13.3692 63.2648 12.0675C61.17 10.0409 58.4477 9.00678 55.1843 9.00678C53.5398 9.00678 52.0478 9.2933 50.7313 9.8293C49.8524 9.43137 48.8781 9.21597 47.8323 9.21597C45.7819 9.21597 43.9646 10.0483 42.7272 11.5546C42.3014 12.0607 41.9539 12.6352 41.6986 13.2429C41.6002 13.0346 41.5056 12.826 41.3867 12.6225C42.0915 11.5342 42.4805 10.312 42.4805 9.01893C42.4805 7.19137 41.8018 5.54871 40.515 4.26308C39.2251 2.97863 37.5736 2.29685 35.7533 2.29685C33.925 2.29685 32.2758 2.97863 30.9883 4.26308L30.9836 4.27108C30.2011 5.04441 29.6475 5.95967 29.3385 6.96559C28.9151 5.99641 28.2705 5.14752 27.4106 4.48441C26.1119 3.48708 24.49 2.96115 22.7192 2.96115H9.52327C7.75754 2.96115 6.15312 3.59997 4.88731 4.80559C3.56487 6.06456 2.86777 7.70308 2.86777 9.55226C2.86777 11.4814 3.64107 13.1958 5.04831 14.3955C6.27409 15.4379 7.82692 15.9878 9.52327 15.9878H10.9181C9.4607 18.0189 3.97613 25.6693 3.97613 25.6693C3.66123 26.1297 3.39408 26.5854 3.18859 27.0432C3.18681 27.0557 3.1711 27.1004 3.1711 27.1004C2.73404 28.1206 2.50395 29.141 2.50395 30.1336C2.50395 32.2355 3.39408 34.0809 5.00265 35.3173C6.29989 36.3241 7.91884 36.8589 9.6736 36.8589H23.8718C25.5533 36.8589 27.1162 36.2708 28.3915 35.1523C28.9371 34.6924 29.3833 34.1523 29.732 33.5629C29.9556 33.9783 30.2109 34.3724 30.5151 34.7369C31.7516 36.2411 33.5653 37.0657 35.6145 37.0657C37.6616 37.0657 39.4721 36.237 40.7107 34.7369C41.1264 34.2391 41.4623 33.6859 41.7215 33.0906C41.9839 33.6797 42.3103 34.2391 42.7272 34.7369C43.9646 36.237 45.7751 37.0657 47.826 37.0657C49.8821 37.0657 51.6896 36.237 52.9302 34.7315C53.2756 34.3173 53.5398 33.864 53.7824 33.3795C54.0137 33.864 54.2894 34.3173 54.631 34.7315C55.8701 36.237 57.6839 37.0657 59.7289 37.0657C61.7787 37.0657 63.5936 36.237 64.8319 34.7369C65.7351 33.6349 66.2762 32.3013 66.4224 30.832C66.6978 31.3677 67.0023 31.8859 67.3478 32.3816C67.7051 32.8945 68.1208 33.3703 68.5596 33.8302C66.6735 34.9626 65.3855 37.1123 65.3855 39.3677C65.3855 42.8278 68.1866 45.7496 71.5007 45.7496H77.3192C81.4516 45.7496 84.8126 44.6171 87.3211 42.386C90.3852 39.6355 91.4823 34.8154 91.4823 31.2195V16.2305C91.4823 14.4554 90.9175 12.842 89.8551 11.5546ZM35.7533 0.290039C38.0848 0.290039 40.2769 1.197 41.9361 2.845C43.1056 4.01508 43.9121 5.48204 44.2697 7.08056L44.2958 7.20411C44.3373 7.36441 44.4378 7.50071 44.5766 7.58337C44.7251 7.66456 44.8944 7.69093 45.0474 7.64145L45.1711 7.60559C46.0206 7.34604 46.9155 7.21211 47.8323 7.21211C48.734 7.21211 49.6395 7.35137 50.5279 7.61656C50.5213 7.61656 50.5542 7.62722 50.5542 7.62722C50.674 7.66456 50.7947 7.66456 50.9113 7.62693L50.9433 7.61034C52.2539 7.21093 53.6872 7.00115 55.1843 7.00115C58.9352 7.00115 62.2175 8.25626 64.6688 10.6299C65.0154 10.9763 65.3706 11.362 65.7078 11.7783L65.7926 11.8874C65.905 12.0254 66.066 12.1114 66.2397 12.114C66.4138 12.1164 66.5792 12.04 66.6978 11.9069L66.7933 11.7994C69.4924 8.70485 73.2629 7.00115 77.404 7.00115C78.8406 7.00115 80.2282 7.22426 81.5198 7.64796L81.5504 7.66456C81.6693 7.69982 81.7953 7.69982 81.9204 7.66456L81.9608 7.65004C82.8758 7.36352 83.8119 7.21211 84.7533 7.21211C87.4166 7.21211 89.7747 8.30219 91.402 10.2729C92.7728 11.9283 93.4894 13.9872 93.4894 16.2305V31.2195C93.4894 33.1721 93.1395 39.858 88.6613 43.8829C85.7691 46.448 81.9563 47.7552 77.3192 47.7552H71.5007C67.0934 47.7552 63.3739 43.9126 63.3739 39.3677V39.1801C63.3739 38.9863 63.2841 38.818 63.1314 38.7054C62.9808 38.5955 62.7848 38.5552 62.6036 38.621L62.4488 38.6619C61.5857 38.9386 60.6653 39.0731 59.7289 39.0731C57.6607 39.0731 55.761 38.408 54.2331 37.1526L54.1471 37.0844C53.933 36.9087 53.6202 36.9087 53.4008 37.0844L53.3311 37.1526C51.7999 38.408 49.9022 39.0731 47.826 39.0731C45.6784 39.0731 43.7232 38.3739 42.1822 37.0403L42.101 36.9766C41.8786 36.7857 41.5498 36.7857 41.3324 36.9766L41.2574 37.0403C39.7123 38.3739 37.7607 39.0731 35.6145 39.0731C33.5102 39.0731 31.5873 38.3961 30.0635 37.1238C30.0582 37.1238 29.99 37.0613 29.99 37.0613C29.7809 36.8832 29.4735 36.8749 29.2534 37.0403L29.1829 37.1028C27.6404 38.253 25.8041 38.8654 23.8718 38.8654H9.6736C7.46726 38.8654 5.42844 38.1905 3.77954 36.9096C1.69091 35.3016 0.498047 32.834 0.498047 30.1336C0.498047 28.8634 0.780029 27.5739 1.32531 26.2942L1.36445 26.2189C1.61501 25.6554 1.93731 25.0874 2.32189 24.5345C2.32189 24.5386 6.73665 18.3834 6.73665 18.3834C6.84458 18.2329 6.87186 18.0432 6.81878 17.8622C6.76541 17.6883 6.63376 17.5505 6.4609 17.4871L6.3159 17.434C5.37062 17.0794 4.50837 16.5694 3.74811 15.9253C1.88424 14.3422 0.856233 12.0755 0.856233 9.55226C0.856233 7.17508 1.79706 4.97922 3.49785 3.35582C5.15002 1.78248 7.23034 0.954039 9.52327 0.954039H22.7192C24.9318 0.954039 26.9831 1.62248 28.637 2.89626L28.726 2.96115C28.9584 3.13952 29.2926 3.12115 29.5007 2.90959L29.5752 2.83611C31.2211 1.18752 33.4159 0.290039 35.7533 0.290039Z" fill="#FEFEFE"/>
</g>
<g id="Group-12">
<path id="news" d="M98.8452 33.1041C99.1773 33.1041 99.4511 32.9964 99.6665 32.7812C99.8909 32.5569 100.003 32.234 100.003 31.8124V23.7395C100.003 22.9771 100.169 22.3357 100.501 21.8155C100.807 21.2504 101.219 20.8467 101.74 20.6045C102.261 20.3265 102.822 20.1874 103.423 20.1874C104.357 20.1874 105.156 20.5014 105.82 21.1293C106.484 21.7392 106.816 22.5914 106.816 23.6857V31.8124C106.816 32.1892 106.933 32.4762 107.166 32.6735C107.4 32.8888 107.678 32.9964 108.001 32.9964C108.342 32.9964 108.625 32.8978 108.849 32.7004C109.092 32.4852 109.213 32.1892 109.213 31.8124V23.6319C109.213 22.4389 108.975 21.4073 108.499 20.5372C108.024 19.6851 107.386 19.0527 106.587 18.6401C105.842 18.2365 104.999 18.0346 104.056 18.0346C103.239 18.0346 102.494 18.2006 101.821 18.5325C101.085 18.8913 100.497 19.3667 100.057 19.9587L100.003 19.9049V19.3263C100.003 18.9227 99.882 18.6042 99.6396 18.371C99.4242 18.1468 99.1414 18.0346 98.7913 18.0346C98.4592 18.0346 98.1787 18.149 97.9498 18.3777C97.7209 18.6065 97.6064 18.9227 97.6064 19.3263V31.8124C97.6064 32.1802 97.7366 32.4941 97.9969 32.7543C98.2303 32.9875 98.5131 33.1041 98.8452 33.1041ZM116.994 33.0503C118.125 33.0503 119.194 32.8395 120.199 32.4179C121.24 31.9515 122.003 31.4491 122.488 30.9109C122.721 30.6418 122.838 30.3458 122.838 30.0229C122.838 29.7449 122.766 29.5072 122.623 29.3098C122.488 29.1035 122.277 29.0004 121.99 29.0004C121.774 29.0004 121.469 29.1484 121.074 29.4444C119.898 30.458 118.583 30.9648 117.129 30.9648C116.321 30.9648 115.576 30.7988 114.894 30.4669C114.203 30.1261 113.673 29.6193 113.305 28.9465C112.901 28.3097 112.686 27.4934 112.659 26.4977H121.815C122.721 26.4977 123.175 26.1031 123.175 25.3137C123.175 24.1207 122.905 22.9457 122.367 21.7885C121.837 20.6583 121.074 19.7479 120.078 19.0572C119.126 18.3755 118.004 18.0346 116.712 18.0346C115.419 18.0616 114.292 18.4203 113.332 19.111C112.372 19.7927 111.626 20.7032 111.097 21.8424C110.576 22.9636 110.289 24.1566 110.235 25.4214V25.4483C110.235 25.4483 110.226 25.4666 110.208 25.5032L110.181 25.5559C110.208 26.5247 110.338 27.3992 110.572 28.1796C110.814 29.0228 111.209 29.8301 111.757 30.6015C112.268 31.328 112.977 31.9156 113.884 32.3641C114.737 32.8215 115.774 33.0503 116.994 33.0503ZM120.738 24.6544H112.659C112.722 23.2192 113.13 22.107 113.884 21.3176C114.611 20.5283 115.594 20.1336 116.833 20.1336C118.009 20.1605 118.956 20.5821 119.674 21.3984C120.356 22.2146 120.711 23.3 120.738 24.6544ZM137.513 33.0503C138.124 33.0503 138.573 32.6556 138.86 31.8662L142.993 19.7972C143.074 19.555 143.115 19.3622 143.115 19.2187C143.115 18.8599 143.002 18.5684 142.778 18.3441C142.554 18.1378 142.289 18.0346 141.984 18.0346C141.319 18.0346 140.884 18.3934 140.678 19.111L137.513 29.2829H137.459L134.174 19.0572C133.959 18.3037 133.546 17.927 132.935 17.927C132.693 17.927 132.446 18.0257 132.195 18.223C131.97 18.4203 131.804 18.6984 131.697 19.0572L128.465 29.3367L128.411 29.2829L125.18 18.9496C125.018 18.3755 124.587 18.0885 123.887 18.0885C123.564 18.0885 123.29 18.1916 123.066 18.3979C122.823 18.5773 122.702 18.833 122.702 19.1648C122.702 19.1559 122.72 19.2411 122.756 19.4205C122.792 19.5999 122.81 19.6896 122.81 19.6896L126.89 31.5971C127.087 32.1264 127.298 32.5121 127.523 32.7543C127.738 32.9516 128.016 33.0503 128.357 33.0503C128.716 33.0503 129.017 32.9426 129.259 32.7273C129.475 32.539 129.677 32.1264 129.865 31.4895L132.935 21.9231H132.989L136.1 31.7048C136.261 32.1981 136.454 32.548 136.679 32.7543C136.894 32.9516 137.172 33.0503 137.513 33.0503ZM148.028 33.0503C149.249 33.0234 150.241 32.8126 151.004 32.4179C151.812 31.9963 152.418 31.4716 152.821 30.8437C153.216 30.2517 153.427 29.5565 153.454 28.7582C153.454 27.8881 153.216 27.1615 152.741 26.5785C152.265 25.9954 151.484 25.4797 150.398 25.0312C150.138 24.9235 149.693 24.7576 149.065 24.5333C148.419 24.3091 147.88 24.0983 147.449 23.901C147.045 23.7395 146.637 23.4839 146.224 23.134C145.901 22.8201 145.69 22.4344 145.591 21.9769C145.618 21.4567 145.86 21.0171 146.318 20.6583C146.731 20.3085 147.382 20.1336 148.27 20.1336C148.728 20.1605 149.078 20.2323 149.321 20.3489C149.743 20.5552 150.182 20.7929 150.64 21.062C151.116 21.358 151.569 21.5733 152 21.7078C152.296 21.663 152.552 21.5419 152.768 21.3445C152.965 21.1472 153.064 20.9095 153.064 20.6314C153.064 20.2547 152.871 19.878 152.485 19.5012C152.063 19.0976 151.448 18.7567 150.64 18.4787C149.832 18.1826 148.962 18.0346 148.028 18.0346C147.166 18.0616 146.327 18.2634 145.51 18.6401C144.819 18.9899 144.258 19.4788 143.827 20.1067C143.423 20.7436 143.221 21.4118 143.221 22.1115C143.221 22.8829 143.441 23.5377 143.881 24.0759C144.249 24.5423 144.738 24.946 145.349 25.2868C146.013 25.5918 146.803 25.9326 147.718 26.3094C148.715 26.7041 149.424 27.0315 149.846 27.2916C150.6 27.7401 150.977 28.2917 150.977 28.9465C150.977 29.6462 150.672 30.153 150.061 30.4669C149.442 30.7988 148.746 30.9648 147.974 30.9648C147.202 30.9109 146.52 30.7271 145.928 30.4131C145.631 30.2337 145.384 30.0767 145.187 29.9422C144.774 29.6462 144.487 29.4533 144.325 29.3636C144.101 29.2381 143.863 29.1753 143.612 29.1753C143.315 29.1753 143.069 29.2739 142.871 29.4713C142.665 29.6955 142.561 29.9512 142.561 30.2382C142.642 30.7854 142.862 31.18 143.221 31.4222C144.496 32.5076 146.098 33.0503 148.028 33.0503Z" fill="#7C7C7C"/>
</g>
</g>
</g>
</g>
</g>
</g>
<defs>
<clipPath id="clip0_773_24150">
<rect width="153" height="48" fill="white" transform="translate(0.5)"/>
</clipPath>
</defs>
</svg>
