<svg width="33" height="35" viewBox="0 0 33 35" fill="none" xmlns="http://www.w3.org/2000/svg">
<path d="M14.3477 0C13.9576 0 13.6686 0.102493 13.6686 0.483086C13.6686 1.34674 15.489 2.41531 17.6707 4.34755C20.3436 6.66039 23.0164 10.3346 23.0164 14.2869C23.0164 19.6884 17.4829 22.1037 17.4829 27.4613C17.4829 32.2919 20.3724 35 24.7068 35C29.0412 35 33 32.3944 33 24.3727C33.0144 10.7152 18.0897 0 14.3477 0ZM2.71705 3.67421C2.62696 3.6622 2.5354 3.67133 2.44937 3.70092C2.36333 3.73051 2.28513 3.77976 2.22088 3.84486C2.15664 3.90995 2.10803 3.98913 2.07882 4.0763C2.04961 4.16347 2.0406 4.25629 2.05245 4.34755C2.05245 5.88457 6.38684 8.10961 6.38684 13.0281C6.38684 17.9465 0.000869751 19.2054 0.000869751 24.2263C-0.0128212 25.0413 0.135509 25.8508 0.437065 26.6066C0.738625 27.3623 1.18724 28.0488 1.75616 28.6252C2.32507 29.2016 3.00266 29.6561 3.74857 29.9616C4.49448 30.2672 5.29346 30.4175 6.09791 30.4036C10.779 30.4036 13.6253 26.7441 13.6253 21.811C13.6686 10.8616 4.99982 3.67421 2.71705 3.67421Z" fill="#005488"/>
</svg>
