<svg width="33" height="35" viewBox="0 0 33 35" fill="none" xmlns="http://www.w3.org/2000/svg">
<path d="M18.6523 0C19.0424 0 19.3314 0.102493 19.3314 0.483086C19.3314 1.34674 17.511 2.41531 15.3293 4.34755C12.6564 6.66039 9.98355 10.3346 9.98355 14.2869C9.98355 19.6884 15.5171 22.1037 15.5171 27.4613C15.5171 32.2919 12.6276 35 8.29317 35C3.95878 35 1.04826e-05 32.3944 1.04826e-05 24.3727C-0.0144375 10.7152 14.9103 0 18.6523 0ZM30.283 3.67421C30.373 3.6622 30.4646 3.67133 30.5506 3.70092C30.6367 3.73051 30.7149 3.77976 30.7791 3.84486C30.8434 3.90995 30.892 3.98913 30.9212 4.0763C30.9504 4.16347 30.9594 4.25629 30.9475 4.34755C30.9475 5.88457 26.6132 8.10961 26.6132 13.0281C26.6132 17.9465 32.9991 19.2054 32.9991 24.2263C33.0128 25.0413 32.8645 25.8508 32.5629 26.6066C32.2614 27.3623 31.8128 28.0488 31.2438 28.6252C30.6749 29.2016 29.9973 29.6561 29.2514 29.9616C28.5055 30.2672 27.7065 30.4175 26.9021 30.4036C22.221 30.4036 19.3747 26.7441 19.3747 21.811C19.3314 10.8616 28.0002 3.67421 30.283 3.67421Z" fill="#094875"/>
</svg>
