<svg width="24" height="24" viewBox="0 0 24 24" fill="none" xmlns="http://www.w3.org/2000/svg">
<mask id="mask0_460_3339" style="mask-type:alpha" maskUnits="userSpaceOnUse" x="1" y="0" width="22" height="24">
<path fill-rule="evenodd" clip-rule="evenodd" d="M19.6193 18.755C19.7907 21.3028 19.2615 22.3257 18.4646 22.7631C18.2393 22.8775 17.9689 22.9462 17.6761 22.9462C16.1215 22.9462 13.1476 21.1387 12.0211 20.4295C10.8496 21.2302 8.03334 23.0606 6.45626 23.0606C6.00567 23.0606 5.6452 22.9233 5.37484 22.6716C5.05188 22.3437 4.60067 21.8724 4.57273 20.236C4.51089 19.545 4.53362 18.5793 4.69937 17.2046C4.79603 16.3703 4.92724 15.571 5.0436 14.9575C4.62501 14.6019 4.07191 14.1007 3.50487 13.5428C1.79262 11.8727 0.823838 10.0881 1.0266 9.24154C1.03721 9.20308 1.05118 9.16731 1.06889 9.13378C1.07554 9.09324 1.08413 9.05327 1.09462 9.01385C1.25233 8.419 1.81557 7.70974 4.83455 6.84033C5.91598 6.52002 6.97488 6.29123 7.51559 6.17683C7.78595 5.69637 8.30413 4.7812 8.91243 3.86604C10.5796 1.28069 11.4132 0.9375 11.999 0.9375C12.8777 0.9375 13.7113 1.80691 14.8377 3.7974C15.2397 4.53599 15.5928 5.25807 15.8281 5.7392C15.8698 5.82441 15.9078 5.90207 15.9417 5.97092C16.5275 6.08532 17.654 6.35987 18.848 6.70306C22.0698 7.6411 22.7006 8.37324 22.9034 8.96809C22.9295 9.04764 22.9484 9.12883 22.9601 9.21188C23.2123 10.0961 22.2483 11.8962 20.65 13.4742C20.1319 13.9828 19.6138 14.4511 19.2174 14.7863C19.3201 15.4477 19.4405 16.3416 19.5239 17.2732C19.5755 17.8184 19.6073 18.3111 19.6193 18.755Z" fill="#FF9900"/>
</mask>
<g mask="url(#mask0_460_3339)">
<path fill-rule="evenodd" clip-rule="evenodd" d="M19.6193 18.755C19.7907 21.3028 19.2615 22.3257 18.4646 22.7631C18.2393 22.8775 17.9689 22.9462 17.6761 22.9462C16.1215 22.9462 13.1476 21.1387 12.0211 20.4295C10.8496 21.2302 8.03334 23.0606 6.45626 23.0606C6.00567 23.0606 5.6452 22.9233 5.37484 22.6716C5.05188 22.3437 4.60067 21.8724 4.57273 20.236C4.51089 19.545 4.53362 18.5793 4.69937 17.2046C4.79603 16.3703 4.92724 15.571 5.0436 14.9575C4.62501 14.6019 4.07191 14.1007 3.50487 13.5428C1.79262 11.8727 0.823838 10.0881 1.0266 9.24154C1.03721 9.20308 1.05118 9.16731 1.06889 9.13378C1.07554 9.09324 1.08413 9.05327 1.09462 9.01385C1.25233 8.419 1.81557 7.70974 4.83455 6.84033C5.91598 6.52002 6.97488 6.29123 7.51559 6.17683C7.78595 5.69637 8.30413 4.7812 8.91243 3.86604C10.5796 1.28069 11.4132 0.9375 11.999 0.9375C12.8777 0.9375 13.7113 1.80691 14.8377 3.7974C15.2397 4.53599 15.5928 5.25807 15.8281 5.7392C15.8698 5.82441 15.9078 5.90207 15.9417 5.97092C16.5275 6.08532 17.654 6.35987 18.848 6.70306C22.0698 7.6411 22.7006 8.37324 22.9034 8.96809C22.9295 9.04764 22.9484 9.12883 22.9601 9.21188C23.2123 10.0961 22.2483 11.8962 20.65 13.4742C20.1319 13.9828 19.6138 14.4511 19.2174 14.7863C19.3201 15.4477 19.4405 16.3416 19.5239 17.2732C19.5755 17.8184 19.6073 18.3111 19.6193 18.755Z" fill="#FFD731"/>
<g style="mix-blend-mode:multiply" opacity="0.4">
<path d="M12.75 31.5C4.20006 13.4016 13.6875 5.48361 19.5 3.78689V-3H-3V31.5H12.75Z" fill="#FFD731"/>
</g>
</g>
</svg>
