<svg width="90" height="161" viewBox="0 0 90 161" fill="none" xmlns="http://www.w3.org/2000/svg">
<line y1="-0.25" x2="50.148" y2="-0.25" transform="matrix(-4.37114e-08 1 1 4.37114e-08 45 90.8535)" stroke="black" stroke-width="0.5"/>
<circle cx="44.9243" cy="45.7778" r="44.9243" fill="#20BEC6"/>
<circle cx="44.9251" cy="150.779" r="9.42513" fill="white" stroke="#20BEC6"/>
<circle cx="44.9252" cy="150.779" r="6.79088" fill="#FFA800"/>
<path d="M52.4999 30.3535C52.4999 26.2113 49.1421 22.8535 44.9999 22.8535C40.8578 22.8535 37.5 26.2113 37.5 30.3535C37.5 34.4957 40.8578 37.8535 44.9999 37.8535C49.1421 37.8535 52.4999 34.4957 52.4999 30.3535ZM43.2492 41.6894C38.614 38.8519 31.1062 38.0722 27.3281 37.8574C26.0586 37.7855 25 38.7527 25 39.9738V57.38C25 58.4995 25.9055 59.4331 27.0695 59.4933C30.4805 59.6722 37.3812 60.3276 42.1507 62.73C42.8828 63.0987 43.7507 62.5964 43.7507 61.8026V42.5847C43.75 42.2199 43.5695 41.8855 43.2492 41.6894ZM62.6718 37.8574C58.8944 38.0714 51.3859 38.8519 46.7515 41.6894C46.4312 41.8855 46.2507 42.2332 46.2507 42.598V61.8003C46.2507 62.5964 47.121 63.0995 47.8554 62.73C52.6241 60.33 59.521 59.6745 62.9311 59.4956C64.0952 59.4347 65.0007 58.5011 65.0007 57.3815V39.9738C64.9999 38.7527 63.9413 37.7855 62.6718 37.8574Z" fill="white"/>
</svg>
