<svg width="90" height="162" viewBox="0 0 90 162" fill="none" xmlns="http://www.w3.org/2000/svg">
<circle cx="44.7878" cy="151.101" r="9.42513" fill="white" stroke="#20BEC6"/>
<circle cx="44.7878" cy="151.101" r="6.79088" fill="#FFA800"/>
<line x1="45.0602" y1="141.176" x2="45.0602" y2="91.0277" stroke="black" stroke-width="0.5"/>
<circle cx="44.9243" cy="45.7778" r="44.9243" fill="#20BEC6"/>
<path d="M28.9717 65.0537H27.6003C26.8729 65.0537 26.1752 64.7647 25.6608 64.2503C25.1465 63.736 24.8575 63.0383 24.8575 62.3109V33.5114C24.8575 32.7839 25.1465 32.0863 25.6608 31.5719C26.1752 31.0575 26.8729 30.7686 27.6003 30.7686H28.9717C29.6991 30.7686 30.3968 31.0575 30.9112 31.5719C31.4255 32.0863 31.7145 32.7839 31.7145 33.5114V62.3109C31.7145 63.0383 31.4255 63.736 30.9112 64.2503C30.3968 64.7647 29.6991 65.0537 28.9717 65.0537Z" fill="white"/>
<path d="M44.0571 38.9977C44.0571 38.2703 43.7682 37.5726 43.2538 37.0582C42.7394 36.5439 42.0418 36.2549 41.3143 36.2549H35.8287C35.1013 36.2549 34.4036 36.5439 33.8893 37.0582C33.3749 37.5726 33.0859 38.2703 33.0859 38.9977V41.3977C33.0859 41.4886 33.122 41.5758 33.1863 41.6401C33.2506 41.7044 33.3378 41.7405 33.4288 41.7405H43.7143C43.8052 41.7405 43.8924 41.7044 43.9567 41.6401C44.021 41.5758 44.0571 41.4886 44.0571 41.3977V38.9977Z" fill="white"/>
<path d="M33.0859 62.3102C33.0859 63.0376 33.3749 63.7353 33.8893 64.2497C34.4036 64.764 35.1013 65.053 35.8287 65.053H41.3143C42.0418 65.053 42.7394 64.764 43.2538 64.2497C43.7682 63.7353 44.0571 63.0376 44.0571 62.3102V59.7388C44.0571 59.6933 44.0391 59.6497 44.0069 59.6176C43.9748 59.5854 43.9312 59.5674 43.8857 59.5674H33.2573C33.2119 59.5674 33.1683 59.5854 33.1361 59.6176C33.104 59.6497 33.0859 59.6933 33.0859 59.7388V62.3102Z" fill="white"/>
<path d="M43.8857 44.4824H33.2573C33.1627 44.4824 33.0859 44.5592 33.0859 44.6538V56.6536C33.0859 56.7483 33.1627 56.8251 33.2573 56.8251H43.8857C43.9804 56.8251 44.0571 56.7483 44.0571 56.6536V44.6538C44.0571 44.5592 43.9804 44.4824 43.8857 44.4824Z" fill="white"/>
<path d="M50.9142 65.0536H48.1714C47.4439 65.0536 46.7463 64.7647 46.2319 64.2503C45.7175 63.7359 45.4286 63.0383 45.4286 62.3108V29.3971C45.4286 28.6697 45.7175 27.972 46.2319 27.4576C46.7463 26.9433 47.4439 26.6543 48.1714 26.6543H50.9142C51.6416 26.6543 52.3393 26.9433 52.8536 27.4576C53.368 27.972 53.657 28.6697 53.657 29.3971V62.3108C53.657 63.0383 53.368 63.7359 52.8536 64.2503C52.3393 64.7647 51.6416 65.0536 50.9142 65.0536Z" fill="white"/>
<path d="M65.9903 62.0917L63.2277 32.9493C63.1009 31.6079 61.7758 30.6351 60.2681 30.7799L57.5381 31.0371C56.0304 31.1802 54.911 32.3836 55.0379 33.725L57.8004 62.8674C57.9273 64.2088 59.2524 65.1816 60.7601 65.0368L63.49 64.7796C64.9977 64.6365 66.1171 63.4331 65.9903 62.0917Z" fill="white"/>
</svg>
