<svg width="90" height="165" viewBox="0 0 90 165" fill="none" xmlns="http://www.w3.org/2000/svg">
<circle cx="44.9251" cy="10.2494" r="9.42513" fill="white" stroke="#20BEC6"/>
<circle cx="44.9251" cy="10.2499" r="6.79088" fill="#FFA800"/>
<line x1="45.2499" y1="20.1738" x2="45.2499" y2="70.3219" stroke="black" stroke-width="0.5"/>
<circle cx="45.0756" cy="119.425" r="44.9243" transform="rotate(-180 45.0756 119.425)" fill="#20BEC6"/>
<path d="M28.9717 138.399H27.6003C26.8729 138.399 26.1752 138.11 25.6608 137.596C25.1465 137.082 24.8575 136.384 24.8575 135.657V106.857C24.8575 106.13 25.1465 105.432 25.6608 104.918C26.1752 104.403 26.8729 104.114 27.6003 104.114H28.9717C29.6991 104.114 30.3968 104.403 30.9112 104.918C31.4255 105.432 31.7145 106.13 31.7145 106.857V135.657C31.7145 136.384 31.4255 137.082 30.9112 137.596C30.3968 138.11 29.6991 138.399 28.9717 138.399Z" fill="white"/>
<path d="M44.0572 112.343C44.0572 111.616 43.7682 110.918 43.2538 110.404C42.7395 109.89 42.0418 109.601 41.3144 109.601H35.8287C35.1013 109.601 34.4037 109.89 33.8893 110.404C33.3749 110.918 33.0859 111.616 33.0859 112.343V114.743C33.0859 114.834 33.1221 114.921 33.1864 114.986C33.2507 115.05 33.3379 115.086 33.4288 115.086H43.7143C43.8053 115.086 43.8925 115.05 43.9568 114.986C44.0211 114.921 44.0572 114.834 44.0572 114.743V112.343Z" fill="white"/>
<path d="M33.0859 135.656C33.0859 136.383 33.3749 137.081 33.8893 137.595C34.4037 138.11 35.1013 138.399 35.8287 138.399H41.3144C42.0418 138.399 42.7395 138.11 43.2538 137.595C43.7682 137.081 44.0572 136.383 44.0572 135.656V133.085C44.0572 133.039 44.0391 132.995 44.007 132.963C43.9748 132.931 43.9312 132.913 43.8858 132.913H33.2574C33.2119 132.913 33.1683 132.931 33.1361 132.963C33.104 132.995 33.0859 133.039 33.0859 133.085V135.656Z" fill="white"/>
<path d="M43.8858 117.828H33.2574C33.1627 117.828 33.0859 117.905 33.0859 118V129.999C33.0859 130.094 33.1627 130.171 33.2574 130.171H43.8858C43.9804 130.171 44.0572 130.094 44.0572 129.999V118C44.0572 117.905 43.9804 117.828 43.8858 117.828Z" fill="white"/>
<path d="M50.9141 138.399H48.1713C47.4439 138.399 46.7463 138.11 46.2319 137.596C45.7175 137.082 45.4285 136.384 45.4285 135.657V102.743C45.4285 102.015 45.7175 101.318 46.2319 100.803C46.7463 100.289 47.4439 100 48.1713 100H50.9141C51.6416 100 52.3392 100.289 52.8536 100.803C53.368 101.318 53.657 102.015 53.657 102.743V135.657C53.657 136.384 53.368 137.082 52.8536 137.596C52.3392 138.11 51.6416 138.399 50.9141 138.399Z" fill="white"/>
<path d="M65.9903 135.437L63.2277 106.295C63.1009 104.954 61.7758 103.981 60.2681 104.126L57.5381 104.383C56.0304 104.526 54.911 105.729 55.0379 107.071L57.8004 136.213C57.9273 137.554 59.2524 138.527 60.7601 138.382L63.49 138.125C64.9977 137.982 66.1171 136.779 65.9903 135.437Z" fill="white"/>
</svg>
