<svg width="91" height="165" viewBox="0 0 91 165" fill="none" xmlns="http://www.w3.org/2000/svg">
<circle cx="45.3382" cy="10.2494" r="9.42513" fill="white" stroke="#20BEC6"/>
<circle cx="45.3382" cy="10.2499" r="6.79088" fill="#FFA800"/>
<line x1="44.6631" y1="20.1738" x2="44.6631" y2="70.3219" stroke="black" stroke-width="0.5"/>
<circle cx="45.4888" cy="119.425" r="44.9243" transform="rotate(-180 45.4888 119.425)" fill="#20BEC6"/>
<path d="M66.6458 105.944H58.6111V102.854C58.6111 101.827 57.7845 101 56.7569 101H35.7431C34.7155 101 33.8889 101.827 33.8889 102.854V105.944H25.8542C24.8266 105.944 24 106.771 24 107.799V112.125C24 114.883 25.7383 117.718 28.7822 119.905C31.2158 121.659 34.1747 122.771 37.2805 123.126C39.7063 127.151 42.5417 128.812 42.5417 128.812V134.375H38.8333C36.1062 134.375 33.8889 135.974 33.8889 138.701V139.628C33.8889 140.138 34.3061 140.556 34.816 140.556H57.684C58.1939 140.556 58.6111 140.138 58.6111 139.628V138.701C58.6111 135.974 56.3938 134.375 53.6667 134.375H49.9583V128.812C49.9583 128.812 52.7937 127.151 55.2195 123.126C58.333 122.771 61.2919 121.659 63.7178 119.905C66.754 117.718 68.5 114.883 68.5 112.125V107.799C68.5 106.771 67.6734 105.944 66.6458 105.944ZM31.6716 115.895C29.7865 114.535 28.9444 113.021 28.9444 112.125V110.889H33.9043C33.9816 113.407 34.3524 115.617 34.8932 117.548C33.7266 117.147 32.6373 116.59 31.6716 115.895ZM63.5556 112.125C63.5556 113.369 62.1881 114.914 60.8284 115.895C59.8627 116.59 58.7656 117.147 57.599 117.548C58.1398 115.617 58.5107 113.407 58.5879 110.889H63.5556V112.125Z" fill="white"/>
</svg>
