<svg width="91" height="165" viewBox="0 0 91 165" fill="none" xmlns="http://www.w3.org/2000/svg">
<circle cx="45.228" cy="10.1029" r="9.42513" fill="white" stroke="#20BEC6"/>
<circle cx="45.228" cy="10.1034" r="6.79088" fill="#FFA800"/>
<line x1="46.0005" y1="20.0273" x2="46.0005" y2="70.1754" stroke="black" stroke-width="0.5"/>
<circle cx="45.7505" cy="119.279" r="44.9243" transform="rotate(-180 45.7505 119.279)" fill="#20BEC6"/>
<path d="M45.0779 131.623C44.8101 131.623 44.5469 131.553 44.3144 131.42L30.8475 123.723C30.7305 123.656 30.5978 123.62 30.4627 123.62C30.3275 123.62 30.1948 123.656 30.0778 123.723C29.9609 123.791 29.8638 123.888 29.7964 124.005C29.7289 124.123 29.6935 124.255 29.6937 124.39V131.623C29.6935 131.898 29.7668 132.167 29.9059 132.404C30.0451 132.641 30.245 132.836 30.485 132.969L44.3308 140.661C44.5593 140.788 44.8164 140.855 45.0779 140.855C45.3393 140.855 45.5964 140.788 45.825 140.661L59.6707 132.969C59.9107 132.836 60.1107 132.641 60.2499 132.404C60.389 132.167 60.4623 131.898 60.462 131.623V124.39C60.4622 124.255 60.4268 124.123 60.3594 124.005C60.292 123.888 60.1949 123.791 60.0779 123.723C59.961 123.656 59.8282 123.62 59.6931 123.62C59.558 123.62 59.4252 123.656 59.3082 123.723L45.8413 131.42C45.6088 131.553 45.3457 131.623 45.0779 131.623Z" fill="white"/>
<path d="M68.1464 114.555C68.1464 114.555 68.1464 114.547 68.1464 114.544C68.1215 114.301 68.0388 114.066 67.905 113.861C67.7712 113.655 67.5902 113.485 67.3772 113.364L45.8394 101.056C45.6069 100.923 45.3438 100.854 45.076 100.854C44.8082 100.854 44.545 100.923 44.3125 101.056L22.7747 113.364C22.5393 113.498 22.3437 113.693 22.2076 113.927C22.0715 114.162 21.9999 114.428 21.9999 114.699C21.9999 114.97 22.0715 115.237 22.2076 115.471C22.3437 115.706 22.5393 115.9 22.7747 116.035L44.3125 128.342C44.545 128.475 44.8082 128.545 45.076 128.545C45.3438 128.545 45.6069 128.475 45.8394 128.342L64.7888 117.514C64.8181 117.498 64.8514 117.489 64.8852 117.489C64.919 117.489 64.9522 117.498 64.9815 117.515C65.0107 117.532 65.035 117.556 65.0518 117.585C65.0686 117.615 65.0774 117.648 65.0773 117.682V131.578C65.0773 132.406 65.7138 133.117 66.5417 133.158C66.7497 133.168 66.9576 133.136 67.1527 133.063C67.3479 132.991 67.5262 132.879 67.677 132.735C67.8277 132.592 67.9478 132.419 68.0298 132.227C68.1118 132.036 68.1541 131.83 68.1541 131.622V114.699C68.154 114.651 68.1514 114.603 68.1464 114.555Z" fill="white"/>
</svg>
