<svg width="90" height="165" viewBox="0 0 90 165" fill="none" xmlns="http://www.w3.org/2000/svg">
<circle cx="44.9251" cy="154.101" r="9.42513" fill="white" stroke="#20BEC6"/>
<circle cx="44.9252" cy="154.101" r="6.79088" fill="#FFA800"/>
<line x1="44.75" y1="144.176" x2="44.75" y2="94.0277" stroke="black" stroke-width="0.5"/>
<circle cx="44.9243" cy="44.9243" r="44.9243" fill="#20BEC6"/>
<path d="M42.5395 35.856L36.1936 25.28C35.9327 24.845 35.5635 24.4849 35.1221 24.2349C34.6807 23.9849 34.182 23.8535 33.6747 23.8535H23.4714C22.2827 23.8535 21.5868 25.191 22.268 26.165L32.4822 40.757C35.2105 38.2078 38.6804 36.4582 42.5395 35.856ZM67.5286 23.8535H57.3253C56.2935 23.8535 55.337 24.3951 54.8064 25.28L48.4605 35.856C52.3196 36.4582 55.7895 38.2078 58.5177 40.7561L68.732 26.165C69.4132 25.191 68.7173 23.8535 67.5286 23.8535ZM45.5 38.5411C36.5773 38.5411 29.3437 45.7747 29.3437 54.6974C29.3437 63.62 36.5773 70.8536 45.5 70.8536C54.4227 70.8536 61.6563 63.62 61.6563 54.6974C61.6563 45.7747 54.4227 38.5411 45.5 38.5411ZM53.9931 52.9771L50.5112 56.3699L51.3346 61.1635C51.4815 62.0228 50.5764 62.6791 49.8062 62.2734L45.5 60.0106L41.1947 62.2734C40.4236 62.6819 39.5194 62.0218 39.6663 61.1635L40.4897 56.3699L37.0078 52.9771C36.3818 52.3675 36.7279 51.3036 37.5908 51.1788L42.4037 50.4774L44.5545 46.1152C44.7482 45.7223 45.1227 45.5287 45.4982 45.5287C45.8755 45.5287 46.2527 45.7251 46.4464 46.1152L48.5972 50.4774L53.4102 51.1788C54.2731 51.3036 54.6191 52.3675 53.9931 52.9771Z" fill="white"/>
</svg>
